<svg xmlns="http://www.w3.org/2000/svg" xmlns:xlink="http://www.w3.org/1999/xlink" viewBox="0 0 450 450"><defs><style>.cls-1{fill:#f7413b;}.cls-2{fill:#5fc2ed;}.cls-3{fill:#70d4ff;}.cls-4{fill:none;}.cls-5{fill:url(#linear-gradient);}.cls-6{isolation:isolate;}.cls-10,.cls-7{mix-blend-mode:multiply;}.cls-7{fill:url(#radial-gradient);}.cls-8{fill:url(#linear-gradient-2);}.cls-9{fill:#f0f0f0;}.cls-10{fill:url(#linear-gradient-3);}.cls-11{fill:#282736;}.cls-12{fill:#b3b4b8;}.cls-13{fill:#323142;}.cls-14{fill:#743af0;}.cls-15{fill:#7b40f7;}.cls-16{fill:#79778c;}.cls-17{fill:url(#linear-gradient-4);}.cls-18{fill:url(#linear-gradient-5);}.cls-19{fill:url(#linear-gradient-6);}.cls-20{fill:url(#linear-gradient-7);}.cls-21{fill:url(#linear-gradient-8);}.cls-22{fill:url(#linear-gradient-9);}.cls-23{fill:url(#linear-gradient-10);}.cls-24{fill:url(#linear-gradient-11);}.cls-25{fill:url(#linear-gradient-12);}.cls-26{fill:url(#linear-gradient-13);}.cls-27{fill:url(#linear-gradient-14);}.cls-28{fill:url(#linear-gradient-15);}.cls-29{fill:url(#linear-gradient-16);}.cls-30{fill:url(#linear-gradient-17);}.cls-31{fill:url(#linear-gradient-18);}.cls-32{fill:url(#linear-gradient-19);}.cls-33{fill:url(#linear-gradient-20);}.cls-34{fill:url(#linear-gradient-21);}.cls-35{fill:url(#linear-gradient-22);}.cls-36{fill:url(#linear-gradient-23);}.cls-37{fill:url(#linear-gradient-24);}.cls-38{fill:url(#linear-gradient-25);}.cls-39{fill:url(#linear-gradient-26);}.cls-40{fill:url(#linear-gradient-27);}.cls-41{fill:url(#linear-gradient-28);}.cls-42{fill:url(#linear-gradient-29);}.cls-43{fill:url(#linear-gradient-30);}.cls-44{fill:url(#linear-gradient-31);}.cls-45{fill:url(#linear-gradient-32);}.cls-46{fill:url(#linear-gradient-33);}.cls-47{fill:url(#linear-gradient-34);}.cls-48{fill:url(#linear-gradient-35);}.cls-49{fill:url(#linear-gradient-36);}.cls-50{fill:url(#linear-gradient-37);}.cls-51{fill:url(#linear-gradient-38);}.cls-52{fill:url(#linear-gradient-39);}.cls-53{fill:url(#linear-gradient-40);}.cls-54{fill:url(#linear-gradient-41);}.cls-55{fill:url(#linear-gradient-42);}.cls-56{fill:url(#linear-gradient-43);}.cls-57{fill:url(#linear-gradient-44);}.cls-58{fill:url(#linear-gradient-45);}.cls-59{fill:url(#linear-gradient-46);}.cls-60{fill:url(#linear-gradient-47);}.cls-61{fill:url(#linear-gradient-48);}.cls-62{fill:url(#linear-gradient-49);}.cls-63{fill:url(#linear-gradient-50);}.cls-64{fill:url(#linear-gradient-51);}.cls-65{fill:url(#linear-gradient-52);}.cls-66{fill:url(#linear-gradient-53);}.cls-67{fill:url(#linear-gradient-54);}.cls-68{fill:url(#linear-gradient-55);}.cls-69{fill:url(#linear-gradient-56);}.cls-70{fill:url(#linear-gradient-57);}.cls-71{fill:url(#linear-gradient-58);}.cls-72{fill:url(#linear-gradient-59);}.cls-73{fill:url(#linear-gradient-60);}.cls-74{fill:url(#linear-gradient-61);}.cls-75{fill:url(#linear-gradient-62);}.cls-76{fill:url(#linear-gradient-63);}.cls-77{fill:url(#linear-gradient-64);}.cls-78{fill:url(#linear-gradient-65);}.cls-79{fill:url(#linear-gradient-66);}.cls-80{fill:url(#linear-gradient-67);}.cls-81{fill:url(#linear-gradient-68);}.cls-82{fill:url(#linear-gradient-69);}.cls-83{fill:url(#linear-gradient-70);}.cls-84{fill:url(#linear-gradient-71);}.cls-85{fill:url(#linear-gradient-72);}.cls-86{fill:url(#linear-gradient-73);}.cls-87{fill:url(#linear-gradient-74);}.cls-88{fill:url(#linear-gradient-75);}.cls-89{fill:url(#linear-gradient-76);}.cls-90{fill:url(#linear-gradient-77);}.cls-91{fill:url(#linear-gradient-78);}.cls-92{fill:url(#linear-gradient-79);}.cls-93{fill:url(#linear-gradient-80);}.cls-94{fill:url(#linear-gradient-81);}.cls-95{fill:url(#linear-gradient-82);}.cls-96{fill:url(#linear-gradient-83);}.cls-97{fill:url(#linear-gradient-84);}.cls-98{fill:#cbcdd4;}.cls-99{fill:#656375;}.cls-100{fill:url(#linear-gradient-85);}.cls-101{fill:#9894a3;}.cls-102{fill:#817c94;}.cls-103{fill:url(#linear-gradient-86);}.cls-104{fill:url(#linear-gradient-87);}.cls-105{fill:url(#linear-gradient-88);}.cls-106{fill:#a8a4b5;}.cls-107{fill:url(#linear-gradient-89);}.cls-108{fill:#9f9bab;}.cls-109{fill:#b9b4c4;}.cls-110{fill:#d7cfde;}.cls-111{fill:url(#linear-gradient-90);}.cls-112{fill:#dbd3e2;}.cls-113{fill:url(#linear-gradient-91);}.cls-114{fill:#c1bbcb;}.cls-115{fill:#cfc8d7;}.cls-116{fill:#aca7b8;}.cls-117{fill:url(#linear-gradient-92);}.cls-118{fill:#64cfff;}.cls-119{fill:url(#linear-gradient-93);}.cls-120{fill:url(#linear-gradient-94);}.cls-121{fill:url(#linear-gradient-95);}.cls-122{fill:url(#linear-gradient-96);}.cls-123{fill:url(#linear-gradient-97);}.cls-124{fill:url(#linear-gradient-98);}.cls-125{fill:#4c4a5b;}.cls-126{fill:url(#linear-gradient-99);}.cls-127{fill:#403f54;}.cls-128{clip-path:url(#clip-path);}.cls-129{fill:#ffe36d;}.cls-130{clip-path:url(#clip-path-2);}.cls-131{fill:#edd25d;}.cls-132{clip-path:url(#clip-path-3);}.cls-133{fill:url(#linear-gradient-100);}.cls-134{opacity:0.7;}.cls-135{fill:#ffe161;}.cls-136{fill:url(#linear-gradient-101);}.cls-137{fill:#fce06a;}.cls-138{fill:#fff;}.cls-139{fill:#64ff96;}.cls-140{fill:url(#linear-gradient-102);}.cls-141{fill:#5fed8c;}.cls-142{fill:#7affa6;}.cls-143{fill:#70ff9d;}.cls-144{fill:#51ed83;}.cls-145{fill:#66ff97;}.cls-146{fill:url(#linear-gradient-103);}.cls-147{opacity:0.98;}.cls-148{fill:#66d1ff;}.cls-149{fill:#51bded;}.cls-150{fill:url(#linear-gradient-104);}.cls-151{clip-path:url(#clip-path-4);}.cls-152{clip-path:url(#clip-path-5);}.cls-153{clip-path:url(#clip-path-6);}.cls-154{clip-path:url(#clip-path-7);}.cls-155{clip-path:url(#clip-path-8);}.cls-156{fill:url(#linear-gradient-106);}.cls-157{fill:#ff61ee;}.cls-158{fill:url(#linear-gradient-107);}.cls-159{fill:#ff63ef;}.cls-160{fill:#ed5dde;}.cls-161{fill:#ff6df0;}.cls-162{fill:#ff64b5;}.cls-163{fill:url(#linear-gradient-108);}.cls-164{fill:#ed8600;}.cls-165{fill:#ff8400;}.cls-166{fill:#f90;}.cls-167{fill:#ff7200;}.cls-168{fill:#ffb30f;}.cls-169{fill:#bc9eff;}</style><linearGradient id="linear-gradient" x1="-2923.12" y1="228.84" x2="-2913.27" y2="228.84" gradientTransform="matrix(-1, 0, 0, 1, -2538.89, 0)" gradientUnits="userSpaceOnUse"><stop offset="0.17" stop-color="#5fc2ed"/><stop offset="1" stop-color="#70d4ff"/></linearGradient><radialGradient id="radial-gradient" cx="569.38" cy="6434.74" r="171.61" gradientTransform="matrix(-1, -0.01, 0, 0.58, 816.92, -3375.24)" gradientUnits="userSpaceOnUse"><stop offset="0.39" stop-color="#4f5059"/><stop offset="0.46" stop-color="#686870"/><stop offset="0.65" stop-color="#a8a9ad"/><stop offset="0.81" stop-color="#d7d7d9"/><stop offset="0.93" stop-color="#f4f4f5"/><stop offset="1" stop-color="#fff"/></radialGradient><linearGradient id="linear-gradient-2" x1="395.96" y1="295.4" x2="742.8" y2="295.4" gradientTransform="matrix(-1, -0.01, -0.01, 1, 798.43, 3.09)" gradientUnits="userSpaceOnUse"><stop offset="0.07" stop-color="#c9c9c9"/><stop offset="0.51" stop-color="#dfdfdf"/><stop offset="0.94" stop-color="#c9c9c9"/></linearGradient><linearGradient id="linear-gradient-3" x1="601.55" y1="352.65" x2="527.04" y2="223.59" gradientTransform="matrix(-1, 0, 0, 1, 796.84, 0)" gradientUnits="userSpaceOnUse"><stop offset="0.08" stop-color="#eee"/><stop offset="0.99" stop-color="#f5f5f5"/></linearGradient><linearGradient id="linear-gradient-4" x1="611.85" y1="326.25" x2="557.92" y2="232.83" gradientTransform="matrix(-1, 0, 0, 1, 796.84, 0)" gradientUnits="userSpaceOnUse"><stop offset="0.13" stop-color="#e5e6eb"/><stop offset="0.76" stop-color="#dddee3"/><stop offset="1" stop-color="#d9dade"/></linearGradient><linearGradient id="linear-gradient-5" x1="609.12" y1="327.14" x2="548.05" y2="233.11" gradientTransform="matrix(-1, 0, 0, 1, 796.84, 0)" gradientUnits="userSpaceOnUse"><stop offset="0.21" stop-color="#cbcdd4"/><stop offset="0.8" stop-color="#c1c3c9"/></linearGradient><linearGradient id="linear-gradient-6" x1="596.37" y1="335.42" x2="535.3" y2="241.39" xlink:href="#linear-gradient-5"/><linearGradient id="linear-gradient-7" x1="457.13" y1="311.5" x2="712.63" y2="311.5" gradientTransform="matrix(-1, 0, 0, 1, 796.84, 0)" gradientUnits="userSpaceOnUse"><stop offset="0.37" stop-color="#97999c"/><stop offset="0.39" stop-color="#b3b4b8"/><stop offset="0.41" stop-color="#c8c9ce"/><stop offset="0.43" stop-color="#c0c1c5"/><stop offset="0.43" stop-color="#bdbfc2"/></linearGradient><linearGradient id="linear-gradient-8" x1="610.1" y1="228.62" x2="608.34" y2="225.56" gradientTransform="matrix(-1, 0, 0, 1, 796.84, 0)" gradientUnits="userSpaceOnUse"><stop offset="0.14" stop-color="#4d4c66"/><stop offset="0.9" stop-color="#323142"/></linearGradient><linearGradient id="linear-gradient-9" x1="617.11" y1="234.61" x2="613.32" y2="228.04" xlink:href="#linear-gradient-8"/><linearGradient id="linear-gradient-10" x1="601.47" y1="233.64" x2="599.71" y2="230.58" xlink:href="#linear-gradient-8"/><linearGradient id="linear-gradient-11" x1="607.81" y1="240.01" x2="604.02" y2="233.45" xlink:href="#linear-gradient-8"/><linearGradient id="linear-gradient-12" x1="592.84" y1="238.65" x2="591.07" y2="235.6" xlink:href="#linear-gradient-8"/><linearGradient id="linear-gradient-13" x1="599.18" y1="245.03" x2="595.39" y2="238.47" xlink:href="#linear-gradient-8"/><linearGradient id="linear-gradient-14" x1="584.21" y1="243.67" x2="582.44" y2="240.61" xlink:href="#linear-gradient-8"/><linearGradient id="linear-gradient-15" x1="590.55" y1="250.04" x2="586.76" y2="243.48" xlink:href="#linear-gradient-8"/><linearGradient id="linear-gradient-16" x1="575.57" y1="248.68" x2="573.81" y2="245.63" xlink:href="#linear-gradient-8"/><linearGradient id="linear-gradient-17" x1="581.92" y1="255.06" x2="578.13" y2="248.5" xlink:href="#linear-gradient-8"/><linearGradient id="linear-gradient-18" x1="566.94" y1="253.7" x2="565.18" y2="250.65" xlink:href="#linear-gradient-8"/><linearGradient id="linear-gradient-19" x1="573.28" y1="260.08" x2="569.5" y2="253.51" xlink:href="#linear-gradient-8"/><linearGradient id="linear-gradient-20" x1="558.31" y1="258.72" x2="556.55" y2="255.66" xlink:href="#linear-gradient-8"/><linearGradient id="linear-gradient-21" x1="564.65" y1="265.09" x2="560.86" y2="258.53" xlink:href="#linear-gradient-8"/><linearGradient id="linear-gradient-22" x1="549.68" y1="263.73" x2="547.92" y2="260.68" xlink:href="#linear-gradient-8"/><linearGradient id="linear-gradient-23" x1="556.02" y1="270.11" x2="552.23" y2="263.55" xlink:href="#linear-gradient-8"/><linearGradient id="linear-gradient-24" x1="541.05" y1="268.75" x2="539.28" y2="265.69" xlink:href="#linear-gradient-8"/><linearGradient id="linear-gradient-25" x1="547.39" y1="275.12" x2="543.6" y2="268.56" xlink:href="#linear-gradient-8"/><linearGradient id="linear-gradient-26" x1="532.42" y1="273.76" x2="530.65" y2="270.71" xlink:href="#linear-gradient-8"/><linearGradient id="linear-gradient-27" x1="538.76" y1="280.14" x2="534.97" y2="273.58" xlink:href="#linear-gradient-8"/><linearGradient id="linear-gradient-28" x1="523.78" y1="278.78" x2="522.02" y2="275.73" xlink:href="#linear-gradient-8"/><linearGradient id="linear-gradient-29" x1="530.13" y1="285.16" x2="526.34" y2="278.6" xlink:href="#linear-gradient-8"/><linearGradient id="linear-gradient-30" x1="515.15" y1="283.8" x2="513.39" y2="280.74" xlink:href="#linear-gradient-8"/><linearGradient id="linear-gradient-31" x1="521.49" y1="290.17" x2="517.71" y2="283.61" xlink:href="#linear-gradient-8"/><linearGradient id="linear-gradient-32" x1="506.52" y1="288.81" x2="504.76" y2="285.76" xlink:href="#linear-gradient-8"/><linearGradient id="linear-gradient-33" x1="512.86" y1="295.19" x2="509.08" y2="288.63" xlink:href="#linear-gradient-8"/><linearGradient id="linear-gradient-34" x1="497.22" y1="294.22" x2="495.46" y2="291.16" xlink:href="#linear-gradient-8"/><linearGradient id="linear-gradient-35" x1="504.23" y1="300.2" x2="500.44" y2="293.64" xlink:href="#linear-gradient-8"/><linearGradient id="linear-gradient-36" x1="623.98" y1="240.75" x2="620.19" y2="234.18" xlink:href="#linear-gradient-8"/><linearGradient id="linear-gradient-37" x1="612.74" y1="247.21" x2="608.96" y2="240.65" xlink:href="#linear-gradient-8"/><linearGradient id="linear-gradient-38" x1="604.11" y1="252.22" x2="600.32" y2="245.66" xlink:href="#linear-gradient-8"/><linearGradient id="linear-gradient-39" x1="595.48" y1="257.24" x2="591.69" y2="250.68" xlink:href="#linear-gradient-8"/><linearGradient id="linear-gradient-40" x1="586.85" y1="262.26" x2="583.06" y2="255.7" xlink:href="#linear-gradient-8"/><linearGradient id="linear-gradient-41" x1="578.22" y1="267.27" x2="574.43" y2="260.71" xlink:href="#linear-gradient-8"/><linearGradient id="linear-gradient-42" x1="569.59" y1="272.29" x2="565.8" y2="265.73" xlink:href="#linear-gradient-8"/><linearGradient id="linear-gradient-43" x1="560.96" y1="277.3" x2="557.17" y2="270.74" xlink:href="#linear-gradient-8"/><linearGradient id="linear-gradient-44" x1="552.32" y1="282.32" x2="548.54" y2="275.76" xlink:href="#linear-gradient-8"/><linearGradient id="linear-gradient-45" x1="543.69" y1="287.34" x2="539.9" y2="280.78" xlink:href="#linear-gradient-8"/><linearGradient id="linear-gradient-46" x1="535.06" y1="292.35" x2="531.27" y2="285.79" xlink:href="#linear-gradient-8"/><linearGradient id="linear-gradient-47" x1="630.57" y1="247.06" x2="626.77" y2="240.48" xlink:href="#linear-gradient-8"/><linearGradient id="linear-gradient-48" x1="617.23" y1="254.8" x2="613.45" y2="248.24" xlink:href="#linear-gradient-8"/><linearGradient id="linear-gradient-49" x1="608.6" y1="259.82" x2="604.81" y2="253.26" xlink:href="#linear-gradient-8"/><linearGradient id="linear-gradient-50" x1="599.97" y1="264.83" x2="596.18" y2="258.27" xlink:href="#linear-gradient-8"/><linearGradient id="linear-gradient-51" x1="591.34" y1="269.85" x2="587.55" y2="263.29" xlink:href="#linear-gradient-8"/><linearGradient id="linear-gradient-52" x1="643.69" y1="249.63" x2="639.9" y2="243.06" xlink:href="#linear-gradient-8"/><linearGradient id="linear-gradient-53" x1="634.67" y1="254.87" x2="630.88" y2="248.31" xlink:href="#linear-gradient-8"/><linearGradient id="linear-gradient-54" x1="626.04" y1="259.88" x2="622.25" y2="253.32" xlink:href="#linear-gradient-8"/><linearGradient id="linear-gradient-55" x1="617.4" y1="264.9" x2="613.62" y2="258.34" xlink:href="#linear-gradient-8"/><linearGradient id="linear-gradient-56" x1="608.77" y1="269.91" x2="604.98" y2="263.35" xlink:href="#linear-gradient-8"/><linearGradient id="linear-gradient-57" x1="600.14" y1="274.93" x2="596.35" y2="268.37" xlink:href="#linear-gradient-8"/><linearGradient id="linear-gradient-58" x1="582.71" y1="274.86" x2="578.92" y2="268.3" xlink:href="#linear-gradient-8"/><linearGradient id="linear-gradient-59" x1="574.07" y1="279.88" x2="570.29" y2="273.32" xlink:href="#linear-gradient-8"/><linearGradient id="linear-gradient-60" x1="591.51" y1="279.95" x2="587.72" y2="273.39" xlink:href="#linear-gradient-8"/><linearGradient id="linear-gradient-61" x1="582.88" y1="284.96" x2="579.09" y2="278.4" xlink:href="#linear-gradient-8"/><linearGradient id="linear-gradient-62" x1="565.44" y1="284.9" x2="561.66" y2="278.34" xlink:href="#linear-gradient-8"/><linearGradient id="linear-gradient-63" x1="556.81" y1="289.91" x2="553.02" y2="283.35" xlink:href="#linear-gradient-8"/><linearGradient id="linear-gradient-64" x1="574.25" y1="289.98" x2="570.46" y2="283.42" xlink:href="#linear-gradient-8"/><linearGradient id="linear-gradient-65" x1="565.61" y1="294.99" x2="561.83" y2="288.43" xlink:href="#linear-gradient-8"/><linearGradient id="linear-gradient-66" x1="652.76" y1="254.42" x2="648.97" y2="247.86" xlink:href="#linear-gradient-8"/><linearGradient id="linear-gradient-67" x1="640.88" y1="256.63" x2="639.12" y2="253.58" xlink:href="#linear-gradient-8"/><linearGradient id="linear-gradient-68" x1="644.93" y1="258.97" x2="643.17" y2="255.92" xlink:href="#linear-gradient-8"/><linearGradient id="linear-gradient-69" x1="635.29" y1="264.57" x2="631.5" y2="258.01" xlink:href="#linear-gradient-8"/><linearGradient id="linear-gradient-70" x1="626.65" y1="269.59" x2="622.87" y2="263.03" xlink:href="#linear-gradient-8"/><linearGradient id="linear-gradient-71" x1="595.92" y1="287.53" x2="592.06" y2="280.85" xlink:href="#linear-gradient-8"/><linearGradient id="linear-gradient-72" x1="548.18" y1="294.93" x2="544.39" y2="288.37" xlink:href="#linear-gradient-8"/><linearGradient id="linear-gradient-73" x1="556.98" y1="300.01" x2="553.2" y2="293.45" xlink:href="#linear-gradient-8"/><linearGradient id="linear-gradient-74" x1="565.11" y1="305.35" x2="561.32" y2="298.79" xlink:href="#linear-gradient-8"/><linearGradient id="linear-gradient-75" x1="526.43" y1="297.37" x2="522.64" y2="290.81" xlink:href="#linear-gradient-8"/><linearGradient id="linear-gradient-76" x1="539.55" y1="299.94" x2="535.76" y2="293.38" xlink:href="#linear-gradient-8"/><linearGradient id="linear-gradient-77" x1="548.35" y1="305.03" x2="544.56" y2="298.47" xlink:href="#linear-gradient-8"/><linearGradient id="linear-gradient-78" x1="556.48" y1="310.37" x2="552.69" y2="303.81" xlink:href="#linear-gradient-8"/><linearGradient id="linear-gradient-79" x1="515.42" y1="303.84" x2="511.63" y2="297.27" xlink:href="#linear-gradient-8"/><linearGradient id="linear-gradient-80" x1="526.33" y1="307.64" x2="522.53" y2="301.06" xlink:href="#linear-gradient-8"/><linearGradient id="linear-gradient-81" x1="535.13" y1="312.73" x2="531.33" y2="306.14" xlink:href="#linear-gradient-8"/><linearGradient id="linear-gradient-82" x1="547.85" y1="315.39" x2="544.06" y2="308.82" xlink:href="#linear-gradient-8"/><linearGradient id="linear-gradient-83" x1="539.22" y1="320.4" x2="535.43" y2="313.84" xlink:href="#linear-gradient-8"/><linearGradient id="linear-gradient-84" x1="627.18" y1="314.46" x2="609" y2="282.97" gradientTransform="matrix(-1, 0, 0, 1, 796.84, 0)" gradientUnits="userSpaceOnUse"><stop offset="0.02" stop-color="#d5d7de"/><stop offset="0.97" stop-color="#cbcdd4"/></linearGradient><linearGradient id="linear-gradient-85" x1="6563.86" y1="204.6" x2="6529.99" y2="206.03" gradientTransform="translate(-6304.63)" gradientUnits="userSpaceOnUse"><stop offset="0.26" stop-color="#a8a4b5"/><stop offset="0.85" stop-color="#dbd3e2"/></linearGradient><linearGradient id="linear-gradient-86" x1="1125.86" y1="224.49" x2="1122.12" y2="201.59" gradientTransform="matrix(-1, 0, 0, 1, 1377.55, 0)" xlink:href="#linear-gradient-85"/><linearGradient id="linear-gradient-87" x1="6597.01" y1="215.62" x2="6561.48" y2="218.45" xlink:href="#linear-gradient-85"/><linearGradient id="linear-gradient-88" x1="1146.98" y1="126.62" x2="1166.17" y2="114.5" gradientTransform="matrix(-1, 0, 0, 1, 1377.55, 0)" gradientUnits="userSpaceOnUse"><stop offset="0.05" stop-color="#a8a4b5"/><stop offset="0.18" stop-color="#b6b1c1"/><stop offset="0.4" stop-color="#cbc4d3"/><stop offset="0.63" stop-color="#d7cfde"/><stop offset="0.85" stop-color="#dbd3e2"/></linearGradient><linearGradient id="linear-gradient-89" x1="1192.56" y1="152.78" x2="1186.39" y2="137.07" gradientTransform="matrix(-1, 0, 0, 1, 1377.55, 0)" xlink:href="#linear-gradient-85"/><linearGradient id="linear-gradient-90" x1="-6156.53" y1="485.86" x2="-6135.28" y2="538.29" gradientTransform="matrix(-1, 0.06, 0.06, 1, -5909.37, 9.93)" gradientUnits="userSpaceOnUse"><stop offset="0.15" stop-color="#dbd3e2"/><stop offset="0.74" stop-color="#c2bccc"/></linearGradient><linearGradient id="linear-gradient-91" x1="1141.66" y1="70.39" x2="1121.7" y2="42.53" gradientTransform="matrix(-1, 0, 0, 1, 1377.55, 0)" xlink:href="#linear-gradient-85"/><linearGradient id="linear-gradient-92" x1="557.67" y1="99.07" x2="532.98" y2="56.31" gradientTransform="matrix(-1, 0, 0, 1, 796.84, 0)" gradientUnits="userSpaceOnUse"><stop offset="0.35" stop-color="#323142"/><stop offset="0.74" stop-color="#4d4b5c"/></linearGradient><linearGradient id="linear-gradient-93" x1="348.9" y1="310.35" x2="373.17" y2="310.35" gradientTransform="matrix(-0.99, 0.13, 0.13, 0.99, 613.62, -201.35)" xlink:href="#linear-gradient-88"/><linearGradient id="linear-gradient-94" x1="1090.39" y1="201.43" x2="1100.97" y2="183.1" gradientTransform="matrix(-1, 0, 0, 1, 1377.55, 0)" xlink:href="#linear-gradient-85"/><linearGradient id="linear-gradient-95" x1="1144.21" y1="200.41" x2="1144.43" y2="206.51" gradientTransform="matrix(-1, 0, 0, 1, 1377.55, 0)" gradientUnits="userSpaceOnUse"><stop offset="0.04" stop-color="#dbd3e2"/><stop offset="0.15" stop-color="#dbd3e2"/><stop offset="0.87" stop-color="#cac3d3"/></linearGradient><linearGradient id="linear-gradient-96" x1="1143.22" y1="202.75" x2="1143.41" y2="208.1" xlink:href="#linear-gradient-95"/><linearGradient id="linear-gradient-97" x1="1133.34" y1="205.15" x2="1134.08" y2="198.54" gradientTransform="matrix(-1, 0, 0, 1, 1377.55, 0)" gradientUnits="userSpaceOnUse"><stop offset="0.15" stop-color="#dbd3e2"/><stop offset="0.87" stop-color="#cac3d3"/></linearGradient><linearGradient id="linear-gradient-98" x1="1181.97" y1="161.41" x2="1191.13" y2="135.45" gradientTransform="matrix(-1, 0, 0, 1, 1377.55, 0)" gradientUnits="userSpaceOnUse"><stop offset="0.26" stop-color="#cbc4d4"/><stop offset="0.85" stop-color="#dbd3e2"/></linearGradient><linearGradient id="linear-gradient-99" x1="1079.9" y1="201.13" x2="1097.31" y2="186.06" xlink:href="#linear-gradient-98"/><clipPath id="clip-path"><path class="cls-1" d="M152.56,151.86l-2,1.19a2.51,2.51,0,0,1,2.55.25l2-1.19A2.51,2.51,0,0,0,152.56,151.86Z"/></clipPath><clipPath id="clip-path-2"><path class="cls-1" d="M210.44,210.08l2.05-1.19a2.52,2.52,0,0,0,1-2.29l-2,1.19A2.5,2.5,0,0,1,210.44,210.08Z"/></clipPath><clipPath id="clip-path-3"><path class="cls-1" d="M211.54,191.18l2-1.19A7.88,7.88,0,0,0,210,183.8L208,185A8,8,0,0,1,211.54,191.18Z"/></clipPath><linearGradient id="linear-gradient-100" x1="-2607.34" y1="190.38" x2="-2603.76" y2="184.18" gradientTransform="matrix(-1, 0, 0, 1, -2394.41, 0)" gradientUnits="userSpaceOnUse"><stop offset="0.17" stop-color="#edd25d"/><stop offset="1" stop-color="#ffe36d"/></linearGradient><linearGradient id="linear-gradient-101" x1="-2560.92" y1="167.45" x2="-2559.24" y2="164.55" gradientTransform="matrix(-1, 0, 0, 1, -2394.41, 0)" gradientUnits="userSpaceOnUse"><stop offset="0" stop-color="#ffe163"/><stop offset="0.83" stop-color="#edd25d"/></linearGradient><linearGradient id="linear-gradient-102" x1="95.18" y1="75.51" x2="101.46" y2="64.64" gradientTransform="matrix(-1, 0, 0, 1, 228.94, 0)" gradientUnits="userSpaceOnUse"><stop offset="0" stop-color="#66ff97"/><stop offset="0.83" stop-color="#5fed8c"/></linearGradient><linearGradient id="linear-gradient-103" x1="29.89" y1="68.09" x2="36.17" y2="57.22" gradientTransform="matrix(-1, 0, 0, 1, 228.94, 0)" gradientUnits="userSpaceOnUse"><stop offset="0.17" stop-color="#5fed8c"/><stop offset="1" stop-color="#70ff9d"/></linearGradient><linearGradient id="linear-gradient-104" x1="-2861.08" y1="242.45" x2="-2854.19" y2="230.52" gradientTransform="matrix(-1, 0, 0, 1, -2538.89, 0)" gradientUnits="userSpaceOnUse"><stop offset="0" stop-color="#66d1ff"/><stop offset="0.83" stop-color="#5fc2ed"/></linearGradient><clipPath id="clip-path-4"><path class="cls-2" d="M316.66,192.77c-1.25.72-2,2.25-2,4.42l3-1.72c0-2.17.78-3.7,2-4.42Z"/></clipPath><clipPath id="clip-path-5"><path class="cls-3" d="M319.62,191.05l-3,1.72c1.25-.73,3-.63,4.9.47l3-1.72C322.61,190.42,320.87,190.32,319.62,191.05Z"/></clipPath><clipPath id="clip-path-6"><path class="cls-4" d="M382.11,272.14c-1.26.73-3,.64-4.91-.47l-3,1.72c1.91,1.11,3.65,1.2,4.91.47Z"/></clipPath><clipPath id="clip-path-7"><path class="cls-4" d="M379.15,273.86l3-1.72c1.25-.72,2-2.25,2-4.42l-3,1.72C381.17,271.61,380.39,273.14,379.15,273.86Z"/></clipPath><clipPath id="clip-path-8"><path class="cls-5" d="M381.27,235.66l3-1.72A15.23,15.23,0,0,0,377.34,222l-3,1.72A15.23,15.23,0,0,1,381.27,235.66Z"/></clipPath><linearGradient id="linear-gradient-106" x1="-2922.35" y1="234.39" x2="-2915.46" y2="222.46" xlink:href="#linear-gradient"/><linearGradient id="linear-gradient-107" x1="3195.8" y1="176.61" x2="3200.48" y2="168.51" gradientTransform="matrix(-1, 0, 0, 1, 3525.73, 0)" gradientUnits="userSpaceOnUse"><stop offset="0" stop-color="#ff63ef"/><stop offset="0.83" stop-color="#ed5dde"/></linearGradient><linearGradient id="linear-gradient-108" x1="3154.18" y1="163.07" x2="3158.86" y2="154.97" gradientTransform="matrix(-1, 0, 0, 1, 3525.73, 0)" gradientUnits="userSpaceOnUse"><stop offset="0.17" stop-color="#ed5dde"/><stop offset="1" stop-color="#ff6df0"/></linearGradient></defs><g class="cls-6"><g id="Layer_1" data-name="Layer 1"><ellipse class="cls-7" cx="227.46" cy="327.39" rx="173.42" ry="100.12" transform="translate(-1.77 1.24) rotate(-0.31)"/><ellipse class="cls-8" cx="227.46" cy="295.4" rx="173.42" ry="100.12" transform="translate(-1.6 1.24) rotate(-0.31)"/><path class="cls-9" d="M62.06,318.85c.3.54.6,1.08.91,1.61h0c1.19,2,2.48,4.06,3.91,6.06a84.19,84.19,0,0,0,6,7.5c8,9.05,18.53,17.52,31.62,25.08,67.51,39,177.31,38.78,245.26-.44s68.27-102.62.76-141.6A199.9,199.9,0,0,0,307,198.82c-4.25-1.26-8.58-2.4-13-3.43q-5.21-1.24-10.52-2.26h0c-.93-.19-1.87-.36-2.81-.53-4.77-.87-9.61-1.62-14.48-2.24-1.36-.18-2.74-.34-4.12-.51-41.81-4.74-86.16-.52-123.79,12.66l-2,.71a198.15,198.15,0,0,0-25,11q-3.06,1.59-6,3.3c-2,1.17-4,2.34-5.85,3.55-13,8.28-23.26,17.5-30.68,27.26l-1,1.32C51.62,271.67,49.73,296.3,62.06,318.85Z"/><path class="cls-10" d="M86.73,282.43c-3.34,1.92-3.36,5.05,0,7l143.13,83.18a13.28,13.28,0,0,0,12.06,0l136.48-78.78c3.34-1.93,3.35-5.05,0-7L235.26,203.65a13.26,13.26,0,0,0-12,0Z"/><polygon class="cls-11" points="207.41 208.64 207.4 214.13 204.38 215.88 204.39 210.39 207.41 208.64"/><path class="cls-11" d="M192.92,84.22a3.16,3.16,0,0,1,1.77-.41,5.73,5.73,0,0,1,2.53.83l144.07,83.18a11.61,11.61,0,0,1,3.65,3.52,12.82,12.82,0,0,1,2.38,6.91L347,287.77c0,1.91-.68,3.25-1.77,3.88l-3,1.75c1.09-.63,1.76-2,1.77-3.87L344.3,180a12.75,12.75,0,0,0-2.37-6.91,11.67,11.67,0,0,0-3.66-3.53L194.2,86.39a5.58,5.58,0,0,0-2.53-.82,3.08,3.08,0,0,0-1.77.4Z"/><path class="cls-12" d="M343.28,292.78c1.09-.63,1.76-2,1.76-3.87l.31-109.52a12.67,12.67,0,0,0-2.37-6.91,11.64,11.64,0,0,0-3.65-3.53L195.26,85.77a5.62,5.62,0,0,0-2.53-.82,3.24,3.24,0,0,0-1.63.32l1.82-1a3.16,3.16,0,0,1,1.77-.41,5.73,5.73,0,0,1,2.53.83l144.07,83.18a11.61,11.61,0,0,1,3.65,3.52,12.82,12.82,0,0,1,2.38,6.91L347,287.77c0,1.91-.68,3.25-1.77,3.88l-3,1.75.14-.08Z"/><polygon class="cls-11" points="316.03 271.35 316.02 276.84 313 278.59 313.01 273.11 316.03 271.35"/><path class="cls-13" d="M188.14,89.85c0-3.84,2.72-5.39,6.06-3.46l144.07,83.18a13.29,13.29,0,0,1,6,10.44L344,287.9,187.83,197.74Z"/><polygon class="cls-14" points="190.91 190.66 234.62 215.9 295.57 251.09 340.93 277.28 341.23 175.88 191.21 89.27 190.91 190.66"/><polygon class="cls-15" points="190.91 190.66 234.62 215.9 324.04 165.96 191.21 89.27 190.91 190.66"/><path class="cls-12" d="M337.92,293l-10.53-6.08,0-5.48L313,273.11v5.48l-94.23-54.4,0-5.48-14.4-8.32v5.49l-10.53-6.08a13.29,13.29,0,0,1-6-10.44v-1.62L344,287.9v1.63C344,293.36,341.26,294.91,337.92,293Z"/><polygon class="cls-16" points="198.39 216.58 198.41 220.5 204.56 216.95 204.54 213.03 198.39 216.58"/><polygon class="cls-16" points="306.31 279.29 306.32 283.22 312.47 279.67 312.46 275.74 306.31 279.29"/><path class="cls-17" d="M86.73,262c-3.34,1.93-3.36,5.06,0,7l143.13,83.19a13.35,13.35,0,0,0,12.06,0l95.3-55c3.34-1.93,3.36-5.05,0-7l-10.46-6.08-6.15,3.55-14.3-8.31,6.15-3.55-93.61-54.4-6.15,3.55-14.31-8.31,6.15-3.55L194.09,207A13.28,13.28,0,0,0,182,207Z"/><path class="cls-18" d="M186.1,223.68,137,252l122.22,71,49.12-28.36Z"/><path class="cls-19" d="M189.17,222.58a.61.61,0,0,0,0,1.16l119.05,69.18a2.2,2.2,0,0,0,2,0l3.9-2.25a.61.61,0,0,0,0-1.16l-119-69.18a2.19,2.19,0,0,0-2,0Z"/><path class="cls-20" d="M86.69,269l143.13,83.19a13.35,13.35,0,0,0,12.06,0l95.3-55c1.68-1,2.52-2.24,2.52-3.52v3.93c0,1.27-.84,2.55-2.52,3.52l-95.3,55a13.28,13.28,0,0,1-12.06,0L86.7,272.88c-1.65-1-2.48-2.21-2.48-3.47v-3.92C84.21,266.74,85,268,86.69,269Z"/><path class="cls-21" d="M183.12,225.34a.61.61,0,0,0,0,1.16l5.51,3.2a2.16,2.16,0,0,0,2,0l1.49-.86a.61.61,0,0,0,0-1.16l-5.51-3.2a2.22,2.22,0,0,0-2,0Z"/><path class="cls-22" d="M174.43,230.36a.61.61,0,0,0,0,1.16l6.84,4a2.2,2.2,0,0,0,2,0l5.55-3.2a.62.62,0,0,0,0-1.17l-6.84-4a2.2,2.2,0,0,0-2,0Z"/><path class="cls-23" d="M191.75,230.36a.61.61,0,0,0,0,1.16l5.51,3.2a2.22,2.22,0,0,0,2,0l1.49-.86a.61.61,0,0,0,0-1.16l-5.51-3.2a2.14,2.14,0,0,0-2,0Z"/><path class="cls-24" d="M184.4,236.15a.61.61,0,0,0,0,1.16l5.51,3.2a2.22,2.22,0,0,0,2,0l5.54-3.2a.61.61,0,0,0,0-1.16L192,233a2.22,2.22,0,0,0-2,0Z"/><path class="cls-25" d="M200.38,235.37c-.55.33-.56.85,0,1.17l5.5,3.2a2.22,2.22,0,0,0,2,0l1.49-.87a.61.61,0,0,0,0-1.16l-5.51-3.2a2.2,2.2,0,0,0-2,0Z"/><path class="cls-26" d="M193,241.17a.61.61,0,0,0,0,1.16l5.51,3.2a2.22,2.22,0,0,0,2,0l5.54-3.2a.61.61,0,0,0,0-1.16l-5.51-3.2a2.16,2.16,0,0,0-2,0Z"/><path class="cls-27" d="M209,240.39a.61.61,0,0,0,0,1.16l5.5,3.2a2.22,2.22,0,0,0,2,0l1.5-.86a.61.61,0,0,0,0-1.16l-5.5-3.2a2.22,2.22,0,0,0-2,0Z"/><path class="cls-28" d="M201.66,246.18a.61.61,0,0,0,0,1.16l5.51,3.2a2.16,2.16,0,0,0,2,0l5.54-3.2a.61.61,0,0,0,0-1.16l-5.51-3.2a2.22,2.22,0,0,0-2,0Z"/><path class="cls-29" d="M217.65,245.41a.61.61,0,0,0,0,1.16l5.51,3.2a2.2,2.2,0,0,0,2,0l1.5-.86a.62.62,0,0,0,0-1.17l-5.5-3.2a2.22,2.22,0,0,0-2,0Z"/><path class="cls-30" d="M210.29,251.2a.61.61,0,0,0,0,1.16l5.5,3.2a2.22,2.22,0,0,0,2,0l5.54-3.2a.61.61,0,0,0,0-1.16l-5.51-3.2a2.2,2.2,0,0,0-2,0Z"/><path class="cls-31" d="M226.28,250.42a.62.62,0,0,0,0,1.17l5.51,3.19a2.19,2.19,0,0,0,2,0l1.49-.87a.61.61,0,0,0,0-1.16l-5.5-3.2a2.22,2.22,0,0,0-2,0Z"/><path class="cls-32" d="M218.92,256.21a.62.62,0,0,0,0,1.17l5.5,3.2a2.22,2.22,0,0,0,2,0l5.54-3.2a.62.62,0,0,0,0-1.17l-5.51-3.2a2.2,2.2,0,0,0-2,0Z"/><path class="cls-33" d="M234.91,255.44a.61.61,0,0,0,0,1.16l5.51,3.2a2.22,2.22,0,0,0,2,0l1.49-.86a.61.61,0,0,0,0-1.16l-5.51-3.2a2.16,2.16,0,0,0-2,0Z"/><path class="cls-34" d="M227.55,261.23a.61.61,0,0,0,0,1.16l5.51,3.2a2.2,2.2,0,0,0,2,0l5.55-3.2a.61.61,0,0,0,0-1.16l-5.5-3.2a2.22,2.22,0,0,0-2,0Z"/><path class="cls-35" d="M243.54,260.45c-.56.33-.56.85,0,1.17l5.51,3.2a2.22,2.22,0,0,0,2,0l1.49-.87a.61.61,0,0,0,0-1.16l-5.51-3.2a2.22,2.22,0,0,0-2,0Z"/><path class="cls-36" d="M236.19,266.25a.61.61,0,0,0,0,1.16l5.51,3.2a2.2,2.2,0,0,0,2,0l5.55-3.2a.61.61,0,0,0,0-1.16l-5.5-3.2a2.16,2.16,0,0,0-2,0Z"/><path class="cls-37" d="M252.17,265.47a.61.61,0,0,0,0,1.16l5.5,3.2a2.19,2.19,0,0,0,2,0l1.49-.86a.61.61,0,0,0,0-1.16l-5.51-3.2a2.2,2.2,0,0,0-2,0Z"/><path class="cls-38" d="M244.82,271.26a.61.61,0,0,0,0,1.16l5.51,3.21a2.22,2.22,0,0,0,2,0l5.54-3.21a.61.61,0,0,0,0-1.16l-5.51-3.2a2.22,2.22,0,0,0-2,0Z"/><path class="cls-39" d="M260.8,270.49a.61.61,0,0,0,0,1.16l5.5,3.2a2.22,2.22,0,0,0,2,0l1.49-.86a.62.62,0,0,0,0-1.17l-5.51-3.2a2.2,2.2,0,0,0-2,0Z"/><path class="cls-40" d="M253.45,276.28a.61.61,0,0,0,0,1.16l5.51,3.2a2.22,2.22,0,0,0,2,0l5.54-3.2a.61.61,0,0,0,0-1.16l-5.51-3.2a2.22,2.22,0,0,0-2,0Z"/><path class="cls-41" d="M269.43,275.5a.62.62,0,0,0,0,1.17l5.5,3.2a2.22,2.22,0,0,0,2,0l1.5-.87a.61.61,0,0,0,0-1.16l-5.5-3.2a2.22,2.22,0,0,0-2,0Z"/><path class="cls-42" d="M262.08,281.29c-.55.33-.56.85,0,1.17l5.51,3.2a2.22,2.22,0,0,0,2,0l5.54-3.2a.62.62,0,0,0,0-1.17l-5.51-3.2a2.22,2.22,0,0,0-2,0Z"/><path class="cls-43" d="M278.07,280.52a.61.61,0,0,0,0,1.16l5.51,3.2a2.2,2.2,0,0,0,2,0l1.5-.86a.61.61,0,0,0,0-1.16l-5.5-3.2a2.19,2.19,0,0,0-2,0Z"/><path class="cls-44" d="M270.71,286.31a.61.61,0,0,0,0,1.16l5.5,3.2a2.22,2.22,0,0,0,2,0l5.54-3.2a.61.61,0,0,0,0-1.16l-5.51-3.2a2.2,2.2,0,0,0-2,0Z"/><path class="cls-45" d="M286.7,285.54a.61.61,0,0,0,0,1.16l5.51,3.2a2.22,2.22,0,0,0,2,0l1.49-.86c.56-.33.56-.85,0-1.17l-5.51-3.2a2.22,2.22,0,0,0-2,0Z"/><path class="cls-46" d="M279.34,291.33a.61.61,0,0,0,0,1.16l5.5,3.2a2.22,2.22,0,0,0,2,0l5.55-3.2a.61.61,0,0,0,0-1.16l-5.51-3.2a2.2,2.2,0,0,0-2,0Z"/><path class="cls-47" d="M295.33,290.55a.61.61,0,0,0,0,1.16l6.84,4a2.22,2.22,0,0,0,2,0l1.5-.86a.62.62,0,0,0,0-1.17l-6.84-4a2.22,2.22,0,0,0-2,0Z"/><path class="cls-48" d="M288,296.34a.62.62,0,0,0,0,1.17l5.51,3.2a2.2,2.2,0,0,0,2,0l5.55-3.2c.55-.33.56-.85,0-1.17l-5.5-3.2a2.22,2.22,0,0,0-2,0Z"/><path class="cls-49" d="M165.69,235.41a.61.61,0,0,0,0,1.16l10.59,6.16a2.22,2.22,0,0,0,2,0l5.54-3.2a.62.62,0,0,0,0-1.17l-10.59-6.15a2.22,2.22,0,0,0-2,0Z"/><path class="cls-50" d="M179.46,243.35a.61.61,0,0,0,0,1.16l5.5,3.2a2.22,2.22,0,0,0,2,0l5.55-3.2a.61.61,0,0,0,0-1.16l-5.51-3.2a2.2,2.2,0,0,0-2,0Z"/><path class="cls-51" d="M188.1,248.36a.62.62,0,0,0,0,1.17l5.51,3.2a2.2,2.2,0,0,0,2,0l5.55-3.2a.62.62,0,0,0,0-1.17l-5.5-3.2a2.22,2.22,0,0,0-2,0Z"/><path class="cls-52" d="M196.73,253.38a.61.61,0,0,0,0,1.16l5.51,3.2a2.2,2.2,0,0,0,2,0l5.55-3.2a.61.61,0,0,0,0-1.16l-5.5-3.2a2.22,2.22,0,0,0-2,0Z"/><path class="cls-53" d="M205.36,258.39c-.56.33-.56.85,0,1.17l5.51,3.2a2.22,2.22,0,0,0,2,0l5.54-3.2a.62.62,0,0,0,0-1.17l-5.51-3.19a2.19,2.19,0,0,0-2,0Z"/><path class="cls-54" d="M214,263.41a.61.61,0,0,0,0,1.16l5.51,3.2a2.19,2.19,0,0,0,2,0l5.54-3.2a.61.61,0,0,0,0-1.16l-5.51-3.2a2.22,2.22,0,0,0-2,0Z"/><path class="cls-55" d="M222.62,268.43a.61.61,0,0,0,0,1.16l5.51,3.2a2.22,2.22,0,0,0,2,0l5.54-3.2a.61.61,0,0,0,0-1.16l-5.51-3.2a2.22,2.22,0,0,0-2,0Z"/><path class="cls-56" d="M231.25,273.44a.62.62,0,0,0,0,1.17l5.5,3.2a2.22,2.22,0,0,0,2,0l5.54-3.2c.56-.33.56-.85,0-1.17l-5.51-3.2a2.2,2.2,0,0,0-2,0Z"/><path class="cls-57" d="M239.88,278.46a.61.61,0,0,0,0,1.16l5.5,3.2a2.22,2.22,0,0,0,2,0l5.54-3.2a.61.61,0,0,0,0-1.16l-5.51-3.2a2.2,2.2,0,0,0-2,0Z"/><path class="cls-58" d="M248.51,283.48a.61.61,0,0,0,0,1.16l5.51,3.2a2.2,2.2,0,0,0,2,0l5.55-3.2a.61.61,0,0,0,0-1.16l-5.5-3.21a2.22,2.22,0,0,0-2,0Z"/><path class="cls-59" d="M257.15,288.49a.61.61,0,0,0,0,1.16l5.51,3.2a2.14,2.14,0,0,0,2,0l5.55-3.2a.61.61,0,0,0,0-1.16l-5.5-3.2a2.22,2.22,0,0,0-2,0Z"/><path class="cls-60" d="M156.94,240.46a.61.61,0,0,0,0,1.16l14.91,8.66a2.16,2.16,0,0,0,2,0l5.54-3.2a.61.61,0,0,0,0-1.16l-14.91-8.66a2.22,2.22,0,0,0-2,0Z"/><path class="cls-61" d="M175,250.94a.61.61,0,0,0,0,1.16l5.51,3.2a2.2,2.2,0,0,0,2,0l5.55-3.2a.61.61,0,0,0,0-1.16l-5.5-3.2a2.22,2.22,0,0,0-2,0Z"/><path class="cls-62" d="M183.61,256a.62.62,0,0,0,0,1.17l5.51,3.2a2.2,2.2,0,0,0,2,0l5.55-3.2a.62.62,0,0,0,0-1.17l-5.5-3.2a2.22,2.22,0,0,0-2,0Z"/><path class="cls-63" d="M192.24,261a.61.61,0,0,0,0,1.16l5.51,3.2a2.22,2.22,0,0,0,2,0l5.54-3.2a.61.61,0,0,0,0-1.16l-5.51-3.2a2.22,2.22,0,0,0-2,0Z"/><path class="cls-64" d="M200.87,266a.61.61,0,0,0,0,1.16l5.51,3.2a2.22,2.22,0,0,0,2,0l5.54-3.2a.61.61,0,0,0,0-1.16l-5.51-3.2a2.19,2.19,0,0,0-2,0Z"/><path class="cls-65" d="M148.14,245.54a.61.61,0,0,0,0,1.16l6.28,3.65a2.22,2.22,0,0,0,2,0l5.54-3.2a.61.61,0,0,0,0-1.16l-6.28-3.65a2.22,2.22,0,0,0-2,0Z"/><path class="cls-66" d="M157.54,251c-.56.33-.56.85,0,1.17l5.51,3.2a2.22,2.22,0,0,0,2,0l5.54-3.2a.62.62,0,0,0,0-1.17l-5.51-3.2a2.22,2.22,0,0,0-2,0Z"/><path class="cls-67" d="M166.17,256a.61.61,0,0,0,0,1.16l5.5,3.2a2.22,2.22,0,0,0,2,0l5.54-3.2a.61.61,0,0,0,0-1.16l-5.51-3.2a2.22,2.22,0,0,0-2,0Z"/><path class="cls-68" d="M174.8,261a.61.61,0,0,0,0,1.16l5.5,3.2a2.22,2.22,0,0,0,2,0l5.54-3.2a.61.61,0,0,0,0-1.16l-5.51-3.2a2.14,2.14,0,0,0-2,0Z"/><path class="cls-69" d="M183.44,266.05a.62.62,0,0,0,0,1.17l5.51,3.2a2.2,2.2,0,0,0,2,0l5.55-3.2c.55-.33.56-.85,0-1.17l-5.5-3.2a2.22,2.22,0,0,0-2,0Z"/><path class="cls-70" d="M192.07,271.07a.61.61,0,0,0,0,1.16l5.51,3.2a2.2,2.2,0,0,0,2,0l5.55-3.2a.61.61,0,0,0,0-1.16l-5.5-3.2a2.22,2.22,0,0,0-2,0Z"/><path class="cls-71" d="M209.5,271a.62.62,0,0,0,0,1.17l5.5,3.2a2.22,2.22,0,0,0,2,0l5.54-3.2c.56-.33.56-.85,0-1.17l-5.51-3.2a2.22,2.22,0,0,0-2,0Z"/><path class="cls-72" d="M218.13,276a.61.61,0,0,0,0,1.16l5.5,3.2a2.22,2.22,0,0,0,2,0l5.54-3.2a.61.61,0,0,0,0-1.16l-5.51-3.2a2.2,2.2,0,0,0-2,0Z"/><path class="cls-73" d="M200.7,276.09a.61.61,0,0,0,0,1.16l5.51,3.2a2.22,2.22,0,0,0,2,0l5.54-3.2a.61.61,0,0,0,0-1.16l-5.51-3.21a2.19,2.19,0,0,0-2,0Z"/><path class="cls-74" d="M209.33,281.1a.61.61,0,0,0,0,1.16l5.51,3.2a2.16,2.16,0,0,0,2,0l5.54-3.2a.61.61,0,0,0,0-1.16l-5.51-3.2a2.22,2.22,0,0,0-2,0Z"/><path class="cls-75" d="M226.76,281a.62.62,0,0,0,0,1.17l5.51,3.2a2.2,2.2,0,0,0,2,0l5.55-3.2a.62.62,0,0,0,0-1.17l-5.5-3.2a2.22,2.22,0,0,0-2,0Z"/><path class="cls-76" d="M235.4,286.05a.61.61,0,0,0,0,1.16l5.51,3.2a2.2,2.2,0,0,0,2,0l5.55-3.2a.61.61,0,0,0,0-1.16l-5.5-3.2a2.22,2.22,0,0,0-2,0Z"/><path class="cls-77" d="M218,286.12a.61.61,0,0,0,0,1.16l5.5,3.2a2.22,2.22,0,0,0,2,0l5.54-3.2a.61.61,0,0,0,0-1.16l-5.51-3.2a2.22,2.22,0,0,0-2,0Z"/><path class="cls-78" d="M226.59,291.13a.62.62,0,0,0,0,1.17l5.5,3.2a2.22,2.22,0,0,0,2,0l5.54-3.2a.62.62,0,0,0,0-1.17l-5.51-3.2a2.2,2.2,0,0,0-2,0Z"/><path class="cls-79" d="M139.45,250.56a.61.61,0,0,0,0,1.16l5.51,3.2a2.22,2.22,0,0,0,2,0l5.54-3.2a.62.62,0,0,0,0-1.17L147,247.36a2.16,2.16,0,0,0-2,0Z"/><path class="cls-80" d="M152.34,253.36a.61.61,0,0,0,0,1.16l5.51,3.2a2.22,2.22,0,0,0,2,0l1.49-.86a.62.62,0,0,0,0-1.17l-5.51-3.2a2.22,2.22,0,0,0-2,0Z"/><path class="cls-81" d="M148.29,255.69c-.56.33-.56.85,0,1.17l5.51,3.2a2.22,2.22,0,0,0,2,0l1.49-.87a.61.61,0,0,0,0-1.16l-5.51-3.2a2.2,2.2,0,0,0-2,0Z"/><path class="cls-82" d="M156.92,260.71a.61.61,0,0,0,0,1.16l5.5,3.2a2.22,2.22,0,0,0,2,0l5.54-3.2a.61.61,0,0,0,0-1.16l-5.51-3.2a2.22,2.22,0,0,0-2,0Z"/><path class="cls-83" d="M165.55,265.73a.61.61,0,0,0,0,1.16l5.5,3.2a2.22,2.22,0,0,0,2,0l5.54-3.2a.61.61,0,0,0,0-1.16l-5.51-3.2a2.14,2.14,0,0,0-2,0Z"/><path class="cls-84" d="M174.19,270.74a.61.61,0,0,0,0,1.16L224,300.84a2.2,2.2,0,0,0,2,0l5.55-3.2a.61.61,0,0,0,0-1.16l-49.78-28.94a2.22,2.22,0,0,0-2,0Z"/><path class="cls-85" d="M244,291.07a.61.61,0,0,0,0,1.16l5.51,3.2a2.22,2.22,0,0,0,2,0l5.54-3.2a.61.61,0,0,0,0-1.16l-5.51-3.2a2.22,2.22,0,0,0-2,0Z"/><path class="cls-86" d="M235.22,296.15a.61.61,0,0,0,0,1.16l5.51,3.2a2.2,2.2,0,0,0,2,0l5.54-3.2a.61.61,0,0,0,0-1.16l-5.5-3.2a2.22,2.22,0,0,0-2,0Z"/><path class="cls-87" d="M227.1,301.49a.61.61,0,0,0,0,1.16l5.51,3.2a2.16,2.16,0,0,0,2,0l5.54-3.2a.61.61,0,0,0,0-1.16l-5.51-3.2a2.22,2.22,0,0,0-2,0Z"/><path class="cls-88" d="M265.78,293.51a.61.61,0,0,0,0,1.16l5.51,3.2a2.22,2.22,0,0,0,2,0l5.54-3.2a.61.61,0,0,0,0-1.16l-5.51-3.2a2.22,2.22,0,0,0-2,0Z"/><path class="cls-89" d="M252.66,296.08a.62.62,0,0,0,0,1.17l5.51,3.2a2.22,2.22,0,0,0,2,0l5.54-3.2c.56-.33.56-.85,0-1.17l-5.51-3.2a2.22,2.22,0,0,0-2,0Z"/><path class="cls-90" d="M243.86,301.17a.61.61,0,0,0,0,1.16l5.51,3.2a2.2,2.2,0,0,0,2,0l5.55-3.2a.61.61,0,0,0,0-1.16l-5.5-3.2a2.16,2.16,0,0,0-2,0Z"/><path class="cls-91" d="M235.73,306.51a.61.61,0,0,0,0,1.16l5.51,3.2a2.22,2.22,0,0,0,2,0l5.54-3.2a.61.61,0,0,0,0-1.16l-5.51-3.2a2.22,2.22,0,0,0-2,0Z"/><path class="cls-92" d="M274.35,298.56a.61.61,0,0,0,0,1.16l10.39,6a2.22,2.22,0,0,0,2,0l5.54-3.21a.61.61,0,0,0,0-1.16l-10.39-6a2.22,2.22,0,0,0-2,0Z"/><path class="cls-93" d="M261.29,301.1a.61.61,0,0,0,0,1.16L276,310.8a2.16,2.16,0,0,0,2,0l5.54-3.2a.61.61,0,0,0,0-1.16l-14.7-8.54a2.22,2.22,0,0,0-2,0Z"/><path class="cls-94" d="M252.49,306.18a.61.61,0,0,0,0,1.16l14.7,8.55a2.22,2.22,0,0,0,2,0l5.54-3.2a.62.62,0,0,0,0-1.17L260,303a2.22,2.22,0,0,0-2,0Z"/><path class="cls-95" d="M244.36,311.52c-.56.33-.56.85,0,1.17l5.51,3.2a2.22,2.22,0,0,0,2,0l5.54-3.2a.62.62,0,0,0,0-1.17l-5.51-3.2a2.22,2.22,0,0,0-2,0Z"/><path class="cls-96" d="M253,316.54a.61.61,0,0,0,0,1.16l5.5,3.2a2.22,2.22,0,0,0,2,0l5.54-3.2a.61.61,0,0,0,0-1.16l-5.51-3.2a2.22,2.22,0,0,0-2,0Z"/><path class="cls-13" d="M192.12,229.57l-1.49.86a2.22,2.22,0,0,1-2,0l-5.5-3.2a.71.71,0,0,1-.42-.58v-.72a.7.7,0,0,0,.41.57l5.51,3.2a2.16,2.16,0,0,0,2,0l1.49-.86a.71.71,0,0,0,.42-.58V229A.71.71,0,0,1,192.12,229.57Z"/><path class="cls-13" d="M188.82,232.3a.73.73,0,0,0,.42-.59v.73a.71.71,0,0,1-.42.58l-5.54,3.2a2.22,2.22,0,0,1-2,0l-6.84-4a.73.73,0,0,1-.42-.58v-.73a.71.71,0,0,0,.42.58l6.84,4a2.2,2.2,0,0,0,2,0Z"/><path class="cls-13" d="M200.76,234.59l-1.5.86a2.22,2.22,0,0,1-2,0l-5.5-3.2a.71.71,0,0,1-.42-.58v-.73a.71.71,0,0,0,.41.58l5.51,3.2a2.22,2.22,0,0,0,2,0l1.49-.86a.71.71,0,0,0,.42-.59V234A.72.72,0,0,1,200.76,234.59Z"/><path class="cls-13" d="M184,237.46v-.73a.71.71,0,0,0,.41.58l5.51,3.2a2.22,2.22,0,0,0,2,0l5.54-3.2a.71.71,0,0,0,.42-.58v.72a.71.71,0,0,1-.42.59l-5.54,3.2a2.22,2.22,0,0,1-2,0l-5.51-3.2A.71.71,0,0,1,184,237.46Z"/><path class="cls-13" d="M209.39,239.6l-1.5.86a2.16,2.16,0,0,1-2,0l-5.5-3.2a.68.68,0,0,1-.41-.57V236a.71.71,0,0,0,.42.58l5.5,3.2a2.22,2.22,0,0,0,2,0l1.49-.87a.71.71,0,0,0,.42-.58V239A.71.71,0,0,1,209.39,239.6Z"/><path class="cls-13" d="M200.54,245.53l5.54-3.2a.72.72,0,0,0,.42-.59v.73a.73.73,0,0,1-.42.59l-5.54,3.2a2.22,2.22,0,0,1-2,0l-5.51-3.2a.71.71,0,0,1-.41-.58v-.73a.71.71,0,0,0,.41.58l5.51,3.2A2.22,2.22,0,0,0,200.54,245.53Z"/><path class="cls-13" d="M218,244.62l-1.5.86a2.2,2.2,0,0,1-2,0l-5.51-3.2a.69.69,0,0,1-.41-.58V241a.73.73,0,0,0,.42.57l5.5,3.2a2.22,2.22,0,0,0,2,0l1.5-.86a.67.67,0,0,0,.41-.59V244A.72.72,0,0,1,218,244.62Z"/><path class="cls-13" d="M209.17,250.54l5.54-3.2a.71.71,0,0,0,.42-.58v.73a.71.71,0,0,1-.42.58l-5.54,3.2a2.22,2.22,0,0,1-2,0l-5.5-3.2a.71.71,0,0,1-.42-.58v-.72a.7.7,0,0,0,.41.57l5.51,3.2A2.16,2.16,0,0,0,209.17,250.54Z"/><path class="cls-13" d="M226.65,249.63l-1.49.87a2.22,2.22,0,0,1-2,0l-5.51-3.2a.71.71,0,0,1-.41-.58V246a.69.69,0,0,0,.41.58l5.51,3.2a2.2,2.2,0,0,0,2,0l1.5-.86a.72.72,0,0,0,.42-.59v.73A.71.71,0,0,1,226.65,249.63Z"/><path class="cls-13" d="M217.8,255.56l5.54-3.2a.71.71,0,0,0,.42-.59v.73a.73.73,0,0,1-.41.59l-5.55,3.2a2.22,2.22,0,0,1-2,0l-5.5-3.2a.69.69,0,0,1-.41-.58v-.73a.71.71,0,0,0,.42.58l5.5,3.2A2.22,2.22,0,0,0,217.8,255.56Z"/><path class="cls-13" d="M235.28,254.65l-1.49.86a2.22,2.22,0,0,1-2,0l-5.51-3.2a.71.71,0,0,1-.41-.58V251a.71.71,0,0,0,.41.58l5.51,3.19a2.19,2.19,0,0,0,2,0l1.49-.87a.71.71,0,0,0,.42-.58v.72A.71.71,0,0,1,235.28,254.65Z"/><path class="cls-13" d="M226.43,260.58l5.54-3.2a.73.73,0,0,0,.42-.59v.73a.71.71,0,0,1-.42.58l-5.55,3.2a2.2,2.2,0,0,1-2,0l-5.51-3.2a.68.68,0,0,1-.41-.57v-.73a.73.73,0,0,0,.42.58l5.5,3.2A2.22,2.22,0,0,0,226.43,260.58Z"/><path class="cls-13" d="M243.91,259.67l-1.49.86a2.22,2.22,0,0,1-2,0l-5.51-3.2a.71.71,0,0,1-.41-.58V256a.71.71,0,0,0,.41.58l5.51,3.2a2.22,2.22,0,0,0,2,0l1.49-.86a.71.71,0,0,0,.42-.59v.73A.73.73,0,0,1,243.91,259.67Z"/><path class="cls-13" d="M235.06,265.59l5.55-3.2a.67.67,0,0,0,.41-.58v.72a.71.71,0,0,1-.42.59l-5.55,3.2a2.2,2.2,0,0,1-2,0l-5.51-3.2a.71.71,0,0,1-.41-.58v-.72a.69.69,0,0,0,.41.57l5.51,3.2A2.2,2.2,0,0,0,235.06,265.59Z"/><path class="cls-13" d="M252.54,264.68l-1.49.86a2.16,2.16,0,0,1-2,0l-5.5-3.2a.69.69,0,0,1-.42-.57V261a.71.71,0,0,0,.41.58l5.51,3.2a2.22,2.22,0,0,0,2,0l1.49-.86a.73.73,0,0,0,.42-.59v.73A.71.71,0,0,1,252.54,264.68Z"/><path class="cls-13" d="M243.69,270.61l5.55-3.2a.71.71,0,0,0,.42-.59v.73a.73.73,0,0,1-.42.59l-5.54,3.2a2.22,2.22,0,0,1-2,0l-5.51-3.2a.71.71,0,0,1-.41-.58v-.73a.71.71,0,0,0,.41.58l5.51,3.2A2.2,2.2,0,0,0,243.69,270.61Z"/><path class="cls-13" d="M261.18,269.7l-1.5.86a2.22,2.22,0,0,1-2,0l-5.5-3.2a.71.71,0,0,1-.42-.58v-.72a.71.71,0,0,0,.42.57l5.5,3.2a2.19,2.19,0,0,0,2,0l1.49-.86a.71.71,0,0,0,.42-.58v.72A.69.69,0,0,1,261.18,269.7Z"/><path class="cls-13" d="M252.33,275.63l5.54-3.21a.71.71,0,0,0,.42-.58v.73a.71.71,0,0,1-.42.58l-5.54,3.2a2.22,2.22,0,0,1-2,0l-5.51-3.2a.71.71,0,0,1-.41-.58v-.72a.69.69,0,0,0,.41.57l5.51,3.21A2.22,2.22,0,0,0,252.33,275.63Z"/><path class="cls-13" d="M269.81,274.71l-1.5.87a2.22,2.22,0,0,1-2,0l-5.5-3.2a.69.69,0,0,1-.41-.58v-.73a.71.71,0,0,0,.42.58l5.5,3.2a2.22,2.22,0,0,0,2,0l1.49-.86a.73.73,0,0,0,.42-.59v.73A.71.71,0,0,1,269.81,274.71Z"/><path class="cls-13" d="M261,280.64l5.54-3.2a.71.71,0,0,0,.42-.58v.72a.72.72,0,0,1-.42.59l-5.54,3.2a2.22,2.22,0,0,1-2,0l-5.51-3.2a.71.71,0,0,1-.41-.58v-.73a.71.71,0,0,0,.41.58l5.51,3.2A2.22,2.22,0,0,0,261,280.64Z"/><path class="cls-13" d="M278.44,279.73l-1.5.86a2.2,2.2,0,0,1-2,0l-5.51-3.2a.71.71,0,0,1-.41-.57v-.73a.69.69,0,0,0,.41.58l5.5,3.2a2.22,2.22,0,0,0,2,0l1.5-.87a.71.71,0,0,0,.42-.58v.73A.71.71,0,0,1,278.44,279.73Z"/><path class="cls-13" d="M269.59,285.66l5.54-3.2a.72.72,0,0,0,.42-.59v.73a.71.71,0,0,1-.42.58l-5.54,3.2a2.16,2.16,0,0,1-2,0l-5.5-3.2a.69.69,0,0,1-.42-.57v-.73a.71.71,0,0,0,.41.58l5.51,3.2A2.22,2.22,0,0,0,269.59,285.66Z"/><path class="cls-13" d="M287.07,284.75l-1.49.86a2.22,2.22,0,0,1-2,0l-5.51-3.2a.71.71,0,0,1-.41-.58v-.73a.69.69,0,0,0,.41.58l5.51,3.2a2.2,2.2,0,0,0,2,0l1.5-.86a.71.71,0,0,0,.42-.59v.73A.72.72,0,0,1,287.07,284.75Z"/><path class="cls-13" d="M278.22,290.67l5.54-3.2a.71.71,0,0,0,.42-.58v.72a.67.67,0,0,1-.41.59l-5.55,3.2a2.2,2.2,0,0,1-2,0l-5.51-3.2a.69.69,0,0,1-.41-.58v-.72a.71.71,0,0,0,.42.57l5.5,3.2A2.22,2.22,0,0,0,278.22,290.67Z"/><path class="cls-13" d="M295.7,289.76l-1.49.87a2.19,2.19,0,0,1-2,0l-5.51-3.2a.69.69,0,0,1-.41-.57v-.73a.71.71,0,0,0,.41.58l5.51,3.2a2.22,2.22,0,0,0,2,0l1.49-.86a.73.73,0,0,0,.42-.59v.73A.71.71,0,0,1,295.7,289.76Z"/><path class="cls-13" d="M286.85,295.69l5.55-3.2a.71.71,0,0,0,.41-.59v.73a.73.73,0,0,1-.42.59l-5.55,3.2a2.2,2.2,0,0,1-2,0l-5.51-3.2a.71.71,0,0,1-.41-.58v-.73a.69.69,0,0,0,.41.58l5.5,3.2A2.22,2.22,0,0,0,286.85,295.69Z"/><path class="cls-13" d="M294.91,291.86v-.72a.7.7,0,0,0,.41.57l6.84,4a2.22,2.22,0,0,0,2,0l1.5-.86a.69.69,0,0,0,.41-.59V295a.71.71,0,0,1-.42.58l-1.5.87a2.2,2.2,0,0,1-2,0l-6.85-4A.71.71,0,0,1,294.91,291.86Z"/><path class="cls-13" d="M287.56,297.65v-.72a.69.69,0,0,0,.41.58l5.51,3.2a2.2,2.2,0,0,0,2,0l5.55-3.2a.73.73,0,0,0,.42-.59v.73a.71.71,0,0,1-.42.58l-5.54,3.2a2.22,2.22,0,0,1-2,0l-5.51-3.2A.71.71,0,0,1,287.56,297.65Z"/><path class="cls-13" d="M178.28,242.73l5.54-3.2a.72.72,0,0,0,.42-.59v.73a.71.71,0,0,1-.42.58l-5.55,3.2a2.14,2.14,0,0,1-2,0l-10.6-6.15a.71.71,0,0,1-.41-.58V236a.69.69,0,0,0,.41.58l10.59,6.16A2.22,2.22,0,0,0,178.28,242.73Z"/><path class="cls-13" d="M179.05,244.66v-.73a.73.73,0,0,0,.42.58l5.5,3.2a2.22,2.22,0,0,0,2,0l5.55-3.2a.71.71,0,0,0,.41-.59v.73a.72.72,0,0,1-.42.59l-5.55,3.2a2.2,2.2,0,0,1-2,0l-5.51-3.2A.69.69,0,0,1,179.05,244.66Z"/><path class="cls-13" d="M195.61,253.45a2.22,2.22,0,0,1-2,0l-5.51-3.2a.71.71,0,0,1-.41-.57V249a.69.69,0,0,0,.41.58l5.51,3.2a2.2,2.2,0,0,0,2,0l5.55-3.2a.73.73,0,0,0,.42-.59v.73a.71.71,0,0,1-.42.58Z"/><path class="cls-13" d="M204.23,257.74l5.55-3.2a.71.71,0,0,0,.42-.58v.72a.71.71,0,0,1-.42.59l-5.54,3.2a2.22,2.22,0,0,1-2,0l-5.51-3.2a.71.71,0,0,1-.41-.58V254a.71.71,0,0,0,.41.58l5.51,3.2A2.2,2.2,0,0,0,204.23,257.74Z"/><path class="cls-13" d="M212.87,262.76l5.54-3.2a.72.72,0,0,0,.42-.59v.73a.71.71,0,0,1-.42.58l-5.54,3.21a2.22,2.22,0,0,1-2,0l-5.51-3.2a.71.71,0,0,1-.41-.58V259a.71.71,0,0,0,.41.58l5.51,3.2A2.22,2.22,0,0,0,212.87,262.76Z"/><path class="cls-13" d="M221.5,267.77l5.54-3.2a.71.71,0,0,0,.42-.58v.73a.71.71,0,0,1-.42.58l-5.54,3.2a2.22,2.22,0,0,1-2,0l-5.5-3.2a.71.71,0,0,1-.42-.58V264a.7.7,0,0,0,.41.57l5.51,3.2A2.16,2.16,0,0,0,221.5,267.77Z"/><path class="cls-13" d="M230.13,272.79l5.54-3.2a.71.71,0,0,0,.42-.59v.73a.72.72,0,0,1-.42.59l-5.54,3.2a2.22,2.22,0,0,1-2,0l-5.5-3.2a.71.71,0,0,1-.42-.58V269a.71.71,0,0,0,.41.58l5.51,3.2A2.22,2.22,0,0,0,230.13,272.79Z"/><path class="cls-13" d="M238.76,277.81l5.54-3.2a.73.73,0,0,0,.42-.59v.73a.71.71,0,0,1-.41.58l-5.55,3.2a2.22,2.22,0,0,1-2,0l-5.5-3.2a.69.69,0,0,1-.41-.57V274a.71.71,0,0,0,.42.58l5.5,3.2A2.22,2.22,0,0,0,238.76,277.81Z"/><path class="cls-13" d="M247.39,282.82l5.54-3.2a.71.71,0,0,0,.42-.58v.72a.71.71,0,0,1-.42.59l-5.55,3.2a2.2,2.2,0,0,1-2,0l-5.51-3.2a.69.69,0,0,1-.41-.58V279a.73.73,0,0,0,.42.58l5.5,3.2A2.22,2.22,0,0,0,247.39,282.82Z"/><path class="cls-13" d="M256,287.84l5.55-3.2a.72.72,0,0,0,.42-.59v.73a.73.73,0,0,1-.42.59l-5.55,3.2a2.2,2.2,0,0,1-2,0l-5.51-3.21a.69.69,0,0,1-.41-.57v-.73a.69.69,0,0,0,.41.58l5.51,3.2A2.2,2.2,0,0,0,256,287.84Z"/><path class="cls-13" d="M264.65,292.85l5.55-3.2a.71.71,0,0,0,.42-.58v.73a.71.71,0,0,1-.42.58l-5.54,3.2a2.22,2.22,0,0,1-2,0l-5.51-3.2a.71.71,0,0,1-.41-.58v-.72a.7.7,0,0,0,.41.57l5.51,3.2A2.14,2.14,0,0,0,264.65,292.85Z"/><path class="cls-13" d="M173.85,250.28l5.54-3.2a.71.71,0,0,0,.42-.58v.73a.71.71,0,0,1-.42.58l-5.55,3.2a2.2,2.2,0,0,1-2,0l-14.91-8.66a.71.71,0,0,1-.42-.58V241a.71.71,0,0,0,.41.58l14.91,8.66A2.16,2.16,0,0,0,173.85,250.28Z"/><path class="cls-13" d="M180.48,256l-5.51-3.2a.71.71,0,0,1-.41-.58v-.73a.69.69,0,0,0,.41.58l5.51,3.2a2.2,2.2,0,0,0,2,0l5.55-3.2a.67.67,0,0,0,.41-.59v.73a.72.72,0,0,1-.42.59l-5.55,3.2A2.2,2.2,0,0,1,180.48,256Z"/><path class="cls-13" d="M189.11,261l-5.51-3.2a.7.7,0,0,1-.41-.57v-.73a.71.71,0,0,0,.41.58l5.51,3.2a2.2,2.2,0,0,0,2,0l5.55-3.2a.73.73,0,0,0,.42-.59v.73a.71.71,0,0,1-.42.58l-5.54,3.2A2.19,2.19,0,0,1,189.11,261Z"/><path class="cls-13" d="M197.74,266.06l-5.51-3.2a.71.71,0,0,1-.41-.58v-.72a.7.7,0,0,0,.41.57l5.51,3.2a2.22,2.22,0,0,0,2,0l5.54-3.2a.71.71,0,0,0,.42-.58v.73a.71.71,0,0,1-.42.58l-5.54,3.2A2.22,2.22,0,0,1,197.74,266.06Z"/><path class="cls-13" d="M206.37,271.08l-5.5-3.2a.71.71,0,0,1-.42-.58v-.73a.71.71,0,0,0,.41.58l5.51,3.2a2.22,2.22,0,0,0,2,0l5.54-3.2a.71.71,0,0,0,.42-.59v.73a.73.73,0,0,1-.42.59l-5.54,3.2A2.22,2.22,0,0,1,206.37,271.08Z"/><path class="cls-13" d="M162.38,246.57v.72a.71.71,0,0,1-.42.59l-5.54,3.2a2.22,2.22,0,0,1-2,0l-6.28-3.65a.71.71,0,0,1-.41-.58v-.73a.71.71,0,0,0,.41.58l6.28,3.65a2.22,2.22,0,0,0,2,0l5.54-3.2A.71.71,0,0,0,162.38,246.57Z"/><path class="cls-13" d="M163,256.09l-5.5-3.2a.69.69,0,0,1-.42-.57v-.73a.71.71,0,0,0,.41.58l5.51,3.2a2.22,2.22,0,0,0,2,0l5.54-3.2a.72.72,0,0,0,.42-.59v.73a.71.71,0,0,1-.42.58l-5.54,3.2A2.16,2.16,0,0,1,163,256.09Z"/><path class="cls-13" d="M171.67,261.11l-5.5-3.2a.73.73,0,0,1-.42-.58v-.72a.71.71,0,0,0,.42.57l5.5,3.2a2.22,2.22,0,0,0,2,0l5.54-3.2a.71.71,0,0,0,.42-.58v.72a.71.71,0,0,1-.42.59l-5.54,3.2A2.22,2.22,0,0,1,171.67,261.11Z"/><path class="cls-13" d="M180.31,266.13l-5.51-3.2a.69.69,0,0,1-.41-.58v-.73a.71.71,0,0,0,.42.58l5.5,3.2a2.22,2.22,0,0,0,2,0l5.54-3.2a.71.71,0,0,0,.42-.59v.73a.73.73,0,0,1-.43.59l-5.54,3.2A2.2,2.2,0,0,1,180.31,266.13Z"/><path class="cls-13" d="M188.94,271.14l-5.51-3.2a.71.71,0,0,1-.41-.57v-.73a.69.69,0,0,0,.41.58l5.51,3.2a2.2,2.2,0,0,0,2,0l5.55-3.2a.73.73,0,0,0,.42-.59v.73a.71.71,0,0,1-.42.58l-5.54,3.2A2.22,2.22,0,0,1,188.94,271.14Z"/><path class="cls-13" d="M197.57,276.16l-5.51-3.2a.71.71,0,0,1-.41-.58v-.73a.71.71,0,0,0,.41.58l5.51,3.2a2.2,2.2,0,0,0,2,0l5.55-3.2a.71.71,0,0,0,.42-.58v.72a.71.71,0,0,1-.42.59l-5.54,3.2A2.22,2.22,0,0,1,197.57,276.16Z"/><path class="cls-13" d="M215,276.09l-5.5-3.2a.73.73,0,0,1-.42-.57v-.73a.71.71,0,0,0,.42.58l5.5,3.2a2.22,2.22,0,0,0,2,0l5.54-3.2a.73.73,0,0,0,.42-.59v.73a.71.71,0,0,1-.42.58l-5.54,3.2A2.22,2.22,0,0,1,215,276.09Z"/><path class="cls-13" d="M223.64,281.11l-5.51-3.2a.69.69,0,0,1-.41-.58v-.73a.71.71,0,0,0,.42.58l5.5,3.2a2.22,2.22,0,0,0,2,0l5.54-3.2a.71.71,0,0,0,.42-.58v.72a.72.72,0,0,1-.42.59l-5.55,3.2A2.2,2.2,0,0,1,223.64,281.11Z"/><path class="cls-13" d="M206.2,281.18,200.69,278a.69.69,0,0,1-.41-.57v-.73a.71.71,0,0,0,.41.58l5.51,3.2a2.22,2.22,0,0,0,2,0l5.54-3.2a.72.72,0,0,0,.42-.59v.73a.73.73,0,0,1-.42.59l-5.54,3.2A2.22,2.22,0,0,1,206.2,281.18Z"/><path class="cls-13" d="M214.83,286.19l-5.5-3.2a.71.71,0,0,1-.42-.58v-.72a.7.7,0,0,0,.41.57l5.51,3.2a2.16,2.16,0,0,0,2,0l5.54-3.2a.71.71,0,0,0,.42-.58v.73a.71.71,0,0,1-.42.58l-5.54,3.2A2.22,2.22,0,0,1,214.83,286.19Z"/><path class="cls-13" d="M232.27,286.13l-5.51-3.21a.69.69,0,0,1-.41-.57v-.73a.69.69,0,0,0,.41.58l5.51,3.2a2.2,2.2,0,0,0,2,0l5.55-3.2a.69.69,0,0,0,.41-.59v.73a.71.71,0,0,1-.42.58l-5.55,3.21A2.2,2.2,0,0,1,232.27,286.13Z"/><path class="cls-13" d="M240.9,291.14l-5.51-3.2a.71.71,0,0,1-.41-.58v-.72a.7.7,0,0,0,.41.57l5.51,3.2a2.14,2.14,0,0,0,2,0l5.55-3.2a.71.71,0,0,0,.42-.58v.73a.71.71,0,0,1-.42.58l-5.54,3.2A2.22,2.22,0,0,1,240.9,291.14Z"/><path class="cls-13" d="M223.46,291.21,218,288a.73.73,0,0,1-.42-.58v-.73a.71.71,0,0,0,.42.58l5.5,3.2a2.22,2.22,0,0,0,2,0l5.54-3.2a.71.71,0,0,0,.42-.59v.73a.72.72,0,0,1-.42.59l-5.54,3.2A2.22,2.22,0,0,1,223.46,291.21Z"/><path class="cls-13" d="M232.1,296.22l-5.51-3.2a.69.69,0,0,1-.41-.57v-.73a.71.71,0,0,0,.42.58l5.5,3.2a2.22,2.22,0,0,0,2,0l5.54-3.2a.73.73,0,0,0,.42-.59v.73a.67.67,0,0,1-.41.58l-5.55,3.2A2.17,2.17,0,0,1,232.1,296.22Z"/><path class="cls-13" d="M139.44,251.72l5.51,3.2a2.22,2.22,0,0,0,2,0l5.54-3.2a.72.72,0,0,0,.42-.59v.73a.73.73,0,0,1-.42.59l-5.54,3.2a2.22,2.22,0,0,1-2,0l-5.51-3.2a.71.71,0,0,1-.41-.58v-.73A.71.71,0,0,0,139.44,251.72Z"/><path class="cls-13" d="M161.34,257.58l-1.49.87a2.22,2.22,0,0,1-2,0l-5.51-3.2a.71.71,0,0,1-.41-.58v-.73a.71.71,0,0,0,.41.58l5.51,3.2a2.22,2.22,0,0,0,2,0l1.49-.86a.72.72,0,0,0,.42-.59V257A.71.71,0,0,1,161.34,257.58Z"/><path class="cls-13" d="M148.28,256.86l5.51,3.2a2.22,2.22,0,0,0,2,0l1.49-.87a.71.71,0,0,0,.42-.58v.73a.71.71,0,0,1-.42.58l-1.49.86a2.19,2.19,0,0,1-2,0l-5.5-3.2a.69.69,0,0,1-.42-.57v-.73A.71.71,0,0,0,148.28,256.86Z"/><path class="cls-13" d="M156.92,261.87l5.5,3.2a2.22,2.22,0,0,0,2,0l5.54-3.2a.71.71,0,0,0,.42-.58V262a.71.71,0,0,1-.42.59l-5.54,3.2a2.2,2.2,0,0,1-2,0l-5.51-3.2a.69.69,0,0,1-.41-.58v-.72A.71.71,0,0,0,156.92,261.87Z"/><path class="cls-13" d="M165.55,266.89l5.5,3.2a2.22,2.22,0,0,0,2,0l5.54-3.2a.71.71,0,0,0,.42-.59V267a.73.73,0,0,1-.42.59l-5.55,3.2a2.2,2.2,0,0,1-2,0l-5.51-3.2a.69.69,0,0,1-.41-.58v-.73A.73.73,0,0,0,165.55,266.89Z"/><path class="cls-13" d="M174.18,271.9,224,300.84a2.2,2.2,0,0,0,2,0l5.55-3.2a.72.72,0,0,0,.42-.59v.73a.73.73,0,0,1-.42.59l-5.54,3.2a2.22,2.22,0,0,1-2,0l-49.79-28.94a.71.71,0,0,1-.41-.58v-.72A.67.67,0,0,0,174.18,271.9Z"/><path class="cls-13" d="M257.08,293l-5.54,3.2a2.22,2.22,0,0,1-2,0L244,293a.71.71,0,0,1-.41-.58v-.73a.71.71,0,0,0,.41.58l5.51,3.2a2.22,2.22,0,0,0,2,0l5.54-3.2a.71.71,0,0,0,.42-.59v.73A.72.72,0,0,1,257.08,293Z"/><path class="cls-13" d="M240.73,301.24l-5.51-3.2a.71.71,0,0,1-.41-.58v-.73a.69.69,0,0,0,.41.58l5.51,3.2a2.2,2.2,0,0,0,2,0l5.54-3.2a.67.67,0,0,0,.42-.58v.72a.71.71,0,0,1-.42.59l-5.55,3.2A2.2,2.2,0,0,1,240.73,301.24Z"/><path class="cls-13" d="M227.09,302.65l5.51,3.2a2.16,2.16,0,0,0,2,0l5.54-3.2a.71.71,0,0,0,.42-.58v.73a.71.71,0,0,1-.42.58l-5.54,3.2a2.22,2.22,0,0,1-2,0l-5.51-3.2a.71.71,0,0,1-.41-.58v-.72A.7.7,0,0,0,227.09,302.65Z"/><path class="cls-13" d="M278.83,295.4l-5.54,3.2a2.22,2.22,0,0,1-2,0l-5.51-3.2a.71.71,0,0,1-.41-.58v-.73a.71.71,0,0,0,.41.58l5.51,3.2a2.22,2.22,0,0,0,2,0l5.54-3.2a.71.71,0,0,0,.42-.59v.73A.72.72,0,0,1,278.83,295.4Z"/><path class="cls-13" d="M265.71,298l-5.54,3.2a2.22,2.22,0,0,1-2,0l-5.51-3.2a.71.71,0,0,1-.41-.57v-.73a.71.71,0,0,0,.41.58l5.51,3.2a2.22,2.22,0,0,0,2,0l5.54-3.2a.73.73,0,0,0,.42-.59v.73A.71.71,0,0,1,265.71,298Z"/><path class="cls-13" d="M256.91,303.06l-5.54,3.2a2.22,2.22,0,0,1-2,0l-5.51-3.2a.71.71,0,0,1-.41-.58v-.73a.71.71,0,0,0,.41.58l5.51,3.2a2.2,2.2,0,0,0,2,0l5.55-3.2a.72.72,0,0,0,.42-.59v.73A.73.73,0,0,1,256.91,303.06Z"/><path class="cls-13" d="M235.72,307.67l5.51,3.2a2.22,2.22,0,0,0,2,0l5.54-3.2a.71.71,0,0,0,.42-.59v.73a.72.72,0,0,1-.42.59l-5.54,3.2a2.22,2.22,0,0,1-2,0l-5.51-3.2a.71.71,0,0,1-.41-.58v-.73A.71.71,0,0,0,235.72,307.67Z"/><path class="cls-13" d="M273.93,299.87v-.73a.71.71,0,0,0,.41.58l10.39,6a2.22,2.22,0,0,0,2,0l5.54-3.21a.71.71,0,0,0,.42-.58v.73a.71.71,0,0,1-.42.58l-5.54,3.2a2.22,2.22,0,0,1-2,0l-10.38-6A.73.73,0,0,1,273.93,299.87Z"/><path class="cls-13" d="M260.87,302.41v-.73a.71.71,0,0,0,.41.58L276,310.8a2.16,2.16,0,0,0,2,0l5.54-3.2A.71.71,0,0,0,284,307v.73a.71.71,0,0,1-.42.58l-5.55,3.2a2.2,2.2,0,0,1-2,0L261.29,303A.71.71,0,0,1,260.87,302.41Z"/><path class="cls-13" d="M252.07,307.49v-.72a.7.7,0,0,0,.41.57l14.7,8.55a2.22,2.22,0,0,0,2,0l5.54-3.2a.72.72,0,0,0,.42-.59v.73a.71.71,0,0,1-.42.58l-5.54,3.2a2.19,2.19,0,0,1-2,0l-14.7-8.54A.71.71,0,0,1,252.07,307.49Z"/><path class="cls-13" d="M244.35,312.69l5.51,3.2a2.22,2.22,0,0,0,2,0l5.54-3.2a.72.72,0,0,0,.42-.59v.73a.71.71,0,0,1-.42.58l-5.54,3.2a2.19,2.19,0,0,1-2,0l-5.5-3.2a.69.69,0,0,1-.42-.57v-.73A.71.71,0,0,0,244.35,312.69Z"/><path class="cls-13" d="M253,317.7l5.5,3.2a2.22,2.22,0,0,0,2,0l5.54-3.2a.71.71,0,0,0,.42-.58v.72a.71.71,0,0,1-.42.59l-5.54,3.2a2.2,2.2,0,0,1-2,0l-5.51-3.2a.69.69,0,0,1-.41-.58v-.72A.71.71,0,0,0,253,317.7Z"/><path class="cls-97" d="M134.19,290.13c-1.74,1-1.75,2.63,0,3.64l53,30.78a6.89,6.89,0,0,0,6.28,0L223.3,307.3c1.74-1,1.75-2.63,0-3.64l-53-30.78a6.89,6.89,0,0,0-6.28,0Z"/><path class="cls-16" d="M223.32,304.79l-53-30.78a6.89,6.89,0,0,0-6.28,0l-29.88,17.25a2.56,2.56,0,0,0-1.2,1.26c-.33-.83.07-1.74,1.2-2.39l29.88-17.25a6.89,6.89,0,0,1,6.28,0l53,30.78c1.11.65,1.5,1.55,1.18,2.38A2.58,2.58,0,0,0,223.32,304.79Z"/><polygon class="cls-98" points="199.33 217.12 212.7 224.89 215.24 223.42 218.79 218.71 204.39 210.39 199.33 217.12"/><polygon class="cls-98" points="307.73 280.12 320.61 287.6 324.4 285.41 327.41 281.42 313.01 273.11 307.73 280.12"/><polygon class="cls-13" points="218.79 218.71 218.85 221.34 215.24 223.42 218.79 218.71"/><polygon class="cls-99" points="327.41 281.42 327.4 284.42 326.76 284.05 324.4 285.41 327.41 281.42"/><path class="cls-100" d="M260.33,221.92a11.83,11.83,0,0,1-.12,1.71c-.07.35-.12.8-.19,1.32-.14,1.33-.28,3.17-.4,5.37l-4.85-2.79L249,224.22l-.56-.33-4.78-2.77-9.06-5.23-7.12-4.12c.09-2.43.26-4.89.56-7.31.07-.68.19-1.37.29-2v0c.07-.45.14-.88.23-1.31.17-.87.34-1.72.55-2.57,0,0,0,0,0-.05,1.44-6,4-11.19,8.31-14.48,0,0,.75-.54,1.91-1.25a34.15,34.15,0,0,1,4.47-2.42l0,0c2-.88,4-1.35,5-.5a13.81,13.81,0,0,1,2,4v0c.14.38.31.76.45,1.19,0,0,0,0,0,0,.62,1.7,1.33,3.71,2,5.94.4,1.27.83,2.62,1.23,4v0a6.35,6.35,0,0,1,.28,1c.17.52.33,1.09.47,1.63l0,0c0,.19.12.4.16.59v0a2.17,2.17,0,0,1,.07.24v0a.18.18,0,0,0,0,.12c.07.21.14.47.19.69.12.4.23.8.35,1.23v0a8.48,8.48,0,0,1,.24.9.46.46,0,0,1,.07.26.44.44,0,0,1,.05.15l.21.8v0s0,0,0,0,0,0,0,.05c.07.33.16.66.23,1s.17.61.24.92.21.88.33,1.3v0c.33,1.34.64,2.67.9,4,.17.68.31,1.35.43,2,.4,1.89.71,3.67.92,5.28v0c.07.45.12.87.16,1.3a3.25,3.25,0,0,1,.08.69,13.17,13.17,0,0,1,.11,1.34C260.31,221.09,260.33,221.52,260.33,221.92Z"/><path class="cls-101" d="M260.33,221.92a11.83,11.83,0,0,1-.12,1.71c-.07.35-.12.8-.19,1.32-.14,1.33-.28,3.17-.4,5.37l-4.85-2.79L249,224.22l-.56-.33-4.78-2.77a66.67,66.67,0,0,1-.5-12.9,8.24,8.24,0,0,1,0-.85l.07-1c0-.31,0-.59.07-.9,0,0,0-.07,0-.07a2.42,2.42,0,0,1,.07-.47v0s0-.07,0-.12a9,9,0,0,1,.14-1.15c.17-1.38.38-2.7.66-4,.08-.26.12-.52.19-.78a15.51,15.51,0,0,1,.6-2c.07-.24.14-.45.23-.69a14.94,14.94,0,0,1,1.14-2.41c1.09-1.82,3.71-2.84,7-2.86.4,1.27.83,2.62,1.23,4v0a6.35,6.35,0,0,1,.28,1c.17.52.33,1.09.47,1.63l0,0c0,.19.12.4.16.59v0a2.17,2.17,0,0,1,.07.24v0c.08.24.15.45.22.69.12.45.23.9.35,1.35v0c.1.29.17.59.26.88l.07.28a.44.44,0,0,0,.05.15c.05.28.12.54.19.8v0s0,0,0,0,0,0,0,.05c.07.33.16.66.23,1,0,0,0,0,0,0,.07.31.14.62.21.9.12.45.21.88.33,1.3v0c.33,1.34.64,2.67.9,4,.17.68.31,1.35.43,2,.4,1.89.71,3.67.92,5.28v0c.07.45.12.87.16,1.3a3.25,3.25,0,0,1,.08.69,13.17,13.17,0,0,1,.11,1.34C260.31,221.09,260.33,221.52,260.33,221.92Z"/><path class="cls-102" d="M249,224.22l-.56-.33c0-1.26-.05-2.46-.1-3.6-.07-2.06-.19-3.83-.33-5.18l.54-.05c.15,1.4.26,3.29.34,5.49C249,221.71,249,222.94,249,224.22Z"/><path class="cls-103" d="M247.31,193.82s-3.46,12.9-2.31,22.91c.45,4,10.38,5.92,10.38,5.92s8.53-8.55,8.56-14.2a45.12,45.12,0,0,0-.26-7Z"/><path class="cls-102" d="M255.88,197.18s-3.46,12.9-2.31,22.91C254,224.07,264,226,264,226s8.53-8.55,8.56-14.2a45.12,45.12,0,0,0-.26-7Z"/><path class="cls-104" d="M292.5,220.93c0,1.37,0,2.86,0,4.47-.07,4.54-.88,13.15-1.94,22.76l-5.3-3-2.82-1.64-.52-.28-22.26-12.87-4.85-2.79c-.07-1.4-.14-3.12-.16-5V222a117.9,117.9,0,0,1,.64-15.24c.18-1.65.42-3.26.73-4.8a.64.64,0,0,1,0-.23.5.5,0,0,1,0-.17,4.8,4.8,0,0,1,.09-.5c0-.19.08-.35.12-.52v0c.19-.78.38-1.54.59-2.27,0-.19.1-.38.17-.57a6.5,6.5,0,0,1,.28-.85c.07-.29.19-.57.29-.86s.19-.45.3-.71.26-.47.41-.75c.07-.12.16-.26.23-.4a2.4,2.4,0,0,1,.19-.29c.12-.19.24-.4.4-.61a22.28,22.28,0,0,1,5.35-5.54,14.56,14.56,0,0,1,10.36-2.77l.88.14c.23.05.47.1.71.17a5.41,5.41,0,0,1,.85.24c.4.12.8.26,1.23.42a14.22,14.22,0,0,1,2.51,1.19,11,11,0,0,1,1.13.66h0c.16.12.35.21.52.35.42.29.9.59,1.35.95.23.16.47.35.71.54s.59.48.87.74a10.08,10.08,0,0,1,1,.9c.36.3.71.63,1.07,1l.14.14a10.83,10.83,0,0,1,2.27,4.57c2.25,7.4,2.34,19.73,2.34,19.73C292.48,218,292.5,219.37,292.5,220.93Z"/><path class="cls-101" d="M292.5,220.93c0,1.37,0,2.86,0,4.47-.07,4.54-.88,13.15-1.94,22.76l-5.3-3c.52-7,.83-13.16.71-17-.14-4.89-.31-10.26-.71-15.35-.1-1.16-.19-2.32-.31-3.43a69.85,69.85,0,0,0-1.7-10.29,28.69,28.69,0,0,0-1.63-4.64s-.05-.09-.08-.14c-.18-.38-.4-.76-.59-1.09a8,8,0,0,0-2.46-2.69,2.33,2.33,0,0,1-.71-.78,6.61,6.61,0,0,1-.47-4.26c.4.12.8.26,1.23.42a19.46,19.46,0,0,1,2.51,1.19,11,11,0,0,1,1.13.66h0c.16.12.35.21.52.35.42.29.9.59,1.35.95.23.16.47.35.71.54s.59.48.87.74a10.08,10.08,0,0,1,1,.9c.36.3.71.63,1.07,1l.14.14a10.83,10.83,0,0,1,2.27,4.57c2.25,7.4,2.34,19.73,2.34,19.73C292.48,218,292.5,219.37,292.5,220.93Z"/><path class="cls-102" d="M283.16,229c-.05,3.21-.33,8.32-.76,14.47l-.52-.28c.38-6,.67-11.05.74-14.22.16-9.86-.64-21.69-2.39-29a30.15,30.15,0,0,0-1-3.24c-.21-.55-.43-1-.64-1.47-.14-.28-.28-.52-.42-.76l.47-.28a6,6,0,0,1,.47.88,11.88,11.88,0,0,1,.55,1.23,28.66,28.66,0,0,1,1,3.47C282.52,207.11,283.33,218.85,283.16,229Z"/><path class="cls-13" d="M264.2,167.64l19.87,7.57v13.13c0,3.47-2.21,6.17-4.87,8.42l-7.92,4.58a12,12,0,0,1-7.49,1.89c-18.42-2.63-21.92-10.9-22.54-11.66a8.28,8.28,0,0,1-1.89-5.26V160.68Z"/><path class="cls-105" d="M208.55,159.65C206,161.84,195,146.6,197.94,140.6s17.7-35.93,24.12-46.12,15-10.24,19.75-8.61-10.18,34.86-16.29,47.77S208.55,159.65,208.55,159.65Z"/><rect class="cls-102" x="196.83" y="130.4" width="39.44" height="0.55" transform="translate(7.79 273.47) rotate(-65.48)"/><path class="cls-106" d="M203.45,156.34c2.87-1,10.33-14.07,22.4-44.29,0,0,2,3.12,5.61,8.56-2.24,5.09-4.38,9.72-5.94,13-6.11,12.91-17,26-17,26C207.62,160.45,205.55,158.91,203.45,156.34Z"/><path class="cls-102" d="M228.29,131.88c-6-5.59-6.31-20.86-4.58-30.1,1.79-9.56,9.85-15.47,17.71-15.44C250.14,86.37,228.29,131.88,228.29,131.88Z"/><path class="cls-102" d="M197.77,141.23c.87-.56,8.2,1.62,10.93,7.48,1.85,4,1.72,8.73,0,10.83-1.28,1.51-4.75,2.56-6.89.46S194.87,147.26,197.77,141.23Z"/><path class="cls-107" d="M168,131.36a5.09,5.09,0,0,1,2-.19s4.33,1.32,7.45,2.54c4.58,1.8,16.8,6.22,20.86,7.52a22.62,22.62,0,0,1,6.67,3.49c3,2.63,5.56,8,4.26,12.38-1.42,4.69-3.32,4.35-5.88,4.31-7.54-.13-39.19-16.63-39.19-16.63A25.4,25.4,0,0,1,168,131.36Z"/><path class="cls-108" d="M208.7,150.37a10.72,10.72,0,0,1,.47,6.73c-1.42,4.69-3.32,4.35-5.88,4.31-7.54-.13-39.19-16.63-39.19-16.63a25.39,25.39,0,0,1,.87-6.55c8.42,3.82,21.91,9.93,26.34,12C197.69,153.15,205.09,156.07,208.7,150.37Z"/><path class="cls-102" d="M168.22,131.34c1.79-1.32,4.14,1,2,6.32s-6.38,9.69-6.91,5.53S168.22,131.34,168.22,131.34Z"/><path class="cls-109" d="M168.28,139.76c1.22-1.7,1.83-5.91,1.6-7.56s-2.54-7.41-2.65-8-2.61-5.6-2.61-5.6-2.57-4.92-3.9-4.33-1.09,3.59-.89,4.64,2.35,6.67,2.35,6.67l-2.58-1.84s-9-9.43-10.19-9.52a1.79,1.79,0,0,0-1.35,3.08c1.44,1.73,7.27,8.46,7.27,8.46s-2.21-.5-2.8-.17-.64,3.88-.64,3.88a10.72,10.72,0,0,0-.74,3.43l.07,1.35s-4.92,0-4.42,1.07c1.21,2.61,6,5.75,6,5.75s4.49,2,6.79,2.79c2.07.69,3.69,1,5.31-.08A13.24,13.24,0,0,0,168.28,139.76Z"/><path class="cls-13" d="M160.88,121.82c1.44,1.46,5.88,1.07,4.71-1.27a51.15,51.15,0,0,1,3.77,9.71c-1.73-3.38-5.84-1.16-7.16-4.48A24.41,24.41,0,0,1,160.88,121.82Z"/><path class="cls-13" d="M149.93,119.49c.64,0,3.21-1.24,2.93-2.49,2.86,2.79,7.33,7.51,8.76,8.28-3.13.4-2.85,4.14-4.84,2.56S149.93,119.49,149.93,119.49Z"/><path class="cls-110" d="M157.89,138.77a4.34,4.34,0,0,0,2.5.07c1.17-.39.66-2.68.66-2.68a3.73,3.73,0,0,0,.82-1.85,2.22,2.22,0,0,0-.58-1.33,2.41,2.41,0,0,0,1.29-1.48,2.69,2.69,0,0,0-.55-1.89l-7.08-4.3s-2.5-2.13-4.31-1.08-4.92,5.94-4.49,9S150.62,136.32,157.89,138.77Z"/><path class="cls-13" d="M150.64,124.23c1.81-1,4.31,1.08,4.31,1.08l5.93,3.6h0c-2.06-1.25-2.53-.47-2.72,0a9,9,0,0,0-.57,2.07l.61.46s-1.33,2.14-.84,3.36c-1-.27-1.26,2.65-.76,3.12a5.74,5.74,0,0,0,1.29.85c-2-.26-6.51-1.28-6.51-1.28-3.49-.72-4.8-1.25-5.23-4.28S148.82,125.28,150.64,124.23Z"/><path class="cls-111" d="M268.59,95.85c19.82,9.92,24,14.61,27.78,18s4.89,9.92,3.22,20.12-11.88,42.83-21.11,49.92-24.4,2.47-29,.26-8.35-4.75-15.25-19.72-9.43-42.09-10.58-51.06-.76-15.73,4.23-20.29,11.36-6.79,20.37-4.1S268.59,95.85,268.59,95.85Z"/><path class="cls-101" d="M251.27,101.77a14,14,0,0,1,3.63-10.66,111.25,111.25,0,0,0,15.19,3.6c19.82,9.92,24,14.61,27.78,18a10.89,10.89,0,0,1,2.85,4.55c-.27-.15-2,.82-2.34.6-8.09-6-13.91-13.28-19.16-11.91s-8.1,10.69-21.46,8.07S244.63,106.82,251.27,101.77Z"/><path class="cls-101" d="M243.73,180.22c11.17,7.33,22.89,6.63,27.85-1.86,7-12,5-24,8.89-48.25a82.93,82.93,0,0,1,16.07-16.06c3.48,3.34,4.69,9.92,3,19.94-1.67,10.2-11.88,42.84-21.11,49.93s-24.4,2.47-29,.26A18.53,18.53,0,0,1,243.73,180.22Z"/><path class="cls-102" d="M298.87,116.3c-3.69-3.52-3.48-3.56-3.48-3.56s-5.32-2.49-10.47,4.54c-6.77,9.24-6.62,34.31.25,33.49S298.87,116.3,298.87,116.3Z"/><path class="cls-13" d="M248.45,92.21c0-.47-.92,12.6-.21,15.23s9.62,5.88,12.78,5.21S273,106,274.34,104.07a7.17,7.17,0,0,0,1.09-4.53c-.6-.72-3.58-16.79-3.54-18s-12.16.5-12.16.5Z"/><path class="cls-112" d="M287.77,51.59s-4-4-21.29-12.6c-2-1-5.28-.37-9,1.38L278.72,53C282.49,51.22,285.81,50.44,287.77,51.59Z"/><path class="cls-113" d="M236.19,81c1-11.78,3.71-29.49,12.66-35.56,1.28-.86,2.58-1.7,3.87-2.48l-3.37,2c-1.41.82-2.87,1.75-4.3,2.71-5.06,3.08-7.3,15.6-8.37,25.83v0C236.48,76.08,236.3,78.6,236.19,81Z"/><path class="cls-114" d="M256.88,104.51a1.8,1.8,0,0,0,.14.41,1.73,1.73,0,0,0,1.48,1l.23,0h.08a.92.92,0,0,1,.37,0h0c1.38,0,6.24-1.53,6.24-1.53l.15-.13c.38-.19.66-.73,1-1l4.16-2.42c-.57.32-1.14.63-1.71.9-1.52.67-2.46.85-3,1.09l-.53.22c.43-7.58,1.7-33.37,9.28-38a60.14,60.14,0,0,1,7.78-4.55c4-1.82,6.36-2,6.73-.81a1.75,1.75,0,0,1,.14.77c0-1.84,0-3.67,0-5.51a5.24,5.24,0,0,0-.27-1.83c-1.32-3.23-5.5-2.59-10.44-.29a63.65,63.65,0,0,0-8.6,5c-12.74,8.65-12.9,40.91-13.26,46A2.14,2.14,0,0,0,256.88,104.51Z"/><path class="cls-115" d="M270.13,58a63.65,63.65,0,0,1,8.6-5c4.94-2.3,9.12-2.94,10.44.29a1.72,1.72,0,0,0,.07.21,16.9,16.9,0,0,0-6.88,1.93,63.56,63.56,0,0,0-8.59,5c-12.33,8.36-12.88,38.83-13.23,45.42a7.53,7.53,0,0,1-1.35.15h0a.92.92,0,0,0-.37,0h-.08l-.23,0a1.73,1.73,0,0,1-1.48-1,1.8,1.8,0,0,1-.14-.41,2.14,2.14,0,0,1,0-.51C257.23,98.91,257.39,66.65,270.13,58Z"/><path class="cls-115" d="M270.77,101l-1.37.8v-.08C269.86,101.46,270.32,101.23,270.77,101Z"/><path class="cls-116" d="M282.6,60.65a58,58,0,0,0-7.78,4.56c-8.11,4.91-9,34.05-9.39,39.26a39.43,39.43,0,0,0,4.66-2.7c2.81-1.91,5.29-3.83,6.74-6.11,4.58-6.93,13.88-33.4,12.5-35.82C289,58.67,286.58,58.83,282.6,60.65Z"/><path class="cls-112" d="M244,50.67c.45-.51,2.66-2.42,8.58.12,6.77,2.91,12.15,6.33,12.89,7.75a5.07,5.07,0,0,1,.42,3.32.23.23,0,0,1,0,.11s0,.05,0,.07c-.05.2-.11.39-.16.6A17.46,17.46,0,0,1,270.14,58a63.92,63.92,0,0,1,8.58-5L257.43,40.37c-1.51.71-3.11,1.58-4.7,2.53-1.31.78-2.6,1.62-3.88,2.49A17.54,17.54,0,0,0,244,50.67Z"/><path class="cls-117" d="M236.1,85.6c0,.6,0,1.18.05,1.75.23,4.76,1.16,8.38,3.08,11a20.09,20.09,0,0,0,1.85,1.74A37.48,37.48,0,0,0,255,105.68h0a37.18,37.18,0,0,0,3.73.29h-.06l-.23,0a2.14,2.14,0,0,1-1.48-1c.46-.67,1.06-3.07,1.75-6.49q.12-.58.24-1.2c1.87-9.57,4.34-25.56,6.65-34.58.05-.21.11-.4.16-.6,0,0,0,0,0-.07a.61.61,0,0,0,0-.11,5.11,5.11,0,0,0-.42-3.33c-.74-1.41-6.42-5.59-13.19-8.49-5.93-2.55-7.83.11-8.29.63l0,0-.06.09s0,0,0,0C237.45,57.91,237,71.73,236.19,81v0C236.11,82.63,236.07,84.16,236.1,85.6Z"/><path class="cls-13" d="M272.46,85.55c-.27,3.4,1.65,5.21,4.28,4s5-4.88,5.26-8.29-1.65-5.21-4.28-4S272.73,82.15,272.46,85.55Z"/><path class="cls-13" d="M273.4,85.6c-.25,3.08,1.49,4.72,3.88,3.66s4.52-4.43,4.77-7.51-1.5-4.73-3.89-3.67S273.64,82.51,273.4,85.6Z"/><path class="cls-118" d="M275.47,85.14c-.15,2,.95,3,2.46,2.32a6.1,6.1,0,0,0,3-4.76c.16-2-.94-3-2.45-2.32A6.1,6.1,0,0,0,275.47,85.14Z"/><path class="cls-116" d="M276.14,84.84c-.12,1.48.72,2.27,1.86,1.76A4.64,4.64,0,0,0,280.29,83c.12-1.48-.72-2.27-1.86-1.76A4.64,4.64,0,0,0,276.14,84.84Z"/><path class="cls-13" d="M287.14,206c-1.34.21-2.38,2.3-2.33,4.67s1.2,4.13,2.54,3.92,2.38-2.3,2.33-4.67S288.48,205.76,287.14,206Z"/><path class="cls-106" d="M286.75,207.64c-.83.13-1.47,1.41-1.43,2.87s.73,2.53,1.56,2.4,1.46-1.41,1.43-2.87S287.57,207.51,286.75,207.64Z"/><path class="cls-119" d="M287.62,116.09c7.56-6.24,13.29-.88,15.67,6.84s7.88,61.44,4.38,66.2-17.24,2.75-18.73-8.23-5.32-22.76-6.8-36.52a80.55,80.55,0,0,1-.27-14.17C282.92,121.4,286.22,117.25,287.62,116.09Z"/><path class="cls-106" d="M281.87,130.21c.18-1.44.41-2.75.68-4,1.11,15.91,11.68,55.2,11.68,55.2l6.93,1.23c4.88-.41,4.88.41,4.27-7.89s-2.14-29.88-3.87-41.59c-1.46-9.93-2-15.81-5.19-19.42,3.18,1.2,5.58,4.8,6.92,9.14,2.39,7.72,7.88,61.44,4.38,66.2s-17.24,2.75-18.73-8.23-5.32-22.76-6.8-36.52A80.55,80.55,0,0,1,281.87,130.21Z"/><path class="cls-102" d="M288.47,177.71c0-1.16,4.8-4,10.68-2.49s7.94,4.62,8.62,7.72.45,4.77-.1,6.19c-.12.32-1.92,2.72-6.08,2.42S288.22,190.45,288.47,177.71Z"/><path class="cls-120" d="M290.09,176.85c3.87-2,9-1.33,12.38.36a8.69,8.69,0,0,1,4.9,6.67,26.77,26.77,0,0,1,.1,3.84c-.05,3.13-5.07,4.86-11,7.05s-32.34,10.15-35.74,10.62-6.19-5.53-4.66-9.73l2.29-2.07Z"/><path class="cls-108" d="M256.28,201.53c1.28-.31,2.09-.48,2.09-.48s30.93-10.68,36.17-12.66c4.92-1.87,10.73-3.19,11.36-8.25a8.27,8.27,0,0,1,1.47,3.74,26.77,26.77,0,0,1,.1,3.84c-.05,3.13-5.07,4.86-11,7.05s-32.34,10.15-35.74,10.62C258.86,205.66,257.15,203.88,256.28,201.53Z"/><path class="cls-102" d="M256,196.43c.86-2.27,1.68-2.14,2.31-1.91s2.73,1.63,2.37,5.93-1,4.68-1.48,4.68-2.82-1.58-3.1-3.08A40,40,0,0,1,256,196.43Z"/><path class="cls-112" d="M239.19,200a23.24,23.24,0,0,1,11.4-4.27c3.66-.3,8.59.67,8.74,4.27s-.56,6.19-3.05,6.65-10.63,2.08-13.11,1.63S237.66,201.08,239.19,200Z"/><path class="cls-121" d="M229.15,198.49s9.4,1.11,10.25,1.31,2.1,2.79,1.8,3.75,1.37,2.32-3.86,1.58-11.11-3.52-11.53-4.08S224,197.66,229.15,198.49Z"/><path class="cls-13" d="M228.94,198.46c1.44.41,2.15,1,2.25,2.22a12.64,12.64,0,0,1-.12,2.63h10.17a6.64,6.64,0,0,0-.66-2.71c-.58-.86-.8-.76-1.66-.88S228.94,198.46,228.94,198.46Z"/><path class="cls-122" d="M228.41,201.05c3.33,1,10,1.56,11.21,1.75s1.19-1.87,2.66.18c.44.63,2.45,3.89-.24,4.08a31.57,31.57,0,0,1-12-1.88c-4.28-1.64-5.42-1.42-4.71-3.2S228.41,201.05,228.41,201.05Z"/><path class="cls-13" d="M231.47,201.73l8.6,1.06,1.74-.53s1.5,1,1.93,4.07c.19,1.35-1.4,1.27-2.93,1.35s-8.87-1.06-11.38-2.73C232.52,204.85,231.47,201.73,231.47,201.73Z"/><path class="cls-13" d="M250,197a8.37,8.37,0,0,1,8-1.73c1.18.47,1.81,1.5,1.82,3.7s-1.29,2.53-3.13,2.88-10.23,2.43-11.87,2.22-3.92-2.69-1.27-4.07S250,197,250,197Z"/><path class="cls-123" d="M243.91,198.87a4,4,0,0,1,4.39,4.44c-.44,2.33-6.8,1.36-7.41,1.21S236.54,199.53,243.91,198.87Z"/><path class="cls-124" d="M197.06,141.06c2.33.95,6.89,3.26,9.26,7.77-18.17-6.61-35-13.27-35-13.27s.51-2.29-.38-3.68Z"/><path class="cls-118" d="M251.86,82.32l5.81,3.35a3.89,3.89,0,0,0,.32-1,5.54,5.54,0,0,0-2.39-5.44c-1.67-1-3.33-.11-3.69,1.93A4.33,4.33,0,0,0,251.86,82.32Z"/><path class="cls-118" d="M239,74.89l5.81,3.35a3.52,3.52,0,0,0,.31-1,5.53,5.53,0,0,0-2.38-5.44c-1.67-1-3.34-.11-3.7,1.93A4.8,4.8,0,0,0,239,74.89Z"/><path class="cls-118" d="M236.1,85.6c0,.6,0,1.18.05,1.75a23.84,23.84,0,0,0,3.73,2.45l.79.46a2,2,0,0,1,1,1.7l0,1.48a2.94,2.94,0,0,0,1.45,2.45l.5.29a1.83,1.83,0,0,0,1.81,0,1.8,1.8,0,0,0,.91-1.57v-4.2a.57.57,0,0,1,.29-.51.59.59,0,0,1,.59,0l.81.47a2,2,0,0,1,1,1.67l0,.91a2.86,2.86,0,0,0,1.6,2.49,40.57,40.57,0,0,0,8,3q.12-.58.24-1.2a40.41,40.41,0,0,1-7.75-2.87,1.65,1.65,0,0,1-.92-1.45l0-.9a3.21,3.21,0,0,0-1.62-2.69l-.81-.47a1.81,1.81,0,0,0-2.71,1.57v4.2a.57.57,0,0,1-.3.51.59.59,0,0,1-.59,0l-.5-.29a1.72,1.72,0,0,1-.84-1.42l0-1.47a3.26,3.26,0,0,0-1.61-2.74l-.8-.46A16.78,16.78,0,0,1,236.1,85.6Z"/><path class="cls-125" d="M243.86,50.79h0s0,0,0,0Z"/><path class="cls-13" d="M245.1,119.42c12.81,5.12,19.91,11,17.86,24.08s-8.37,20.42-12.51,19.51-11.33-12.07-14.65-25.53S235.13,115.43,245.1,119.42Z"/><path class="cls-13" d="M245.57,121.52c11.51,4.61,17.89,9.94,16.05,21.65s-7.52,18.36-11.24,17.54-10.19-10.85-13.17-23S236.61,117.94,245.57,121.52Z"/><path class="cls-102" d="M304.24,178.61l.55-.05c0-.27-2.1-27.45-3.46-37.45-.22-1.64-.41-3.27-.59-4.84-.92-8.11-1.79-15.77-7.73-23.05l-.43.35c5.84,7.15,6.7,14.74,7.61,22.76.18,1.58.37,3.21.59,4.85C302.14,151.17,304.22,178.33,304.24,178.61Z"/><path class="cls-102" d="M260.41,201.32c.12,0,11.77-3.5,22.58-7.24,2-.69,3.81-1.28,5.56-1.85,2.42-.79,4.7-1.53,7.15-2.44a5.12,5.12,0,0,0,3.59-4.26,9.85,9.85,0,0,0,.18-1.46c.16-1.93.28-3.46,6-5l-.14-.53c-6.13,1.63-6.27,3.41-6.44,5.48a10,10,0,0,1-.17,1.38,4.61,4.61,0,0,1-3.24,3.87c-2.44.9-4.72,1.64-7.13,2.43-1.75.57-3.56,1.15-5.57,1.85-10.8,3.74-22.44,7.19-22.55,7.23Z"/><path class="cls-102" d="M202.29,153a4.76,4.76,0,0,0,2.56-.66,3.91,3.91,0,0,0,1.72-2.4l1.57-1.64-.39-.38-1.69,1.75v.09a3.42,3.42,0,0,1-1.5,2.11c-1.16.72-2.82.77-4.91.13-6-1.8-30.16-13.24-30.4-13.36l-.24.5c.25.12,24.47,11.57,30.48,13.39A9.87,9.87,0,0,0,202.29,153Z"/><path class="cls-126" d="M293,176.14a14,14,0,0,1,10.54,2.07c-6.91,2.9-42.62,19.16-42.62,19.16a6.72,6.72,0,0,0-.92-2.11,3.26,3.26,0,0,0-1.71-1.2Z"/><path class="cls-127" d="M245.57,121.52a52.66,52.66,0,0,1,7.28,3.49c-5.39,7.52-7,18-5.21,33.92-3.62-3.5-8.09-11.69-10.43-21.17C234.23,125.65,236.61,117.94,245.57,121.52Z"/><path class="cls-125" d="M265.82,62l0-.12h0A.23.23,0,0,1,265.82,62Z"/><g class="cls-6"><path class="cls-1" d="M152.56,151.86l-2,1.19a2.51,2.51,0,0,1,2.55.25l2-1.19A2.51,2.51,0,0,0,152.56,151.86Z"/><g class="cls-128"><path class="cls-129" d="M153.07,153.3l2-1.19a2.51,2.51,0,0,0-2.55-.25l-2,1.19a2.51,2.51,0,0,1,2.55.25Z"/></g><path class="cls-1" d="M210.44,210.08l2.05-1.19a2.52,2.52,0,0,0,1-2.29l-2,1.19A2.5,2.5,0,0,1,210.44,210.08Z"/><g class="cls-130"><path class="cls-131" d="M210.44,210.08l2.05-1.19a2.52,2.52,0,0,0,1-2.29l-2,1.19a2.5,2.5,0,0,1-1.05,2.29Z"/></g><polygon class="cls-131" points="211.49 207.79 213.54 206.6 213.58 189.99 211.53 191.18 211.49 207.79"/><polygon class="cls-129" points="207.96 184.99 210 183.8 155.11 152.11 153.06 153.3 207.96 184.99"/><path class="cls-1" d="M211.54,191.18l2-1.19A7.88,7.88,0,0,0,210,183.8L208,185A8,8,0,0,1,211.54,191.18Z"/><g class="cls-132"><path class="cls-133" d="M211.54,191.18l2-1.19A7.88,7.88,0,0,0,210,183.8L208,185a8,8,0,0,1,3.58,6.19Z"/></g><g class="cls-134"><path class="cls-135" d="M153.07,153.3c-2-1.14-3.6-.22-3.6,2l-.05,16.6a7.91,7.91,0,0,0,3.57,6.2l54.9,31.69c2,1.14,3.59.22,3.6-2.05l0-16.61A8,8,0,0,0,208,185Z"/></g><path class="cls-136" d="M149.47,155.35c0-1.74.95-2.68,2.29-2.52a3.5,3.5,0,0,0-.25,1.33l0,16.6A7.91,7.91,0,0,0,155,177l54.89,31.69a3.53,3.53,0,0,0,1.31.47c-.52,1.25-1.83,1.6-3.35.72L153,178.15a7.91,7.91,0,0,1-3.57-6.2Z"/></g><g class="cls-6"><polygon class="cls-129" points="192.46 187.14 193.71 186.42 198.55 188.7 197.31 189.42 192.46 187.14"/><polygon class="cls-131" points="202.33 196.53 204.22 195.43 204.63 201.88 203.38 202.6 202.33 196.53"/><polygon class="cls-137" points="199.25 185.4 200.49 184.68 202.4 190.92 201.15 191.64 199.25 185.4"/><polygon class="cls-129" points="201.15 191.64 202.4 190.92 207.24 194.23 206 194.96 201.15 191.64"/><polygon class="cls-138" points="199.25 185.4 201.15 191.64 206 194.96 202.33 196.53 203.38 202.6 199.21 197.34 195.02 197.77 196.11 192.94 192.46 187.14 197.31 189.42 199.25 185.4"/></g><g class="cls-6"><polygon class="cls-129" points="173.09 175.96 174.33 175.23 179.18 177.51 177.93 178.24 173.09 175.96"/><polygon class="cls-131" points="182.96 185.35 184.85 184.25 185.26 190.69 184.01 191.42 182.96 185.35"/><polygon class="cls-137" points="179.87 174.21 181.12 173.49 183.03 179.73 181.78 180.46 179.87 174.21"/><polygon class="cls-129" points="181.78 180.46 183.03 179.73 187.87 183.05 186.62 183.77 181.78 180.46"/><polygon class="cls-138" points="179.87 174.21 181.78 180.46 186.62 183.77 182.96 185.35 184.01 191.42 179.84 186.15 175.65 186.59 176.73 181.75 173.09 175.96 177.93 178.24 179.87 174.21"/></g><g class="cls-6"><polygon class="cls-129" points="153.71 164.77 154.96 164.05 159.8 166.33 158.56 167.05 153.71 164.77"/><polygon class="cls-131" points="163.58 174.16 165.48 173.06 165.88 179.51 164.64 180.23 163.58 174.16"/><polygon class="cls-137" points="160.5 163.03 161.74 162.31 163.65 168.55 162.41 169.27 160.5 163.03"/><polygon class="cls-129" points="162.41 169.27 163.65 168.55 168.49 171.86 167.25 172.58 162.41 169.27"/><polygon class="cls-138" points="160.5 163.03 162.41 169.27 167.25 172.58 163.58 174.16 164.64 180.23 160.46 174.96 156.27 175.4 157.36 170.57 153.71 164.77 158.56 167.05 160.5 163.03"/></g><g class="cls-6"><g class="cls-134"><path class="cls-139" d="M135.89,23.58c-3.46-2-6.3-.38-6.31,3.59l-.1,36.32a13.88,13.88,0,0,0,6.27,10.86l38.18,22,11.37,19.69,0-13.1,8,4.61c3.46,2,6.29.38,6.31-3.6l.1-36.31a13.87,13.87,0,0,0-6.27-10.86Z"/></g><path class="cls-140" d="M126.78,65.06a13.85,13.85,0,0,0,6.27,10.85l2.7-1.56a13.88,13.88,0,0,1-6.27-10.86Z"/><polygon class="cls-141" points="126.89 28.74 126.78 65.06 129.48 63.49 129.58 27.17 126.89 28.74"/><polygon class="cls-142" points="171.23 97.96 182.6 117.64 185.3 116.08 173.93 96.39 171.23 97.96"/><path class="cls-141" d="M128.73,24.71c-1.14.66-1.84,2.05-1.84,4l2.69-1.57c0-2,.71-3.37,1.84-4Z"/><polygon class="cls-143" points="190.77 58.39 193.47 56.82 135.89 23.58 133.19 25.14 190.77 58.39"/><polygon class="cls-144" points="182.6 117.64 185.3 116.08 185.34 102.98 182.64 104.54 182.6 117.64"/><polygon class="cls-145" points="182.64 104.54 190.63 109.16 193.33 107.59 185.34 102.98 182.64 104.54"/><path class="cls-145" d="M197.8,108c-1.15.66-2.73.57-4.47-.43l-2.7,1.57c1.74,1,3.32,1.09,4.47.42Z"/><path class="cls-141" d="M195.1,109.58l2.7-1.56c1.13-.66,1.83-2,1.84-4l-2.7,1.57C196.93,107.53,196.23,108.93,195.1,109.58Z"/><polygon class="cls-145" points="133.05 75.91 171.23 97.96 173.93 96.39 135.75 74.35 133.05 75.91"/><path class="cls-143" d="M131.42,23.15l-2.69,1.56c1.14-.66,2.72-.57,4.47.43l2.69-1.56C134.15,22.57,132.57,22.48,131.42,23.15Z"/><polygon class="cls-141" points="196.94 105.56 199.63 103.99 199.74 67.68 197.04 69.24 196.94 105.56"/><path class="cls-146" d="M197,69.24l2.7-1.56a13.87,13.87,0,0,0-6.27-10.86l-2.7,1.57A13.85,13.85,0,0,1,197,69.24Z"/></g><g class="cls-6"><path class="cls-143" d="M164.57,76.23l-2.13,1.24a1.36,1.36,0,0,1,1.38.13l2.12-1.23A1.37,1.37,0,0,0,164.57,76.23Z"/><path class="cls-143" d="M186.44,97.28,188.56,96a1.33,1.33,0,0,0,.56-1.23L187,96A1.36,1.36,0,0,1,186.44,97.28Z"/><polygon class="cls-143" points="187 96.04 189.12 94.81 189.13 91.97 187.01 93.21 187 96.04"/><polygon class="cls-143" points="185.09 89.88 187.21 88.65 165.94 76.37 163.82 77.6 185.09 89.88"/><path class="cls-143" d="M187,93.21,189.13,92a4.24,4.24,0,0,0-1.92-3.32l-2.12,1.23A4.24,4.24,0,0,1,187,93.21Z"/><g class="cls-147"><path class="cls-138" d="M163.82,77.6c-1.07-.61-1.93-.12-1.94,1.1v2.84a4.22,4.22,0,0,0,1.93,3.32l21.26,12.28c1.07.62,1.93.12,1.94-1.1V93.21a4.24,4.24,0,0,0-1.92-3.33Z"/></g></g><g class="cls-6"><path class="cls-143" d="M137.31,44.66l-2.12,1.24a1.36,1.36,0,0,1,1.38.13l2.12-1.23A1.38,1.38,0,0,0,137.31,44.66Z"/><path class="cls-143" d="M186.44,81.45l2.13-1.24a1.36,1.36,0,0,0,.56-1.24L187,80.21A1.36,1.36,0,0,1,186.44,81.45Z"/><polygon class="cls-143" points="187.01 80.21 189.13 78.97 189.14 76.14 187.01 77.38 187.01 80.21"/><polygon class="cls-143" points="185.09 74.05 187.22 72.82 138.69 44.8 136.56 46.03 185.09 74.05"/><path class="cls-143" d="M187,77.38l2.13-1.24a4.24,4.24,0,0,0-1.92-3.32l-2.13,1.23A4.22,4.22,0,0,1,187,77.38Z"/><g class="cls-147"><path class="cls-138" d="M136.57,46c-1.07-.61-1.94-.12-1.94,1.1V50a4.27,4.27,0,0,0,1.92,3.34l48.53,28c1.07.62,1.93.12,1.94-1.1V77.38a4.22,4.22,0,0,0-1.92-3.33Z"/></g></g><g class="cls-6"><polygon class="cls-148" points="321.42 242.9 330.2 247.97 333.16 246.25 324.38 241.18 321.42 242.9"/><polygon class="cls-149" points="330.2 247.97 330.16 261.89 333.12 260.17 333.16 246.25 330.2 247.97"/><polygon class="cls-149" points="330.16 261.89 342.73 255.19 345.69 253.47 333.12 260.17 330.16 261.89"/><polygon class="cls-2" points="314.64 197.19 314.54 230.97 317.5 229.25 317.6 195.47 314.64 197.19"/><path class="cls-150" d="M314.54,231l3-1.72a15.27,15.27,0,0,0,6.88,11.93l-3,1.72A15.27,15.27,0,0,1,314.54,231Z"/><g class="cls-6"><path class="cls-2" d="M316.66,192.77c-1.25.72-2,2.25-2,4.42l3-1.72c0-2.17.78-3.7,2-4.42Z"/><g class="cls-151"><path class="cls-2" d="M316.66,192.77l3-1.72c-1.24.72-2,2.25-2,4.42l-3,1.72c0-2.17.77-3.7,2-4.42Z"/></g></g><g class="cls-134"><path class="cls-118" d="M324.52,191.52c-3.79-2.19-6.91-.41-6.92,3.95l-.1,33.78a15.27,15.27,0,0,0,6.88,11.93l8.78,5.06,0,13.93,12.57-6.7,31.51,18.2c3.8,2.2,6.92.42,6.93-3.95l.1-33.78A15.23,15.23,0,0,0,377.34,222Z"/></g><g class="cls-6"><path class="cls-3" d="M319.62,191.05l-3,1.72c1.25-.73,3-.63,4.9.47l3-1.72C322.61,190.42,320.87,190.32,319.62,191.05Z"/><g class="cls-152"><path class="cls-3" d="M321.56,193.24l3-1.72c-1.91-1.1-3.65-1.2-4.9-.47l-3,1.72c1.25-.73,3-.63,4.9.47Z"/></g></g><polygon class="cls-148" points="342.73 255.19 374.24 273.39 377.2 271.67 345.69 253.47 342.73 255.19"/><g class="cls-6"><g class="cls-153"><path class="cls-148" d="M374.24,273.39l3-1.72c1.92,1.11,3.65,1.2,4.91.47l-3,1.72c-1.26.73-3,.64-4.91-.47Z"/></g></g><g class="cls-6"><g class="cls-154"><path class="cls-2" d="M379.15,273.86l3-1.72c1.25-.72,2-2.25,2-4.42l-3,1.72c0,2.17-.78,3.7-2,4.42Z"/></g></g><polygon class="cls-2" points="381.17 269.44 384.13 267.72 384.23 233.94 381.27 235.66 381.17 269.44"/><polygon class="cls-3" points="374.38 223.74 377.34 222.02 324.52 191.52 321.56 193.24 374.38 223.74"/><g class="cls-6"><path class="cls-5" d="M381.27,235.66l3-1.72A15.23,15.23,0,0,0,377.34,222l-3,1.72A15.23,15.23,0,0,1,381.27,235.66Z"/><g class="cls-155"><path class="cls-156" d="M381.27,235.66l3-1.72A15.23,15.23,0,0,0,377.34,222l-3,1.72a15.23,15.23,0,0,1,6.89,11.92Z"/></g></g></g><g class="cls-6"><path class="cls-3" d="M349.17,238.57l-1.93,1.12a1.23,1.23,0,0,1,1.25.12l1.93-1.12A1.23,1.23,0,0,0,349.17,238.57Z"/><path class="cls-3" d="M369,257.68l1.93-1.12a1.24,1.24,0,0,0,.51-1.13l-1.93,1.12A1.24,1.24,0,0,1,369,257.68Z"/><polygon class="cls-3" points="369.54 256.55 371.47 255.43 371.48 252.86 369.55 253.98 369.54 256.55"/><polygon class="cls-3" points="367.8 250.96 369.73 249.84 350.42 238.69 348.49 239.81 367.8 250.96"/><path class="cls-3" d="M369.55,254l1.93-1.12a3.85,3.85,0,0,0-1.75-3L367.8,251A3.85,3.85,0,0,1,369.55,254Z"/><path class="cls-138" d="M348.49,239.81c-1-.56-1.76-.11-1.76,1v2.57a3.87,3.87,0,0,0,1.75,3l19.31,11.15c1,.55,1.76.11,1.76-1V254a3.85,3.85,0,0,0-1.75-3Z"/></g><g class="cls-6"><path class="cls-3" d="M324.45,211.22l-1.93,1.12a1.26,1.26,0,0,1,1.25.12l1.93-1.12A1.23,1.23,0,0,0,324.45,211.22Z"/><path class="cls-3" d="M369.07,244.62,371,243.5a1.23,1.23,0,0,0,.52-1.12l-1.93,1.12A1.25,1.25,0,0,1,369.07,244.62Z"/><polygon class="cls-3" points="369.58 243.5 371.51 242.38 371.51 239.81 369.58 240.93 369.58 243.5"/><polygon class="cls-3" points="367.84 237.91 369.77 236.79 325.7 211.34 323.77 212.46 367.84 237.91"/><path class="cls-3" d="M369.58,240.93l1.93-1.12a3.83,3.83,0,0,0-1.74-3l-1.93,1.12A3.81,3.81,0,0,1,369.58,240.93Z"/><path class="cls-138" d="M323.77,212.46c-1-.56-1.76-.11-1.76,1V216a3.85,3.85,0,0,0,1.75,3l44.07,25.44c1,.56,1.75.11,1.76-1v-2.57a3.81,3.81,0,0,0-1.74-3Z"/></g><g class="cls-6"><g class="cls-134"><path class="cls-157" d="M331.53,134c-2.57-1.48-4.69-.28-4.7,2.68l-.09,31a10.35,10.35,0,0,0,4.67,8.09l6,3.44,0,9.77,8.52-4.86,21.4,12.35c2.58,1.49,4.7.29,4.71-2.68l.08-31a10.33,10.33,0,0,0-4.67-8.09Z"/></g><path class="cls-158" d="M324.73,168.81a10.35,10.35,0,0,0,4.67,8.1l2-1.17a10.35,10.35,0,0,1-4.67-8.09Z"/><polygon class="cls-159" points="329.4 176.91 335.37 180.35 337.38 179.18 331.42 175.74 329.4 176.91"/><polygon class="cls-160" points="335.37 180.35 335.34 190.12 337.35 188.95 337.38 179.18 335.37 180.35"/><polygon class="cls-160" points="324.82 137.81 324.73 168.81 326.74 167.65 326.83 136.65 324.82 137.81"/><path class="cls-160" d="M326.19,134.81a3.27,3.27,0,0,0-1.37,3l2-1.17a3.26,3.26,0,0,1,1.37-3Z"/><path class="cls-159" d="M370.6,196.76a3.29,3.29,0,0,1-3.33-.32l-2,1.17a3.29,3.29,0,0,0,3.33.32Z"/><polygon class="cls-161" points="365.38 155.84 367.39 154.67 331.53 133.97 329.52 135.13 365.38 155.84"/><path class="cls-160" d="M368.59,197.93l2-1.17a3.28,3.28,0,0,0,1.38-3l-2,1.17A3.28,3.28,0,0,1,368.59,197.93Z"/><polygon class="cls-162" points="335.34 190.12 343.87 185.26 345.88 184.09 337.35 188.95 335.34 190.12"/><polygon class="cls-159" points="343.87 185.26 365.26 197.61 367.27 196.44 345.88 184.09 343.87 185.26"/><path class="cls-161" d="M328.2,133.65l-2,1.16a3.31,3.31,0,0,1,3.33.32l2-1.17A3.3,3.3,0,0,0,328.2,133.65Z"/><polygon class="cls-160" points="369.97 194.93 371.98 193.76 372.06 162.76 370.05 163.93 369.97 194.93"/><path class="cls-163" d="M370.05,163.93l2-1.17a10.33,10.33,0,0,0-4.67-8.09l-2,1.17A10.31,10.31,0,0,1,370.05,163.93Z"/></g><g class="cls-6"><path class="cls-161" d="M346.65,173l-1.48.86a2.52,2.52,0,0,1,2.47.33l1.49-.86A2.49,2.49,0,0,0,346.65,173Z"/><path class="cls-161" d="M350,182.15l1.48-.86a2.44,2.44,0,0,0,.94-2.26,6.9,6.9,0,0,0-3.33-5.74l-1.49.86a6.93,6.93,0,0,1,3.34,5.74A2.44,2.44,0,0,1,350,182.15Z"/><path class="cls-138" d="M347.64,174.15c-2-1.15-3.39-.39-3.39,1.86a7,7,0,0,0,3.37,5.84c2,1.13,3.35.34,3.36-2A6.93,6.93,0,0,0,347.64,174.15Z"/></g><g class="cls-6"><path class="cls-161" d="M348.06,158.16l-1.49.87c-.3.17-.46.59-.46,1.28,0,3.56,4.12,6.44,4.1,12.66l1.49-.86c0-6.22-4.12-9.1-4.11-12.66C347.6,158.76,347.76,158.34,348.06,158.16Z"/><path class="cls-161" d="M342.59,150.33l-1.48.86c1.36-.79,3.54-.37,6.35,1.25a16.88,16.88,0,0,1,8.48,14.86l1.48-.86a16.89,16.89,0,0,0-8.48-14.87C346.13,150,344,149.54,342.59,150.33Z"/><path class="cls-138" d="M348.11,159.34c1.54.88,2.32,2.44,2.31,4.77l5.52,3.19a16.88,16.88,0,0,0-8.48-14.86c-5-2.86-8-2-8,2.7,0,6.05,5.36,10.14,5.35,14.73l5.37,3.1c0-6.22-4.11-9.1-4.1-12.66C346.12,158.84,346.83,158.6,348.11,159.34Z"/></g><polygon class="cls-164" points="373.35 82.28 373.35 120.1 372 120.88 323.77 55.23 325.13 54.44 373.35 82.28"/><polygon class="cls-165" points="325.16 59.27 344.28 91.18 344.28 91.18 349.43 94.15 349.43 94.15 370.61 85.51 372 83.07 372 83.07 372 120.88 323.77 93.04 323.77 55.23 325.16 59.27"/><polygon class="cls-166" points="349.43 94.15 344.28 91.18 323.77 93.04 372 120.88 349.43 94.15"/><polygon class="cls-167" points="323.77 55.23 372 83.07 372 83.07 370.61 85.51 349.43 94.15 344.28 91.18 325.16 59.27 323.77 55.23 323.77 55.23"/><polygon class="cls-168" points="348.7 95.35 343.56 92.38 325.16 59.27 323.77 55.23 372 83.07 370.61 85.51 348.7 95.35"/><g class="cls-6"><path class="cls-14" d="M313.87,97.31l2.1-1.23a1.64,1.64,0,0,0,.71-1l-2.1,1.22A1.7,1.7,0,0,1,313.87,97.31Z"/><polygon class="cls-14" points="314.58 96.28 316.68 95.06 316.74 94.76 314.64 95.98 314.58 96.28"/><path class="cls-14" d="M319.74,96.85l3.77-2.18a1.43,1.43,0,0,1-1.46-.13l-3.77,2.19A1.4,1.4,0,0,0,319.74,96.85Z"/><path class="cls-14" d="M324.6,104.25l3.76-2.19c-1.64,1-3.94.77-6.53-.72a17.91,17.91,0,0,1-5.37-5.17l-3.77,2.19a17.74,17.74,0,0,0,5.37,5.16C320.66,105,323,105.21,324.6,104.25Z"/><path class="cls-14" d="M311.46,93.87l3.76-2.18a.72.72,0,0,1-.67-.11c-1.09-.64-2.18-3.4-2.18-6.45,0-3.26.95-5.62,2.68-6.63l-3.77,2.19c-1.73,1-2.66,3.36-2.67,6.63,0,3.05,1.08,5.81,2.18,6.44C311.06,93.92,311.29,94,311.46,93.87Z"/><path class="cls-14" d="M320.44,86.8,316.67,89a2.63,2.63,0,0,0-.89,2.37c0,2.12.89,4.43,2.5,5.37l3.77-2.19c-1.62-.94-2.51-3.25-2.5-5.37A2.65,2.65,0,0,1,320.44,86.8Z"/><polygon class="cls-14" points="315.54 83.99 319.3 81.8 315.57 79.65 311.81 81.83 315.54 83.99"/><polygon class="cls-14" points="315.53 85.52 319.3 83.33 319.3 81.8 315.54 83.99 315.53 85.52"/><path class="cls-14" d="M322.91,101.18,326.67,99c1.16-.67,1.92-2.15,1.93-4.47,0-4.18-2.21-9-5.71-11a3.31,3.31,0,0,0-3.36-.31l-3.77,2.18a3.36,3.36,0,0,1,3.37.32c3.5,2,5.71,6.87,5.7,11C324.82,99,324.06,100.51,322.91,101.18Z"/><path class="cls-14" d="M312.88,75.22l-3.76,2.19c2.17-1.26,5.21-1,8.67,1l3.76-2.19C318.09,74.21,315.06,74,312.88,75.22Z"/><path class="cls-14" d="M326.8,107.72l3.76-2.19c2.12-1.23,3.4-3.9,3.41-7.8,0-8-5.48-17.51-12.42-21.52l-3.76,2.19c6.94,4,12.44,13.47,12.42,21.52C330.2,103.81,328.92,106.49,326.8,107.72Z"/><path class="cls-169" d="M317.79,78.4c-6.91-4-12.14-1-12.16,7.09,0,4.92,2.32,9.46,5.53,11.31,1.73,1,3,1,3.42-.52l.06-.3a10.07,10.07,0,0,0,4,4.83c3.12,1.81,6.14.52,6.15-4.1,0-4.18-2.2-9-5.7-11-2.17-1.25-3.53-.27-3.6-.14V84l-3.73-2.15,0,11c0,1.17-.41,1.3-1,1-1.1-.63-2.19-3.39-2.18-6.44,0-6.19,3.35-9.12,9.17-5.76,5.23,3,9.47,10.49,9.45,16.64s-4,8.31-9.17,5.32a17.74,17.74,0,0,1-5.37-5.16l-1.42,1.94a23.19,23.19,0,0,0,6.78,6.41c6.89,4,12.14,1.12,12.16-6.79S324.73,82.4,317.79,78.4Zm.49,18.33c-1.61-.94-2.51-3.25-2.5-5.37s.93-3.13,2.58-2.18c1.45.84,2.37,3,2.37,5s-.91,3.43-2.45,2.55Z"/></g></g></g></svg>