<svg id="Logo" xmlns="http://www.w3.org/2000/svg" xmlns:xlink="http://www.w3.org/1999/xlink" viewBox="0 0 380 349"><defs><style>.cls-1,.cls-2{fill-rule:evenodd;}.cls-1{fill:url(#linear-gradient);}.cls-2{fill:url(#linear-gradient-2);}.cls-3{fill:url(#linear-gradient-3);}</style><linearGradient id="linear-gradient" x1="2885.62" y1="-4620.09" x2="6865.26" y2="-262.16" gradientTransform="matrix(0.07, 0, 0, -0.07, -136.42, 57.46)" gradientUnits="userSpaceOnUse"><stop offset="0" stop-color="#00147b"/><stop offset="1" stop-color="#a244c8"/></linearGradient><linearGradient id="linear-gradient-2" x1="1553.55" y1="-3403.86" x2="5533.18" y2="954.07" xlink:href="#linear-gradient"/><linearGradient id="linear-gradient-3" x1="157.89" y1="175.55" x2="239.9" y2="175.55" gradientTransform="matrix(1, 0, 0, 1, 0, 0)" xlink:href="#linear-gradient"/></defs><path class="cls-1" d="M307.79,244.77a127.78,127.78,0,0,0-18-158.66L268,107.79a97.58,97.58,0,0,0-69.13-28.54c-54,0-97.77,43.62-97.77,97.43a97,97,0,0,0,28.64,68.89L108,267.26a128.24,128.24,0,0,0,47.44,30l1.65.59.13,0c33.87,11.84,70.88,17.25,105.75,25.71l56.16,13.64-11.36-92.46Zm-46.26-130.5a88,88,0,0,1,4.67,119.78l6.25,50.84C241.61,277.41,197.62,270,169,259.78l0,0a88.32,88.32,0,1,1,92.55-145.49Z"/><path class="cls-2" d="M198.91,48.59a128.36,128.36,0,0,1,90.88,37.52l21.94-21.86L318,58A168.25,168.25,0,0,0,198.91,8.77c-93,0-168.49,75.21-168.49,167.91A167.7,167.7,0,0,0,79.75,295.43l6.31-6.3,22-21.87a127.86,127.86,0,0,1-37.64-90.58c0-70.73,57.56-128.09,128.53-128.09Z"/><path id="FontAwsome_calculator_" data-name="FontAwsome calculator " class="cls-3" d="M231.11,128.85H166.68a9,9,0,0,0-8.79,8.76v75.88a9,9,0,0,0,8.79,8.76h64.43a9,9,0,0,0,8.79-8.75V137.61A9,9,0,0,0,231.11,128.85Zm-49.79,79.39a2.5,2.5,0,0,1-2.34,2.33h-7a2.52,2.52,0,0,1-2.34-2.33v-7A2.53,2.53,0,0,1,172,198.9h7a2.52,2.52,0,0,1,2.34,2.34Zm0-23.35a2.5,2.5,0,0,1-2.34,2.33h-7a2.52,2.52,0,0,1-2.34-2.33v-7a2.52,2.52,0,0,1,2.34-2.34h7a2.53,2.53,0,0,1,2.35,2.34Zm23.43,23.35a2.5,2.5,0,0,1-2.34,2.33h-7a2.52,2.52,0,0,1-2.35-2.33v-7a2.53,2.53,0,0,1,2.35-2.34h7a2.51,2.51,0,0,1,2.34,2.33v7Zm0-23.35a2.5,2.5,0,0,1-2.34,2.33h-7a2.52,2.52,0,0,1-2.35-2.33v-7a2.52,2.52,0,0,1,2.34-2.34h7a2.51,2.51,0,0,1,2.35,2.33v7Zm23.43,23.35a2.51,2.51,0,0,1-2.34,2.33h-7a2.52,2.52,0,0,1-2.34-2.33V177.88a2.52,2.52,0,0,1,2.34-2.33h7a2.53,2.53,0,0,1,2.35,2.34v30.35Zm0-46.7a2.51,2.51,0,0,1-2.34,2.33H172a2.5,2.5,0,0,1-2.34-2.33V142.86a2.5,2.5,0,0,1,2.34-2.33h53.89a2.51,2.51,0,0,1,2.34,2.33Z"/></svg>