<svg id="Layer_1" data-name="Layer 1" xmlns="http://www.w3.org/2000/svg" viewBox="0 0 450 450"><defs><style>.cls-1{fill:#2f2f60;}.cls-2{fill:#3c3c75;}.cls-3{fill:#dce6f9;}.cls-4{fill:#bac9e5;}.cls-5{fill:#a8bde2;}.cls-11,.cls-6{fill:#4b57aa;}.cls-7{fill:#5768bc;}.cls-8{fill:#ffaf04;}.cls-9{fill:#ff9201;}.cls-10{fill:#23234c;}.cls-11{opacity:0.3;}.cls-12{fill:#ffb9a4;}.cls-13{fill:#fff;}.cls-14{fill:#ffc9b6;}.cls-15{fill:#677dce;}.cls-16{fill:#c5d2ef;}.cls-17{fill:#3c4c99;}.cls-18{fill:#96b0d6;}.cls-19{fill:#2e428e;}.cls-20{fill:#ff7f00;}.cls-21{fill:#ff8b00;}.cls-22{fill:#2c2c5b;}.cls-23{fill:#301333;}</style></defs><path class="cls-1" d="M297.29,195a38,38,0,0,1,1.47,10.24,29.1,29.1,0,0,0,2,9.88l6.6,3.61s.5-16.94-2-21.95S297.29,195,297.29,195Z"/><path class="cls-2" d="M307.33,206.74a36.58,36.58,0,0,0,1.78,10.62c1.64,4.64,4,12.37,4,12.37a6.32,6.32,0,0,0,4.08,1.5A12.5,12.5,0,0,0,322,230s-2.23-17.34-3.41-21.5-3-5.64-3-5.64Z"/><polygon class="cls-3" points="353.88 268.06 257.24 323.85 87.71 225.98 184.36 170.18 353.88 268.06"/><polygon class="cls-4" points="87.71 225.98 87.71 251.3 257.24 349.18 257.24 323.85 87.71 225.98"/><polygon class="cls-5" points="353.88 268.06 353.88 293.38 257.24 349.18 257.24 323.85 353.88 268.06"/><polygon class="cls-6" points="198.64 186.63 118.02 233.18 104.15 225.17 184.44 178.81 198.64 186.63"/><polygon class="cls-7" points="210.5 193.55 207.89 192.14 193.66 200.36 196.19 201.82 210.5 193.55"/><polygon class="cls-7" points="127.55 238.53 130.16 239.94 193.87 203.16 191.34 201.7 127.55 238.53"/><polygon class="cls-7" points="216.22 196.89 213.6 195.48 199.4 203.68 201.93 205.14 216.22 196.89"/><polygon class="cls-7" points="133.27 241.86 135.88 243.27 199.62 206.47 197.09 205.01 133.27 241.86"/><polygon class="cls-7" points="138.98 245.06 141.6 246.47 205.25 209.73 202.72 208.26 138.98 245.06"/><polygon class="cls-7" points="221.94 200.09 219.32 198.68 205.04 206.93 207.57 208.39 221.94 200.09"/><polygon class="cls-7" points="144.7 248.38 147.32 249.79 210.98 213.03 208.45 211.57 144.7 248.38"/><polygon class="cls-7" points="227.66 203.41 225.04 202 210.77 210.24 213.3 211.7 227.66 203.41"/><polygon class="cls-7" points="233.37 206.61 230.75 205.2 216.4 213.49 218.93 214.95 233.37 206.61"/><polygon class="cls-7" points="150.42 251.59 153.03 253 216.61 216.29 214.08 214.83 150.42 251.59"/><polygon class="cls-7" points="239.09 209.95 236.47 208.53 222.15 216.81 224.68 218.27 239.09 209.95"/><polygon class="cls-7" points="156.13 254.92 158.75 256.33 222.36 219.6 219.83 218.14 156.13 254.92"/><polygon class="cls-7" points="161.85 258.12 164.47 259.53 227.99 222.86 225.46 221.4 161.85 258.12"/><polygon class="cls-7" points="244.81 213.15 242.19 211.74 227.78 220.06 230.31 221.52 244.81 213.15"/><polygon class="cls-7" points="167.31 261.5 169.93 262.92 233.65 226.12 231.12 224.66 167.31 261.5"/><polygon class="cls-7" points="250.26 216.53 247.65 215.12 233.44 223.32 235.97 224.78 250.26 216.53"/><polygon class="cls-7" points="255.98 219.74 253.36 218.32 239.07 226.58 241.6 228.04 255.98 219.74"/><polygon class="cls-7" points="173.03 264.71 175.64 266.12 239.28 229.38 236.75 227.91 173.03 264.71"/><polygon class="cls-7" points="245.03 232.69 242.5 231.23 219.21 244.68 178.74 268.04 181.36 269.45 221.16 246.47 245.03 232.69"/><polygon class="cls-7" points="261.7 223.07 259.08 221.66 244.82 229.89 247.35 231.35 261.7 223.07"/><polygon class="cls-7" points="267.41 226.27 264.8 224.86 250.45 233.15 252.98 234.61 267.41 226.27"/><polygon class="cls-7" points="184.46 271.25 187.08 272.66 250.66 235.94 248.13 234.48 184.46 271.25"/><polygon class="cls-7" points="272.74 229.67 270.12 228.26 256.06 236.38 258.59 237.84 272.74 229.67"/><polygon class="cls-7" points="189.79 274.64 192.4 276.05 256.27 239.18 253.74 237.72 189.79 274.64"/><polygon class="cls-7" points="329.65 262.39 327.03 260.98 312.85 269.17 315.38 270.63 329.65 262.39"/><polygon class="cls-7" points="246.7 307.36 249.31 308.77 313.06 271.97 310.53 270.51 246.7 307.36"/><polygon class="cls-7" points="252.41 310.56 255.03 311.98 318.69 275.22 316.16 273.76 252.41 310.56"/><polygon class="cls-7" points="335.37 265.59 332.75 264.18 318.48 272.42 321.01 273.88 335.37 265.59"/><polygon class="cls-8" points="249.1 297.67 245.69 299.64 218.38 283.87 221.79 281.9 249.1 297.67"/><polygon class="cls-8" points="256.46 293.42 253.05 295.39 233.14 283.9 236.55 281.93 256.46 293.42"/><polygon class="cls-8" points="264.07 289.02 260.66 291 245.72 282.37 249.13 280.4 264.07 289.02"/><polygon class="cls-8" points="271.18 284.92 267.77 286.89 244.26 273.32 247.67 271.35 271.18 284.92"/><polygon class="cls-8" points="278.54 280.68 275.12 282.64 264.99 276.79 268.4 274.82 278.54 280.68"/><polygon class="cls-9" points="286.15 276.28 282.74 278.25 262.74 266.7 266.15 264.73 286.15 276.28"/><polygon class="cls-9" points="293.25 272.18 289.84 274.15 274.9 265.52 278.31 263.55 293.25 272.18"/><polygon class="cls-9" points="300.36 268.07 296.95 270.04 264.08 251.06 267.49 249.09 300.36 268.07"/><polygon class="cls-9" points="307.71 263.83 304.3 265.8 280.59 252.11 284.01 250.14 307.71 263.83"/><polygon class="cls-9" points="315.33 259.43 311.92 261.4 301.78 255.55 305.2 253.58 315.33 259.43"/><polygon class="cls-10" points="320.11 256.67 240.01 302.92 241.03 303.51 321.14 257.26 320.11 256.67"/><polygon class="cls-8" points="213.06 271.41 210.44 270 196.25 278.19 198.78 279.65 213.06 271.41"/><polygon class="cls-8" points="218.91 274.83 216.29 273.42 202.1 281.61 204.63 283.07 218.91 274.83"/><path class="cls-11" d="M92.18,234.61s28.07,16.74,49.28,28.6c17.53,9.79,56.06,31.89,69,39.2,28.7,16.14,44.15,25.15,44.15,25.15s-8-3-32.71-17.38c-12.89-7.47-70.51-40.07-94.09-52.87C105.38,245.13,92.18,234.61,92.18,234.61Z"/><path class="cls-11" d="M90.89,249.06S119,265.8,140.16,277.65c17.53,9.8,56.06,31.9,69,39.2C237.9,333,253.35,342,253.35,342s-7.95-3-32.71-17.38c-12.89-7.48-70.51-40.07-94.09-52.87C104.08,259.58,90.89,249.06,90.89,249.06Z"/><path class="cls-11" d="M210.5,305.48c-10-5.64-39.4-22.56-56.32-30.93,9.89,7.11,58.18,33.15,67.76,38.71,24.76,14.37,32.71,17.38,32.71,17.38S239.2,321.63,210.5,305.48Z"/><path class="cls-11" d="M165.86,288.59c-10-5.65-39.41-22.56-56.32-30.94,9.89,7.11,58.17,33.16,67.75,38.72C202.05,310.74,210,313.74,210,313.74S194.56,304.73,165.86,288.59Z"/><path class="cls-11" d="M308.33,300.83c10-5.64,21.69-13.25,38.6-21.63-9.89,7.11-40.46,23.85-50,29.41C272.14,323,264.19,326,264.19,326S279.63,317,308.33,300.83Z"/><path class="cls-11" d="M306.41,314.5c10-5.64,21.69-13.26,38.6-21.63-9.89,7.11-40.46,23.85-50,29.41-24.76,14.37-32.71,17.37-32.71,17.37S277.71,330.64,306.41,314.5Z"/><polygon class="cls-3" points="364.27 251.61 267.62 307.41 98.1 209.53 194.74 153.73 364.27 251.61"/><polygon class="cls-4" points="98.1 209.53 98.1 212.31 267.62 310.18 267.62 307.41 98.1 209.53"/><polygon class="cls-5" points="364.27 251.61 364.27 254.38 267.62 310.18 267.62 307.41 364.27 251.61"/><polygon class="cls-6" points="209.02 170.19 128.4 216.73 114.53 208.72 194.82 162.37 209.02 170.19"/><polygon class="cls-7" points="220.89 177.11 218.27 175.7 204.04 183.91 206.57 185.37 220.89 177.11"/><polygon class="cls-7" points="137.93 222.08 140.55 223.49 204.26 186.71 201.73 185.25 137.93 222.08"/><polygon class="cls-7" points="226.61 180.44 223.99 179.03 209.79 187.23 212.32 188.69 226.61 180.44"/><polygon class="cls-7" points="143.65 225.41 146.27 226.83 210 190.03 207.47 188.57 143.65 225.41"/><polygon class="cls-7" points="149.37 228.62 151.99 230.03 215.63 193.28 213.1 191.82 149.37 228.62"/><polygon class="cls-7" points="232.32 183.65 229.71 182.24 215.42 190.48 217.95 191.94 232.32 183.65"/><polygon class="cls-7" points="155.09 231.94 157.7 233.35 221.37 196.59 218.84 195.13 155.09 231.94"/><polygon class="cls-7" points="238.04 186.96 235.42 185.55 221.15 193.79 223.68 195.25 238.04 186.96"/><polygon class="cls-7" points="243.76 190.17 241.14 188.76 226.79 197.04 229.32 198.5 243.76 190.17"/><polygon class="cls-7" points="160.8 235.14 163.42 236.55 227 199.84 224.47 198.38 160.8 235.14"/><polygon class="cls-7" points="249.47 193.5 246.86 192.09 232.53 200.36 235.06 201.82 249.47 193.5"/><polygon class="cls-7" points="166.52 238.47 169.14 239.88 232.75 203.16 230.22 201.7 166.52 238.47"/><polygon class="cls-7" points="172.24 241.68 174.85 243.09 238.38 206.41 235.85 204.95 172.24 241.68"/><polygon class="cls-7" points="255.19 196.7 252.57 195.29 238.16 203.61 240.69 205.07 255.19 196.7"/><polygon class="cls-7" points="177.69 245.06 180.31 246.47 244.04 209.68 241.5 208.22 177.69 245.06"/><polygon class="cls-7" points="260.65 200.09 258.03 198.68 243.82 206.88 246.35 208.34 260.65 200.09"/><polygon class="cls-7" points="266.37 203.29 263.75 201.88 249.46 210.13 251.99 211.59 266.37 203.29"/><polygon class="cls-7" points="183.41 248.26 186.03 249.67 249.67 212.93 247.14 211.47 183.41 248.26"/><polygon class="cls-7" points="255.41 216.25 252.88 214.79 229.6 228.23 189.13 251.6 191.74 253.01 231.54 230.03 255.41 216.25"/><polygon class="cls-7" points="272.08 206.62 269.46 205.21 255.2 213.45 257.73 214.91 272.08 206.62"/><polygon class="cls-7" points="277.8 209.83 275.18 208.42 260.83 216.7 263.36 218.16 277.8 209.83"/><polygon class="cls-7" points="194.84 254.8 197.46 256.21 261.05 219.5 258.52 218.04 194.84 254.8"/><polygon class="cls-7" points="283.13 213.22 280.51 211.81 266.44 219.94 268.97 221.4 283.13 213.22"/><polygon class="cls-7" points="200.17 258.2 202.79 259.61 266.65 222.74 264.12 221.28 200.17 258.2"/><polygon class="cls-7" points="340.04 245.94 337.42 244.53 323.23 252.72 325.76 254.19 340.04 245.94"/><polygon class="cls-7" points="257.08 290.92 259.7 292.33 323.44 255.52 320.91 254.06 257.08 290.92"/><polygon class="cls-7" points="262.8 294.12 265.42 295.53 329.08 258.78 326.55 257.31 262.8 294.12"/><polygon class="cls-7" points="345.75 249.15 343.14 247.74 328.86 255.98 331.39 257.44 345.75 249.15"/><polygon class="cls-8" points="259.49 281.22 256.08 283.19 228.76 267.42 232.18 265.45 259.49 281.22"/><polygon class="cls-8" points="266.84 276.98 263.43 278.95 243.52 267.45 246.94 265.48 266.84 276.98"/><polygon class="cls-8" points="274.46 272.58 271.05 274.55 256.1 265.92 259.52 263.95 274.46 272.58"/><polygon class="cls-8" points="281.57 268.48 278.16 270.44 254.65 256.87 258.06 254.9 281.57 268.48"/><polygon class="cls-8" points="288.92 264.23 285.51 266.2 275.38 260.35 278.79 258.38 288.92 264.23"/><polygon class="cls-9" points="296.54 259.83 293.13 261.8 273.13 250.26 276.54 248.29 296.54 259.83"/><polygon class="cls-9" points="303.64 255.73 300.23 257.7 285.28 249.08 288.69 247.1 303.64 255.73"/><polygon class="cls-9" points="310.75 251.63 307.33 253.6 274.46 234.62 277.87 232.65 310.75 251.63"/><polygon class="cls-9" points="318.1 247.38 314.69 249.35 290.98 235.66 294.39 233.69 318.1 247.38"/><polygon class="cls-9" points="325.72 242.99 322.3 244.96 312.17 239.11 315.58 237.14 325.72 242.99"/><polygon class="cls-10" points="330.5 240.22 250.39 286.48 251.42 287.07 331.53 240.82 330.5 240.22"/><polygon class="cls-8" points="223.44 254.96 220.82 253.55 206.64 261.74 209.17 263.2 223.44 254.96"/><polygon class="cls-8" points="229.29 258.39 226.68 256.98 212.49 265.17 215.02 266.63 229.29 258.39"/><path class="cls-12" d="M171.58,216.78a28.53,28.53,0,0,0-6.19,8.17c-1.39,2.88-4.47,6.93-6.41,9.49-1.06-1.13-6.23-6.65-8.64-9.48-2.22-2.61-3.7-2.17-5.84-2.61s-2-2.44-4.29-2.56-1.88,1,0,3.47a9.34,9.34,0,0,0,3.78,3.2c2.14.59,4.21.46,4.82,2.4.38,1.21,4.12,9.57,6,10.86,2.49,1.7,2.59,2.25,4.5,2.14,1.35-.08,2.5-1.47,3.07-2.14a83,83,0,0,0,5.69-6.52c2.23-3.19,6.84-11.68,7-12S171.58,216.78,171.58,216.78Z"/><path class="cls-13" d="M172,216.06a9.58,9.58,0,0,0-4.47,3c-2.16,2.43-6.37,9.85-6.37,9.85a20.36,20.36,0,0,0,2.92,3.64c.95.64,3.35,2,3.35,2l8.17-12.24Z"/><path class="cls-10" d="M151.31,295.56c-1.14,1.25-2.41,2.65-3.57,3.88-1.58,1.67-3.43,3.43-5.14,4.95-2.09,1.87-2.25,4.13,1.18,3.93,5.54-.31,6.83-2.63,9.39-4.59.36-.28,1,.38,2.35-.18,1.78-.72,2-1,2-2.77a14.64,14.64,0,0,0-.7-4.61l.05-.06C157.15,295.8,152.82,293.89,151.31,295.56Z"/><path class="cls-10" d="M162,307.52c-1.14,1.25-2.41,2.65-3.57,3.89-1.58,1.66-3.43,3.42-5.14,4.94-2.09,1.87-2.25,4.13,1.18,3.93,5.54-.31,6.83-2.63,9.39-4.59.36-.27,1,.38,2.35-.18,1.78-.72,2-1,2-2.77a14.64,14.64,0,0,0-.7-4.61l.05-.06C167.83,307.76,163.5,305.86,162,307.52Z"/><path class="cls-1" d="M185.24,254c-.46-1-11.08-4.51-10.8-4.38-8.5,3.21-18.83,6.76-26,12.91-1.31.22-2.65.66-2.58,3.08.05,1.88,1.15,5.13,1.46,7,1.08,6.6,2.46,17.31,3,24,1.12,2,4.44,2,6.56.49.64-4.78.88-11.2,1.69-15,1.08-5.06-.69-7.51-2.24-10.22,4.18.16,13.24-4.54,17.3-5.67,4.91-1.38,6.27-1.42,9.92-5.16C186.05,258.49,186.94,257.62,185.24,254Z"/><path class="cls-2" d="M184.83,254.71c-2.63.06-5.55.25-8.13-.52a9.52,9.52,0,0,0-.73,1.16c-.94,1.92-1.81,3.36-1.08,5.53-1.28,1.81-7,8.89-8.07,11.05-1.33,1.32-2,2.08-1.88,5.11a46.75,46.75,0,0,1-.43,8.85c-.75,7.36-2.06,13.58-2.6,21,1.72,2.64,4,2.74,6.29.67,2.21-6.85,6.52-11.63,7-17.62.3-4,.37-7-1.4-9.48,7.28-4,16.61-6.24,20.61-13.85,2.6-4.93,1.34-8.58-1.32-13.64C190.63,254.42,187.81,254.64,184.83,254.71Z"/><path class="cls-8" d="M170.62,219.38c3-3.77,1.73-2.68,5.34-.62,4.41,2.53,8,4.12,9.9,5.73,3.28,2.72,5.18,8.33,5.73,15.39a41.13,41.13,0,0,0,1.11,5.8c1.36,3.86.7,4.49-.26,5.39,1.42,0,2.1,2,1,2.78-6.74,4.75-19.67,4.81-21.51-3.08a4.89,4.89,0,0,1,.71-2.42c-.82-.47-1.23-2.09-1.23-3.15-1.51-.81-1.84-2.08-2.18-4.22-3-.68-6.21-4.07-4.77-7.58,1.18-2.85,1.58-5.41,2.43-7.37C168.9,221.51,169.77,220.46,170.62,219.38Z"/><path class="cls-12" d="M171.87,221.47c.83-.14,3-1.24,2.35-5.27-.18-1.13,4.88-4.15,4.88-4,0,3.64.84,7.59,2.51,9.49-2.41,2.51-4.67,8.24-8.82,6.19C170.71,226.87,170.23,226.11,171.87,221.47Z"/><path class="cls-13" d="M170.53,218.82s-1.62,4.44-2.18,5.9-1.6,4.22-1.6,4.22,1.55-.69,2.34-.27,1.88,1.65,2.55,1.84a4.4,4.4,0,0,0,1.57.05l.54-1.86s-1.41-.44-1.39-2.83.4-5.62.4-5.62Z"/><path class="cls-13" d="M179.72,218a8.62,8.62,0,0,1-1.31,3.7c-1.27,2.19-4.21,4.72-5.56,5.8-2,1.59-.82,4.48-.82,4.48s.75-1.67,1.66-1.38,1.38,1.14,2.44,2.11a17.8,17.8,0,0,1,3.08-4.15c1.46-1.44,4.19-4.6,3.53-7.23A4.78,4.78,0,0,0,179.72,218Z"/><path class="cls-10" d="M167.7,212.8a.66.66,0,0,0-.14-.18l.1-.1a.06.06,0,0,0-.06-.1c-.12,0-.23.09-.35.13a.57.57,0,0,0-.24.08c-2.06.84-4,3.44-3.23,5.64a1.93,1.93,0,0,0,2.29,1.23h0c-.71,2.33.16,5.14,3,4,1.87-.73,2.32-3.07,2.26-4.86C171.24,216.14,168.81,214.94,167.7,212.8Z"/><path class="cls-14" d="M168.26,207.28c3.44-.77,5.23-.91,8.28.32a17,17,0,0,1,4.88,2.25.44.44,0,0,1,.19.39c-.79,4.52-2.31,9.31-7.38,11.32-4.18,1.65-6.52-2.93-7.24-6C166.14,212,165.89,207.82,168.26,207.28Z"/><path class="cls-14" d="M176.29,214.4s.82-2.78,2.63-1.36-.75,4.24-.75,4.24Z"/><path class="cls-9" d="M180.08,248.93s4.1-1.33,6.31-1.06a17,17,0,0,1,4.11,1.06s-3.12.44-5.21.53A27.76,27.76,0,0,1,180.08,248.93Z"/><path class="cls-9" d="M179,252.15c.27,0,4.86-.14,7.34-.31s3.45-.3,3.45-.3a8.9,8.9,0,0,1-4.91,1.53A23.32,23.32,0,0,1,179,252.15Z"/><path class="cls-12" d="M146.45,223.88s-.84-1.42-1.58-3.06c-.5-1.11-.3-2.14.31-2.29s.61,1.22,1.27,1.84,3.21,2.76,2.81,3.87S146.45,223.88,146.45,223.88Z"/><path class="cls-6" d="M140.67,262.8l.71.8a5.12,5.12,0,0,1,1-.73l10.57-6.1c2.39-1.38,6-1.53,8.11-.33l16.85,9.72.32.24.78-.87a4.39,4.39,0,0,1,.17,3.35.43.43,0,0,0,0,.07,4,4,0,0,1-1.81,1.89L166.73,277c-2.39,1.38-6,1.53-8.11.33l-16.85-9.73a2.73,2.73,0,0,1-1.2-1.24c0-.06-.07-.12-.1-.19A4.23,4.23,0,0,1,140.67,262.8Z"/><path class="cls-15" d="M158.62,275.63l-16.85-9.73c-2.07-1.19-1.81-3.3.58-4.68l10.57-6.1c2.39-1.38,6-1.53,8.11-.34l16.85,9.73c2.07,1.2,1.8,3.3-.58,4.68l-10.57,6.1C164.34,276.67,160.69,276.82,158.62,275.63Z"/><path class="cls-16" d="M158.86,255.79,157.5,255a.62.62,0,0,0-.53,0l-.75.43c-.15.09-.17.23,0,.3l1.37.79a.56.56,0,0,0,.52,0l.75-.44C159,256,159,255.87,158.86,255.79Z"/><path class="cls-16" d="M164.21,258.88l-4.08-2.36a.66.66,0,0,0-.53,0l-.75.44c-.15.09-.17.22,0,.3l4.09,2.36a.56.56,0,0,0,.52,0l.75-.44C164.33,259.09,164.35,259,164.21,258.88Z"/><path class="cls-16" d="M166.84,260.4l-1.36-.79a.62.62,0,0,0-.53,0l-.75.44c-.15.09-.17.22,0,.3l1.37.79a.6.6,0,0,0,.52,0l.75-.44C167,260.61,167,260.48,166.84,260.4Z"/><path class="cls-16" d="M154.84,258.11l-1.37-.78a.56.56,0,0,0-.52,0l-.75.43c-.16.09-.17.23,0,.31l1.36.78a.59.59,0,0,0,.53,0l.75-.43C155,258.33,155,258.19,154.84,258.11Z"/><path class="cls-16" d="M157.47,259.63l-1.37-.78a.56.56,0,0,0-.52,0l-.75.43c-.16.09-.17.23,0,.3l1.36.79a.59.59,0,0,0,.53,0l.75-.43C157.58,259.85,157.6,259.71,157.47,259.63Z"/><path class="cls-16" d="M160.19,261.2l-1.37-.78a.56.56,0,0,0-.52,0l-.75.43c-.16.09-.17.23,0,.31l1.36.78a.59.59,0,0,0,.53,0l.75-.43C160.3,261.42,160.32,261.28,160.19,261.2Z"/><path class="cls-16" d="M162.82,262.72l-1.37-.78a.56.56,0,0,0-.52,0l-.75.43c-.16.09-.17.23,0,.3l1.36.79a.59.59,0,0,0,.53,0l.75-.44C162.93,262.94,163,262.8,162.82,262.72Z"/><path class="cls-16" d="M152.82,259.28l-1.36-.79a.56.56,0,0,0-.52,0l-.75.44c-.16.08-.18.22,0,.3l1.36.79a.6.6,0,0,0,.52,0l.76-.43C152.94,259.49,153,259.35,152.82,259.28Z"/><path class="cls-16" d="M155.46,260.8l-1.37-.79a.56.56,0,0,0-.52,0l-.75.43c-.16.09-.18.23,0,.31l1.36.78a.56.56,0,0,0,.52,0l.76-.43C155.57,261,155.59,260.87,155.46,260.8Z"/><path class="cls-16" d="M158.18,262.37l-1.37-.79a.56.56,0,0,0-.52,0l-.75.43c-.16.09-.18.23,0,.31l1.36.78a.56.56,0,0,0,.52,0l.76-.43C158.29,262.58,158.31,262.44,158.18,262.37Z"/><path class="cls-16" d="M160.81,263.88l-1.37-.78a.56.56,0,0,0-.52,0l-.75.43c-.16.09-.18.23,0,.31l1.36.78a.59.59,0,0,0,.53,0l.75-.43C160.92,264.1,160.94,264,160.81,263.88Z"/><path class="cls-16" d="M150.27,260.75l-1.36-.79a.63.63,0,0,0-.52,0l-.76.44c-.15.09-.17.22,0,.3l1.36.79a.56.56,0,0,0,.52,0l.76-.44C150.39,261,150.41,260.83,150.27,260.75Z"/><path class="cls-16" d="M152.9,262.27l-1.36-.79a.56.56,0,0,0-.52,0l-.76.44c-.15.09-.17.22,0,.3l1.36.79a.63.63,0,0,0,.52,0l.76-.44C153,262.48,153,262.35,152.9,262.27Z"/><path class="cls-16" d="M155.62,263.84l-1.36-.79a.56.56,0,0,0-.52,0l-.76.44c-.15.09-.17.22,0,.3l1.36.79a.6.6,0,0,0,.52,0l.76-.44C155.74,264.05,155.76,263.92,155.62,263.84Z"/><path class="cls-16" d="M158.25,265.36l-1.36-.79a.56.56,0,0,0-.52,0l-.76.44c-.15.09-.17.22,0,.3l1.36.79a.6.6,0,0,0,.52,0l.76-.43C158.37,265.57,158.39,265.43,158.25,265.36Z"/><path class="cls-16" d="M156.85,257l-1.36-.78a.59.59,0,0,0-.53,0l-.75.43c-.15.09-.17.23,0,.3l1.37.79a.57.57,0,0,0,.52,0l.75-.43C157,257.17,157,257,156.85,257Z"/><path class="cls-16" d="M159.48,258.47l-1.36-.79a.62.62,0,0,0-.53,0l-.75.43c-.15.09-.17.23,0,.3l1.37.79a.57.57,0,0,0,.52,0l.75-.44C159.6,258.68,159.61,258.55,159.48,258.47Z"/><path class="cls-16" d="M162.2,260l-1.36-.78a.59.59,0,0,0-.53,0l-.75.43c-.15.09-.17.23,0,.3l1.37.79a.57.57,0,0,0,.52,0l.75-.44C162.32,260.26,162.33,260.12,162.2,260Z"/><path class="cls-16" d="M164.83,261.56l-1.36-.79a.62.62,0,0,0-.53,0l-.75.43c-.15.09-.17.23,0,.3l1.37.79a.57.57,0,0,0,.52,0l.75-.44C165,261.77,165,261.64,164.83,261.56Z"/><path class="cls-16" d="M169.51,261.94l-1.36-.79a.62.62,0,0,0-.53,0l-.75.43c-.15.09-.17.22,0,.3l1.37.79a.56.56,0,0,0,.52,0l.75-.44C169.63,262.15,169.64,262,169.51,261.94Z"/><path class="cls-16" d="M165.49,264.26l-1.37-.78a.56.56,0,0,0-.52,0l-2.76,1.59c-.16.09-.18.23,0,.31l1.36.78a.56.56,0,0,0,.52,0l2.77-1.59C165.6,264.48,165.62,264.34,165.49,264.26Z"/><path class="cls-16" d="M160.92,266.9l-1.36-.79a.56.56,0,0,0-.52,0l-.76.44c-.15.09-.17.22,0,.3l1.36.79a.63.63,0,0,0,.52,0l.76-.44C161,267.11,161.06,267,160.92,266.9Z"/><path class="cls-16" d="M167.5,263.1l-1.36-.78a.59.59,0,0,0-.53,0l-.75.43c-.15.09-.17.23,0,.3l1.37.79a.57.57,0,0,0,.52,0l.75-.44C167.62,263.32,167.63,263.18,167.5,263.1Z"/><path class="cls-16" d="M172.14,263.46l-1.36-.79a.59.59,0,0,0-.53,0l-.75.44c-.15.09-.17.22,0,.3l1.37.79a.63.63,0,0,0,.52,0l.75-.44C172.26,263.67,172.28,263.54,172.14,263.46Z"/><path class="cls-16" d="M177.49,266.55l-4.08-2.36a.59.59,0,0,0-.53,0l-.75.44c-.15.09-.17.22,0,.3l4.09,2.36a.6.6,0,0,0,.52,0l.75-.43C177.61,266.76,177.63,266.63,177.49,266.55Z"/><path class="cls-16" d="M168.12,265.78l-1.37-.78a.56.56,0,0,0-.52,0l-.75.43c-.16.09-.17.23,0,.3l1.36.79a.59.59,0,0,0,.53,0l.75-.44C168.23,266,168.25,265.86,168.12,265.78Z"/><path class="cls-16" d="M170.75,267.3l-1.37-.79a.6.6,0,0,0-.52,0l-.75.43c-.16.09-.17.23,0,.3l1.36.79a.59.59,0,0,0,.53,0l.75-.44C170.86,267.51,170.88,267.38,170.75,267.3Z"/><path class="cls-16" d="M173.47,268.87l-1.37-.79a.6.6,0,0,0-.52,0l-.75.43c-.16.09-.17.23,0,.3l1.36.79a.59.59,0,0,0,.53,0l.75-.44C173.58,269.08,173.6,269,173.47,268.87Z"/><path class="cls-16" d="M166.11,266.94l-1.37-.78a.56.56,0,0,0-.52,0l-.75.43c-.16.09-.18.23,0,.31l1.36.78a.56.56,0,0,0,.52,0l.76-.43C166.22,267.16,166.24,267,166.11,266.94Z"/><path class="cls-16" d="M168.74,268.46l-1.37-.78a.56.56,0,0,0-.52,0l-.75.43c-.16.09-.18.23,0,.3l1.36.79a.56.56,0,0,0,.52,0l.76-.44C168.85,268.68,168.87,268.54,168.74,268.46Z"/><path class="cls-16" d="M171.46,270l-1.37-.78a.56.56,0,0,0-.52,0l-.75.43c-.16.09-.18.23,0,.3l1.36.79a.59.59,0,0,0,.53,0l.75-.43C171.57,270.25,171.59,270.11,171.46,270Z"/><path class="cls-16" d="M163.55,268.42l-1.36-.79a.56.56,0,0,0-.52,0l-.76.44c-.15.09-.17.22,0,.3l1.36.79a.6.6,0,0,0,.52,0l.76-.43C163.67,268.63,163.69,268.49,163.55,268.42Z"/><path class="cls-16" d="M166.18,269.94l-1.36-.79a.56.56,0,0,0-.52,0l-.76.44c-.15.08-.17.22,0,.3l1.36.78a.56.56,0,0,0,.52,0l.76-.43C166.3,270.15,166.32,270,166.18,269.94Z"/><path class="cls-16" d="M168.9,271.51l-1.36-.79a.56.56,0,0,0-.52,0l-.76.44c-.15.08-.17.22,0,.3l1.36.78a.56.56,0,0,0,.52,0l.76-.43C169,271.72,169,271.58,168.9,271.51Z"/><path class="cls-16" d="M158.73,268.13l-1.37-.79a.56.56,0,0,0-.52,0l-.75.44c-.16.08-.17.22,0,.3l1.36.78a.59.59,0,0,0,.53,0l.75-.43C158.84,268.34,158.86,268.2,158.73,268.13Z"/><path class="cls-16" d="M161.36,269.64l-1.37-.78a.57.57,0,0,0-.52,0l-.75.43c-.16.09-.17.23,0,.31l1.36.78a.59.59,0,0,0,.53,0l.75-.43C161.47,269.86,161.49,269.72,161.36,269.64Z"/><path class="cls-16" d="M164,271.16l-1.37-.78a.57.57,0,0,0-.52,0l-.75.43c-.16.09-.17.23,0,.3l1.36.79a.59.59,0,0,0,.53,0l.75-.43C164.1,271.38,164.12,271.24,164,271.16Z"/><path class="cls-16" d="M166.71,272.73l-1.37-.78a.57.57,0,0,0-.52,0l-.75.43c-.16.09-.17.23,0,.3l1.36.79a.59.59,0,0,0,.53,0l.75-.43C166.82,273,166.84,272.81,166.71,272.73Z"/><path class="cls-16" d="M170.13,264.62l-1.36-.79a.62.62,0,0,0-.53,0l-.75.43c-.15.09-.17.23,0,.3l1.37.79a.57.57,0,0,0,.52,0l.75-.44C170.25,264.83,170.26,264.7,170.13,264.62Z"/><path class="cls-16" d="M172.76,266.14l-1.36-.79a.62.62,0,0,0-.53,0l-.75.44c-.15.09-.17.22,0,.3l1.37.79a.6.6,0,0,0,.52,0l.75-.44C172.88,266.35,172.89,266.22,172.76,266.14Z"/><path class="cls-16" d="M175.48,267.71l-1.36-.79a.66.66,0,0,0-.53,0l-.75.44c-.15.09-.17.22,0,.3l1.37.79a.57.57,0,0,0,.52,0l.75-.44C175.6,267.92,175.61,267.79,175.48,267.71Z"/><path class="cls-6" d="M130.49,244.16a2.68,2.68,0,0,1,2.16-1.29h0a3,3,0,0,1,1.56.47l19.91,11.38a7.28,7.28,0,0,1,2.86,3.89c.23.67,4,9.64,5.16,12.6a5.6,5.6,0,0,1,.51,2.63h0a1.69,1.69,0,0,1-.05.24c-.29,1.34-2,1.42-2,1.42l-.17-1.23-.13-.07-18-10.37c-1.81-1.05-3.23-3.46-4.37-5.88l-5.54-11.83-.38.36S130.06,245,130.49,244.16Z"/><path class="cls-17" d="M141,264.64,159,275c1.81,1.05,3.17.57,1.83-3-1.12-3-4.93-11.94-5.16-12.61a7.27,7.27,0,0,0-2.87-3.88l-19.9-11.39c-1.09-.62-2.31-.75-2.55.36a2.93,2.93,0,0,0,.37,1.59c.18.37,5.94,12.67,5.94,12.67C137.8,261.19,139.23,263.6,141,264.64Z"/><polygon class="cls-5" points="154.45 274.08 157.28 275.71 156.24 273.11 153.4 271.47 154.45 274.08"/><polygon class="cls-16" points="153.4 271.47 153.86 271.2 156.69 272.84 156.24 273.11 153.4 271.47"/><polygon class="cls-18" points="157.28 275.71 157.74 275.45 156.69 272.84 156.24 273.11 157.28 275.71"/><polygon class="cls-5" points="142.26 267 145.1 268.64 144.05 266.03 141.21 264.39 142.26 267"/><polygon class="cls-16" points="141.21 264.39 141.67 264.13 144.5 265.76 144.05 266.03 141.21 264.39"/><polygon class="cls-18" points="145.1 268.64 145.55 268.37 144.5 265.76 144.05 266.03 145.1 268.64"/><path class="cls-14" d="M191.46,237.36c-1.06-2.86-7.15.57-7.15.57s0,2.58,0,5.08.25,8.83.25,8.83-6.86,10.43-7.62,11.46c-.26.37-1.85,0-2.91.69-1.35.91-1.43,1.61-2.17,2.05-1.45.86-1.5,1.7-.39,1.66s2.07-1.24,2.41-1.21c.5,0,.19,1.08-.48,2.5s-2.41,3.28-1.54,4.53,2.92.45,4.93-1.54c1.65-1.63,1.83-4,2.88-6.24.57-1.2,7.94-8.86,9.36-10A3.19,3.19,0,0,0,190.4,254a10.2,10.2,0,0,0,.58-3.77C191,247.45,192.52,240.21,191.46,237.36Z"/><path class="cls-13" d="M186.29,226.79c-2.22.81-3.26,4-3.38,8s0,9.66,0,9.66a11.06,11.06,0,0,0,5.3,1.41,6.74,6.74,0,0,0,4.78-1.7s-.49-11-1.64-14.1S188.19,226.1,186.29,226.79Z"/><path class="cls-10" d="M187.27,213.13a6.35,6.35,0,0,0-2.52-3.41,2.72,2.72,0,0,0-.18-2.49c-.64-1.14-2.64-2.89-4.3-2.91a3,3,0,0,0,.32-2.56,2.94,2.94,0,0,0-2.36-1.62,4.32,4.32,0,0,0-4.06,1.08,2.56,2.56,0,0,0-3.14-1.29,1.87,1.87,0,0,0-1,1.32,1.81,1.81,0,0,0-2.66.08,1.19,1.19,0,0,0,0,1.49c-1.65-.17-3.61.31-4,1.77a2,2,0,0,0,.76,2.07c-1.25.93-2,2.41-.73,3.78,1.44,1.59,4.64,1.28,6.28-.16a4.91,4.91,0,0,0,4,3.84,3.4,3.4,0,0,0,2.33-.83,7.58,7.58,0,0,0,1.42,1.74,5.52,5.52,0,0,0-.85,3.55A3.64,3.64,0,0,0,177.9,221a5.57,5.57,0,0,0-1.74,5.66c.5,1.75,2.59,3.1,5.34,1.33,1.33-.85,2.41-3.82,1.95-5a2.18,2.18,0,0,0,2.62-1.59,4.13,4.13,0,0,0-.74-3.17C187.08,217.53,187.69,214.79,187.27,213.13Z"/><path class="cls-14" d="M68.85,261.36a17.2,17.2,0,0,0,6.42-.9c-.1,1.16-.18,2.28-.21,3.33-.23,7.16-1.23,8.46,2.49,11.31,3.33,2.55,3.72,3.29,5.24,5.86,1.09,1.85-1.15,2.54-2.81,2.15-3.63-.84-6.61-4.86-8.55-5.65s-4.6-1.81-4.09-3.93c.55-2.29,1.13-2.21,1.62-4.21C69.4,267.47,69.19,264.51,68.85,261.36Z"/><path class="cls-10" d="M67.88,271.9A13,13,0,0,1,69,274.34c1.52,1.16,3.36,2,5.33,3.69s3.21,2.75,4.91,1.84,1.94-1.55,1.94-1.55A13.24,13.24,0,0,1,84,281.21c.51,1.1-1.79,3.49-5.17,2.73s-4.5-3-6.25-4.7-3.41-2.22-5-3.55S67.88,271.9,67.88,271.9Z"/><path class="cls-14" d="M50,271c1.92.17,3.89-2.87,6.12-3.57-.11,1.16-.59,2.28-.63,3.33-.22,7.15-1.67,11.09,2.06,13.94,3.33,2.55,3.71,3.29,5.23,5.86,1.1,1.85-1.14,2.54-2.8,2.16-3.63-.85-6.61-4.87-8.55-5.66s-4.61-1.81-4.1-3.93c.55-2.28,1.36-3.11,1.85-5.11A17.72,17.72,0,0,0,50,271Z"/><path class="cls-10" d="M47.92,281.47a12.5,12.5,0,0,1,1.14,2.44c1.53,1.16,3.37,2,5.33,3.69s3.21,2.75,4.91,1.84,2-1.55,2-1.55a13.14,13.14,0,0,1,2.78,2.9c.51,1.09-1.79,3.48-5.16,2.72s-4.5-3-6.25-4.7-3.41-2.22-5-3.54S47.92,281.47,47.92,281.47Z"/><path class="cls-1" d="M71.54,206.6s6.31,12.85,8.87,20.32c2.16,6.3,5.53,10.75,4.55,14.13a140.93,140.93,0,0,1-4.84,13.86c-3.08,7.5-5.35,14.53-5.35,14.53a7.24,7.24,0,0,1-5.6-1.61c0-9.09-.28-14.13.65-19.07,1.26-6.65,3.81-8.71,3.81-8.71s-7.77-10.75-9.95-19.14c-9.81-5.29-5.31-13-4.92-12.93S71.54,206.6,71.54,206.6Z"/><path class="cls-2" d="M49.22,278c.81-5,.27-14.81,1.48-19.83A12.66,12.66,0,0,1,56.16,250c-1.86-2.29-5.53-13.54-3.64-24.56-4.65-9.13-2.63-15.53.88-19.35.11-.12,14.46,5,14.3,5l-.2,0a13.34,13.34,0,0,1-1.35,13.87c.57,11.5,3.1,16.52,1,23.91-.73,2.56-10.12,24.12-11.92,29.69C53.1,279.64,50.88,280.13,49.22,278Z"/><path class="cls-9" d="M71.79,178.38c1-1,2.66-3.1,5.5-2.45,4.44,1,17.41,10.81,17.41,10.81l13.89-1a5.7,5.7,0,0,1,1.33,4.13,124.34,124.34,0,0,1-15.75,5.32c-2.41.5-20.54-9.51-20.54-9.51Z"/><path class="cls-8" d="M76.25,200.52c-1.19,2.73-1.87,6.32,0,12.43-3.81,4-8,4.92-15,4.56-5.82-.29-9-1.61-11.47-3.53.25-3.15,1.67-7.78,2-11.75a68.31,68.31,0,0,1,3.39-17.74c1.54-4.17,6-8.15,12-10.52,7-2.77,8.38-.31,8.38-.31s4.31,10.27,5.54,14.9c1,3.61,1,5.8-.74,8C78.4,199.2,78.45,197.56,76.25,200.52Z"/><path class="cls-12" d="M66,172.55c.09-.31,5.62,2.64,5.61,2.74-.11,1.82.69,2.66,1.62,4.35.49.88.31,2.74,1.13,4.59.7,1.59.3,1.33-.95,2.07-2,1.16-5.36.06-8.22-3.41.43-.46-1.49-2.16-1.14-3.21C64.53,178.3,65.15,175.81,66,172.55Z"/><path class="cls-13" d="M68.48,184.49l6.24-1.55s3.13,7.18,3.29,10.48-4.22,9.64-4.22,9.64-1.07-7.74-2-11.14A38.1,38.1,0,0,0,68.48,184.49Z"/><path class="cls-9" d="M74.47,175.18s3.31,5.91,4.64,9.13a14.27,14.27,0,0,1-2.65,2.12l3.82,2a24.65,24.65,0,0,1-1.53,7.09c-1.33,3.26-5.62,8.84-5.62,8.84l.52-2.33s3.19-5.17,2.73-8.91-2.39-8.79-3.69-12-1.22-3.83-1.22-3.83Z"/><path class="cls-9" d="M66.11,173.08s-.48,1.56-1,2.73c.19,1.28,1.73,3.52,2.86,5.21a36.37,36.37,0,0,1,5.69,13.1c.84,4.14-.57,10.22-.57,10.22a22.41,22.41,0,0,0-3.08-7.18c-1-1.39-3.13-5.71-3.13-5.71L69.69,188l-4.43-1.19s-3-7.89-1.62-10.76C65.33,172.37,66.11,173.08,66.11,173.08Z"/><path class="cls-9" d="M68.62,158.84c1-2.52,3.16-6.43-1.16-8.07a3.93,3.93,0,0,0-5.34,2.41s-2.7-2.41-5.62.9c-2.36,2.66,1.35,5.38,1.35,5.38a4.25,4.25,0,0,0-2.37,4.33c.22,3.28,3.27,3.9,6.05,2.8C63.14,166,67.4,161.79,68.62,158.84Z"/><path class="cls-13" d="M61.09,159.21a1.7,1.7,0,0,1,1.71-.66,1.67,1.67,0,0,1,.54-1.66A1.44,1.44,0,0,1,65,156.8l.17.12a2,2,0,0,1,.3-1.1,1.44,1.44,0,0,1,1.59-.65c1.25.38,1.89,2.53,1.56,3.67a.29.29,0,0,1-.2.19,7.83,7.83,0,0,1-3.15,4c-.45.33-1,.83-1.57.79a2.81,2.81,0,0,1-1.64-1.1C61.32,161.86,60.34,160.3,61.09,159.21Z"/><path class="cls-14" d="M79.26,168.31c.06-2.24-.23-5.08-1.85-6.79s-4.5-2.05-6.72-2c-3.43,0-6.1,3.63-5.78,8.05.28,4.08,2.56,10.49,7,11.63C76.87,180.44,79.18,171.73,79.26,168.31Z"/><path class="cls-8" d="M84.73,163.2a2.27,2.27,0,0,0-2-1.33,2.22,2.22,0,0,0,.26-3,2.36,2.36,0,0,0-3.68,0,11.9,11.9,0,0,0-7.39-1.58A11.7,11.7,0,0,0,68,158a12.87,12.87,0,0,0-1.73,1.93A.45.45,0,0,0,66,160a.44.44,0,0,0-.21-.07c-6,.09-3.69,10.28-.16,14.26a13.39,13.39,0,0,0,2-3.61c.35-.72,1-2.61,1.38-3.27,1.12.92,3.58,1.12,5.57,1a12.49,12.49,0,0,0,2,.79,6.74,6.74,0,0,0,7-1.46A4.13,4.13,0,0,0,84.73,163.2Z"/><path class="cls-14" d="M69,169.17s-1.3-2.44-2.45-1.06-.37,4.42,1,4.44S69,169.17,69,169.17Z"/><path class="cls-9" d="M59,181.81c4.09,0,4.65,8.08,4.67,10.7s-1.82,13.39-1.82,13.39,4.2,3.32,7,5.06,7,4.42,7,4.42L74,218.91s-7.08-.54-10.67-1.68-9.53-4.49-10.3-7-.57-11-1.1-17.72C51.24,184.12,56,181.81,59,181.81Z"/><path class="cls-6" d="M101.53,198.56A3.89,3.89,0,0,0,99,197h0a3.13,3.13,0,0,0-1.56.47l-12.09,6.9a7.35,7.35,0,0,0-2.87,3.89c-.22.67-6.17,15.5-7.29,18.47a5.7,5.7,0,0,0-.51,2.62,1.6,1.6,0,0,0,.06.24,1.56,1.56,0,0,0,1.55,1.29l2.74-7,.13-.07,10.15-5.89c1.81-1,3.24-3.45,4.37-5.87,0,0,4.22-9,5.55-11.84l.37.36S102,199.39,101.53,198.56Z"/><path class="cls-17" d="M87.94,224.44l-10.39,5.94c-1.81,1.05-2.55.52-1.21-3,1.12-3,7.22-17.62,7.45-18.28a7.29,7.29,0,0,1,2.86-3.89l12.34-7c1.08-.63,2.3-.75,2.54.35a2.86,2.86,0,0,1-.37,1.6l-8.84,18.4C91.18,221,89.75,223.39,87.94,224.44Z"/><path class="cls-14" d="M80.89,212a9.6,9.6,0,0,1-2.46,1.77c-.67.33-1.65,1.32-2.27,1.41-.78-.29-1.61-.65-1.61-.65S72.8,217,74,218.91a11.65,11.65,0,0,0,7.81.84,6.37,6.37,0,0,0,4.4-3c.58-.8-.48-.78-.48-.78s1.24-1.75.23-2c.27-.54.72-1.16,0-1.26s-2.72,1.48-3.18,1.6-2.65.31-2.65.31Z"/><path class="cls-14" d="M107.86,185.86a19.18,19.18,0,0,1,5-2.13,19.89,19.89,0,0,0,3.88-1.21c1-.35,1,.65,0,1.17a12,12,0,0,0-2.26,1.84c-.3.26,1.64,1.38,3.5.86s2.7-1.1,4.27-1.39c1.14-.21.38.86.38.86s1-.22,1,.29c0,.32-1.1.89-1.1.89s.87-.11.87.42-1.08.95-1.08.95a.47.47,0,0,1,.45.65c-.19.46-.85.71-1.71,1a11.38,11.38,0,0,1-3.92.92,13.87,13.87,0,0,1-4.12-.2,15,15,0,0,0-4-.53A9.34,9.34,0,0,0,107.86,185.86Z"/><path class="cls-1" d="M297.61,187.49c-4.63-1-8.44,2-13.32,4.3-.12,0-14.78,12.24-14.71,12.44-2.16,4.6,1.11,11.73,7.18,11,3.1,1.91,22.73-9.86,22.73-17.37C302.53,195,303,188.68,297.61,187.49Z"/><path class="cls-2" d="M276.91,207.71a8.63,8.63,0,0,0,.18,8.36,9.12,9.12,0,0,0,13.3,2.87c2.88-.32,16.1-4,20.15-7.35,5.3-1.66,6.58-3.72,6.29-6.81-.35-3.62-7.06-5.54-9.32-5.12s-20.19,3.46-20.19,3.46Z"/><path class="cls-19" d="M316.24,191.74a1.45,1.45,0,0,1,.61-1.17.37.37,0,0,1,.39,0l9.09,5.19-.84,1.69-9-5.18A.52.52,0,0,1,316.24,191.74Z"/><path class="cls-17" d="M325.29,196.94c0,.45.28.65.61.46a1.47,1.47,0,0,0,.61-1.17c0-.45-.27-.66-.61-.46A1.48,1.48,0,0,0,325.29,196.94Z"/><path class="cls-19" d="M305,185.26a1.43,1.43,0,0,1,.61-1.16.4.4,0,0,1,.39,0l9.1,5.2-.84,1.69-9-5.18A.54.54,0,0,1,305,185.26Z"/><path class="cls-17" d="M314,190.46c0,.45.27.66.61.46a1.43,1.43,0,0,0,.61-1.16c0-.45-.27-.66-.61-.46A1.43,1.43,0,0,0,314,190.46Z"/><path class="cls-17" d="M286.34,195.18h0v-1a10.43,10.43,0,0,1,1.05-.23.67.67,0,0,1,0,.1l14.08-8.13a3.61,3.61,0,0,1,3.24-.13l20.2,11.66.86-.07v1a1.32,1.32,0,0,1-.79,1.08l-14.32,8.27a3.61,3.61,0,0,1-3.24.13L286.89,196A1,1,0,0,1,286.34,195.18Z"/><path class="cls-6" d="M307.4,206.85a3.61,3.61,0,0,0,3.24-.13L325,198.44c1-.55,1.06-1.39.23-1.86l-20.5-11.84a3.61,3.61,0,0,0-3.24.13l-14.33,8.27c-.95.55-1.06,1.39-.23,1.87Z"/><path class="cls-15" d="M287.08,194.9l20.51,11.84a3.23,3.23,0,0,0,2.88-.12l14.33-8.27c.84-.49.94-1.24.2-1.66l-20.51-11.84a3.17,3.17,0,0,0-2.87.12l-14.33,8.27C286.44,193.73,286.35,194.47,287.08,194.9Z"/><path class="cls-16" d="M320.25,198.45l.63.36a.88.88,0,0,0,.79,0l.72-.42c.24-.13.26-.34.06-.45l-.63-.37a.86.86,0,0,0-.78,0l-.73.41C320.08,198.13,320.05,198.33,320.25,198.45Z"/><path class="cls-16" d="M318.47,197.42l.62.36a.92.92,0,0,0,.79,0l.73-.42c.23-.14.25-.34.05-.46l-.63-.36a.86.86,0,0,0-.78,0l-.73.42C318.29,197.1,318.27,197.3,318.47,197.42Z"/><path class="cls-16" d="M316.68,196.38l.63.37a.86.86,0,0,0,.78,0l.73-.41c.23-.14.26-.34.05-.46l-.62-.36a.88.88,0,0,0-.79,0l-.73.42C316.5,196.06,316.48,196.27,316.68,196.38Z"/><path class="cls-16" d="M314.89,195.35l.63.36a.83.83,0,0,0,.78,0l.73-.42c.23-.13.26-.33.06-.45l-.63-.36a.88.88,0,0,0-.79,0l-.72.42C314.72,195,314.69,195.24,314.89,195.35Z"/><path class="cls-16" d="M313.1,194.32l.63.36a.88.88,0,0,0,.79,0l.72-.42c.23-.13.26-.34.06-.45l-.63-.37a.86.86,0,0,0-.78,0l-.73.42C312.93,194,312.9,194.2,313.1,194.32Z"/><path class="cls-16" d="M311.32,193.29l.62.36a.88.88,0,0,0,.79,0l.73-.42c.23-.13.25-.34.05-.45l-.63-.37a.89.89,0,0,0-.78,0l-.73.42C311.14,193,311.11,193.17,311.32,193.29Z"/><path class="cls-16" d="M309.53,192.26l.63.36a.89.89,0,0,0,.78,0l.73-.42c.23-.14.26-.34.05-.46l-.62-.36a.88.88,0,0,0-.79,0l-.73.42C309.35,191.94,309.33,192.14,309.53,192.26Z"/><path class="cls-16" d="M307.74,191.22l.63.37a.86.86,0,0,0,.78,0l.73-.42c.23-.13.26-.33.06-.45l-.63-.36a.88.88,0,0,0-.79,0l-.72.42C307.57,190.9,307.54,191.11,307.74,191.22Z"/><path class="cls-16" d="M318.28,199.59l.63.36a.88.88,0,0,0,.79,0l.72-.42c.23-.14.26-.34.06-.46l-.63-.36a.92.92,0,0,0-.79,0l-.72.42C318.11,199.27,318.08,199.47,318.28,199.59Z"/><path class="cls-16" d="M316.49,198.55l.63.37a.89.89,0,0,0,.79,0l.72-.41c.24-.14.26-.34.06-.46l-.63-.36a.86.86,0,0,0-.78,0l-.73.42C316.32,198.23,316.29,198.44,316.49,198.55Z"/><path class="cls-16" d="M314.71,197.52l.62.37a.88.88,0,0,0,.79,0l.73-.42c.23-.13.25-.33,0-.45l-.63-.36a.86.86,0,0,0-.78,0l-.73.42C314.53,197.2,314.51,197.41,314.71,197.52Z"/><path class="cls-16" d="M312.92,196.49l.63.36a.86.86,0,0,0,.78,0l.73-.42c.23-.13.26-.34.06-.45l-.63-.36a.85.85,0,0,0-.79,0L313,196C312.74,196.17,312.72,196.37,312.92,196.49Z"/><path class="cls-16" d="M311.13,195.46l.63.36a.88.88,0,0,0,.79,0l.72-.42c.23-.13.26-.34.06-.45l-.63-.37a.89.89,0,0,0-.79,0l-.72.41C311,195.14,310.93,195.34,311.13,195.46Z"/><path class="cls-16" d="M309.34,194.43l.63.36a.92.92,0,0,0,.79,0l.72-.42c.24-.14.26-.34.06-.46l-.63-.36a.89.89,0,0,0-.78,0l-.73.42C309.17,194.11,309.14,194.31,309.34,194.43Z"/><path class="cls-16" d="M307.56,193.39l.62.37a.88.88,0,0,0,.79,0l.73-.41c.23-.14.25-.34.05-.46l-.63-.36a.86.86,0,0,0-.78,0l-.73.42C307.38,193.07,307.36,193.28,307.56,193.39Z"/><path class="cls-16" d="M305.77,192.36l.63.37a.86.86,0,0,0,.78,0l.73-.42c.23-.13.26-.33.06-.45l-.63-.36a.88.88,0,0,0-.79,0l-.73.42C305.59,192,305.57,192.25,305.77,192.36Z"/><path class="cls-16" d="M304,191.33l.63.36a.88.88,0,0,0,.79,0l.72-.42c.23-.13.26-.34.06-.45l-.63-.37a.89.89,0,0,0-.79,0l-.72.42C303.81,191,303.78,191.21,304,191.33Z"/><path class="cls-16" d="M302.19,190.3l.63.36a.88.88,0,0,0,.79,0l.72-.42c.24-.13.26-.34.06-.45l-.63-.37a.86.86,0,0,0-.78,0l-.73.41C302,190,302,190.18,302.19,190.3Z"/><path class="cls-16" d="M300.41,189.27l.62.36a.92.92,0,0,0,.79,0l.73-.42c.23-.14.25-.34.05-.46l-.63-.36a.86.86,0,0,0-.78,0l-.73.42C300.23,189,300.21,189.15,300.41,189.27Z"/><path class="cls-16" d="M298.62,188.23l.63.37a.86.86,0,0,0,.78,0l.73-.41c.23-.14.26-.34.05-.46l-.62-.36a.88.88,0,0,0-.79,0l-.73.42C298.44,187.91,298.42,188.12,298.62,188.23Z"/><path class="cls-16" d="M316.31,200.73l.63.36a.89.89,0,0,0,.78,0l.73-.42c.23-.14.26-.34.06-.46l-.63-.36a.88.88,0,0,0-.79,0l-.72.42C316.13,200.41,316.11,200.61,316.31,200.73Z"/><path class="cls-16" d="M314.52,199.69l.63.37a.89.89,0,0,0,.79,0l.72-.42c.23-.13.26-.33.06-.45l-.63-.36a.88.88,0,0,0-.79,0l-.72.42C314.35,199.37,314.32,199.58,314.52,199.69Z"/><path class="cls-16" d="M312.73,198.66l.63.36a.85.85,0,0,0,.79,0l.72-.42c.24-.13.26-.34.06-.45l-.63-.36a.83.83,0,0,0-.78,0l-.73.42C312.56,198.34,312.53,198.55,312.73,198.66Z"/><path class="cls-16" d="M311,197.63l.62.36a.88.88,0,0,0,.79,0l.73-.42c.23-.13.25-.34.05-.45l-.63-.37a.86.86,0,0,0-.78,0l-.73.42C310.77,197.31,310.75,197.51,311,197.63Z"/><path class="cls-16" d="M309.16,196.6l.63.36a.86.86,0,0,0,.78,0l.73-.42c.23-.14.26-.34.06-.46l-.63-.36a.92.92,0,0,0-.79,0l-.72.42C309,196.28,309,196.48,309.16,196.6Z"/><path class="cls-16" d="M307.37,195.56l.63.37a.92.92,0,0,0,.79,0l.72-.42c.23-.14.26-.34.06-.46l-.63-.36a.88.88,0,0,0-.79,0l-.72.42C307.2,195.24,307.17,195.45,307.37,195.56Z"/><path class="cls-16" d="M305.58,194.53l.63.37a.89.89,0,0,0,.79,0l.72-.42c.24-.13.26-.33.06-.45l-.63-.36a.86.86,0,0,0-.78,0l-.73.42C305.41,194.21,305.38,194.42,305.58,194.53Z"/><path class="cls-16" d="M302,192.47l2.41,1.39a.88.88,0,0,0,.79,0l.73-.42c.23-.13.25-.34.05-.45l-2.41-1.4a.89.89,0,0,0-.79,0l-.73.42C301.83,192.15,301.81,192.35,302,192.47Z"/><path class="cls-16" d="M300.22,191.44l.63.36a.88.88,0,0,0,.79,0l.72-.42c.23-.14.26-.34.06-.46l-.63-.36a.92.92,0,0,0-.79,0l-.72.42C300.05,191.12,300,191.32,300.22,191.44Z"/><path class="cls-16" d="M298.43,190.4l.63.37a.92.92,0,0,0,.79,0l.72-.42c.24-.14.26-.34.06-.46l-.63-.36a.86.86,0,0,0-.78,0l-.73.42C298.26,190.08,298.23,190.29,298.43,190.4Z"/><path class="cls-16" d="M296.65,189.37l.62.37a.88.88,0,0,0,.79,0l.73-.42c.23-.13.25-.33,0-.45l-.63-.36a.86.86,0,0,0-.78,0l-.73.42C296.47,189.05,296.45,189.26,296.65,189.37Z"/><path class="cls-16" d="M314.34,201.86l.63.37a.86.86,0,0,0,.78,0l.73-.42c.23-.13.25-.33,0-.45l-.63-.36a.86.86,0,0,0-.78,0l-.73.42C314.16,201.54,314.14,201.75,314.34,201.86Z"/><path class="cls-16" d="M312.55,200.83l.63.36a.83.83,0,0,0,.78,0l.73-.42c.23-.13.26-.33.06-.45l-.63-.36a.88.88,0,0,0-.79,0l-.72.42C312.37,200.51,312.35,200.72,312.55,200.83Z"/><path class="cls-16" d="M310.76,199.8l.63.36a.88.88,0,0,0,.79,0l.72-.42c.23-.13.26-.34.06-.45l-.63-.37a.89.89,0,0,0-.79,0l-.72.42C310.59,199.48,310.56,199.68,310.76,199.8Z"/><path class="cls-16" d="M309,198.77l.63.36a.88.88,0,0,0,.79,0l.72-.42c.24-.13.26-.34.06-.45l-.63-.37a.89.89,0,0,0-.78,0l-.73.42C308.8,198.45,308.77,198.65,309,198.77Z"/><path class="cls-16" d="M307.19,197.74l.63.36a.89.89,0,0,0,.78,0l.73-.42c.23-.14.25-.34.05-.46l-.63-.36a.86.86,0,0,0-.78,0l-.73.42C307,197.42,307,197.62,307.19,197.74Z"/><path class="cls-16" d="M305.4,196.7l.63.37a.86.86,0,0,0,.78,0l.73-.42c.23-.13.26-.33.06-.45l-.63-.36a.88.88,0,0,0-.79,0l-.72.42C305.22,196.38,305.2,196.59,305.4,196.7Z"/><path class="cls-16" d="M303.61,195.67l.63.36a.85.85,0,0,0,.79,0l.72-.42c.23-.13.26-.34.06-.45l-.63-.36a.85.85,0,0,0-.79,0l-.72.42C303.44,195.35,303.41,195.56,303.61,195.67Z"/><path class="cls-16" d="M301.82,194.64l.63.36a.88.88,0,0,0,.79,0l.72-.42c.24-.13.26-.34.06-.45l-.63-.37a.86.86,0,0,0-.78,0l-.73.42C301.65,194.32,301.62,194.52,301.82,194.64Z"/><path class="cls-16" d="M300,193.61l.63.36a.86.86,0,0,0,.78,0l.73-.42c.23-.13.25-.34.05-.45l-.63-.37a.89.89,0,0,0-.78,0l-.73.42C299.86,193.29,299.84,193.49,300,193.61Z"/><path class="cls-16" d="M298.25,192.58l.63.36a.89.89,0,0,0,.78,0l.73-.42c.23-.14.26-.34.06-.46l-.63-.36a.88.88,0,0,0-.79,0l-.72.42C298.07,192.26,298.05,192.46,298.25,192.58Z"/><path class="cls-16" d="M296.46,191.54l.63.37a.89.89,0,0,0,.79,0l.72-.42c.23-.13.26-.33.06-.45l-.63-.36a.88.88,0,0,0-.79,0l-.72.42C296.29,191.22,296.26,191.43,296.46,191.54Z"/><path class="cls-16" d="M294.67,190.51l.63.36a.85.85,0,0,0,.79,0l.72-.42c.24-.13.26-.34.06-.45l-.63-.36a.83.83,0,0,0-.78,0l-.73.42C294.5,190.19,294.47,190.4,294.67,190.51Z"/><path class="cls-16" d="M312.36,203l.63.37a.89.89,0,0,0,.79,0l.72-.42c.24-.13.26-.33.06-.45l-.63-.36a.86.86,0,0,0-.78,0l-.73.42C312.19,202.68,312.16,202.89,312.36,203Z"/><path class="cls-16" d="M310.58,202l.63.36a.86.86,0,0,0,.78,0l.73-.42c.23-.13.25-.34,0-.45l-.62-.36a.85.85,0,0,0-.79,0l-.73.42C310.4,201.65,310.38,201.85,310.58,202Z"/><path class="cls-16" d="M308.79,200.94l.63.36a.86.86,0,0,0,.78,0l.73-.42c.23-.13.26-.34.06-.45l-.63-.37a.89.89,0,0,0-.79,0l-.72.41C308.61,200.62,308.59,200.82,308.79,200.94Z"/><path class="cls-16" d="M301.64,196.81l6,3.46a.92.92,0,0,0,.79,0l.72-.42c.23-.14.26-.34.06-.46l-6-3.46a.89.89,0,0,0-.79,0l-.72.42C301.46,196.49,301.44,196.69,301.64,196.81Z"/><path class="cls-16" d="M299.85,195.78l.63.36a.88.88,0,0,0,.79,0l.72-.42c.23-.13.26-.34.06-.45l-.63-.37a.89.89,0,0,0-.79,0l-.72.41C299.68,195.46,299.65,195.66,299.85,195.78Z"/><path class="cls-16" d="M298.06,194.75l.63.36a.92.92,0,0,0,.79,0l.72-.42c.24-.14.26-.34.06-.46l-.63-.36a.86.86,0,0,0-.78,0l-.73.42C297.89,194.43,297.86,194.63,298.06,194.75Z"/><path class="cls-16" d="M296.28,193.71l.63.37a.86.86,0,0,0,.78,0l.73-.41c.23-.14.25-.34.05-.46l-.63-.36a.86.86,0,0,0-.78,0l-.73.42C296.1,193.39,296.08,193.6,296.28,193.71Z"/><path class="cls-16" d="M294.49,192.68l.63.36a.83.83,0,0,0,.78,0l.73-.42c.23-.13.26-.33.06-.45l-.63-.36a.88.88,0,0,0-.79,0l-.72.42C294.31,192.36,294.29,192.57,294.49,192.68Z"/><path class="cls-16" d="M292.7,191.65l.63.36a.88.88,0,0,0,.79,0l.72-.42c.23-.13.26-.34.06-.45l-.63-.37a.89.89,0,0,0-.79,0l-.72.42C292.53,191.33,292.5,191.53,292.7,191.65Z"/><path class="cls-16" d="M306,190.19l.63.36a.85.85,0,0,0,.79,0l.72-.42c.23-.13.26-.34.06-.45l-.63-.36a.86.86,0,0,0-.78,0l-.73.42C305.78,189.87,305.75,190.08,306,190.19Z"/><path class="cls-16" d="M304.17,189.16l.62.36a.88.88,0,0,0,.79,0l.73-.42c.23-.13.25-.34.05-.45l-.63-.37a.86.86,0,0,0-.78,0l-.73.42C304,188.84,304,189,304.17,189.16Z"/><path class="cls-16" d="M302.38,188.13l.63.36a.86.86,0,0,0,.78,0l.73-.42c.23-.14.25-.34.05-.45l-.62-.37a.92.92,0,0,0-.79,0l-.73.42C302.2,187.81,302.18,188,302.38,188.13Z"/><path class="cls-16" d="M300.59,187.1l.63.36a.89.89,0,0,0,.78,0l.73-.42c.23-.14.26-.34.06-.46l-.63-.36a.88.88,0,0,0-.79,0l-.72.42C300.42,186.78,300.39,187,300.59,187.1Z"/><path class="cls-16" d="M302.45,185.88l.87.51a.6.6,0,0,0,.52,0l.29-.16c.15-.09.17-.22,0-.3l-.88-.51a.6.6,0,0,0-.52,0l-.29.16C302.33,185.67,302.31,185.8,302.45,185.88Z"/><path class="cls-16" d="M304.23,186.91l.88.51a.6.6,0,0,0,.52,0l.29-.17c.15-.09.17-.22,0-.3l-.87-.5a.56.56,0,0,0-.52,0l-.29.16C304.12,186.7,304.1,186.84,304.23,186.91Z"/><path class="cls-16" d="M306,187.94l.88.51a.57.57,0,0,0,.52,0l.28-.17c.16-.08.17-.22,0-.3l-.88-.5a.54.54,0,0,0-.51,0l-.29.17C305.91,187.73,305.89,187.87,306,187.94Z"/><path class="cls-16" d="M307.81,189l.88.5a.54.54,0,0,0,.51,0l.29-.16c.15-.09.17-.23,0-.3l-.88-.51a.57.57,0,0,0-.52,0l-.28.17C307.69,188.77,307.68,188.9,307.81,189Z"/><path class="cls-16" d="M309.6,190l.87.5a.56.56,0,0,0,.52,0l.29-.16c.15-.09.17-.23,0-.3l-.88-.51a.63.63,0,0,0-.52,0l-.29.17C309.48,189.8,309.46,189.93,309.6,190Z"/><path class="cls-16" d="M311.38,191l.88.51a.63.63,0,0,0,.52,0l.29-.17c.15-.09.17-.22,0-.3l-.87-.51a.6.6,0,0,0-.52,0l-.29.16C311.27,190.83,311.25,191,311.38,191Z"/><path class="cls-16" d="M313.17,192.07l.88.51a.6.6,0,0,0,.52,0l.28-.17c.16-.09.17-.22,0-.3l-.88-.5a.54.54,0,0,0-.51,0l-.29.16C313.06,191.86,313,192,313.17,192.07Z"/><path class="cls-16" d="M315,193.1l.88.51a.54.54,0,0,0,.51,0l.29-.17c.15-.08.17-.22,0-.3l-.88-.5a.57.57,0,0,0-.52,0l-.28.17C314.84,192.89,314.83,193,315,193.1Z"/><path class="cls-16" d="M316.75,194.14l.87.5a.56.56,0,0,0,.52,0l.29-.16c.15-.09.17-.23,0-.3l-.88-.51a.56.56,0,0,0-.52,0l-.29.17C316.63,193.93,316.61,194.06,316.75,194.14Z"/><path class="cls-16" d="M318.53,195.17l.88.5a.56.56,0,0,0,.52,0l.29-.16c.15-.09.17-.23,0-.3l-.87-.51a.63.63,0,0,0-.52,0l-.29.17C318.42,195,318.4,195.09,318.53,195.17Z"/><path class="cls-16" d="M320.32,196.2l.88.51a.63.63,0,0,0,.52,0l.28-.17c.16-.09.17-.22,0-.3l-.88-.51a.58.58,0,0,0-.51,0l-.29.16C320.21,196,320.19,196.12,320.32,196.2Z"/><path class="cls-16" d="M322.11,197.23l.88.51a.57.57,0,0,0,.52,0l.28-.17c.15-.09.17-.22,0-.3l-.88-.5a.57.57,0,0,0-.52,0l-.28.16C322,197,322,197.16,322.11,197.23Z"/><path class="cls-17" d="M295.69,198.94l5.54,3.2a1.43,1.43,0,0,0,1.27-.06l2.83-1.63c.38-.22.42-.55.09-.73l-5.54-3.2a1.4,1.4,0,0,0-1.27,0l-2.83,1.63C295.41,198.42,295.37,198.75,295.69,198.94Z"/><path class="cls-13" d="M322.89,200.3l1.57-.9a.37.37,0,0,0,.14-.29c0-.11-.06-.16-.14-.11l-1.57.91a.34.34,0,0,0-.15.28C322.74,200.3,322.81,200.35,322.89,200.3Z"/><path class="cls-13" d="M320.57,201.67l1.57-.91a.35.35,0,0,0,.14-.28c0-.11-.06-.16-.14-.12l-1.57.91a.37.37,0,0,0-.15.28C320.42,201.66,320.49,201.71,320.57,201.67Z"/><path class="cls-13" d="M313.53,205.73l1.57-.91a.34.34,0,0,0,.15-.28c0-.11-.07-.16-.15-.11l-1.57.9a.38.38,0,0,0-.15.29C313.38,205.73,313.45,205.78,313.53,205.73Z"/><path class="cls-17" d="M304,163.87l.73-.42a.47.47,0,0,1,.52,0l21.55,12.44a1.83,1.83,0,0,1,.75,1.44v18.1a.69.69,0,0,1-.25.6l-.77.45-.39-.86-20.89-12.06a1.81,1.81,0,0,1-.76-1.44V164.4l-.27.17A6.28,6.28,0,0,1,304,163.87Z"/><path class="cls-6" d="M326,196.47,304.48,184a1.81,1.81,0,0,1-.76-1.44v-18.1c0-.55.34-.81.76-.57L326,176.36a1.81,1.81,0,0,1,.76,1.44v18.1C326.78,196.45,326.44,196.71,326,196.47Z"/><path class="cls-15" d="M325.85,196.1l-21.2-12.24a1.78,1.78,0,0,1-.74-1.42V164.76c0-.54.33-.79.74-.56l21.2,12.24a1.79,1.79,0,0,1,.74,1.42v17.68C326.59,196.08,326.26,196.34,325.85,196.1Z"/><polygon class="cls-13" points="312.01 170.02 325.91 178.05 325.91 194.56 312.01 186.54 312.01 170.02"/><polygon class="cls-6" points="312.01 170.02 312.01 186.54 304.59 182.25 304.59 165.74 312.01 170.02"/><polygon class="cls-8" points="312.01 170.02 312.01 172.85 304.59 168.57 304.59 165.74 312.01 170.02"/><path class="cls-13" d="M315.55,171.25c0,.19-.12.28-.26.2a.64.64,0,0,1-.27-.51c0-.19.12-.28.27-.2A.66.66,0,0,1,315.55,171.25Z"/><path class="cls-13" d="M314.26,170.46c0,.16-.09.23-.21.16a.51.51,0,0,1-.22-.41c0-.16.1-.23.22-.16A.51.51,0,0,1,314.26,170.46Z"/><path class="cls-13" d="M326.82,178.77a0,0,0,0,0-.08,0c0,.79,0,1.58,0,2.38s0,1.59,0,2.38c0,.05.09.08.09,0A46.79,46.79,0,0,0,326.82,178.77Z"/><path class="cls-13" d="M325.29,176.05c-.57-.42-3.15-1.91-4.12-2.43-.15-.07-.22,0-.07.08a37.92,37.92,0,0,0,4.13,2.46C325.29,176.18,325.38,176.12,325.29,176.05Z"/><path class="cls-13" d="M320.08,173.05c-.58-.42-3.15-1.91-4.12-2.43-.15-.07-.22,0-.07.08a36.11,36.11,0,0,0,4.13,2.46C320.07,173.18,320.17,173.12,320.08,173.05Z"/><path class="cls-13" d="M304.39,205.14c1.35.65,2.75,1.8,4.35,2a4.26,4.26,0,0,0,2.49-.81c.68-.36,1.34-.78,2-1.12,0,0,0,0,0,0a22.7,22.7,0,0,1-2.39,1.49,3.86,3.86,0,0,1-2.21.62,9.56,9.56,0,0,1-4.32-2.14S304.37,205.13,304.39,205.14Z"/><polygon class="cls-13" points="308.55 180.93 310.96 182.31 310.96 182.69 308.55 181.3 308.55 180.93"/><polygon class="cls-13" points="308.55 181.62 310.96 183.01 310.96 183.38 308.55 181.99 308.55 181.62"/><polygon class="cls-13" points="308.55 182.31 310.96 183.7 310.96 184.07 308.55 182.69 308.55 182.31"/><polygon class="cls-13" points="308.55 183 310.96 184.39 310.96 184.76 308.55 183.38 308.55 183"/><polygon class="cls-13" points="305.54 179.16 307.94 180.55 307.94 180.93 305.54 179.54 305.54 179.16"/><polygon class="cls-13" points="305.54 179.85 307.94 181.24 307.94 181.62 305.54 180.23 305.54 179.85"/><polygon class="cls-13" points="305.54 180.54 307.94 181.93 307.94 182.31 305.54 180.92 305.54 180.54"/><polygon class="cls-13" points="305.54 181.24 307.94 182.63 307.94 183 305.54 181.61 305.54 181.24"/><polygon class="cls-10" points="304.97 177.7 311.6 181.46 311.6 182.17 304.97 178.41 304.97 177.7"/><path class="cls-8" d="M319.39,182.72c0,.48-.29.71-.65.5a1.57,1.57,0,0,1-.65-1.25c0-.48.29-.7.65-.49A1.54,1.54,0,0,1,319.39,182.72Z"/><path class="cls-9" d="M318.74,184.78a3.72,3.72,0,0,1-1.38-1.64l-2.81.84a11.07,11.07,0,0,0,4.19,5.27c2,1.16,3.76.63,4.62-1.12l-3.06-3.61A1.06,1.06,0,0,1,318.74,184.78Z"/><path class="cls-20" d="M320.57,183.4a2.73,2.73,0,0,1-.08.67l3.06,3.61a7.11,7.11,0,0,0,.37-2.35c0-3.72-2.22-8-5-9.77l0,4.49A4.53,4.53,0,0,1,320.57,183.4Z"/><path class="cls-8" d="M316.91,181.29c0-1.23.69-1.85,1.58-1.5l0-4.49c-2.73-1.39-4.89.37-4.89,4.06a11.82,11.82,0,0,0,.73,4l2.8-.85A4,4,0,0,1,316.91,181.29Z"/><polygon class="cls-13" points="305.39 176.92 311.1 180.22 311.1 172.35 305.39 169.05 305.39 176.92"/><polygon class="cls-8" points="310 179.37 310.81 179.84 310.81 173.08 310 172.62 310 179.37"/><polygon class="cls-9" points="308.66 178.59 309.46 179.06 309.46 173.35 308.66 172.88 308.66 178.59"/><polygon class="cls-8" points="307.31 177.82 308.11 178.28 308.11 173.7 307.31 173.24 307.31 177.82"/><polygon class="cls-20" points="305.96 177.04 306.76 177.5 306.76 174.13 305.96 173.66 305.96 177.04"/><polygon class="cls-10" points="305.39 176.92 311.1 180.22 311.1 179.94 305.39 176.64 305.39 176.92"/><path class="cls-9" d="M289.76,166.17s-5.8-6.33-11.53.88c-1.77,2.23-2,4.06-2.51,5.28-2.12,3.66-5.59,8.88-6.91,12.34A6,6,0,0,0,269,189c.88,1.18,10.46,4.85,13.51,1.5C288.69,183.72,289.76,166.17,289.76,166.17Z"/><path class="cls-14" d="M299.34,169.17,294.69,173c-2.52-.9-4.43-3.86-5.5-6.7.91-.74,4.17-2.6,4.4-3.59-1-2.71.5-5,3-7.42s7.39-2.52,10.24-.27a4.5,4.5,0,0,1,2.26,4.28c-.32,2.88-2,9.8-4.41,11.05C303,171.21,301,169.79,299.34,169.17Z"/><path class="cls-10" d="M292.64,155.24a6.35,6.35,0,0,1,3.8-5.25c2.66-1.22,7.4-1.39,9.54,1a.82.82,0,0,1,.11-.23,1.74,1.74,0,0,1,2.52-.13,4.33,4.33,0,0,1,1.38,1.89,2.13,2.13,0,0,1,1.41,0c1.54.64,1.48,2.83.94,4.1-1.13,2.65-5.32,5.55-8.4,4.83.15,1.54-.6,2.38-1.84,3.39a6.46,6.46,0,0,1-6.89.58c-2.48-1.23-4.73-4.06-4.55-7A4.12,4.12,0,0,1,292.64,155.24Z"/><path class="cls-14" d="M305,162.18a1.36,1.36,0,0,0-2.26-.67c-1.7,1.13.33,4.5.33,4.5Z"/><path class="cls-8" d="M288,165.12c2.85,1.23,2.65,1.75,8.59,6.32s6.24,7.25,5.7,10.08-.95,4.28-3.26,9.79c-2.94,7-6.06,10.15-6.06,10.15a5.23,5.23,0,0,0,1.54,2.13c.91.57,1,2.91,0,3.87-1.57,1.48-7.31,3.66-12.77,3.24-4.69-.35-8-2.24-12.61-6.86.45-7.86,4.51-19.87,6.52-26.07C277.92,170.76,285.48,164,288,165.12Z"/><path class="cls-9" d="M292.84,204.05s-3.12.74-6.53,1.64A56,56,0,0,1,280,207c1,0,5.08.67,7.56.1A12.74,12.74,0,0,0,292.84,204.05Z"/><path class="cls-9" d="M280,202.22a7.14,7.14,0,0,0,4.89,1.34c2.93-.29,4.78-.64,4.78-.64a16.93,16.93,0,0,0-4.78-.7A37.44,37.44,0,0,1,280,202.22Z"/><path class="cls-21" d="M310.44,194.16a56,56,0,0,0-5.73-10.59c-.8-6.93-3.11-9.41-5.56-9.94-3.44-.74-6.31,2.55-7,7.29-1.08,7.23-.43,11.87,4,11.38-.12,3.16,6.28,9.39,9.68,9.89C308.91,200.7,310.17,197.54,310.44,194.16Z"/><path class="cls-14" d="M327.56,189.42c-.6.56-.47.53-1.36.61,0-.94.53-3.15-.7-3.92-.66-.41-.57,1.77-1,3.31a5.75,5.75,0,0,1-2.15,3s-.88,3.57.41,4.09,5.82-.92,7.05-1.57,1.89-1,1.57-3.75c-.16-1.32-.81-1.93-1.8-2-.51-1.89-1.06-2.12-2-1.87Z"/><path class="cls-21" d="M322.71,192.07c-3.86.38-9.91.53-13.49,1.05-.34,3.16-8.1,3.71-6.9,6,1.07,2,4,4,6.29,3.59,4.59-.89,13-4.42,15.93-6.05C325,195.46,324.57,193.55,322.71,192.07Z"/><path class="cls-10" d="M364,218.81a20.82,20.82,0,0,0,.67,3.19,8.69,8.69,0,0,1-.11,3.9,2.33,2.33,0,0,1-1.86,1.29,5.77,5.77,0,0,1-2.54-.06,18.7,18.7,0,0,1-3.19,3,14.8,14.8,0,0,1-6.87,2.1c-1.75-.26-2.69-1.63-2.55-2.51s2.19-3.31,3.88-4.36a34.66,34.66,0,0,0,4.34-3.81,21,21,0,0,0,2.16-2.8Z"/><path class="cls-14" d="M349.41,149a55.22,55.22,0,0,0-5.89,0,18.15,18.15,0,0,0-4,.62c-.76.22-1,1.56.1,1.32,1.69-.37,2.07,0,2.73.56.41.35-1.22,1-3.05,1.7s-2.55-.95-3.2-.49.93,4.82,4.52,4.83a8.42,8.42,0,0,0,6.08-2,37.93,37.93,0,0,1,5.29-2.72Z"/><path class="cls-10" d="M352.38,147a34.44,34.44,0,0,1,3.82-.45,3.54,3.54,0,0,0,0-1.47c-.17-.82,1.77-.64,1.77-.64s1.71-8,1.72-8.32a29,29,0,0,1,4-12.23c3.43-5.65,6.54-2.94,6.54-2.94s-2.34,18.77-4.28,25.62c-.21-.17-.39-.36-.59-.54-.81,2.51-1.72,6.87-1.82,7-2,2.59-5.47,2.29-7.65,2.58-3,.4-7.34.7-7.34.7a24.61,24.61,0,0,1-1.05-4.1,33.61,33.61,0,0,1,0-3.63A36,36,0,0,1,352.38,147Z"/><path class="cls-1" d="M366.37,149.4s-5.07,12.91-5.85,18.14-2.36,13.14-3.3,19.72a91.15,91.15,0,0,0-.5,19.43c.18,2.55,1.11,9.22.62,12.84.55,2.36,6.08,2.65,6.73-.08.41-1.7,4.65-16.74,5.07-21.47a22,22,0,0,0-.69-8.12s6.9-14.76,9.32-20.57.77-13,.77-13Z"/><path class="cls-10" d="M390,232.06a23.49,23.49,0,0,1,.82,5.48,4.11,4.11,0,0,1-1.2,3.16,1.19,1.19,0,0,1-1.32.38s-.28,4.14-2.24,5.82a8.39,8.39,0,0,1-7.16,1.22c-1.63-.61-.56-3.57,1-6.48s3.64-6,4.15-8.65C388,232.45,390,232.06,390,232.06Z"/><path class="cls-2" d="M384.5,154.75a38.67,38.67,0,0,1,4.46,9.67c1.39,4.34,1.16,14.74,1.16,14.74s.36,10.23-.3,13.77a24.78,24.78,0,0,0-.61,4.26,57.22,57.22,0,0,1,2.4,18.53c-.43,10-1.25,17.23-1.25,17.23a3.44,3.44,0,0,1-3.14,2.16,5.58,5.58,0,0,1-4.06-1.39s-4.31-21.25-5.9-26.09a57.5,57.5,0,0,1-2.18-10.43l-3.26-23.86s-6.45-4.21-3.15-14.83C370.74,151.87,384.5,154.75,384.5,154.75Z"/><path class="cls-3" d="M379.4,121.78c-1.33-.42-6.58-2.12-7.1-1.86-3.75,1.86-8,9.15-8.54,14.09a30,30,0,0,0,1.43,10.63c-1.26,2-.2,3.58-.13,4.17.13,1-1.44,5.37-1.82,6.32-.74,1.84-.87,4.54.27,6,2.18,2.87,4.54,3.72,9.88,4.46,6.19.85,10.17-3.55,12.09-6.11.45-.61,2.27-5.45.92-6.31,1-3.14,2.08-7.05,3.09-10.81,1.52-5.65,2.89-11.09-.39-15.37C387.66,125.16,382.32,122.74,379.4,121.78Z"/><path class="cls-12" d="M380,115s-5,3.78-6.65,6.34S371.1,125,372,130.87c4.59-1.6,10.33-4.36,11.42-7.54C381.78,122.45,380,115,380,115Z"/><path class="cls-21" d="M368.7,140.55a44.6,44.6,0,0,1,1.54-5.77h0a18,18,0,0,0-.76-2.93l2.47-1,1.44,1.74a6.09,6.09,0,0,1-1.77,2.43c.05,2.53.14,7.15.2,11.34.08,6.69,0,11.51,0,11.51a15.18,15.18,0,0,1-3.18,3.28,16.38,16.38,0,0,1-1.54-4.52S368,144.38,368.7,140.55Z"/><path class="cls-13" d="M382.67,123.82a32.79,32.79,0,0,0-5.85,3.21c-2.32,1.92-3.43,2.44-4.58,3.55-.11-.28-.42-5.49-.42-5.49s-1.93.24-1.92.28a6.86,6.86,0,0,0-1.54,3.14,10.65,10.65,0,0,0,.34,4.57l3.21-2,2.2,3.92a82,82,0,0,0,6.25-5.91A11,11,0,0,0,382.67,123.82Z"/><path class="cls-22" d="M370.24,120.92s-3.21.38-5,4.45-2.38,8.66-2.44,15c0,4.59-.3,10.66-1.08,13.93-.66,2.81-4.39,13.16-4.39,13.16s.28,4.25,1.66,5.93a4.64,4.64,0,0,0,3.7,2s2.31-12.84,2.55-14.86,1-12.71.78-15.88,1.61-13.74,2.33-16.08,5-7.16,5-7.16Z"/><path class="cls-2" d="M371,124.27a19.18,19.18,0,0,0-2.29,4.07c-1,2.46-1.35,7.85-1.64,11a61.08,61.08,0,0,1-1,6.31,31.69,31.69,0,0,1-1.4-5.75c-.22-2.32-.52-4.11-.52-4.11l1.63-1.27-1.51-3.64s4-8.64,5.65-9.14S371,124.27,371,124.27Z"/><path class="cls-14" d="M367.64,113c.33-2.28,1.12-5.1,3.05-6.56s4.9-1.29,7.15-.9c3.47.6,5.54,4.72,4.47,9.14-1,4.08-4.41,10.17-9.11,10.56-2.39.2-4-1.74-4.87-4.11A18.59,18.59,0,0,1,367.64,113Z"/><path class="cls-23" d="M368.7,109.21v0S368.7,109.22,368.7,109.21Z"/><path class="cls-10" d="M363.88,107a3,3,0,0,1,3.72-2.83c-.44-3.1,3.61-3.59,4.9-1.7.88-.27,2.05-1.7,4.08-1.65,2.54,0,5.52.87,6.26,4.27,2.75,1.15,2.17,5.22,1.37,7.82-.54,1.77-2.77,7.18-2.86,7.18-1.06-1-2.47-5.1-2.6-5.53a9.13,9.13,0,0,1-5.1-1.66c-1.67.87-5,2.09-6.72,1C364.49,112.35,363.68,109.09,363.88,107Z"/><path class="cls-14" d="M378.63,115.69s1-1.74,2.38-.59-1.56,3.92-1.56,3.92Z"/><path class="cls-22" d="M383.37,123.33a36.66,36.66,0,0,0-6.12,14.82c-1.39,8.6,0,17.44,0,23.61s-.71,18.36-.71,18.36a31.46,31.46,0,0,0,9.95.08,13.68,13.68,0,0,0,7.27-4.29s-2.68-14.11-4.69-22.81c-.89-3.87,1.42-12.32,2.95-17,.9-2.79,1.44-6.52-.91-9.06C389.51,125.3,385.61,124.56,383.37,123.33Z"/><polygon class="cls-21" points="400.38 154.44 393.56 166.72 375.98 156.71 382.81 144.43 384.09 145.11 400.38 154.44"/><polygon class="cls-8" points="401.67 155.13 394.84 167.42 377.25 157.43 384.09 145.11 401.67 155.13"/><polygon class="cls-13" points="383.07 144.57 376.39 156.54 377.13 156.94 383.83 144.97 383.07 144.57"/><polygon class="cls-3" points="383.18 145.1 380.99 149.06 378.42 147.67 380.51 143.71 383.18 145.1"/><polygon class="cls-8" points="381.91 148 375.72 148.3 378.3 154.51 381.91 148"/><path class="cls-14" d="M386.42,160.16a8.87,8.87,0,0,0-3.24.64,19.67,19.67,0,0,0-2.17-1.23s-1,2.92.9,5,4.29.87,5.75-.36S386.42,160.16,386.42,160.16Z"/><path class="cls-10" d="M389.23,125.74a12.43,12.43,0,0,1,6.93,5.86,95.52,95.52,0,0,1,6.1,16.69c1.12,4.81.91,6.53.11,7.83a17.09,17.09,0,0,1-6.08,5.56,26.1,26.1,0,0,1-8.2,3.28s-2.94-.51-2.94-5.39c.74-.73,2.11-.63,4.31-2.63,2.79-2.55,4.87-4.76,4.87-4.76s-3.31-4.67-6.56-9.83C383.37,132.05,389.23,125.74,389.23,125.74Z"/><path class="cls-2" d="M382.67,122.08s2.8,1.32,3,2.23a17.16,17.16,0,0,0-2.12,5.12,26.07,26.07,0,0,0-.33,5.61l-3.05,1.37,1.78,3.14-5.28,6.83s-.79-9,1.29-15.51S382.67,122.08,382.67,122.08Z"/></svg>