<svg xmlns="http://www.w3.org/2000/svg" viewBox="0 0 500 500"><defs><style>.cls-1{fill:#f5f5f5;}.cls-17,.cls-2{fill:#ba68c8;}.cls-15,.cls-16,.cls-18,.cls-19,.cls-21,.cls-23,.cls-28,.cls-3,.cls-4,.cls-5{fill:#fff;}.cls-3{opacity:0.65;}.cls-20,.cls-5{opacity:0.3;}.cls-6{fill:#e0e0e0;}.cls-7{fill:#e6e6e6;}.cls-23,.cls-8{opacity:0.1;}.cls-9{fill:#f0f0f0;}.cls-10{fill:#37474f;}.cls-11{fill:#455a64;}.cls-12{fill:#ebebeb;}.cls-13{fill:#fafafa;}.cls-14{fill:#263238;}.cls-15{opacity:0.6;}.cls-16{opacity:0.8;}.cls-17,.cls-21,.cls-22{opacity:0.2;}.cls-18{opacity:0.4;}.cls-19{opacity:0.5;}.cls-24{opacity:0.15;}.cls-25{fill:#af6152;}.cls-26{fill:#c8856a;}.cls-27{fill:#f28f8f;}.cls-28{opacity:0.35;}         @keyframes bounce {
        0%, 100% {
            transform: translateY(0); /* Start and end point */
        }
        50% {
            transform: translateY(-15px); /* Bounce height */
        }
        }
        .animate-bounce {
        animation: bounce 3s ease infinite; /* Adjust duration and timing function as needed */
        }</style></defs><g id="Floor"><path id="Floor-2" data-name="Floor" class="cls-1" d="M79.52,249.68c-94.15,54.36-94.15,142.49,0,196.85s246.81,54.36,341,0,94.15-142.49,0-196.85S173.67,195.32,79.52,249.68Z"/></g><g id="Plants"><g id="Plants-2" data-name="Plants"><path class="cls-2" d="M422.37,263.77l13.33,7.69c-.18-4.75-.6-11.83.06-16.59,4-29.12,15.37-38.72,20.77-52.9,5.68-14.93-1.25-19.73-10.25-17.05-8,2.4-19.64,14.28-23.3,36C420.55,235.39,421,251.09,422.37,263.77Z"/><path class="cls-3" d="M422.37,263.77l13.33,7.69c-.18-4.75-.6-11.83.06-16.59,4-29.12,15.37-38.72,20.77-52.9,5.68-14.93-1.25-19.73-10.25-17.05-8,2.4-19.64,14.28-23.3,36C420.55,235.39,421,251.09,422.37,263.77Z"/><path class="cls-4" d="M429.43,267.85l1.34.77c-4.77-34,6.84-63.41,18.3-75.57a.58.58,0,0,0,0-.82.59.59,0,0,0-.83,0C436.77,204.42,425.16,234.07,429.43,267.85Z"/><path class="cls-2" d="M432,269.3l7.5,4.33h0c4-11.74,8.08-16.44,13.16-24.16,4.63-7,10-11.38,12.88-16.31,2.53-4.38,4.44-9.87.67-13.19-6-5.3-13.81.3-19.19,6.35C442.33,231.56,433,245.48,432,269.3Z"/><path class="cls-5" d="M432,269.3l7.5,4.33h0c4-11.74,8.08-16.44,13.16-24.16,4.63-7,10-11.38,12.88-16.31,2.53-4.38,4.44-9.87.67-13.19-6-5.3-13.81.3-19.19,6.35C442.33,231.56,433,245.48,432,269.3Z"/><path class="cls-4" d="M435,271.08l1.09.63c3.15-18.56,15.76-40,23.6-45.12a.6.6,0,0,0,.17-.83.59.59,0,0,0-.83-.17C451,230.85,438.37,252.23,435,271.08Z"/></g></g><g id="Shadows"><ellipse id="Shadow" class="cls-6" cx="370.08" cy="387.2" rx="91.1" ry="52.59"/><path id="Shadow-2" data-name="Shadow" class="cls-6" d="M240.1,237.27,227.43,230a3.07,3.07,0,0,0-2.74,0L65.62,321.8a.83.83,0,0,0,0,1.58l12.8,7.45a3,3,0,0,0,2.73,0l26.92-15.58a12.27,12.27,0,0,0,1.19.79L129.87,328a19.9,19.9,0,0,0,18.27,0l39.78-23c3-1.71,4.65-4.25,4.65-7s-1.69-5.27-4.65-7l-19-11,71.2-41.2A.83.83,0,0,0,240.1,237.27Z"/><path id="Shadow-3" data-name="Shadow" class="cls-6" d="M88.09,437.64,62.28,422.73c-4.3-2.48-4.3-6.5,0-9l59.89-34.58a17.22,17.22,0,0,1,15.57,0l25.81,14.9c4.3,2.48,4.3,6.51,0,9l-59.89,34.58A17.22,17.22,0,0,1,88.09,437.64Z"/></g><g id="Device"><g id="Device-2" data-name="Device"><g id="Monitor"><path class="cls-7" d="M186.45,290.8l-20.62-11.9a20.94,20.94,0,0,0-15.91-1.25l-12.24,4.71A70.6,70.6,0,0,0,122.47,291L110,300.82a6.21,6.21,0,0,0-2.67,4.79c0,.48,0,2.37,0,2.85,0,1.89,1.15,3.73,3.38,5l20.61,11.9a17,17,0,0,0,15.33,0l39.78-23c2.12-1.22,3.18-2.83,3.16-4.44v-2.75C189.62,293.62,188.57,292,186.45,290.8Z"/><path class="cls-6" d="M107.35,308.46c0,1.89,1.15,3.73,3.38,5l20.61,11.9a15.7,15.7,0,0,0,7.67,1.83v-2.94L107.34,306C107.34,306.72,107.34,308.06,107.35,308.46Z"/><path class="cls-8" d="M107.35,308.46c0,1.89,1.15,3.73,3.38,5l20.61,11.9a15.7,15.7,0,0,0,7.67,1.83v-2.94L107.34,306C107.34,306.72,107.34,308.06,107.35,308.46Z"/><path class="cls-9" d="M149.92,277.65l-12.24,4.71A70.6,70.6,0,0,0,122.47,291L110,300.82c-3.84,3-3.52,7.45.71,9.89l20.61,11.9a16.91,16.91,0,0,0,15.33,0l39.78-23c4.23-2.45,4.23-6.41,0-8.85l-20.62-11.9A20.94,20.94,0,0,0,149.92,277.65Z"/><path class="cls-8" d="M165.83,278.9a20.94,20.94,0,0,0-15.91-1.25l-12.24,4.71A70.6,70.6,0,0,0,122.47,291L110,300.82a6.21,6.21,0,0,0-2.67,4.79c0,.48,0,2.37,0,2.85,0,1.89,1.15,3.73,3.38,5l11.48,6.63v-2.75l55.12-31.83Z"/><path class="cls-6" d="M146.52,291.42c0-6.08,1.9-25.22,5.89-29.7l-12.76-1.41c-6.28,6.63-13.79,22.48-18.34,31.61,0,0,3.75,1.53,8.37,3.44s11,1.91,14.36,0a4.44,4.44,0,0,0,2.47-3.94Z"/><path class="cls-8" d="M146.52,291.42c0-6.08,1.9-25.22,5.89-29.7l-12.76-1.41c-6.28,6.63-13.79,22.48-18.34,31.61,0,0,3.75,1.53,8.37,3.44s11,1.91,14.36,0a4.44,4.44,0,0,0,2.47-3.94Z"/><path class="cls-6" d="M144.14,262.15c2.47,1,5.92,1,7.69,0s1.77-3,0-4.45l-3.21-2.59a36.89,36.89,0,0,0-9,5.2Z"/><path class="cls-10" d="M74.33,304.16a7.28,7.28,0,0,0,6.58-.13l154.5-89.21a7.47,7.47,0,0,0,3.39-5.88V66.18a6.37,6.37,0,0,0-9.75-5.64L74.55,149.76a7.48,7.48,0,0,0-3.4,5.87V298.4A7.32,7.32,0,0,0,74.33,304.16Z"/><path class="cls-11" d="M80.91,304l154.5-89.21a7.5,7.5,0,0,0,3.4-5.88V66.17c0-2.16-1.52-3-3.4-2L80.91,153.43a7.5,7.5,0,0,0-3.39,5.88V302.07C77.52,304.23,79,305.11,80.91,304Z"/><path class="cls-12" d="M77.52,290.53v11.54c0,2.16,1.52,3,3.39,2l154.5-89.21a7.5,7.5,0,0,0,3.4-5.88V197.4Z"/><path class="cls-13" d="M82,279.79v-119a4.64,4.64,0,0,1,2.09-3.62L232.23,71.66c1.15-.66,2.09-.12,2.09,1.21v119a4.63,4.63,0,0,1-2.08,3.62L84.09,281C82.94,281.66,82,281.12,82,279.79Z"/><path class="cls-14" d="M72.15,152.28,78.52,156a7.13,7.13,0,0,0-1,3.35V302.07c0,2,1.33,3.08,3.39,2a7.22,7.22,0,0,1-6.58.13,6.55,6.55,0,0,1-3.18-5.35V155.64A7,7,0,0,1,72.15,152.28Z"/><path class="cls-2" d="M156.29,251.49l7.67-4.4c.69-.4,1.25-.12,1.25.63a2.67,2.67,0,0,1-1.24,2.06l-7.68,4.41c-.69.39-1.24.11-1.24-.63A2.66,2.66,0,0,1,156.29,251.49Z"/></g></g></g><g class="animate-bounce" id="Envelopes"><g id="New_Messages" data-name="New Messages"><g id="Mails"><g id="Letter"><path class="cls-2" d="M202.22,305.79l41.12-23.74a.89.89,0,0,1,1,0c.24.21,2.56,1.43,2.81,1.61a1.31,1.31,0,0,1,.44,1.11v37a3.4,3.4,0,0,1-1.42,2.71L239,328.65l-37.74-21.78A2.86,2.86,0,0,1,202.22,305.79Z"/><path class="cls-15" d="M202.22,305.79l41.12-23.74a.89.89,0,0,1,1,0c.24.21,2.56,1.43,2.81,1.61a1.31,1.31,0,0,1,.44,1.11v37a3.4,3.4,0,0,1-1.42,2.71L239,328.65l-37.74-21.78A2.86,2.86,0,0,1,202.22,305.79Z"/><path class="cls-2" d="M204.13,348.28c-.28-.19-2.62-1.48-2.88-1.65a1.32,1.32,0,0,1-.45-1.12v-37a3.57,3.57,0,0,1,.45-1.63L239,328.65l-33.9,19.57A.89.89,0,0,1,204.13,348.28Z"/><path class="cls-5" d="M204.13,348.28c-.28-.19-2.62-1.48-2.88-1.65a1.32,1.32,0,0,1-.45-1.12v-37a3.57,3.57,0,0,1,.45-1.63L239,328.65l-33.9,19.57A.89.89,0,0,1,204.13,348.28Z"/><path class="cls-2" d="M205.09,348.22l41.12-23.74a3.4,3.4,0,0,0,1.42-2.71v-37c0-1-.64-1.52-1.42-1.07l-41.12,23.74a3.4,3.4,0,0,0-1.42,2.71v37C203.67,348.2,204.31,348.68,205.09,348.22Z"/><path class="cls-16" d="M205.09,348.22l41.12-23.74a3.4,3.4,0,0,0,1.42-2.71v-37c0-1-.64-1.52-1.42-1.07l-41.12,23.74a3.4,3.4,0,0,0-1.42,2.71v37C203.67,348.2,204.31,348.68,205.09,348.22Z"/><path class="cls-17" d="M203.67,347.15v-.73l17-28.17L203.89,309l.12-.3,20.91,8.71c.44.19,1-.14,1.46-.84l20.88-32.81a.81.81,0,0,1,.12.14L230.63,312.5l17,8.54v.73a3.7,3.7,0,0,1-.43,1.67L229.76,314l-2.46,4.22c-1,1.67-2.32,2.44-3.3,1.9l-2.47-1.37-17.4,29.55A1.35,1.35,0,0,1,203.67,347.15Z"/></g><g id="Letter-2" data-name="Letter"><path class="cls-2" d="M212.43,311.8l41.12-23.74a.85.85,0,0,1,1,0c.24.2,2.56,1.42,2.82,1.61a1.3,1.3,0,0,1,.43,1.11v37a3.38,3.38,0,0,1-1.42,2.71l-7.22,4.17-37.73-21.78A2.71,2.71,0,0,1,212.43,311.8Z"/><path class="cls-15" d="M212.43,311.8l41.12-23.74a.85.85,0,0,1,1,0c.24.2,2.56,1.42,2.82,1.61a1.3,1.3,0,0,1,.43,1.11v37a3.38,3.38,0,0,1-1.42,2.71l-7.22,4.17-37.73-21.78A2.71,2.71,0,0,1,212.43,311.8Z"/><path class="cls-2" d="M214.33,354.28c-.28-.18-2.62-1.48-2.87-1.65a1.27,1.27,0,0,1-.45-1.12v-37a3.45,3.45,0,0,1,.45-1.63l37.73,21.78L215.3,354.23A.9.9,0,0,1,214.33,354.28Z"/><path class="cls-5" d="M214.33,354.28c-.28-.18-2.62-1.48-2.87-1.65a1.27,1.27,0,0,1-.45-1.12v-37a3.45,3.45,0,0,1,.45-1.63l37.73,21.78L215.3,354.23A.9.9,0,0,1,214.33,354.28Z"/><path class="cls-2" d="M215.3,354.23l41.11-23.74a3.38,3.38,0,0,0,1.42-2.71v-37c0-1-.63-1.53-1.42-1.08L215.3,313.44a3.4,3.4,0,0,0-1.42,2.71v37C213.88,354.2,214.51,354.68,215.3,354.23Z"/><path class="cls-16" d="M215.3,354.23l41.11-23.74a3.38,3.38,0,0,0,1.42-2.71v-37c0-1-.63-1.53-1.42-1.08L215.3,313.44a3.4,3.4,0,0,0-1.42,2.71v37C213.88,354.2,214.51,354.68,215.3,354.23Z"/><path class="cls-17" d="M213.88,353.16v-.73l17-28.17L214.09,315a2.88,2.88,0,0,1,.13-.31l20.91,8.72c.44.18,1-.15,1.45-.84l20.88-32.81a.58.58,0,0,1,.13.14l-16.75,28.65,17,8.54v.73a3.72,3.72,0,0,1-.42,1.67L240,320l-2.47,4.22c-1,1.68-2.31,2.45-3.29,1.9l-2.47-1.36-17.41,29.54A1.31,1.31,0,0,1,213.88,353.16Z"/></g><g id="Letter-3" data-name="Letter"><path class="cls-2" d="M222.64,317.8l41.11-23.74a.88.88,0,0,1,1,0c.24.2,2.56,1.42,2.82,1.6a1.34,1.34,0,0,1,.43,1.11v37a3.43,3.43,0,0,1-1.42,2.72l-7.22,4.16-37.73-21.78A2.77,2.77,0,0,1,222.64,317.8Z"/><path class="cls-15" d="M222.64,317.8l41.11-23.74a.88.88,0,0,1,1,0c.24.2,2.56,1.42,2.82,1.6a1.34,1.34,0,0,1,.43,1.11v37a3.43,3.43,0,0,1-1.42,2.72l-7.22,4.16-37.73-21.78A2.77,2.77,0,0,1,222.64,317.8Z"/><path class="cls-2" d="M224.54,360.29c-.28-.18-2.62-1.48-2.87-1.65a1.3,1.3,0,0,1-.45-1.12v-37a3.49,3.49,0,0,1,.45-1.64l37.73,21.78-33.9,19.58A.91.91,0,0,1,224.54,360.29Z"/><path class="cls-5" d="M224.54,360.29c-.28-.18-2.62-1.48-2.87-1.65a1.3,1.3,0,0,1-.45-1.12v-37a3.49,3.49,0,0,1,.45-1.64l37.73,21.78-33.9,19.58A.91.91,0,0,1,224.54,360.29Z"/><path class="cls-2" d="M225.5,360.24l41.12-23.74a3.43,3.43,0,0,0,1.42-2.72v-37c0-1-.64-1.52-1.42-1.07L225.5,319.45a3.41,3.41,0,0,0-1.42,2.71v37C224.08,360.21,224.72,360.69,225.5,360.24Z"/><path class="cls-16" d="M225.5,360.24l41.12-23.74a3.43,3.43,0,0,0,1.42-2.72v-37c0-1-.64-1.52-1.42-1.07L225.5,319.45a3.41,3.41,0,0,0-1.42,2.71v37C224.08,360.21,224.72,360.69,225.5,360.24Z"/><path class="cls-17" d="M224.08,359.16v-.73l17-28.17L224.3,321l.12-.3,20.91,8.71c.45.19,1-.14,1.46-.84l20.88-32.81a1.79,1.79,0,0,1,.13.14L251,324.51l17,8.55v.72a3.7,3.7,0,0,1-.43,1.67L250.18,326l-2.47,4.22c-1,1.67-2.32,2.44-3.3,1.9l-2.47-1.37-17.4,29.55A1.35,1.35,0,0,1,224.08,359.16Z"/></g></g></g></g><g id="Notification_icon" data-name="Notification icon"><g id="Notification"><path class="cls-10" d="M278.49,286.86l-4.25-2.47h0l0,0h0c-1.85-1-4.4-.89-7.22.74-5.67,3.28-10.27,11.24-10.27,17.79,0,3.28,1.15,5.57,3,6.65h0l3.88,2.22.9-1.52a10.43,10.43,0,0,0,2.95-1.15c5.67-3.27,10.27-11.24,10.28-17.79a10.54,10.54,0,0,0-.33-2.62Z"/><path class="cls-14" d="M257.09,299.45a16.67,16.67,0,0,0-.39,3.45c0,3.28,1.15,5.57,3,6.65h0l3.88,2.22.9-1.52a10.43,10.43,0,0,0,2.95-1.15,16.77,16.77,0,0,0,2.8-2.06Z"/><path class="cls-11" d="M271,287.44c-5.68,3.28-10.28,11.24-10.28,17.8s4.6,9.2,10.28,5.93,10.27-11.25,10.27-17.8S276.69,284.17,271,287.44Z"/><path class="cls-4" d="M275.08,296.56v-2.51c0-2.88-1.75-4.2-3.9-2.95h0c-2.16,1.24-3.9,4.58-3.9,7.45v2.25a8.93,8.93,0,0,1-1.32,4.39h0a2.43,2.43,0,0,0-.32,1.15h0c0,.73.44,1.06,1,.75l9.11-5.26a2.38,2.38,0,0,0,1-1.88h0a.94.94,0,0,0-.28-.76h0A2.67,2.67,0,0,1,275.08,296.56Z"/><path class="cls-4" d="M273.05,304.16a4.5,4.5,0,0,1-1.87,3.58c-1,.6-1.88,0-1.88-1.42Z"/></g></g><g id="Tab_2" data-name="Tab 2"><g id="Spreadsheets_Window" data-name="Spreadsheets Window"><g id="Window"><path class="cls-11" d="M329.6,55v7.86L190.28,143.34l-3.07-1.79v-7.78a4.39,4.39,0,0,1,.32-1.56c0-.09.07-.17.11-.26s.19-.39.3-.59a4.82,4.82,0,0,1,1.67-1.74L324.14,51.89a1.67,1.67,0,0,1,1.74-.14c.45.27,2.54,1.46,3,1.69l.17.11a0,0,0,0,0,0,0,1.41,1.41,0,0,1,.18.17s0,0,0,0l.14.2,0,.06.1.25A2.61,2.61,0,0,1,329.6,55Z"/><path class="cls-13" d="M191.89,259.27a1.21,1.21,0,0,0,.59-.18L327,181.33a5,5,0,0,0,2.2-3.8V55c0-.82-.35-1.31-.92-1.31a1.8,1.8,0,0,0-.87.28L192.88,131.7a5,5,0,0,0-2.2,3.8V257.44a2.4,2.4,0,0,0,.38,1.34A1,1,0,0,0,191.89,259.27Z"/><path class="cls-6" d="M328.8,63.33v114.2a4.47,4.47,0,0,1-2,3.45L192.27,258.74a.72.72,0,0,1-.39.13c-.42,0-.79-.67-.79-1.43V142.87l-.81.47v114.1c0,1.21.67,2.23,1.6,2.23a1.53,1.53,0,0,0,.79-.22L327.2,181.68a5.3,5.3,0,0,0,2.4-4.15V62.86Z"/><path class="cls-10" d="M327.76,53.38a3.62,3.62,0,0,0-.56.24A2.85,2.85,0,0,1,327.76,53.38Z"/><path class="cls-14" d="M187.21,141.56v-7.8a5,5,0,0,1,.73-2.39l3.06,1.75a4.83,4.83,0,0,0-.72,2.38v7.84Z"/><path class="cls-10" d="M329.6,55c0-1.51-1.08-2.12-2.39-1.36L192.67,131.35a5.3,5.3,0,0,0-2.39,4.15v7.84L329.6,62.86Z"/><polygon class="cls-12" points="190.28 143.34 190.28 157.46 329.6 77 329.6 62.86 190.28 143.34"/><polygon class="cls-6" points="198.18 142.29 210.46 135.24 210.46 142.28 198.18 149.37 198.18 142.29"/><polygon class="cls-6" points="213.49 133.46 213.49 136.24 219.62 132.7 219.62 129.92 213.49 133.46"/><polygon class="cls-6" points="213.49 137.75 213.49 140.53 219.62 137 219.62 134.21 213.49 137.75"/><polygon class="cls-6" points="222.68 128.15 222.68 130.93 228.8 127.4 228.8 124.61 222.68 128.15"/><polygon class="cls-6" points="222.68 132.44 222.68 135.23 228.8 131.69 228.8 128.91 222.68 132.44"/><polygon class="cls-6" points="231.86 122.85 231.87 125.63 237.99 122.09 237.99 119.31 231.86 122.85"/><polygon class="cls-6" points="231.86 127.14 231.87 129.92 237.99 126.39 237.99 123.61 231.86 127.14"/><polygon class="cls-6" points="259.42 106.94 259.42 109.72 265.54 106.19 265.54 103.4 259.42 106.94"/><polygon class="cls-6" points="259.42 111.23 259.42 114.02 265.54 110.48 265.54 107.7 259.42 111.23"/><polygon class="cls-6" points="268.6 101.64 268.61 104.42 274.73 100.88 274.73 98.1 268.6 101.64"/><polygon class="cls-6" points="268.6 105.93 268.61 108.71 274.73 105.17 274.73 102.39 268.6 105.93"/><polygon class="cls-6" points="277.79 96.33 277.79 99.11 283.92 95.58 283.92 92.8 277.79 96.33"/><polygon class="cls-6" points="277.79 100.63 277.79 103.41 283.92 99.87 283.92 97.09 277.79 100.63"/><polygon class="cls-6" points="241.05 117.55 256.36 108.71 256.36 115.78 241.05 124.61 241.05 117.55"/><polygon class="cls-6" points="286.98 91.03 299.26 83.97 299.26 91.01 286.98 98.1 286.98 91.03"/><polygon class="cls-6" points="302.29 82.19 302.29 84.97 308.41 81.44 308.41 78.65 302.29 82.19"/><polygon class="cls-6" points="302.29 86.48 302.29 89.27 308.41 85.73 308.41 82.95 302.29 86.48"/><polygon class="cls-6" points="311.48 76.89 311.48 79.67 317.6 76.13 317.6 73.35 311.48 76.89"/><polygon class="cls-6" points="311.48 81.18 311.48 83.96 317.6 80.42 317.6 77.64 311.48 81.18"/><polygon class="cls-6" points="320.66 71.58 320.66 74.36 326.79 70.83 326.79 68.05 320.66 71.58"/><polygon class="cls-6" points="320.66 75.88 320.66 78.66 326.79 75.12 326.79 72.34 320.66 75.88"/><path class="cls-9" d="M188.22,257.79c.26.13,2.13,1.2,2.94,1.66a2.43,2.43,0,0,1-.88-2V143.34l-3.07-1.79V255.71A2.35,2.35,0,0,0,188.22,257.79Z"/><polygon class="cls-6" points="190.28 143.34 187.21 141.55 187.21 155.69 190.28 157.46 190.28 143.34"/><path class="cls-1" d="M325.61,59.7v.51a2.87,2.87,0,0,1-1.31,2.26L291.93,81.16V77.63L324.3,58.94C325,58.52,325.61,58.86,325.61,59.7Z"/><path class="cls-11" d="M285.81,83.19v-.52a2.89,2.89,0,0,1,1.3-2.26l4.82-2.78h0v3.53h0L287.11,84C286.39,84.36,285.81,84,285.81,83.19Z"/></g><g id="Spreadsheets"><polygon class="cls-9" points="193.16 159.64 193.16 254.6 193.65 254.32 193.65 166.14 326.16 89.63 326.16 82.86 193.16 159.64"/><polygon class="cls-2" points="193.65 166.14 208.33 157.67 208.33 164.43 193.65 172.92 193.65 166.14"/><polygon class="cls-2" points="193.65 220.4 208.33 211.93 208.33 218.69 193.65 227.18 193.65 220.4"/><polygon class="cls-2" points="193.65 227.18 208.33 218.71 208.33 225.48 193.65 233.96 193.65 227.18"/><polygon class="cls-16" points="193.65 227.18 208.33 218.71 208.33 225.48 193.65 233.96 193.65 227.18"/><polygon class="cls-2" points="281.76 169.52 296.44 161.05 296.44 167.82 281.76 176.3 281.76 169.52"/><polygon class="cls-5" points="281.76 169.52 296.44 161.05 296.44 167.82 281.76 176.3 281.76 169.52"/><polygon class="cls-2" points="281.76 176.31 296.44 167.84 296.44 174.6 281.76 183.09 281.76 176.31"/><polygon class="cls-18" points="281.76 176.31 296.44 167.84 296.44 174.6 281.76 183.09 281.76 176.31"/><polygon class="cls-2" points="281.76 183.09 296.44 174.62 296.44 181.39 281.76 189.87 281.76 183.09"/><polygon class="cls-19" points="281.76 183.09 296.44 174.62 296.44 181.39 281.76 189.87 281.76 183.09"/><polygon class="cls-2" points="281.76 189.88 296.44 181.4 296.44 188.17 281.76 196.66 281.76 189.88"/><polygon class="cls-5" points="281.76 189.88 296.44 181.4 296.44 188.17 281.76 196.66 281.76 189.88"/><polygon class="cls-2" points="296.47 113.56 311.14 105.09 311.14 139 296.47 147.49 296.47 113.56"/><polygon class="cls-2" points="267.09 164.44 281.76 155.97 281.76 203.45 267.09 211.94 267.09 164.44"/><polygon class="cls-2" points="208.33 198.35 223 189.88 223 196.65 208.33 205.13 208.33 198.35"/><polygon class="cls-20" points="208.33 198.35 223 189.88 223 196.65 208.33 205.13 208.33 198.35"/><polygon class="cls-2" points="237.72 147.48 252.39 139.01 252.39 145.77 237.72 154.26 237.72 147.48"/><polygon class="cls-15" points="237.72 147.48 252.39 139.01 252.39 145.77 237.72 154.26 237.72 147.48"/><polygon class="cls-2" points="311.15 145.78 325.82 137.31 325.82 144.08 311.15 152.56 311.15 145.78"/><polygon class="cls-16" points="311.15 145.78 325.82 137.31 325.82 144.08 311.15 152.56 311.15 145.78"/><polygon class="cls-2" points="311.15 159.35 325.82 150.88 325.82 157.65 311.15 166.13 311.15 159.35"/><path class="cls-6" d="M193.16,159.23v.83l.13-.08v6l-.13.08v.83l.13-.08v6l-.13.08v.84l.13-.08v5.95l-.13.08v.83l.13-.08v5.95l-.13.08v.84l.13-.08v5.95l-.13.08V194l.13-.08v5.95l-.13.08v.84l.13-.08v5.95l-.13.08v.83l.13-.08v5.95l-.13.08v.84l.13-.08v6l-.13.08v.83l.13-.08v6l-.13.08v.84l.13-.08v5.95l-.13.08v.83l.13-.08v6l-.13.07v.84l.13-.08v5.95l-.13.08v.83l.13-.08v5.93l-.13.08V255l133-76.79V82.44ZM208,245.63l-14,8.07v-5.93l14-8.06Zm0-6.76-14,8.06v-6l14-8.06Zm0-6.78-14,8.06v-6l14-8.06Zm0-6.79-14,8.06v-6l14-8.06Zm0-6.78-14,8.06v-6l14-8.07Zm0-6.79-14,8.06v-5.95l14-8.06Zm0-6.78L194,213v-5.95L208,199Zm0-6.79-14,8.06v-5.95l14-8.06Zm0-6.78-14,8.06v-5.95l14-8.07Zm0-6.79-14,8.06v-6l14-8.06Zm0-6.78-14,8.06v-6l14-8.07Zm0-6.79-14,8.06v-6l14-8.06Zm0-6.79-14,8.07v-6l14-8.07Zm0-6.78-14,8.06v-5.94l14-8.07Zm14.69,79.7-14,8.07v-5.93l14-8.06Zm0-6.76-14,8.06V232.5l14-8.06Zm0-6.78-14,8.06v-5.95l14-8.06Zm0-6.79-14,8.06v-5.95l14-8.06Zm0-6.78-14,8.06v-5.95l14-8.06Zm0-6.79-14,8.06v-5.95l14-8.06Zm0-6.78-14,8.06v-5.95l14-8.06Zm0-6.79-14,8.06v-6l14-8.06Zm0-6.78-14,8.06v-6l14-8.07Zm0-6.79-14,8.06v-5.95l14-8.06Zm0-6.78-14,8.06v-5.95l14-8.06Zm0-6.79-14,8.06v-5.95l14-8.06Zm0-6.79-14,8.07v-5.95l14-8.06Zm0-6.78-14,8.06v-5.94l14-8.07Zm14.69,79.7-14,8.07v-5.93l14-8.06Zm0-6.76-14,8.06V224l14-8.06Zm0-6.78-14,8.06v-5.95l14-8.06Zm0-6.79-14,8.06v-6l14-8.06Zm0-6.78-14,8.06v-6l14-8.06Zm0-6.79-14,8.06v-6l14-8.06Zm0-6.78-14,8.06v-6l14-8.06Zm0-6.79-14,8.06v-5.95l14-8.06Zm0-6.78-14,8.06v-5.95l14-8.06Zm0-6.79-14,8.06v-5.95l14-8.06Zm0-6.78-14,8.06V163l14-8.06Zm0-6.79-14,8.06v-6l14-8.06Zm0-6.78-14,8.06v-6l14-8.06Zm0-6.79-14,8.06v-5.94l14-8.07ZM252,220.2l-14,8.06v-5.93l14-8.06Zm0-6.77-14,8.06v-6l14-8.06Zm0-6.78-14,8.06v-6l14-8.06Zm0-6.79-14,8.06V202l14-8.06Zm0-6.78-14,8.06v-5.95l14-8.06Zm0-6.79-14,8.06V188.4l14-8.06Zm0-6.78-14,8.06v-5.95l14-8.06Zm0-6.79-14,8.06v-5.95l14-8.06Zm0-6.78-14,8.06v-5.95L252,160Zm0-6.79-14,8.06v-6l14-8.06Zm0-6.78-14,8.06v-6l14-8.06Zm0-6.79-14,8.06v-5.95l14-8.06Zm0-6.78-14,8.06v-6l14-8.06Zm0-6.79-14,8.06v-5.94l14-8.07Zm14.69,79.71-14,8.06v-5.93l14-8.06Zm0-6.77-14,8.07v-6l14-8.06Zm0-6.78-14,8.06v-5.95l14-8.06Zm0-6.79-14,8.06v-5.95l14-8.06Zm0-6.78-14,8.06v-5.95l14-8.06Zm0-6.79-14,8.06v-6l14-8.06Zm0-6.78-14,8.06v-6l14-8.06Zm0-6.79-14,8.06v-6l14-8.06Zm0-6.78-14,8.06v-6l14-8.06Zm0-6.79-14,8.06v-5.95l14-8.06Zm0-6.78-14,8.06V146l14-8.06Zm0-6.79-14,8.06v-5.95l14-8.06Zm0-6.78-14,8.06v-5.95l14-8.06Zm0-6.79-14,8.06v-5.94l14-8.07Zm14.69,79.71-14,8.06v-5.93l14-8.06Zm0-6.77-14,8.07v-5.95l14-8.07Zm0-6.78-14,8.06V191.8l14-8.06Zm0-6.79-14,8.07v-6l14-8.06Zm0-6.78-14,8.06v-6l14-8.06Zm0-6.79-14,8.06v-5.95l14-8.06Zm0-6.78-14,8.06v-6l14-8.06Zm0-6.79-14,8.06v-5.95l14-8.06Zm0-6.78-14,8.06v-5.95l14-8.06Zm0-6.79-14,8.06V144.3l14-8.06Zm0-6.78-14,8.06v-5.95l14-8.06Zm0-6.79-14,8.06v-6l14-8.06Zm0-6.78-14,8.06v-6l14-8.06Zm0-6.79-14,8.06v-5.94l14-8.06Zm14.68,79.71-14,8.06v-5.93l14-8.06Zm0-6.77-14,8.07v-5.95l14-8.07Zm0-6.78-14,8.06v-6l14-8.06Zm0-6.79-14,8.07v-6l14-8.07Zm0-6.78-14,8.06v-5.95l14-8.06Zm0-6.79-14,8.07V163l14-8.07Zm0-6.78-14,8.06v-5.95l14-8.06Zm0-6.79-14,8.07V149.4l14-8.07Zm0-6.78-14,8.06v-5.95l14-8.06Zm0-6.79-14,8.06v-6l14-8.06Zm0-6.78-14,8.06v-6l14-8.06Zm0-6.79-14,8.06v-5.95l14-8.06Zm0-6.78-14,8.06v-6l14-8.06Zm0-6.79-14,8.06v-5.94l14-8.06Zm14.69,79.71-14,8.06v-5.93l14-8.06Zm0-6.77-14,8.07v-6l14-8.07Zm0-6.78-14,8.06v-5.95l14-8.06Zm0-6.79-14,8.07v-5.95l14-8.07Zm0-6.78-14,8.06v-5.95l14-8.06Zm0-6.79-14,8.07v-5.95l14-8.07Zm0-6.78-14,8.06v-6l14-8.06Zm0-6.79-14,8.07v-6l14-8.07Zm0-6.78-14,8.06v-6l14-8.06Zm0-6.79-14,8.07v-6l14-8.07Zm0-6.78-14,8.06v-6l14-8.06Zm0-6.79-14,8.07v-6l14-8.07Zm0-6.78-14,8.06v-6l14-8.06Zm0-6.79-14,8.07v-6l14-8.06Zm14.69,79.71-14,8.06v-5.93l14-8.06Zm0-6.76-14,8.06v-5.95l14-8.06Zm0-6.79-14,8.06v-5.95l14-8.06Zm0-6.78-14,8.06v-5.95l14-8.06Zm0-6.79-14,8.06v-6l14-8.06Zm0-6.79-14,8.07v-6l14-8.07Zm0-6.78-14,8.06v-5.95l14-8.06Zm0-6.79-14,8.07v-5.95l14-8.07Zm0-6.78-14,8.06v-5.95l14-8.06Zm0-6.79-14,8.07v-5.95l14-8.07Zm0-6.78-14,8.06v-6l14-8.06Zm0-6.79-14,8.07v-6l14-8.07Zm0-6.78-14,8.06V98.51l14-8.06Zm0-6.79-14,8.07v-6l14-8.06Z"/></g></g></g><g id="Tab_1" data-name="Tab 1"><g id="Files_Window" data-name="Files Window"><path class="cls-7" d="M178,66.21l-3.39-2L33.13,145.93V247.76a2.55,2.55,0,0,0,1,2.34h0l3.39,2h0a2.54,2.54,0,0,0,2.55-.26l134.2-77.51a8,8,0,0,0,3.62-6.26Z"/><path class="cls-13" d="M38.52,251.9a2.9,2.9,0,0,0,1.41-.44L174.12,174a7.56,7.56,0,0,0,3.41-5.9V66.94L36.94,148.14v101.6C36.94,251.09,37.53,251.9,38.52,251.9Z"/><path class="cls-1" d="M40.34,251.22c-1.88,1.09-3.4.2-3.4-2V163.8L70,144.7v89.39Z"/><path class="cls-6" d="M177.11,67.66V168.05a7.16,7.16,0,0,1-3.2,5.53L39.72,251.1a2.52,2.52,0,0,1-1.2.38c-1.05,0-1.17-1.22-1.17-1.74V148.38L177.11,67.66m.84-1.45L36.52,147.9V249.74c0,1.63.81,2.58,2,2.58a3.21,3.21,0,0,0,1.61-.5l134.2-77.51a8,8,0,0,0,3.62-6.26V66.21Z"/><polygon class="cls-2" points="36.52 147.9 36.52 163.56 177.95 81.87 177.95 66.21 36.52 147.9"/><polygon class="cls-19" points="36.52 147.9 36.52 163.56 177.95 81.87 177.95 66.21 36.52 147.9"/><path class="cls-13" d="M123.41,103.86v3.37c0,.69.49,1,1.09.62l43.27-25V77L124.5,102A2.4,2.4,0,0,0,123.41,103.86Z"/><path class="cls-11" d="M173.47,73.68c.6-.34,1.09-.06,1.09.63v3.37a2.41,2.41,0,0,1-1.09,1.88l-5.7,3.29V77Z"/><path class="cls-13" d="M173.05,78.3l-.64-.19a3.3,3.3,0,0,0,.11-.82,1.5,1.5,0,0,0-.58-1.36.92.92,0,0,0-.93,0,3.27,3.27,0,0,0-1.27,2.65,1.48,1.48,0,0,0,.58,1.35.71.71,0,0,0,.4.11,1.1,1.1,0,0,0,.53-.15,2.74,2.74,0,0,0,1-1.37l.64.19H173a.25.25,0,0,0,.23-.16A.25.25,0,0,0,173.05,78.3Zm-2,1.22a.45.45,0,0,1-.45,0,1.1,1.1,0,0,1-.35-.95,2.86,2.86,0,0,1,1-2.24.57.57,0,0,1,.28-.09.34.34,0,0,1,.17,0,1.1,1.1,0,0,1,.34,1A2.83,2.83,0,0,1,171,79.52Z"/><path class="cls-14" d="M173.53,54.35a2.51,2.51,0,0,0-2.59.23L36.74,132.09a8,8,0,0,0-3.61,6.27v7.57l3.39,2L178,66.21V58.64a2.53,2.53,0,0,0-1-2.33C176.29,56,174.12,54.71,173.53,54.35Z"/><path class="cls-10" d="M36.52,140.33a8,8,0,0,1,3.61-6.26l134.2-77.52c2-1.15,3.62-.22,3.62,2.09v7.57L36.52,147.9Z"/><path class="cls-11" d="M176.94,56.33a2.52,2.52,0,0,0-2.61.22L40.14,134.06a7.33,7.33,0,0,0-2.56,2.7l-3.4-2a7.39,7.39,0,0,1,2.57-2.71L170.94,54.57a2.53,2.53,0,0,1,2.59-.22c.59.36,2.76,1.6,3.37,1.95Z"/><path class="cls-13" d="M161.84,68.22a3.73,3.73,0,0,0-1.7,2.94c0,1.08.76,1.52,1.7,1a3.75,3.75,0,0,0,1.69-2.93C163.53,68.12,162.77,67.68,161.84,68.22Z"/><path class="cls-13" d="M167.77,64.8a3.77,3.77,0,0,0-1.69,2.94c0,1.08.76,1.52,1.69,1a3.75,3.75,0,0,0,1.7-2.94C169.47,64.7,168.71,64.26,167.77,64.8Z"/><path class="cls-13" d="M173.71,61.38a3.75,3.75,0,0,0-1.7,2.94c0,1.08.76,1.52,1.7,1a3.77,3.77,0,0,0,1.69-2.94C175.4,61.28,174.64,60.84,173.71,61.38Z"/><path class="cls-6" d="M48.76,168.09,65,158.71c.6-.34,1.09-.06,1.09.63v1.41A2.41,2.41,0,0,1,65,162.63L48.76,172c-.6.35-1.09.07-1.09-.63V170A2.41,2.41,0,0,1,48.76,168.09Z"/><path class="cls-2" d="M44.28,171.93v1.41a2.43,2.43,0,0,1-1.08,1.88l-1.23.71c-.6.34-1.08.06-1.08-.63v-1.41A2.4,2.4,0,0,1,42,172l1.23-.71C43.79,171,44.28,171.24,44.28,171.93Z"/><path class="cls-6" d="M48.76,175.9,65,166.52c.6-.35,1.09-.07,1.09.62v1.42A2.38,2.38,0,0,1,65,170.43l-16.22,9.38c-.6.35-1.09.07-1.09-.62v-1.41A2.38,2.38,0,0,1,48.76,175.9Z"/><path class="cls-2" d="M44.28,179.73v1.42A2.39,2.39,0,0,1,43.2,183l-1.23.71c-.6.35-1.08.07-1.08-.63v-1.41A2.4,2.4,0,0,1,42,179.81l1.23-.7C43.79,178.76,44.28,179,44.28,179.73Z"/><path class="cls-6" d="M48.76,183.7,65,174.32c.6-.34,1.09-.06,1.09.63v1.41A2.41,2.41,0,0,1,65,178.24l-16.22,9.38c-.6.34-1.09.06-1.09-.63v-1.41A2.41,2.41,0,0,1,48.76,183.7Z"/><path class="cls-2" d="M44.28,187.54V189a2.43,2.43,0,0,1-1.08,1.88l-1.23.7c-.6.35-1.08.07-1.08-.62V189.5A2.37,2.37,0,0,1,42,187.62l1.23-.71C43.79,186.57,44.28,186.85,44.28,187.54Z"/><path class="cls-6" d="M48.76,209.58,65,200.2c.6-.35,1.09-.07,1.09.62v1.42A2.41,2.41,0,0,1,65,204.12l-16.22,9.37c-.6.35-1.09.07-1.09-.62v-1.41A2.4,2.4,0,0,1,48.76,209.58Z"/><path class="cls-2" d="M44.28,213.42v1.41a2.43,2.43,0,0,1-1.08,1.88l-1.23.7c-.6.35-1.08.07-1.08-.62v-1.42A2.4,2.4,0,0,1,42,213.49l1.23-.7C43.79,212.44,44.28,212.72,44.28,213.42Z"/><path class="cls-6" d="M48.76,216.49,65,207.11c.6-.35,1.09-.06,1.09.63v1.41A2.41,2.41,0,0,1,65,211l-16.22,9.38c-.6.34-1.09.06-1.09-.63v-1.41A2.41,2.41,0,0,1,48.76,216.49Z"/><path class="cls-2" d="M44.28,220.33v1.41a2.43,2.43,0,0,1-1.08,1.88l-1.23.7c-.6.35-1.08.07-1.08-.62v-1.41A2.37,2.37,0,0,1,42,220.41l1.23-.71C43.79,219.36,44.28,219.64,44.28,220.33Z"/><path class="cls-6" d="M48.76,223.4,65,214c.6-.34,1.09-.06,1.09.63v1.41A2.41,2.41,0,0,1,65,217.94l-16.22,9.38c-.6.34-1.09.06-1.09-.63v-1.41A2.41,2.41,0,0,1,48.76,223.4Z"/><path class="cls-2" d="M44.28,227.24v1.41a2.43,2.43,0,0,1-1.08,1.88l-1.23.7c-.6.35-1.08.07-1.08-.62V229.2A2.39,2.39,0,0,1,42,227.32l1.23-.71C43.79,226.27,44.28,226.55,44.28,227.24Z"/><polygon class="cls-2" points="47.67 192.22 47.67 194.65 49.78 192.22 47.67 192.22"/><path class="cls-6" d="M51.06,191.72c0,.45.33.63.73.4l13.55-7.81a1.6,1.6,0,0,0,.73-1.24c0-.46-.33-.65-.73-.42l-13.55,7.83A1.58,1.58,0,0,0,51.06,191.72Z"/><polygon class="cls-2" points="47.67 196.13 47.67 198.57 49.78 196.13 47.67 196.13"/><path class="cls-6" d="M51.06,195.63c0,.45.33.63.73.4l13.55-7.8a1.6,1.6,0,0,0,.73-1.25c0-.46-.33-.64-.73-.41L51.79,194.4A1.58,1.58,0,0,0,51.06,195.63Z"/><polygon class="cls-2" points="47.67 200.05 47.67 202.48 49.78 200.05 47.67 200.05"/><path class="cls-6" d="M51.06,199.55c0,.45.33.63.73.4l13.55-7.81a1.6,1.6,0,0,0,.73-1.24c0-.46-.33-.65-.73-.42l-13.55,7.83A1.6,1.6,0,0,0,51.06,199.55Z"/><polygon class="cls-2" points="47.67 203.96 47.67 206.4 49.78 203.96 47.67 203.96"/><path class="cls-6" d="M51.06,203.46c0,.45.33.63.73.4l13.55-7.8a1.6,1.6,0,0,0,.73-1.25c0-.46-.33-.64-.73-.41l-13.55,7.83A1.58,1.58,0,0,0,51.06,203.46Z"/><path class="cls-6" d="M87.9,172.62v1.31c0,.64.45.9,1,.58l16.83-9.72a2.23,2.23,0,0,0,1-1.74v-1.31c0-.64-.45-.9-1-.58l-16.83,9.72A2.21,2.21,0,0,0,87.9,172.62Z"/><path class="cls-6" d="M119.1,154.71V156c0,.64.45.9,1,.58l16.84-9.72a2.21,2.21,0,0,0,1-1.74v-1.3c0-.64-.45-.9-1-.58L120.1,153A2.21,2.21,0,0,0,119.1,154.71Z"/><path class="cls-6" d="M87.9,213.62v1.3c0,.64.45.9,1,.58l16.83-9.72a2.21,2.21,0,0,0,1-1.73v-1.31c0-.64-.45-.9-1-.58l-16.83,9.72A2.21,2.21,0,0,0,87.9,213.62Z"/><path class="cls-6" d="M119.1,195.7V197c0,.64.45.9,1,.58l16.84-9.72a2.23,2.23,0,0,0,1-1.74v-1.31c0-.64-.45-.9-1-.58L120.1,194A2.23,2.23,0,0,0,119.1,195.7Z"/><path class="cls-6" d="M150.3,136.79v1.31c0,.64.45.9,1,.58L168.13,129a2.21,2.21,0,0,0,1-1.74v-1.31c0-.64-.45-.9-1-.58l-16.83,9.72A2.23,2.23,0,0,0,150.3,136.79Z"/><path class="cls-6" d="M150.3,177.77v1.31c0,.64.45.9,1,.58l16.83-9.72a2.21,2.21,0,0,0,1-1.74v-1.31c0-.64-.45-.9-1-.58L151.3,176A2.23,2.23,0,0,0,150.3,177.77Z"/><path class="cls-13" d="M150.72,149.09,168.18,139c.8-.46,1.44-.09,1.44.84V160a3.2,3.2,0,0,1-1.44,2.51l-17.46,10.08c-.8.46-1.45.08-1.45-.84V151.6A3.19,3.19,0,0,1,150.72,149.09Z"/><path class="cls-12" d="M168.83,162.4a3.32,3.32,0,0,1-.88.75l-17.46,10.08c-.93.55-1.67.12-1.67-1V152.11a5,5,0,0,1,2.12-3.67l17.46-10.08c.94-.54,1.67-.11,1.67,1v20.15a4.34,4.34,0,0,1-.65,2.08A5.43,5.43,0,0,1,168.83,162.4Zm-18.76-12.31a1.37,1.37,0,0,0-.15.21,1.7,1.7,0,0,0-.2.78v20.15c0,.77.56,1.09,1.22.71l17.46-10.08a1.64,1.64,0,0,0,.58-.56,1.7,1.7,0,0,0,.19-.78V140.37c0-.77-.56-1.09-1.22-.71l-17.46,10.08A1.74,1.74,0,0,0,150.07,150.09Z"/><path class="cls-2" d="M170.23,141.73,166.34,144a3.19,3.19,0,0,0-1.45,2.51V151c0,.92.65,1.29,1.45.83l3.89-2.24a3.21,3.21,0,0,0,1.45-2.51v-4.49C171.68,141.65,171,141.27,170.23,141.73Z"/><path class="cls-12" d="M152.05,151.27l8.74-5c.4-.23.73-.05.73.41v.28a1.65,1.65,0,0,1-.72,1.26l-8.75,5c-.4.23-.72,0-.72-.42v-.29A1.59,1.59,0,0,1,152.05,151.27Z"/><path class="cls-12" d="M152.05,155.18l8.74-5c.4-.23.73-.05.73.42v.27a1.62,1.62,0,0,1-.72,1.26l-8.75,5c-.4.23-.72,0-.72-.42v-.29A1.59,1.59,0,0,1,152.05,155.18Z"/><path class="cls-12" d="M152.05,159.09l8.74-5c.4-.23.73,0,.73.42v.28a1.62,1.62,0,0,1-.72,1.25l-8.75,5c-.4.23-.72,0-.72-.42v-.29A1.59,1.59,0,0,1,152.05,159.09Z"/><path class="cls-12" d="M152.05,163l14.53-8.37c.4-.23.72,0,.72.42v.27a1.62,1.62,0,0,1-.72,1.26L152.05,165c-.4.23-.72,0-.72-.42v-.29A1.59,1.59,0,0,1,152.05,163Z"/><path class="cls-12" d="M152.05,166.91l14.53-8.37c.4-.23.72,0,.72.42v.27a1.59,1.59,0,0,1-.72,1.26l-14.53,8.38c-.4.23-.72,0-.72-.42v-.29A1.59,1.59,0,0,1,152.05,166.91Z"/><path class="cls-2" d="M108.45,136.21a1.41,1.41,0,0,0-1.42.1l-13,7.51a.37.37,0,0,1-.63-.36v-.54a1.27,1.27,0,0,0-2-1.17l-6.74,3.89A3.41,3.41,0,0,0,83,148.36v20.41a1.39,1.39,0,0,0,.63,1.27,1.17,1.17,0,0,0,.58.15,1.74,1.74,0,0,0,.84-.24l22.43-13a3.41,3.41,0,0,0,1.58-2.72V137.49A1.41,1.41,0,0,0,108.45,136.21Zm-.31,18.06a2.47,2.47,0,0,1-1.11,1.91l-22.43,13c-.2.11-.38.15-.48.09a.54.54,0,0,1-.16-.46V148.36a2.49,2.49,0,0,1,1.11-1.91l6.74-3.89a.73.73,0,0,1,.36-.12l.11,0a.55.55,0,0,1,.16.46v.54a1.28,1.28,0,0,0,2,1.18l13-7.52c.2-.11.39-.15.48-.09s.16.23.16.46Zm31.51-36a1.41,1.41,0,0,0-1.42.09l-13,7.52c-.2.11-.38.15-.48.09s-.15-.23-.15-.46V125a1.28,1.28,0,0,0-2-1.18l-6.74,3.89a3.44,3.44,0,0,0-1.57,2.73v20.41a1.39,1.39,0,0,0,.63,1.27,1.14,1.14,0,0,0,.58.15,1.62,1.62,0,0,0,.83-.25l22.44-12.95a3.45,3.45,0,0,0,1.58-2.73V119.57A1.39,1.39,0,0,0,139.65,118.3Zm-.31,18a2.49,2.49,0,0,1-1.11,1.92l-22.44,12.95a.54.54,0,0,1-.47.1.55.55,0,0,1-.16-.46V130.45a2.46,2.46,0,0,1,1.1-1.91l6.74-3.9a.93.93,0,0,1,.37-.12.2.2,0,0,1,.11,0,.54.54,0,0,1,.16.46v.53a1.43,1.43,0,0,0,.62,1.28,1.41,1.41,0,0,0,1.42-.1l13-7.51a.56.56,0,0,1,.48-.1.54.54,0,0,1,.16.46Zm-30.89,40.86a1.41,1.41,0,0,0-1.42.09l-13,7.52c-.19.11-.38.15-.47.09s-.16-.23-.16-.46v-.53a1.28,1.28,0,0,0-2-1.18l-6.74,3.89A3.43,3.43,0,0,0,83,189.36v20.41a1.39,1.39,0,0,0,.63,1.27,1.14,1.14,0,0,0,.58.15,1.65,1.65,0,0,0,.84-.25L107.5,198a3.43,3.43,0,0,0,1.58-2.73V178.48A1.39,1.39,0,0,0,108.45,177.21Zm-.31,18a2.49,2.49,0,0,1-1.11,1.92L84.6,210.13a.56.56,0,0,1-.48.1.55.55,0,0,1-.16-.46V189.36a2.47,2.47,0,0,1,1.11-1.91l6.74-3.9a.85.85,0,0,1,.36-.12.18.18,0,0,1,.11,0,.54.54,0,0,1,.16.46v.53a1.41,1.41,0,0,0,.63,1.28,1.39,1.39,0,0,0,1.41-.1l13-7.51a.56.56,0,0,1,.48-.1.55.55,0,0,1,.16.46Zm31.51-36a1.41,1.41,0,0,0-1.42.09l-13,7.52c-.2.11-.38.15-.48.09a.57.57,0,0,1-.15-.46V166a1.28,1.28,0,0,0-2-1.18l-6.74,3.89a3.44,3.44,0,0,0-1.57,2.72v20.41a1.39,1.39,0,0,0,.63,1.27,1,1,0,0,0,.58.15,1.7,1.7,0,0,0,.83-.24l22.44-12.95a3.45,3.45,0,0,0,1.58-2.73V160.57A1.39,1.39,0,0,0,139.65,159.3Zm-.31,18a2.47,2.47,0,0,1-1.11,1.91l-22.44,13c-.19.11-.38.15-.47.09s-.16-.23-.16-.46V171.44a2.48,2.48,0,0,1,1.1-1.91l6.74-3.89a.79.79,0,0,1,.37-.12.2.2,0,0,1,.11,0c.1,0,.16.23.16.46v.53a1.27,1.27,0,0,0,2,1.18l13-7.52c.2-.11.38-.15.48-.09s.16.23.16.46ZM171.21,99.4a1.39,1.39,0,0,0-1.41.09l-13,7.52a.57.57,0,0,1-.47.1.55.55,0,0,1-.16-.46v-.54a1.28,1.28,0,0,0-2-1.18l-6.74,3.9a3.39,3.39,0,0,0-1.58,2.72V132a1.39,1.39,0,0,0,.63,1.27,1.14,1.14,0,0,0,.58.15,1.67,1.67,0,0,0,.83-.24l22.44-13a3.42,3.42,0,0,0,1.58-2.72V100.67A1.39,1.39,0,0,0,171.21,99.4Zm-.31,18.06a2.51,2.51,0,0,1-1.1,1.91l-22.44,12.95a.56.56,0,0,1-.48.1.55.55,0,0,1-.16-.46V111.55a2.49,2.49,0,0,1,1.1-1.91l6.75-3.9a.82.82,0,0,1,.36-.11.2.2,0,0,1,.11,0,.54.54,0,0,1,.16.46v.54a1.27,1.27,0,0,0,2,1.17l13-7.51a.56.56,0,0,1,.48-.1.55.55,0,0,1,.16.46Z"/><path class="cls-19" d="M108.45,136.21a1.41,1.41,0,0,0-1.42.1l-13,7.51a.37.37,0,0,1-.63-.36v-.54a1.27,1.27,0,0,0-2-1.17l-6.74,3.89A3.41,3.41,0,0,0,83,148.36v20.41a1.39,1.39,0,0,0,.63,1.27,1.17,1.17,0,0,0,.58.15,1.74,1.74,0,0,0,.84-.24l22.43-13a3.41,3.41,0,0,0,1.58-2.72V137.49A1.41,1.41,0,0,0,108.45,136.21Zm-.31,18.06a2.47,2.47,0,0,1-1.11,1.91l-22.43,13c-.2.11-.38.15-.48.09a.54.54,0,0,1-.16-.46V148.36a2.49,2.49,0,0,1,1.11-1.91l6.74-3.89a.73.73,0,0,1,.36-.12l.11,0a.55.55,0,0,1,.16.46v.54a1.28,1.28,0,0,0,2,1.18l13-7.52c.2-.11.39-.15.48-.09s.16.23.16.46Zm31.51-36a1.41,1.41,0,0,0-1.42.09l-13,7.52c-.2.11-.38.15-.48.09s-.15-.23-.15-.46V125a1.28,1.28,0,0,0-2-1.18l-6.74,3.89a3.44,3.44,0,0,0-1.57,2.73v20.41a1.39,1.39,0,0,0,.63,1.27,1.14,1.14,0,0,0,.58.15,1.62,1.62,0,0,0,.83-.25l22.44-12.95a3.45,3.45,0,0,0,1.58-2.73V119.57A1.39,1.39,0,0,0,139.65,118.3Zm-.31,18a2.49,2.49,0,0,1-1.11,1.92l-22.44,12.95a.54.54,0,0,1-.47.1.55.55,0,0,1-.16-.46V130.45a2.46,2.46,0,0,1,1.1-1.91l6.74-3.9a.93.93,0,0,1,.37-.12.2.2,0,0,1,.11,0,.54.54,0,0,1,.16.46v.53a1.43,1.43,0,0,0,.62,1.28,1.41,1.41,0,0,0,1.42-.1l13-7.51a.56.56,0,0,1,.48-.1.54.54,0,0,1,.16.46Zm-30.89,40.86a1.41,1.41,0,0,0-1.42.09l-13,7.52c-.19.11-.38.15-.47.09s-.16-.23-.16-.46v-.53a1.28,1.28,0,0,0-2-1.18l-6.74,3.89A3.43,3.43,0,0,0,83,189.36v20.41a1.39,1.39,0,0,0,.63,1.27,1.14,1.14,0,0,0,.58.15,1.65,1.65,0,0,0,.84-.25L107.5,198a3.43,3.43,0,0,0,1.58-2.73V178.48A1.39,1.39,0,0,0,108.45,177.21Zm-.31,18a2.49,2.49,0,0,1-1.11,1.92L84.6,210.13a.56.56,0,0,1-.48.1.55.55,0,0,1-.16-.46V189.36a2.47,2.47,0,0,1,1.11-1.91l6.74-3.9a.85.85,0,0,1,.36-.12.18.18,0,0,1,.11,0,.54.54,0,0,1,.16.46v.53a1.41,1.41,0,0,0,.63,1.28,1.39,1.39,0,0,0,1.41-.1l13-7.51a.56.56,0,0,1,.48-.1.55.55,0,0,1,.16.46Zm31.51-36a1.41,1.41,0,0,0-1.42.09l-13,7.52c-.2.11-.38.15-.48.09a.57.57,0,0,1-.15-.46V166a1.28,1.28,0,0,0-2-1.18l-6.74,3.89a3.44,3.44,0,0,0-1.57,2.72v20.41a1.39,1.39,0,0,0,.63,1.27,1,1,0,0,0,.58.15,1.7,1.7,0,0,0,.83-.24l22.44-12.95a3.45,3.45,0,0,0,1.58-2.73V160.57A1.39,1.39,0,0,0,139.65,159.3Zm-.31,18a2.47,2.47,0,0,1-1.11,1.91l-22.44,13c-.19.11-.38.15-.47.09s-.16-.23-.16-.46V171.44a2.48,2.48,0,0,1,1.1-1.91l6.74-3.89a.79.79,0,0,1,.37-.12.2.2,0,0,1,.11,0c.1,0,.16.23.16.46v.53a1.27,1.27,0,0,0,2,1.18l13-7.52c.2-.11.38-.15.48-.09s.16.23.16.46ZM171.21,99.4a1.39,1.39,0,0,0-1.41.09l-13,7.52a.57.57,0,0,1-.47.1.55.55,0,0,1-.16-.46v-.54a1.28,1.28,0,0,0-2-1.18l-6.74,3.9a3.39,3.39,0,0,0-1.58,2.72V132a1.39,1.39,0,0,0,.63,1.27,1.14,1.14,0,0,0,.58.15,1.67,1.67,0,0,0,.83-.24l22.44-13a3.42,3.42,0,0,0,1.58-2.72V100.67A1.39,1.39,0,0,0,171.21,99.4Zm-.31,18.06a2.51,2.51,0,0,1-1.1,1.91l-22.44,12.95a.56.56,0,0,1-.48.1.55.55,0,0,1-.16-.46V111.55a2.49,2.49,0,0,1,1.1-1.91l6.75-3.9a.82.82,0,0,1,.36-.11.2.2,0,0,1,.11,0,.54.54,0,0,1,.16.46v.54a1.27,1.27,0,0,0,2,1.17l13-7.51a.56.56,0,0,1,.48-.1.55.55,0,0,1,.16.46Z"/><polygon class="cls-2" points="36.52 147.9 33.13 145.93 33.13 161.6 36.52 163.56 36.52 147.9"/><polygon class="cls-8" points="36.52 147.9 33.13 145.93 33.13 161.6 36.52 163.56 36.52 147.9"/><polygon class="cls-21" points="36.52 147.9 33.13 145.93 33.13 161.6 36.52 163.56 36.52 147.9"/></g></g><g class="animate-bounce" id="Clock"><g id="Clock-2" data-name="Clock"><g id="Clock-3" data-name="Clock"><ellipse cx="84.02" cy="421.57" rx="2.81" ry="1.62"/><polygon points="81.25 421.29 86.46 404.7 93.76 408.93 86.71 422.05 81.25 421.29"/><path d="M145.24,394.07a1.21,1.21,0,0,0,0,2.29,4.34,4.34,0,0,0,4,0,1.21,1.21,0,0,0,0-2.29A4.34,4.34,0,0,0,145.24,394.07Z"/><polygon points="150 394.93 144.79 378.35 137.49 382.57 144.54 395.7 150 394.93"/><path class="cls-14" d="M134.11,321.67l3.34-5.8a3.51,3.51,0,1,1,6.13,3.42l-3.39,5.87c-.71,1.24-2.65,1.47-4.33.5S133.4,322.91,134.11,321.67Z"/><g id="Clock-4" data-name="Clock"><g id="Clock-5" data-name="Clock"><path class="cls-2" d="M150.68,329.82l-27.19-15.7c-6.29-3.56-14.94-3-24.48,2.5-19.22,11.1-34.8,38.08-34.8,60.27,0,11,3.85,18.79,10.08,22.46l27.19,15.7,2.21-5.82a36.88,36.88,0,0,0,9.62-4c19.22-11.1,34.8-38.08,34.8-60.27a36.9,36.9,0,0,0-1.34-10.25Z"/><path class="cls-8" d="M64.52,371.47a50,50,0,0,0-.31,5.42c0,11,3.85,18.79,10.08,22.46l27.19,15.7,2.21-5.82c.72-.18,1.46-.4,2.2-.64l3.29-11.34Z"/><ellipse class="cls-2" cx="126.2" cy="372.5" rx="49.21" ry="28.41" transform="translate(-259.5 295.54) rotate(-60)"/><ellipse class="cls-5" cx="126.2" cy="372.5" rx="49.21" ry="28.41" transform="translate(-259.5 295.54) rotate(-60)"/><path class="cls-2" d="M153.08,339.59c-4.89-7.8-14.35-9-25.32-3.21-18.15,9.59-32.83,35-32.06,55.53.2,5.37,1.45,10,3.62,13.5,4.89,7.8,14.35,9,25.32,3.21,18.15-9.59,32.83-35,32.06-55.53-.2-5.37-1.45-10-3.62-13.5Z"/><path class="cls-13" d="M121.11,406.63c-7,3.69-13.36,4.53-18.33,2.65a14.91,14.91,0,0,1-3.46-3.87c-2.17-3.46-3.42-8.13-3.62-13.5-.77-20.51,13.91-45.94,32.06-55.53,7-3.69,13.35-4.53,18.32-2.65a15,15,0,0,1,3.47,3.88h0c2.16,3.45,3.41,8.12,3.62,13.5C153.94,371.62,139.26,397.05,121.11,406.63Z"/></g><path class="cls-11" d="M126.26,342.3a4.05,4.05,0,0,1-1.83,3.17c-1,.58-1.83.11-1.83-1.06a4.07,4.07,0,0,1,1.83-3.17C125.44,340.66,126.26,341.13,126.26,342.3Z"/><path class="cls-11" d="M150.21,355.76a4,4,0,0,1-1.83,3.16c-1,.59-1.83.11-1.83-1.05a4,4,0,0,1,1.83-3.17C149.39,354.12,150.21,354.59,150.21,355.76Z"/><path class="cls-11" d="M139.2,338.37a1.71,1.71,0,0,1-.77,1.34c-.43.24-.77,0-.77-.45a1.71,1.71,0,0,1,.77-1.34C138.86,337.68,139.2,337.88,139.2,338.37Z"/><path class="cls-11" d="M147.87,345.07a1.74,1.74,0,0,1-.77,1.34c-.43.25-.78,0-.78-.45a1.72,1.72,0,0,1,.78-1.34C147.52,344.38,147.87,344.58,147.87,345.07Z"/><path class="cls-11" d="M146.83,369.82a1.72,1.72,0,0,1-.78,1.34c-.42.24-.77,0-.77-.45a1.74,1.74,0,0,1,.77-1.34C146.48,369.13,146.83,369.33,146.83,369.82Z"/><path class="cls-11" d="M138.17,386.16a1.74,1.74,0,0,1-.77,1.34c-.43.24-.78,0-.78-.45a1.72,1.72,0,0,1,.78-1.34C137.82,385.47,138.17,385.67,138.17,386.16Z"/><path class="cls-11" d="M103.72,371a1.72,1.72,0,0,1-.78,1.34c-.42.25-.77.05-.77-.45a1.7,1.7,0,0,1,.77-1.33C103.37,370.31,103.72,370.51,103.72,371Z"/><path class="cls-11" d="M112,355.07a1.72,1.72,0,0,1-.77,1.34c-.43.25-.77,0-.77-.45a1.68,1.68,0,0,1,.77-1.33C111.66,354.38,112,354.58,112,355.07Z"/><path class="cls-11" d="M111.27,403.79a1.69,1.69,0,0,1-.78,1.34c-.42.25-.77.05-.77-.44a1.71,1.71,0,0,1,.77-1.34C110.92,403.1,111.27,403.3,111.27,403.79Z"/><path class="cls-11" d="M102.77,395.71a1.71,1.71,0,0,1-.77,1.34c-.43.24-.77,0-.77-.45a1.71,1.71,0,0,1,.77-1.34C102.43,395,102.77,395.21,102.77,395.71Z"/><path class="cls-11" d="M102.47,383.32a4.07,4.07,0,0,1-1.83,3.17c-1,.58-1.83.11-1.83-1.06a4.05,4.05,0,0,1,1.83-3.17C101.65,381.68,102.47,382.15,102.47,383.32Z"/><path class="cls-11" d="M126.26,397.23a4,4,0,0,1-1.83,3.17c-1,.58-1.83.11-1.83-1.06a4,4,0,0,1,1.83-3.16C125.44,395.59,126.26,396.07,126.26,397.23Z"/><path class="cls-11" d="M123.65,370.15c.55-.95,1.45-1.47,2-1.15s.55,1.35,0,2.31-1.45,1.47-2,1.15S123.1,371.11,123.65,370.15Z"/><polygon class="cls-14" points="125.76 366.33 124.65 348.15 124.31 347.96 123.19 367.42 124.31 370.29 124.65 370.48 125.76 366.33"/><polygon class="cls-10" points="123.53 367.62 123.19 367.42 124.31 347.96 124.65 348.15 123.53 367.62"/><polygon class="cls-11" points="124.65 370.48 125.76 366.33 124.65 348.15 123.53 367.62 124.65 370.48"/><polygon class="cls-14" points="124.22 370.68 121.08 374.25 114.42 387.66 114.76 387.86 123.05 375.38 124.56 370.88 124.22 370.68"/><polygon class="cls-10" points="121.08 374.25 121.43 374.44 114.76 387.86 114.42 387.66 121.08 374.25"/><polygon class="cls-11" points="114.76 387.86 123.05 375.38 124.56 370.88 121.43 374.44 114.76 387.86"/><path class="cls-10" d="M127,368.68l-1-.58h0a1.43,1.43,0,0,0-1.43.14,4.49,4.49,0,0,0-2,3.52,1.44,1.44,0,0,0,.59,1.31h0l1,.57.13-.34a2,2,0,0,0,.56-.23,4.48,4.48,0,0,0,2-3.52,2.23,2.23,0,0,0-.08-.6Z"/><path class="cls-14" d="M122.56,371.44c0,.11,0,.22,0,.32a1.44,1.44,0,0,0,.59,1.31h0l1,.57.13-.34.13,0,.19-.66Z"/><path class="cls-11" d="M127.61,370a4.48,4.48,0,0,1-2,3.52c-1.13.65-2,.13-2-1.17a4.47,4.47,0,0,1,2-3.52C126.7,368.17,127.61,368.7,127.61,370Z"/><rect class="cls-2" x="133.48" y="363.3" width="0.26" height="16.56" transform="translate(-246.1 479.96) rotate(-86.15)"/><path id="Sphere_1_2" data-name="Sphere 1/2" class="cls-2" d="M124.66,373a1,1,0,0,1-.42-.94,3.18,3.18,0,0,1,1.44-2.49,1,1,0,0,1,1-.1,2,2,0,0,1-2,3.53Z"/><path class="cls-5" d="M125.47,370.36a.26.26,0,0,0,0,.21.27.27,0,0,0,.1.11,1.56,1.56,0,0,0,.83.09,2.31,2.31,0,0,1,.85.21c.26.12.28-.14.22-.33a1.23,1.23,0,0,0-1-.86A1.06,1.06,0,0,0,125.47,370.36Z"/><path class="cls-22" d="M127.44,372.28l.12-.24a1.87,1.87,0,0,1-1.09.44,1.55,1.55,0,0,1-1.45-.92,1.68,1.68,0,0,1,.11-1.51,3.15,3.15,0,0,0-.89,2,1,1,0,0,0,.42.94A2,2,0,0,0,127.44,372.28Z"/></g><path class="cls-11" d="M116.05,316.15a1.2,1.2,0,0,0-.7-1,3.71,3.71,0,0,0-3.34,0,1.18,1.18,0,0,0-.69,1v9.06a1.18,1.18,0,0,0,.69,1,3.71,3.71,0,0,0,3.34,0,1.2,1.2,0,0,0,.7-1Z"/><path class="cls-14" d="M115.35,315.18a3.71,3.71,0,0,0-3.34,0,1.18,1.18,0,0,0-.69,1v4.74a11.42,11.42,0,0,0,4.73,0v-4.74A1.2,1.2,0,0,0,115.35,315.18Z"/><path class="cls-10" d="M112,317.11a1.16,1.16,0,0,1-.69-1,1.18,1.18,0,0,1,.69-1,3.71,3.71,0,0,1,3.34,0,1.2,1.2,0,0,1,.7,1,1.17,1.17,0,0,1-.7,1A3.65,3.65,0,0,1,112,317.11Z"/><path class="cls-10" d="M120.43,312.45a3.36,3.36,0,0,0-2-2.76,10.57,10.57,0,0,0-9.55,0,3.36,3.36,0,0,0-2,2.76v3.42a3.34,3.34,0,0,0,2,2.75,10.51,10.51,0,0,0,9.55,0,3.35,3.35,0,0,0,2-2.75Z"/><path class="cls-11" d="M108.91,315.2a2.91,2.91,0,0,1,0-5.51,10.57,10.57,0,0,1,9.55,0,2.91,2.91,0,0,1,0,5.51A10.57,10.57,0,0,1,108.91,315.2Z"/><path class="cls-22" d="M109.21,315.35v3.41a5.14,5.14,0,0,0,.58.27v-3.41A3.83,3.83,0,0,1,109.21,315.35Zm2.06.73v3.42l.59.1v-3.42A3.83,3.83,0,0,1,111.27,316.08Zm-3.71-2v3.41a4.17,4.17,0,0,0,.59.6v-3.41A3,3,0,0,1,107.56,314.07Zm9.94,1.59v3.41c.21-.08.4-.18.59-.27v-3.42A6.36,6.36,0,0,1,117.5,315.66Zm1.65-.93v3.41a4.49,4.49,0,0,0,.58-.57v-3.4A3.44,3.44,0,0,1,119.15,314.73Zm-3.72,1.47v3.41c.2,0,.4-.06.59-.09v-3.43C115.82,316.14,115.63,316.17,115.43,316.2Zm-2,.12v3.43H114v-3.43A2,2,0,0,1,113.39,316.32Z"/><path class="cls-11" d="M93.35,359.49c-5.39,9.34-15.54,13.58-23.19,9.18a19.53,19.53,0,0,1,19.51-33.84C97.28,339.28,98.73,350.15,93.35,359.49Z"/><path class="cls-23" d="M74.16,341.6a28.42,28.42,0,0,0,3.53,2.29,14.63,14.63,0,0,1,3.9,4.09c1.42,1.93,2.59,4.33,4.86,5.09s5-.65,6.09-2.8A10.12,10.12,0,0,0,93,342.7c-2.37-6.54-10.81-10.27-17.35-7.15C73.52,336.54,72.3,340,74.16,341.6Z"/><path class="cls-10" d="M70.16,368.67c7.65,4.4,17.8.16,23.19-9.18A24.3,24.3,0,0,0,96,352.8c-.32.4-9.28,11.87-20.45,8.66C64.18,358.2,62,349.44,63,342A19.52,19.52,0,0,0,70.16,368.67Z"/><path class="cls-2" d="M67,340.09l-2.83-1.64a3.5,3.5,0,0,0-3.58,6l2.9,1.69c1.24.71,3-.06,4-1.74S68.22,340.81,67,340.09Z"/><path class="cls-21" d="M60.31,339.24a1.2,1.2,0,0,0-.13.21c-.23.6.53.91,1,.95a28,28,0,0,1,3.54.19,6.3,6.3,0,0,0,1.5.2c.27,0,.35-.25.18-.45a.86.86,0,0,0-.26-.2,14.24,14.24,0,0,0-3-1.58,2.88,2.88,0,0,0-2.71.6Z"/><path class="cls-22" d="M67.47,344.42a4.13,4.13,0,0,0,.57-2.61,3.75,3.75,0,0,1-.43,1.17,3,3,0,0,1-2.17,1.51,5.19,5.19,0,0,1-2.89-.9,7,7,0,0,1-2.23-1.47,2.92,2.92,0,0,1-.8-2.71,2.33,2.33,0,0,0-.17.26,3.49,3.49,0,0,0,1.22,4.8l2.9,1.69C64.71,346.87,66.5,346.1,67.47,344.42Z"/><path class="cls-2" d="M143.3,305.72l3.34-5.8a3.51,3.51,0,0,1,6.13,3.42l-3.39,5.87c-.71,1.25-2.65,1.48-4.33.51S142.59,307,143.3,305.72Z"/><path class="cls-21" d="M150.33,299.48a1.21,1.21,0,0,0,.31.47c.28.29.59.54.87.83a2.87,2.87,0,0,1,.64,1c0,.13.2.34.37.28a.25.25,0,0,0,.13-.17,2.15,2.15,0,0,0-.26-1.61,3.08,3.08,0,0,0-1.07-1.3.82.82,0,0,0-.66-.17A.48.48,0,0,0,150.33,299.48Z"/><path class="cls-22" d="M152.13,304a6.47,6.47,0,0,0-.83-.9c-.19-.16-.38-.31-.58-.45-.49-.35-1-.67-1.46-1.07a1.89,1.89,0,0,1-.63-2.24,1.56,1.56,0,0,1,1-.85,3.07,3.07,0,0,1,1.28-.11,3.51,3.51,0,0,0-4.31,1.56l-1.22,2.13a.85.85,0,0,0,.22.37,18.84,18.84,0,0,0,1.78,1.3,12.88,12.88,0,0,0,3.17,1.83c.19.07.41.1.6.18a.71.71,0,0,0,.16.07l.92-1.59Z"/><path class="cls-11" d="M156.49,329.09a19.55,19.55,0,0,0-33.88-19.53Z"/><path class="cls-23" d="M144.23,307.49a3.81,3.81,0,0,0,1,2.59,56.44,56.44,0,0,0,4.71,4.83,26.09,26.09,0,0,1,4.81,6.87c.24.49.59,1.06,1.13,1s.84-.69.95-1.24a15.69,15.69,0,0,0-1.12-9.87c-1.15-2.46-3.11-5.35-5.66-6.47C146.41,303.64,144.49,305.11,144.23,307.49Z"/><path class="cls-10" d="M146.09,300.92c-7.66-.11-10.78,2.82-12.55,7.25-2.63,6.61,16.4,17.15,16.4,17.15l-27.33-15.76A19.56,19.56,0,0,1,146.09,300.92Z"/></g></g></g><g id="Character"><g id="Chair"><path class="cls-11" d="M325.23,402a7.3,7.3,0,0,0,.15,1.47,3.39,3.39,0,0,0,1.33,2.05l.05,0c1,.67,2.48.6,4.07-.31a12.38,12.38,0,0,0,5.61-9.71,4,4,0,0,0-1.58-3.56h0l-.26-.16h0a3.48,3.48,0,0,0-2.38-.1,6.56,6.56,0,0,0-1.38.61A12.36,12.36,0,0,0,325.23,402Z"/><path class="cls-14" d="M326.76,390a5.15,5.15,0,0,1,2.49-.76,2.92,2.92,0,0,1,1.58.45l.14.08,3.62,2.08a3.48,3.48,0,0,0-2.38-.1,6.56,6.56,0,0,0-1.38.61,12.36,12.36,0,0,0-5.6,9.69,7.3,7.3,0,0,0,.15,1.47,3.39,3.39,0,0,0,1.33,2.05L323,403.4l-.06,0-.32-.19-.1-.06a4.13,4.13,0,0,1-1.37-3.44A12.38,12.38,0,0,1,326.76,390Z"/><path class="cls-11" d="M385.87,369.42a6.62,6.62,0,0,0,.16,1.47,3.34,3.34,0,0,0,1.32,2.05l0,0c1,.67,2.48.6,4.08-.31a12.4,12.4,0,0,0,5.6-9.71,4,4,0,0,0-1.58-3.56h0l-.27-.16h0a3.47,3.47,0,0,0-2.38-.1,7,7,0,0,0-1.37.6A12.38,12.38,0,0,0,385.87,369.42Z"/><path class="cls-14" d="M387.4,357.37a5.22,5.22,0,0,1,2.5-.76,2.94,2.94,0,0,1,1.58.45l.14.07,3.61,2.09a3.47,3.47,0,0,0-2.38-.1,7,7,0,0,0-1.37.6,12.38,12.38,0,0,0-5.61,9.7,6.62,6.62,0,0,0,.16,1.47,3.34,3.34,0,0,0,1.32,2.05l-3.71-2.15-.06,0-.32-.19a.24.24,0,0,1-.09-.06,4.13,4.13,0,0,1-1.37-3.44A12.4,12.4,0,0,1,387.4,357.37Z"/><path class="cls-11" d="M375.05,414.76a7.3,7.3,0,0,1-.15,1.47,3.45,3.45,0,0,1-1.33,2.06l-.05,0c-1,.66-2.48.6-4.07-.32a12.37,12.37,0,0,1-5.61-9.71,4,4,0,0,1,1.58-3.55l0,0,.27-.16h0a3.48,3.48,0,0,1,2.38-.09,6,6,0,0,1,1.38.6A12.38,12.38,0,0,1,375.05,414.76Z"/><path class="cls-14" d="M373.52,402.72A5.08,5.08,0,0,0,371,402a2.91,2.91,0,0,0-1.58.44l-.15.08-3.61,2.08a3.48,3.48,0,0,1,2.38-.09,6,6,0,0,1,1.38.6,12.38,12.38,0,0,1,5.6,9.69,7.3,7.3,0,0,1-.15,1.47,3.45,3.45,0,0,1-1.33,2.06l3.71-2.15.06,0,.32-.19a.28.28,0,0,0,.09-.07,4.11,4.11,0,0,0,1.38-3.44A12.35,12.35,0,0,0,373.52,402.72Z"/><path class="cls-11" d="M414.42,395.48a6.62,6.62,0,0,1-.16,1.47,3.38,3.38,0,0,1-1.32,2.05l-.05,0c-1,.67-2.48.6-4.08-.31a12.4,12.4,0,0,1-5.6-9.71,4,4,0,0,1,1.58-3.56h0l.27-.16h0a3.45,3.45,0,0,1,2.39-.09,6,6,0,0,1,1.37.6A12.35,12.35,0,0,1,414.42,395.48Z"/><path class="cls-14" d="M412.89,383.43a5.22,5.22,0,0,0-2.5-.76,2.94,2.94,0,0,0-1.58.45l-.14.08-3.62,2.08a3.45,3.45,0,0,1,2.39-.09,6,6,0,0,1,1.37.6,12.35,12.35,0,0,1,5.61,9.69,6.62,6.62,0,0,1-.16,1.47,3.38,3.38,0,0,1-1.32,2.05l3.71-2.15.06,0,.31-.19a.21.21,0,0,0,.1-.06,4.13,4.13,0,0,0,1.37-3.44A12.4,12.4,0,0,0,412.89,383.43Z"/><path class="cls-11" d="M338.32,371.83a7.3,7.3,0,0,1-.15,1.47,3.39,3.39,0,0,1-1.33,2.05l0,0c-1,.67-2.48.6-4.07-.31a12.38,12.38,0,0,1-5.61-9.71,4,4,0,0,1,1.58-3.56h0l.26-.16h0a3.48,3.48,0,0,1,2.38-.1,6.56,6.56,0,0,1,1.38.61A12.36,12.36,0,0,1,338.32,371.83Z"/><path class="cls-14" d="M336.79,359.78a5.15,5.15,0,0,0-2.49-.76,2.92,2.92,0,0,0-1.58.45l-.14.08L329,361.63a3.48,3.48,0,0,1,2.38-.1,6.56,6.56,0,0,1,1.38.61,12.36,12.36,0,0,1,5.6,9.69,7.3,7.3,0,0,1-.15,1.47,3.39,3.39,0,0,1-1.33,2.05l3.71-2.15.06,0,.32-.19.09-.06a4.11,4.11,0,0,0,1.38-3.44A12.38,12.38,0,0,0,336.79,359.78Z"/><polygon class="cls-12" points="371.79 359.98 391.8 354.24 391.8 358.52 371.79 370.06 371.79 359.98"/><polygon class="cls-1" points="371.79 359.98 369.81 358.77 389.89 353.29 391.8 354.24 371.79 359.98"/><polygon class="cls-12" points="363.13 372.74 334.75 362.11 334.75 357.78 363.13 360.32 363.13 372.74"/><polygon class="cls-1" points="334.75 357.78 336.84 357.23 364.82 359.04 363.13 360.32 334.75 357.78"/><path class="cls-13" d="M362.37,371.37c0,3.22,9.87,3.22,9.87,0v-37.2h-9.87Z"/><path class="cls-1" d="M369.77,364.07l5.43,35.24h-3.72l-5.07-35.24A6.07,6.07,0,0,0,369.77,364.07Z"/><polygon class="cls-12" points="366.41 364.07 366.41 373.75 371.49 405.27 371.49 399.31 366.41 364.07"/><rect class="cls-6" x="371.48" y="399.31" width="3.71" height="5.96"/><polygon class="cls-12" points="364.72 373.46 328.13 392.64 328.13 386.73 364.72 364.1 364.72 373.46"/><path class="cls-1" d="M364.72,364.1a4.07,4.07,0,0,1-2.35-1.07l-36.53,22.16,2.29,1.54Z"/><polygon class="cls-6" points="328.13 392.64 328.13 386.73 325.84 385.19 325.84 390.92 328.13 392.64"/><polygon class="cls-12" points="410.85 385.87 371.76 372.48 371.76 363.7 410.85 379.96 410.85 385.87"/><path class="cls-1" d="M371.76,363.7c.32-.09.45-.65.48-1.52L412,379.48l-1.16.48Z"/><polygon class="cls-6" points="412.01 379.48 412.01 385.2 410.85 385.87 410.85 379.96 412.01 379.48"/><rect class="cls-8" x="371.48" y="399.31" width="3.71" height="5.96"/><polygon class="cls-8" points="328.13 392.64 328.13 386.73 325.84 385.19 325.84 390.92 328.13 392.64"/><polygon class="cls-8" points="412.01 379.48 412.01 385.2 410.85 385.87 410.85 379.96 412.01 379.48"/><path class="cls-9" d="M374.22,308.62H360.4v40.3c0,4,13.82,4,13.82,0Z"/><path class="cls-10" d="M430.31,303.26V307l-60.72,35.06a7.76,7.76,0,0,1-7.77,0L301.09,307v-3.73Z"/><path class="cls-14" d="M340.47,283.92a5.79,5.79,0,0,0,3-5.44L342,256.57c-.11-1.6-1.38-2.24-2.84-1.43l-10.91,6.08a5.08,5.08,0,0,0-2.44,4.37l1.52,22.24a5.77,5.77,0,0,1-3,5.47l6.51-3.77Z"/><path class="cls-10" d="M342.16,284.61a5.84,5.84,0,0,0,3-5.45l-1.5-21.91c-.11-1.6-1.37-2.24-2.83-1.43l-10.92,6.08a5.11,5.11,0,0,0-2.44,4.37L329,288.51a5.78,5.78,0,0,1-3,5.47l6.5-3.77Z"/><path class="cls-2" d="M301.1,303.26l60.65,35a7.89,7.89,0,0,0,7.88,0l60.68-35a12.92,12.92,0,0,0-6.45-11.18l-5.45-3.14c-.33-.21-.67-.39-1-.6L373,262.72a14.52,14.52,0,0,0-14.59,0l-50.85,29.36-.12.09-.12.09A12.83,12.83,0,0,0,301.1,303.26Z"/><path class="cls-24" d="M430.31,303.26a12.92,12.92,0,0,0-6.45-11.18l-5.45-3.14c7.62,4.49,10.76,7.51,5.42,10.58l-54.06,31.22a8.2,8.2,0,0,1-4.06,1.1v7.47a8.19,8.19,0,0,0,4.06-1.09Z"/><path class="cls-20" d="M361.62,330.74c-10.2-5.9-36.84-21.31-47.62-27.48-11.27-6.45-7.75-10.19-6.69-11a12.83,12.83,0,0,0-6.21,11l60.52,35a8.14,8.14,0,0,0,4.09,1.09v-7.47A8.2,8.2,0,0,1,361.62,330.74Z"/><path class="cls-10" d="M347.17,156.72c-.72-.35-3.61-1.81-4.36-2.18-2.54-1.24-5.9-1-9.49,1.09l-32.15,18.53c-7.21,4.16-12.62,14-12.07,22l5.46,80.06,4.36,2.19L357.2,244.8l-5.46-80C351.47,160.76,349.74,158,347.17,156.72Z"/><path class="cls-11" d="M355.18,215.27l-3.44-50.48c-.27-4-2-6.82-4.57-8.07-.72-.35-3.61-1.81-4.36-2.18-2.54-1.24-5.9-1-9.49,1.09l-32.15,18.53A24.87,24.87,0,0,0,292.1,184Z"/><path class="cls-2" d="M347.17,156.73c-2.54-1.25-5.89-1-9.48,1.08l-32.16,18.53c-7.21,4.16-12.61,14-12.07,22l5.46,80.07,6,2.95,58.27-33.63-5.45-80c-.27-3.94-1.94-6.7-4.42-8C352.26,159.22,348.19,157.23,347.17,156.73Z"/><path class="cls-20" d="M296.47,186.15a23.33,23.33,0,0,0-3,12.22l5.46,80.07,6,2.95,58.27-33.63-2-29.52Z"/><path class="cls-21" d="M357.73,167.74c-.27-3.94-1.94-6.7-4.42-8-1.05-.54-5.12-2.53-6.14-3-2.54-1.25-5.89-1-9.48,1.08l-32.16,18.53a25,25,0,0,0-9.06,9.81l64.7,32.09Z"/><path class="cls-2" d="M304.91,281.39l-5.46-80.07c-.55-8,4.86-17.87,12.07-22l32.16-18.53c7.21-4.16,13.5-1,14.05,7l5.45,80Z"/></g><g id="Character-2" data-name="Character"><g id="Bottom"><polygon class="cls-14" points="378.76 364.51 383.49 366.41 381.42 362.21 378.76 364.51"/><path d="M402.68,404S385,347.41,381.79,349.35a5.45,5.45,0,0,0-1.62,1.49c0-.08,0-.16.05-.24l-4.42,5.29s.1,5.09,3,8.62l2.66-2.3a26.61,26.61,0,0,1,1.28,5.24c.59,4.11-.93,8.45-2,14.31-.76,4.27,1.23,8.88,5.19,14.82C390.19,403,395.75,407,398.54,407,400.76,407.06,402.51,404.49,402.68,404Z"/><path class="cls-25" d="M402.63,402c.06-.75.37-3.61.36-7.1,0-3.05.14-6.74-.21-10.25a30,30,0,0,1-.19-5c.13-1.38,2-11.43,3.55-17.27,1.33-5,3.16-8.14,6.78-14.79,4.31-7.91,7.14-13.49,10.23-19.64l-17.78-12.29c-1.74,3.91-5.58,13-8.62,19.38s-2.77,7.85-6.43,9.4c-2.07.88-4.42,1.23-6.16,2.65-2.84,2.31-3.29,6.54-2.49,10.1.65,3,2.21,5.65,2.74,8.62a26.49,26.49,0,0,1-.47,9.43c-.53,2.91-1.61,5.84-1.14,8.83.53,3.32,1.9,5.71,3.58,8.6a47.59,47.59,0,0,0,7.43,9.2C397.87,405.74,402.18,407.48,402.63,402Z"/><path class="cls-14" d="M403.54,397.05c-.08-3.05-.18-7.38-.47-12.46a10.12,10.12,0,0,0-6.15-5.73c-8.51-3.15-13.9-.16-13.9-.16a11.58,11.58,0,0,0,.07,8.71c3.15,9.62,15.16,21.11,18.47,18.37C403.66,404,403.64,400.74,403.54,397.05Zm-11.83-53.52a17.65,17.65,0,0,1-4.3,1.57c-3,.79-5.23,2.43-6.11,5.58-1.17,4.17-.1,7.05,1.27,9.75C390.35,356.92,392.54,347.11,391.71,343.53Z"/><path class="cls-11" d="M412.45,264.5c-18.34-13.08-40.71-26.14-40.71-26.14l-60,6.73,62.1,41.33,29.73,15.67s-1.19,1.35-3.6,11.21c-.64,2.58-3.34,19.82-4.91,25.4,1,9.73,5.39,12.94,13.85,16.31,0,0,7.08-12.21,16.88-29.67,10.51-18.72,10-29.6,9.16-33.94C433.87,285.73,428.34,275.82,412.45,264.5Z"/><path class="cls-10" d="M363.35,271.71c.77.52,6.75,4.69,7.64,5.33,12,8.57,34.21,25.17,36.46,32.41,1.39,4.48,4.37,21.17,7.24,38.11l.12.79s-.71-17.27-1.56-28.23c-1.14-14.56-3.51-17.43-8.35-22.31-5.14-5.16-32.86-24.7-34.64-25.76a13.51,13.51,0,0,0,6.35-10.83A23.15,23.15,0,0,1,363.35,271.71Z"/><polygon class="cls-14" points="407.61 422.15 412.35 420.28 407.96 418.65 407.61 422.15"/><path class="cls-14" d="M452.1,434.36s-51.74-28.89-52.71-25.3a5.39,5.39,0,0,0-.16,2.19l-.13-.21.43,6.89s3.57,3.62,8.08,4.22c0-.33.23-2.35.35-3.5a27.36,27.36,0,0,1,4.53,2.92c3.25,2.59,5.14,6.78,8.41,11.75,2.38,3.62,7,5.6,14,7.19,7.49,1.72,14.29.81,16.34-1.08C452.83,437.93,452.33,434.86,452.1,434.36Z"/><path class="cls-26" d="M450.72,433c-.47-.59-2.21-2.87-4.62-5.41a102.18,102.18,0,0,0-7.2-7.29,29.9,29.9,0,0,1-3.59-3.53c-.85-1.09-6.4-9.67-9.29-15-2.48-4.56-3.48-7.76-5-15.2-1.65-8.18-3-14.45-3.74-20.85l-23.95,2.64c1.42,4,4.87,13.28,7.06,20s3.38,7.61,1.79,11.25c-.9,2.06-2.37,3.93-2.66,6.16-.47,3.63,2.11,7,5.14,9.05,2.51,1.7,5.49,2.58,7.92,4.37a26.75,26.75,0,0,1,6.14,7.17c1.62,2.48,2.84,5.36,5.24,7.2,2.67,2.05,5.3,2.84,8.51,3.78a47.25,47.25,0,0,0,11.72,1.58C449.83,439,454.15,437.26,450.72,433Z"/><path class="cls-10" d="M448,428.75c-2.16-2.16-5.21-5.24-8.91-8.73a10.14,10.14,0,0,0-8.4.07c-8.35,3.56-10.21,9.43-10.21,9.43a11.57,11.57,0,0,0,6.05,6.29c8.89,4.82,25.51,4.91,26,.65C452.86,433.74,450.58,431.36,448,428.75ZM402.59,398a18.29,18.29,0,0,1-2,4.09c-1.64,2.63-2.14,5.36-.61,8.25,2,3.83,4.78,5.19,7.63,6.21C410.81,408.67,405.65,400,402.59,398Z"/><path class="cls-11" d="M310.51,245.44c-2.84,19.62-1.28,30.89,1.27,38.82,3.23,10,11.45,16.83,28.44,24.27,14.39,6.29,28.83,11.61,32.74,13.47s5.19,6.24,7,14a173.65,173.65,0,0,0,11.8,35.05c7.89,17.4,9.52,21.27,9.52,21.27s13,5.36,21.27-2.36c0,0-9.1-59.8-11.54-73.49-1.76-9.93-4.09-14-14.64-22-15.32-11.59-33-22.79-33-22.79s5.55-16.23,1.51-27.77Z"/></g><g id="Top"><path id="Arm" class="cls-25" d="M350.6,165.28c8.15.25,13.83,1.95,19.8,9S398.73,213,398.73,213l-19.68,13.21-20.5-26.27Z"/><g id="Chest"><path class="cls-4" d="M308.54,262.46c.51-11.74,1.54-29.11,1.45-31.64-.58-14.73-4.4-21.59-6.44-27.72-4.44-13.35-2.51-25.52.21-28.78,0,0,12.15-4.89,15.7-6a61.22,61.22,0,0,1,16.13-3c1.51-.11,8.77-.12,8.77-.12,2.22.13,6.24.15,6.24.16a45.83,45.83,0,0,1,11.54,10.48c4.56,5.61,7.44,10.46,10.37,23.66,3.73,16.81,5,31.47,7,43.29C369.72,257.64,331.3,269.65,308.54,262.46Z"/></g><g id="Head"><path class="cls-14" d="M319.08,157.09c.51,1.07,1.46-.23,2.53.37a3.59,3.59,0,0,0,2.76-.18q.74-.24,1.44-.54a23.53,23.53,0,0,0,6.72-4.72c3-2.86,5.58-6.1,8.28-9.22a113.19,113.19,0,0,0,7.67-9.29c1.12-1.6,4.15-4.9,6-8.11,2.52-4.39.85-10.24-1.24-13.24a19.63,19.63,0,0,0-9-6.94c-5.77-2.25-12.2-2.12-18.32-1.17a36.17,36.17,0,0,0-9.9,2.75,18.13,18.13,0,0,0-7.77,6.56,13.49,13.49,0,0,0-2,6.74s-3.41,2.82-2.93,9.17a31.17,31.17,0,0,0,3.15,10.78C308.13,143,317.75,154.29,319.08,157.09Z"/><path class="cls-14" d="M302.76,137.81c-3.1,4.09-3.21,11.15-.84,15.34a12.92,12.92,0,0,0,8.56,6.2c3.81.77,8.24.27,10.77-3,2-2.62,2.6-6.84,2.33-10.07a13.69,13.69,0,0,0-3.81-8.32c-3.86-4-10.39-5.28-15.13-2A8.16,8.16,0,0,0,302.76,137.81Z"/><path class="cls-26" d="M355.4,137c1.78,11.5-1.77,16.82-5,19.76-1.85,1.67-5.76,3-9,3.29l.54,3.78c.07.5.13,1,.19,1.38,8.35,6.69-15.51,13.35-22.69,3.08a4.24,4.24,0,0,0,.5-3c-.18-2.27-1.51-13.63-1.51-13.63,0,.85-4.69,3.85-8.52-.45-3.48-3.92-4.26-8.79-2.3-12,2.17-3.49,7.64-3.78,10.27,1.39,3.18-.41,3.49-2.42,2.28-6.92-.38-1.41,1.12-3.38,1.72-4.54,1-1.89,2-2.57,2.08-4.7a18.42,18.42,0,0,0,15.17-5.26,18.49,18.49,0,0,1-3.75,5.1,16.32,16.32,0,0,0,8.65-1.92,11.91,11.91,0,0,0,5.62-6.72C353.4,122.55,354.21,129.29,355.4,137Z"/><path class="cls-25" d="M334.92,146l7.35,1.66a3.7,3.7,0,0,1-4.43,3A3.94,3.94,0,0,1,334.92,146Z"/><path class="cls-27" d="M335.52,147.59a4.15,4.15,0,0,1,4.4,2.86,3.57,3.57,0,0,1-2.08.16,3.86,3.86,0,0,1-2.87-2.9C335.15,147.67,335.33,147.62,335.52,147.59Z"/><path class="cls-14" d="M351,128.26,346,127a2.47,2.47,0,0,1,3-1.91A2.71,2.71,0,0,1,351,128.26Z"/><path class="cls-14" d="M329.26,131.73l4.25-3A2.5,2.5,0,0,0,330,128,2.75,2.75,0,0,0,329.26,131.73Z"/><path class="cls-14" d="M346.34,132.32a2.21,2.21,0,0,0,2.17,2.16,2.06,2.06,0,0,0,2.12-2.09,2.21,2.21,0,0,0-2.17-2.16A2.06,2.06,0,0,0,346.34,132.32Z"/><path class="cls-14" d="M331.17,134.44a2.2,2.2,0,0,0,2.17,2.16,2.06,2.06,0,0,0,2.12-2.09,2.2,2.2,0,0,0-2.17-2.15A2.06,2.06,0,0,0,331.17,134.44Z"/><polygon class="cls-25" points="348.27 139.06 341.8 142.87 339.29 129.97 348.27 139.06"/><path class="cls-25" d="M341.44,160.2c-6.06.35-16-.62-20.3-8.26a14.66,14.66,0,0,0,5.09,8c4.81,3.73,15.62,3.15,15.62,3.15Z"/></g><g id="Head_Phones" data-name="Head Phones"><path class="cls-6" d="M391.44,230s-2.85,5.12-2.12,21c.39,8.46-3.24,15.74-9.47,19a14.06,14.06,0,0,1-4.19,1.43,14.5,14.5,0,0,1-11.41-3.06c-6.79-5.17-8.68-16.5-10.06-24.76-.13-.77-.26-1.51-.38-2.21-.8-4.6-1.88-12.21-2.95-19.58-.78-5.48-1.52-10.65-2.07-14.07-1.23-.9-14.83-11-22.83-24.77a75.78,75.78,0,0,1-6.43-14.64s0-.08,0-.14a130.51,130.51,0,0,1-3.75-15c-.26-1.34-.52-2.67-.76-4l.56-.09c.24,1.29.49,2.6.74,3.93a131.79,131.79,0,0,0,3.57,14.39c.22.67.44,1.35.67,2a73.52,73.52,0,0,0,5.94,13.2c7.55,13,20.14,22.71,22.41,24.4.64-3.39,4.62-26.09-1-48.84l.51-.24c6.06,24.26,1.2,48.49,1,49.56.55,3.43,1.3,8.64,2.09,14.16,1.05,7.35,2.15,14.95,2.95,19.55.12.71.25,1.44.37,2.22,1.37,8.17,3.24,19.37,9.86,24.4,4.66,3.55,10.13,4.12,15,1.57,6-3.16,9.55-10.25,9.16-18.48-.73-16.1,2.08-21.12,2.2-21.32Z"/><path class="cls-13" d="M315.86,145.57a2.39,2.39,0,0,0-.58-1.4,2.36,2.36,0,0,0-2.29-.76,2.39,2.39,0,0,0-1.63,3.43,2.37,2.37,0,0,0,2,1.28,1.16,1.16,0,0,1,1,.83l.06.22a.86.86,0,0,0,.89.61l.28,0c.41,0,.58-.27.55-.69s-.26-3.5-.26-3.5Z"/></g><g id="Tablet"><path class="cls-11" d="M402.47,194.89h0l-1.58-1v0a1.6,1.6,0,0,0-1.48,0l-16,6.8a5.67,5.67,0,0,0-3,3.68l-6.8,33.37a1.48,1.48,0,0,0,.42,1.61h0l1.63,1.07v0a1.64,1.64,0,0,0,1.5,0l16-6.8a5.71,5.71,0,0,0,3-3.68L403,196.54C403.14,195.72,402.93,195.15,402.47,194.89Z"/><path class="cls-11" d="M383.44,202.85a5.55,5.55,0,0,0-1.47,2.58l-6.81,33.37a1.52,1.52,0,0,0,.36,1.57l-1.53-1v0a1.44,1.44,0,0,1-.42-1.6l6.81-33.38a5.41,5.41,0,0,1,1.34-2.43Z"/><path class="cls-14" d="M375.16,238.8,382,205.43a5.73,5.73,0,0,1,3-3.69L401,195c1.37-.58,2.24.13,2,1.59l-6.81,33.38a5.71,5.71,0,0,1-3,3.68l-16,6.8C375.74,241,374.87,240.26,375.16,238.8Z"/><path class="cls-11" d="M382.88,212.11l1.27-6.24a1.09,1.09,0,0,1,.57-.69l2.77-1.17c.26-.1.42,0,.37.3l-1.28,6.25a1.08,1.08,0,0,1-.56.69l-2.78,1.16C383,212.52,382.82,212.39,382.88,212.11Z"/><path class="cls-14" d="M384.49,207.28a2.66,2.66,0,0,1,1.44-1.71c.67-.28,1.1,0,1,.7a2.73,2.73,0,0,1-1.45,1.71C384.78,208.25,384.35,207.94,384.49,207.28Z"/><path class="cls-14" d="M383.88,210.42a2.69,2.69,0,0,1,1.45-1.7c.66-.28,1.09,0,.95.69a2.66,2.66,0,0,1-1.44,1.71C384.17,211.4,383.74,211.09,383.88,210.42Z"/><path class="cls-26" d="M402.11,215.14c1.42-2.26,1.26-2.54.35-3.59a6.82,6.82,0,0,0-5.74-2.49c-1.9.17-3.82.26-4.77.83s0,2.58,2.53,3c4,.63,4,1.69,4,1.69a49.83,49.83,0,0,0-5.11-.56c-1.45,0-4,.87-5.68,1.23s-1.82,2.51,1,3.07l-3,.67c-2.09.48-2.74,1.65-1,2.85a3.14,3.14,0,0,0,2,.6s-2.25.14-2.25.89c0,2.16,1.43,2.64,6.07,3.67,4.42,1,5.46,3.27,4.71,4.93,0,0,1.68-1.13,3.17-2.3,1.09-.86,2-1.81,1.37-3.56,0,0,2.49-.11,2.54-1.65a7.83,7.83,0,0,0-.81-3.25,2.7,2.7,0,0,0,1.21-2.63,4.36,4.36,0,0,0-1.07-2.64Z"/><path class="cls-25" d="M388.72,218.3a13.43,13.43,0,0,1,2.73-.47,8.77,8.77,0,0,1,2.71.67,32.91,32.91,0,0,1,4.95,2.26,32.89,32.89,0,0,1-5.22-1.5,14.6,14.6,0,0,0-2.48-.81C390.58,218.37,389.62,218.41,388.72,218.3Z"/><path class="cls-25" d="M386.69,222.42a6.1,6.1,0,0,1,3-.28,15.56,15.56,0,0,1,2.88.72,27.73,27.73,0,0,1,5.35,2.43,56.65,56.65,0,0,1-5.6-1.67A15.5,15.5,0,0,0,386.69,222.42Z"/></g><g id="Arm-2" data-name="Arm"><path class="cls-26" d="M327.08,231.36,316,199.19s-3.7-19.69-12.23-24.86c-8.17,3.85-9.8,9.31-11.07,15-1.65,7.4-.28,13.91,5.3,31.09C302.7,235,307,244,310.09,249.1c3.87,6.28,9.91,5.82,20.15,3.49s16.53-4.4,30.53-8.81c6.74-2.12,10.08-4.28,15.48-7a22.16,22.16,0,0,0,5.67-3.85,13,13,0,0,0,3.49-5.16,3.67,3.67,0,0,1,.42-1.07,8.72,8.72,0,0,1,.74-.87,7.55,7.55,0,0,0,1.35-1.68,11.85,11.85,0,0,0,.65-2.2,7.69,7.69,0,0,1,.27-1,6,6,0,0,1,.53-1,8.16,8.16,0,0,0,1.34-2.52,1.48,1.48,0,0,0-.4-1.39s.83-.92,1.09-1.24a8,8,0,0,0,1-1.49.81.81,0,0,0,.11-.67.86.86,0,0,0-.28-.29c-1.81-1.22-3.81-.23-5.46.75-4.29,2.58-6.44,5.08-11,7.18-2.49,1.14-3.12,1.39-4.09,1.26-1.39-.57,2.59-5.82,2.31-9.6-.13-1.87-2.2-3.83-3.3-1.47-2.3,5-4.77,6.57-6.63,9.49s-3.75,4.83-8.34,7.31C350.77,229.89,327.08,231.36,327.08,231.36Z"/><path class="cls-25" d="M327.08,231.36c-5.57-.4-11.84,2.6-11.84,2.6a21.85,21.85,0,0,1,11.25-4.27Z"/><path class="cls-25" d="M390.24,216.28a36.84,36.84,0,0,1-2.58,2.72c-.89.88-1.8,1.73-2.69,2.59-.45.42-.88.88-1.36,1.3s-1,.81-1.47,1.18c-1,.75-2,1.46-3.09,2.11l1.44-1.2,1.43-1.19c.47-.41.94-.81,1.39-1.23s.88-.87,1.33-1.3c.91-.87,1.83-1.71,2.78-2.52Z"/><path class="cls-25" d="M388.9,220.75a15.14,15.14,0,0,1-1.64,2.42c-.61.74-1.27,1.44-1.94,2.13s-1.37,1.35-2.09,2a21.78,21.78,0,0,1-2.27,1.79c.69-.68,1.34-1.37,2-2l2-2.05,2-2C387.65,222.23,388.29,221.49,388.9,220.75Z"/></g></g></g></g><g id="Speech_Bubble" data-name="Speech Bubble"><g id="Speech_Bubble-2" data-name="Speech Bubble"><g id="Bubble"><path class="cls-2" d="M82.64,35.72c-3.89-2.21-9.24-1.88-15.16,1.54-11.89,6.87-21.54,23.57-21.54,37.3,0,6.87,2.41,11.69,6.31,13.94l7.35,4.23c3.9,2.24,9.28,1.92,15.22-1.51,11.89-6.87,21.54-23.57,21.54-37.31,0-6.85-2.4-11.66-6.28-13.92C88.45,39.05,84.29,36.65,82.64,35.72Z"/><path class="cls-24" d="M46.74,67.43a34.1,34.1,0,0,0-.8,7.13c0,6.87,2.41,11.69,6.31,13.94l7.35,4.23c3.9,2.24,9.28,1.92,15.22-1.51A35.06,35.06,0,0,0,80.59,87Z"/><path class="cls-2" d="M90.06,75.13c3.89-6.75,6.3-14.35,6.3-21.22,0-13.73-9.65-19.3-21.54-12.43S53.28,65.05,53.28,78.78s9.64,19.31,21.54,12.44a37.55,37.55,0,0,0,8.41-6.82L92,86a1.44,1.44,0,0,0,1.6-2Z"/><path class="cls-28" d="M90.06,75.13c3.89-6.75,6.3-14.35,6.3-21.22,0-13.73-9.65-19.3-21.54-12.43S53.28,65.05,53.28,78.78s9.64,19.31,21.54,12.44a37.55,37.55,0,0,0,8.41-6.82L92,86a1.44,1.44,0,0,0,1.6-2Z"/></g><g id="Alert"><path class="cls-13" d="M72.57,52.74l-9.5,27.45c-1,2.86.34,4,3,2.44L82.72,73a5.51,5.51,0,0,0,2-7.52l-7.6-13.17C75.61,49.68,73.56,49.88,72.57,52.74Z"/><path class="cls-11" d="M75.41,69.15,74,70a.31.31,0,0,1-.51-.27l-.59-10.86a1,1,0,0,1,.45-.83l2.74-1.58c.27-.15.47,0,.45.27l-.59,11.61A1.15,1.15,0,0,1,75.41,69.15Z"/><path class="cls-11" d="M74.68,75c-.92.53-1.48-.16-1.48-1.12A3.51,3.51,0,0,1,74.68,71c.93-.53,1.48.16,1.48,1.12A3.52,3.52,0,0,1,74.68,75Z"/></g></g></g></svg>