<svg xmlns="http://www.w3.org/2000/svg" viewBox="0 0 500 500"><defs><style>.cls-1{isolation:isolate;}.cls-2,.cls-4{opacity:0.3;}.cls-10,.cls-12,.cls-15,.cls-3,.cls-7{fill:none;stroke-miterlimit:10;}.cls-10,.cls-3{stroke:#2c54ac;}.cls-3{stroke-width:1.05px;stroke-dasharray:4.32 4.32;}.cls-4{fill:#9ddcf9;}.cls-5{opacity:0.4;}.cls-14,.cls-5{mix-blend-mode:multiply;}.cls-6{fill:#55a3f3;}.cls-7{stroke:#55a3f3;stroke-width:1.05px;}.cls-8{fill:#2c54ac;}.cls-9{fill:#fff;}.cls-10{stroke-width:0.92px;}.cls-11{fill:#0a2a6b;}.cls-12,.cls-15{stroke:#0a2a6b;}.cls-12{stroke-width:1.17px;}.cls-13,.cls-14{fill:#ff8775;}.cls-16{opacity:0.31;}.cls-17{opacity:0.29;}</style></defs><g class="cls-1"><g id="BACKGROUND"><g class="cls-2"><path class="cls-3" d="M137.77,442.18c21.31-.24,41.82-7.34,62.75-11.2a208.43,208.43,0,0,1,76.06.12c26.55,5,52.1,15.15,79.06,17.21,45,3.43,81.08-18,106.5-54.12s29.08-85.53,9.25-124.79c-6.75-13.36-15.95-25.52-22-39.19C429.59,185.34,462.65,113,432.35,74c-16.51-21.26-44.29-32.47-71.73-34.07S305.9,51.36,280.26,61c-24.72,9.27-57.83,30.55-83.78,25.29C178.41,82.59,163.16,71,145.63,65.36c-37.28-12-80.5,6.62-102.33,38.21S18.92,176.64,29.46,213.24c6.33,22,17.13,43.34,17.19,66.17.05,15-4.57,29.58-7.07,44.38C29.92,381.15,75.1,442.87,137.77,442.18Z"/></g><path class="cls-4" d="M113.43,425.67c21.16,2.41,42.44-2.09,63.71-3.33a208.37,208.37,0,0,1,75.42,9.56c25.67,8.24,49.65,21.49,76.12,26.87,44.21,9,82.72-16.67,112.71-49.35s40.19-81.22,25.72-122.61c-4.92-14.09-12.43-27.29-16.61-41.6-13.7-47,25.83-95.67,5.41-140.51C444.8,80.3,421.8,64.34,394.8,59.35s-64-1.4-90.69,4.95C278.36,70.42,243.89,88.4,218.84,80c-17.43-5.87-31-19.28-47.65-27-35.39-16.5-80.72-3.42-106.56,25.2S30.76,147.59,36.36,185.19c3.37,22.61,11.24,45.1,8.28,67.76-1.94,14.87-8.46,28.77-12.89,43.13C14.55,351.77,51.17,418.58,113.43,425.67Z"/></g><g id="OBJECTS"><g class="cls-5"><path class="cls-6" d="M453.51,209.25l-.83-4.14a19.07,19.07,0,0,1-.34-6.72,16.31,16.31,0,0,1,1.59-5,38.11,38.11,0,0,1,2.41-4,44.5,44.5,0,0,0,3-4.62,7.61,7.61,0,0,0,.63-5.37,4.86,4.86,0,0,0-1.45-2.72,6.49,6.49,0,0,0-2.44-1.42,5,5,0,0,0-2.51-.18,6.62,6.62,0,0,0-3.58,1.82,8.73,8.73,0,0,0-1.95,3.2,23,23,0,0,0-1,3.77l-9.83-2.4a24,24,0,0,1,.91-3.93,20,20,0,0,1,2.44-5,18.34,18.34,0,0,1,4.65-4.76,19,19,0,0,1,7.47-3,20.51,20.51,0,0,1,8.32-.09,13,13,0,0,1,6.61,3.54,15.06,15.06,0,0,1,3.78,7.9,17.62,17.62,0,0,1,.23,7.19,16.31,16.31,0,0,1-2,5.07c-.9,1.46-1.81,2.9-2.71,4.33a27.72,27.72,0,0,0-2,3.44,13,13,0,0,0-1.16,4.09,16.31,16.31,0,0,0,.32,5.22l.33,1.64Zm8.79,15.38a7,7,0,0,1-4.91-.6,5.07,5.07,0,0,1-2.61-3.66,5.3,5.3,0,0,1,1-4.43,6.73,6.73,0,0,1,4.23-2.56,6.49,6.49,0,0,1,4.83.73,5.44,5.44,0,0,1,2.57,3.71,5.2,5.2,0,0,1-.9,4.37A6.73,6.73,0,0,1,462.3,224.63Z"/><path class="cls-6" d="M46.65,269.41l-1.6-3.49a17.59,17.59,0,0,1-1.7-5.89,14.75,14.75,0,0,1,.37-4.77,33.44,33.44,0,0,1,1.31-4,44.2,44.2,0,0,0,1.67-4.72,7,7,0,0,0-.56-4.89,4.44,4.44,0,0,0-1.85-2.11,5.86,5.86,0,0,0-2.46-.75,4.63,4.63,0,0,0-2.27.36,6,6,0,0,0-2.79,2.36,8,8,0,0,0-1.07,3.25,21,21,0,0,0-.09,3.55l-9.22-.09a23.07,23.07,0,0,1,0-3.67,18.48,18.48,0,0,1,1.11-5,16.77,16.77,0,0,1,3.14-5.19,17.27,17.27,0,0,1,6-4.26A18.72,18.72,0,0,1,44,228.28a11.78,11.78,0,0,1,6.6,1.76,13.69,13.69,0,0,1,5,6.22,16.24,16.24,0,0,1,1.7,6.32,15.05,15.05,0,0,1-.7,4.92c-.5,1.48-1,2.94-1.5,4.4a25.38,25.38,0,0,0-1,3.46,11.79,11.79,0,0,0-.18,3.87,14.63,14.63,0,0,0,1.37,4.56l.63,1.39Zm11,11.81a6.41,6.41,0,0,1-4.49.5A4.63,4.63,0,0,1,50.1,279a4.86,4.86,0,0,1,0-4.15,6.14,6.14,0,0,1,3.23-3.15,5.81,5.81,0,0,1,4.43-.35,5,5,0,0,1,3.06,2.75,4.74,4.74,0,0,1,.1,4.06A6.08,6.08,0,0,1,57.66,281.22Z"/><path class="cls-6" d="M258.45,51.43l.48-3.19a14.71,14.71,0,0,1,1.52-4.93,12.32,12.32,0,0,1,2.45-3.18,28.43,28.43,0,0,1,2.78-2.24A36.63,36.63,0,0,0,269,35.34a5.84,5.84,0,0,0,1.85-3.7,3.77,3.77,0,0,0-.33-2.34,5,5,0,0,0-1.38-1.66,3.93,3.93,0,0,0-1.77-.79,5.09,5.09,0,0,0-3,.38A6.65,6.65,0,0,0,262.11,29a18.23,18.23,0,0,0-1.7,2.46L254,27.17a19.34,19.34,0,0,1,1.68-2.58,15.21,15.21,0,0,1,3.08-3,14.2,14.2,0,0,1,4.59-2.21,14.6,14.6,0,0,1,6.18-.24,15.77,15.77,0,0,1,6,2.11,9.9,9.9,0,0,1,3.83,4.28,11.56,11.56,0,0,1,.66,6.68,13.49,13.49,0,0,1-1.71,5.23,12.32,12.32,0,0,1-2.76,3.14L272.44,43a21.74,21.74,0,0,0-2.3,2,9.89,9.89,0,0,0-1.91,2.65,12.46,12.46,0,0,0-1.14,3.84l-.19,1.27Zm2.31,13.38a5.38,5.38,0,0,1-3.39-1.72,3.94,3.94,0,0,1-.92-3.31,4.08,4.08,0,0,1,1.9-2.93,5.12,5.12,0,0,1,3.72-.73,4.9,4.9,0,0,1,3.28,1.79,4.14,4.14,0,0,1,.88,3.34,4,4,0,0,1-1.79,2.91A5.15,5.15,0,0,1,260.76,64.81Z"/><path class="cls-6" d="M230.22,88.07l-.49-2.58a12.1,12.1,0,0,1-.16-4.18,10.22,10.22,0,0,1,1-3.09,21.85,21.85,0,0,1,1.52-2.45A29.18,29.18,0,0,0,234,72.92a4.8,4.8,0,0,0,.43-3.34,3.06,3.06,0,0,0-.88-1.7,4,4,0,0,0-1.5-.9,3.15,3.15,0,0,0-1.56-.13,4.1,4.1,0,0,0-2.24,1.1,5.4,5.4,0,0,0-1.24,2,14.49,14.49,0,0,0-.65,2.34l-6.09-1.57a14.5,14.5,0,0,1,.6-2.43,12.28,12.28,0,0,1,1.56-3.12,11.24,11.24,0,0,1,2.92-2.92A11.87,11.87,0,0,1,230,60.38a12.83,12.83,0,0,1,5.17,0,8,8,0,0,1,4.08,2.26,9.27,9.27,0,0,1,2.29,4.94,11,11,0,0,1,.09,4.47,10,10,0,0,1-1.28,3.13q-.85,1.35-1.71,2.67A18.14,18.14,0,0,0,237.44,80a8.18,8.18,0,0,0-.76,2.54,10.56,10.56,0,0,0,.16,3.25l.19,1Zm5.34,9.63a4.37,4.37,0,0,1-3.05-.4,3.17,3.17,0,0,1-1.59-2.3,3.33,3.33,0,0,1,.66-2.75,4.25,4.25,0,0,1,2.66-1.56,4,4,0,0,1,3,.5,3.37,3.37,0,0,1,1.57,2.32,3.21,3.21,0,0,1-.6,2.71A4.13,4.13,0,0,1,235.56,97.7Z"/><path class="cls-6" d="M285.46,87.87l.47-1.88a8.7,8.7,0,0,1,1.19-2.85,7.33,7.33,0,0,1,1.64-1.76,17.18,17.18,0,0,1,1.79-1.18,21.29,21.29,0,0,0,2.14-1.33,3.49,3.49,0,0,0,1.32-2.1,2.17,2.17,0,0,0-.07-1.41,2.87,2.87,0,0,0-.73-1.07,2.35,2.35,0,0,0-1-.57,3,3,0,0,0-1.84,0,3.87,3.87,0,0,0-1.44.94,10.83,10.83,0,0,0-1.15,1.37l-3.6-2.94a10.48,10.48,0,0,1,1.15-1.44,9,9,0,0,1,2-1.62,8.37,8.37,0,0,1,2.87-1,8.5,8.5,0,0,1,3.7.21,9.28,9.28,0,0,1,3.46,1.6,5.86,5.86,0,0,1,2,2.77,6.91,6.91,0,0,1,0,4,8.27,8.27,0,0,1-1.32,3,7.71,7.71,0,0,1-1.82,1.72l-2,1.26a12.82,12.82,0,0,0-1.48,1,5.78,5.78,0,0,0-1.29,1.47,7.2,7.2,0,0,0-.9,2.23l-.19.74Zm.62,8.11a3.21,3.21,0,0,1-1.92-1.22,2.33,2.33,0,0,1-.36-2,2.41,2.41,0,0,1,1.29-1.63,3.09,3.09,0,0,1,2.27-.23,2.94,2.94,0,0,1,1.85,1.25,2.52,2.52,0,0,1,.34,2,2.38,2.38,0,0,1-1.24,1.63A3.1,3.1,0,0,1,286.08,96Z"/><path class="cls-6" d="M430.28,262.47l.42-2.59a11.87,11.87,0,0,1,1.27-4,10,10,0,0,1,2-2.56,23.09,23.09,0,0,1,2.26-1.78,32.55,32.55,0,0,0,2.74-2,4.74,4.74,0,0,0,1.53-3,3,3,0,0,0-.24-1.89,4,4,0,0,0-1.11-1.36,3.24,3.24,0,0,0-1.42-.65,4.2,4.2,0,0,0-2.48.27,5.42,5.42,0,0,0-1.83,1.44,13.31,13.31,0,0,0-1.4,2l-5.19-3.55a15.18,15.18,0,0,1,1.39-2.08,12.14,12.14,0,0,1,2.52-2.4,11.35,11.35,0,0,1,3.74-1.75,11.65,11.65,0,0,1,5-.14,12.57,12.57,0,0,1,4.85,1.76,7.94,7.94,0,0,1,3.07,3.5,9.28,9.28,0,0,1,.48,5.41,11.19,11.19,0,0,1-1.43,4.23,10.1,10.1,0,0,1-2.26,2.52q-1.26,1-2.52,1.92a18.1,18.1,0,0,0-1.88,1.58,8,8,0,0,0-1.57,2.12,9.85,9.85,0,0,0-.95,3.1l-.17,1ZM432,273.32a4.36,4.36,0,0,1-2.73-1.42,3.17,3.17,0,0,1-.72-2.69,3.36,3.36,0,0,1,1.56-2.36,4.2,4.2,0,0,1,3-.56,4,4,0,0,1,2.65,1.48,3.36,3.36,0,0,1,.68,2.72,3.21,3.21,0,0,1-1.48,2.34A4.14,4.14,0,0,1,432,273.32Z"/><path class="cls-6" d="M58.37,211.22l-.06-2.59a11.56,11.56,0,0,1,.5-4.09,9.86,9.86,0,0,1,1.49-2.85,22.54,22.54,0,0,1,1.87-2.15,28.29,28.29,0,0,0,2.28-2.48,4.64,4.64,0,0,0,.94-3.18,3,3,0,0,0-.58-1.79A3.92,3.92,0,0,0,63.48,191a3.15,3.15,0,0,0-1.5-.38,4.1,4.1,0,0,0-2.35.73,5.36,5.36,0,0,0-1.52,1.72,14.28,14.28,0,0,0-1,2.18l-5.68-2.49a15.43,15.43,0,0,1,1-2.27,12.11,12.11,0,0,1,2-2.79,11.41,11.41,0,0,1,3.31-2.39,11.72,11.72,0,0,1,4.84-1,12.52,12.52,0,0,1,5,.82,7.84,7.84,0,0,1,3.61,2.83,9.23,9.23,0,0,1,1.46,5.17,10.79,10.79,0,0,1-.62,4.36,10,10,0,0,1-1.73,2.86c-.7.78-1.39,1.56-2.09,2.33a17,17,0,0,0-1.54,1.87,8.13,8.13,0,0,0-1.13,2.35,10.19,10.19,0,0,0-.36,3.19l0,1Zm3.7,10.21a4.27,4.27,0,0,1-2.91-.87A3.13,3.13,0,0,1,58,218.07a3.26,3.26,0,0,1,1.08-2.57,4.15,4.15,0,0,1,2.83-1.1,4,4,0,0,1,2.83.95,3.38,3.38,0,0,1,1.17,2.51,3.2,3.2,0,0,1-1,2.55A4.11,4.11,0,0,1,62.07,221.43Z"/></g><circle class="cls-6" cx="106.24" cy="101.59" r="70.43" transform="translate(-20.34 176.32) rotate(-74.28)"/><ellipse class="cls-7" cx="106.41" cy="101.42" rx="76.89" ry="70.43" transform="matrix(0.72, -0.69, 0.69, 0.72, -40.59, 101.85)"/><polygon class="cls-6" points="100.18 168.67 129.13 193.69 115.88 159.15 100.18 168.67"/><path class="cls-8" d="M105.49,125.61l-1.73-6.51a30.69,30.69,0,0,1-1.2-10.66,26,26,0,0,1,2-8.11,59.24,59.24,0,0,1,3.45-6.57,75.15,75.15,0,0,0,4.28-7.65,12.18,12.18,0,0,0,.47-8.6,7.81,7.81,0,0,0-2.56-4.19,10.46,10.46,0,0,0-4-2,8.1,8.1,0,0,0-4,0,10.55,10.55,0,0,0-5.51,3.24,13.86,13.86,0,0,0-2.8,5.28,38,38,0,0,0-1.21,6.11l-3.34.89L76.8,83a40.67,40.67,0,0,1,1.07-6.33,31.86,31.86,0,0,1,3.39-8.27,29.3,29.3,0,0,1,6.94-8A30.26,30.26,0,0,1,99.8,54.8,32.67,32.67,0,0,1,113,53.85a20.48,20.48,0,0,1,10.86,5q4.65,4.09,6.8,12.19a28.23,28.23,0,0,1,1.06,11.42,25.6,25.6,0,0,1-2.66,8.27q-1.94,3.61-3.88,7.15a43.88,43.88,0,0,0-2.77,5.67,20.6,20.6,0,0,0-1.45,6.63,26.47,26.47,0,0,0,1,8.28l.69,2.57ZM121,149.23a11.18,11.18,0,0,1-7.88-.47,8.15,8.15,0,0,1-4.51-5.57,8.51,8.51,0,0,1,1.19-7.15,10.72,10.72,0,0,1,6.49-4.49,10.3,10.3,0,0,1,7.75.7,8.65,8.65,0,0,1,4.46,5.65,8.29,8.29,0,0,1-1,7A10.63,10.63,0,0,1,121,149.23Z"/><path class="cls-9" d="M102.15,126.5,100.41,120a30.39,30.39,0,0,1-1.19-10.66,25.82,25.82,0,0,1,2-8.11,57.58,57.58,0,0,1,3.44-6.57A73.27,73.27,0,0,0,109,87a12.12,12.12,0,0,0,.47-8.6,7.75,7.75,0,0,0-2.56-4.19,10.46,10.46,0,0,0-4-2,8.06,8.06,0,0,0-4,0,10.58,10.58,0,0,0-5.52,3.24,14,14,0,0,0-2.8,5.28,38,38,0,0,0-1.2,6.11L73.45,83.9a39.71,39.71,0,0,1,1.08-6.33,31.86,31.86,0,0,1,3.39-8.27,29.26,29.26,0,0,1,6.93-8,30.33,30.33,0,0,1,11.6-5.59,32.72,32.72,0,0,1,13.23-.95,20.52,20.52,0,0,1,10.86,5q4.63,4.09,6.79,12.19a28.26,28.26,0,0,1,1.07,11.42,26.09,26.09,0,0,1-2.66,8.27q-1.93,3.61-3.89,7.15a45.19,45.19,0,0,0-2.76,5.67,20.61,20.61,0,0,0-1.46,6.63,26.18,26.18,0,0,0,1,8.28l.69,2.57Zm15.49,23.62a11.21,11.21,0,0,1-7.89-.47,8.11,8.11,0,0,1-4.5-5.57,8.51,8.51,0,0,1,1.18-7.15,10.74,10.74,0,0,1,6.5-4.49,10.3,10.3,0,0,1,7.75.7,8.68,8.68,0,0,1,4.46,5.65,8.29,8.29,0,0,1-1,7A10.68,10.68,0,0,1,117.64,150.12Z"/><circle class="cls-8" cx="388.77" cy="90.23" r="73.23" transform="translate(-9.93 108.08) rotate(-15.63)"/><ellipse class="cls-10" cx="389.02" cy="90.23" rx="79.94" ry="73.23"/><polygon class="cls-8" points="417.19 152.81 398.87 188.12 398.36 149.66 417.19 152.81"/><path class="cls-6" d="M382.79,112l.33-6.73a30.81,30.81,0,0,1,2.11-10.52,25.69,25.69,0,0,1,4.43-7.09,57.3,57.3,0,0,1,5.28-5.21,76.64,76.64,0,0,0,6.4-6,12.13,12.13,0,0,0,3.07-8.06,7.64,7.64,0,0,0-1.16-4.76A10.18,10.18,0,0,0,400,60.49a7.88,7.88,0,0,0-3.81-1.27A10.56,10.56,0,0,0,390,60.63a13.84,13.84,0,0,0-4.28,4.17,38,38,0,0,0-3,5.45l-3.45-.17-10.8-7.4A40,40,0,0,1,371.39,57a31.86,31.86,0,0,1,5.75-6.84,29.06,29.06,0,0,1,9.05-5.53,30.3,30.3,0,0,1,12.75-1.79,32.78,32.78,0,0,1,12.88,3.12A20.59,20.59,0,0,1,420.65,54q3.17,5.31,2.76,13.69a28.5,28.5,0,0,1-2.47,11.2A25.73,25.73,0,0,1,415.88,86q-2.94,2.85-5.87,5.63a47.31,47.31,0,0,0-4.36,4.55,20.68,20.68,0,0,0-3.41,5.88,26.4,26.4,0,0,0-1.55,8.19l-.13,2.67Zm7.56,27.21a11.18,11.18,0,0,1-7.37-2.84,8.15,8.15,0,0,1-2.59-6.68,8.5,8.5,0,0,1,3.31-6.45,10.7,10.7,0,0,1,7.55-2.3,10.28,10.28,0,0,1,7.17,3A8.68,8.68,0,0,1,401,130.7a8.32,8.32,0,0,1-3.12,6.39A10.64,10.64,0,0,1,390.35,139.2Z"/><path class="cls-9" d="M379.33,111.81l.34-6.72a30.57,30.57,0,0,1,2.11-10.52,25.88,25.88,0,0,1,4.42-7.1,60,60,0,0,1,5.28-5.21,75.2,75.2,0,0,0,6.41-6,12.13,12.13,0,0,0,3.07-8,7.71,7.71,0,0,0-1.17-4.76,10.25,10.25,0,0,0-3.21-3.15,8,8,0,0,0-3.82-1.27,10.52,10.52,0,0,0-6.24,1.4,14.09,14.09,0,0,0-4.28,4.18,38.91,38.91,0,0,0-3,5.45L365,62.5a39.73,39.73,0,0,1,3-5.7A31.32,31.32,0,0,1,373.68,50a29.17,29.17,0,0,1,9.05-5.53,30.3,30.3,0,0,1,12.75-1.79,32.83,32.83,0,0,1,12.89,3.12,20.56,20.56,0,0,1,8.82,8.07q3.18,5.31,2.76,13.69a28.33,28.33,0,0,1-2.46,11.2,26,26,0,0,1-5.06,7.06c-2,1.9-3.92,3.77-5.88,5.63A46.17,46.17,0,0,0,402.19,96a20.91,20.91,0,0,0-3.41,5.88,26.4,26.4,0,0,0-1.55,8.19l-.13,2.66ZM386.89,139a11.2,11.2,0,0,1-7.36-2.84,8.16,8.16,0,0,1-2.6-6.68,8.49,8.49,0,0,1,3.31-6.45,10.72,10.72,0,0,1,7.56-2.3,10.23,10.23,0,0,1,7.16,3,8.68,8.68,0,0,1,2.53,6.75,8.27,8.27,0,0,1-3.12,6.39A10.67,10.67,0,0,1,386.89,139Z"/><circle class="cls-11" cx="249.99" cy="169.49" r="57.25" transform="translate(-21.87 37.91) rotate(-8.31)"/><ellipse class="cls-12" cx="250.46" cy="169.84" rx="62.36" ry="57.25" transform="translate(-38.98 81.51) rotate(-17.17)"/><polygon class="cls-11" points="251.67 224.03 267.92 244.23 265.93 219.63 251.67 224.03"/><path class="cls-6" d="M247.11,188.71l-.68-5.42a24.66,24.66,0,0,1,.21-8.7,20.88,20.88,0,0,1,2.53-6.3,46,46,0,0,1,3.49-4.9,60.26,60.26,0,0,0,4.27-5.69,9.77,9.77,0,0,0,1.32-6.86,6.3,6.3,0,0,0-1.6-3.65,8.35,8.35,0,0,0-3-2.06,6.47,6.47,0,0,0-3.23-.48,8.59,8.59,0,0,0-4.79,2,11.23,11.23,0,0,0-2.83,3.94,30.48,30.48,0,0,0-1.63,4.77l-2.79.35-9.67-4.39a31.05,31.05,0,0,1,1.56-5,25.71,25.71,0,0,1,3.62-6.27,23.58,23.58,0,0,1,6.46-5.7,24.54,24.54,0,0,1,9.93-3.22,26.57,26.57,0,0,1,10.74.68,16.69,16.69,0,0,1,8.19,5.2q3.29,3.79,4.13,10.55a23,23,0,0,1-.39,9.3,20.87,20.87,0,0,1-3.05,6.36q-2,2.69-3.9,5.32a36.53,36.53,0,0,0-2.84,4.25,16.75,16.75,0,0,0-1.9,5.18,21.51,21.51,0,0,0-.09,6.76l.27,2.15ZM257,209.4a9.07,9.07,0,0,1-6.28-1.24,6.62,6.62,0,0,1-3-5,6.92,6.92,0,0,1,1.74-5.62,8.69,8.69,0,0,1,5.71-2.9,8.41,8.41,0,0,1,6.16,1.4,7.08,7.08,0,0,1,3,5,6.78,6.78,0,0,1-1.59,5.55A8.7,8.7,0,0,1,257,209.4Z"/><path class="cls-9" d="M244.33,189.06l-.69-5.42a24.9,24.9,0,0,1,.21-8.7,20.88,20.88,0,0,1,2.53-6.3,47.45,47.45,0,0,1,3.49-4.9,62.21,62.21,0,0,0,4.28-5.69,9.88,9.88,0,0,0,1.32-6.86,6.36,6.36,0,0,0-1.6-3.65,8.39,8.39,0,0,0-3-2.06,6.45,6.45,0,0,0-3.23-.48,8.59,8.59,0,0,0-4.79,2A11.35,11.35,0,0,0,240,151a31.55,31.55,0,0,0-1.63,4.77l-12.46-4a33.25,33.25,0,0,1,1.56-5,25.26,25.26,0,0,1,3.63-6.27,23.39,23.39,0,0,1,6.45-5.7,24.58,24.58,0,0,1,9.94-3.22,26.53,26.53,0,0,1,10.73.68,16.69,16.69,0,0,1,8.19,5.2q3.29,3.8,4.13,10.55a23,23,0,0,1-.39,9.3,21.09,21.09,0,0,1-3,6.36c-1.3,1.79-2.61,3.56-3.91,5.32a37.85,37.85,0,0,0-2.84,4.25,17.27,17.27,0,0,0-1.9,5.18,21.24,21.24,0,0,0-.08,6.76l.27,2.15Zm9.87,20.69a9.1,9.1,0,0,1-6.29-1.24,6.58,6.58,0,0,1-3-5,6.88,6.88,0,0,1,1.73-5.62,8.69,8.69,0,0,1,5.72-2.9,8.38,8.38,0,0,1,6.15,1.4,7.08,7.08,0,0,1,3,5,6.78,6.78,0,0,1-1.59,5.55A8.68,8.68,0,0,1,254.2,209.75Z"/><path class="cls-13" d="M101.69,479.88,60.13,453.54l12.2-24.92L42.68,417.47,21.85,464.11s29.45,13.43,49.86,21.15,35.09,8.15,35.09,8.15Z"/><polygon class="cls-11" points="229.19 455.34 235.82 500 101.47 500 111.59 463.73 229.19 455.34"/><path class="cls-13" d="M123.29,268.67v48.14l-11.7,5.78S132.73,359.9,151,348s18-32.39,18-32.39l-14.17-.58L153.7,298.3,130.85,265Z"/><path class="cls-13" d="M124.22,225.75c-2.37,7.18-2.81,15-2.59,22.64.45,15.17,5.49,30.44,12.28,43.59a38.66,38.66,0,0,0,6.44,9.43c7.39,7.58,21.06,9.31,29.75,3.69a35.43,35.43,0,0,0,8.18-7.78c6.59-8.24,8.34-19.36,10.2-31s3.84-23.91,2.13-34.82c-1-6.19-3.94-8.83-7.24-13.92a29.55,29.55,0,0,0-20.64-12.82c-8.25-1.16-16.54,1.05-24.39,3.72C131.52,210.8,126.58,218.62,124.22,225.75Z"/><path class="cls-11" d="M129,225.77a61.86,61.86,0,0,1-3.89,42.82,32.61,32.61,0,0,1-14.24-13.26,52,52,0,0,1-5.43-18.57c-.56-4.65-.65-9.54,1.27-13.81s6.31-7.71,11-7.21c.6-5.54,4.66-10.82,9.18-14.07s10-5,15.51-5.83A60.15,60.15,0,0,1,188,207.6c3.27,2.54,6.35,5.54,8,9.35s1.47,8.58-1.23,11.72c-3.2,3.72-8.72,4.12-13.63,4.23C162.52,233.34,145.76,233.72,129,225.77Z"/><path class="cls-13" d="M109.65,260.58a15,15,0,0,0,6.54,10.29,7.88,7.88,0,0,0,3.63,1.4c3,.21,5.62-2.21,6.52-5s.38-5.9-.51-8.72c-1.16-3.64-3.38-7.47-7.1-8.34C112.73,248.79,108.91,255.44,109.65,260.58Z"/><path class="cls-14" d="M123.29,268.67a7.26,7.26,0,0,1-3.35-2.17,1.53,1.53,0,0,1-.39-.7,1.69,1.69,0,0,1,.68-1.33l2.23-2.21a1.4,1.4,0,0,0,.36-.51,1.29,1.29,0,0,0-.07-.67c-.84-2.81-1.84-5.84-4.26-7.49a4,4,0,0,0-2.2-.79,4,4,0,0,0-3,1.56,11,11,0,0,0-1.64,3.1s-.62,6,3.55,9.63S123.29,268.67,123.29,268.67Z"/><path class="cls-11" d="M111.62,257.46a10,10,0,0,1,1.5-3.37,4.13,4.13,0,0,1,3.43-1.73,5.55,5.55,0,0,1,3.46,1.81,10.79,10.79,0,0,1,2.06,3.21,27.24,27.24,0,0,1,1.19,3.5,2.82,2.82,0,0,1,.12.56,1.28,1.28,0,0,1-.18.75,4.51,4.51,0,0,1-.71.76l-1.33,1.24a7.62,7.62,0,0,0-1.17,1.2.54.54,0,0,0,0,.55,3.21,3.21,0,0,0,.48.66,7.56,7.56,0,0,0,2.86,2.07A7,7,0,0,1,120,267a3.83,3.83,0,0,1-.67-.75,1.32,1.32,0,0,1,0-1.19,2.75,2.75,0,0,1,.6-.85l.62-.67,1.25-1.32a4.92,4.92,0,0,0,.51-.57s0-.14-.07-.45a33.92,33.92,0,0,0-1.2-3.35,10.22,10.22,0,0,0-1.8-2.92,4.88,4.88,0,0,0-2.74-1.67,3.58,3.58,0,0,0-2.92,1.2A11.19,11.19,0,0,0,111.62,257.46Z"/><path class="cls-6" d="M117.46,319.69S75,339.36,68.09,346,25,411.09,25,411.09s11.36,13,24.62,18.22,27.73,5.5,27.73,5.5L93,401.55l18.62,62.18s30,22,68.72,16.77,48.88-25.16,48.88-25.16L221.67,402s14.46-3.58,24-11.1,20.83-21.7,20.83-21.7-46-43.67-50.9-49.16-51.2-4.53-51.2-4.53,1.74,17.25-12.14,20.15S117.46,319.69,117.46,319.69Z"/><path class="cls-11" d="M154.38,308.05a31.81,31.81,0,0,1-13.87-7c-3.6-3-6.48-6.82-9.33-10.57a44.72,44.72,0,0,0,3.11,6.28,40.92,40.92,0,0,0,8.3,9.85,23,23,0,0,0,12,5.31"/><path class="cls-11" d="M157.4,254.74c0,2-1.13,3.68-2.52,3.68s-2.52-1.65-2.52-3.68,1.13-3.68,2.52-3.68S157.4,252.71,157.4,254.74Z"/><path class="cls-11" d="M182.81,254.74c0,2-1.13,3.68-2.52,3.68s-2.52-1.65-2.52-3.68,1.13-3.68,2.52-3.68S182.81,252.71,182.81,254.74Z"/><path class="cls-11" d="M170.33,250a38.91,38.91,0,0,1,2.7,6,47.5,47.5,0,0,1,1.76,6.41,48.67,48.67,0,0,1,.88,6.6,40.18,40.18,0,0,1-.15,6.67l-.05.5H175c-1.86,0-3.71-.1-5.57-.19s-3.71-.19-5.57-.35c1.86-.15,3.72-.26,5.57-.35s3.71-.14,5.57-.19l-.54.49a56.34,56.34,0,0,0-.77-13q-.54-3.23-1.38-6.39C171.74,254.16,171.1,252.06,170.33,250Z"/><ellipse class="cls-11" cx="169.05" cy="289.81" rx="4.69" ry="2"/><path class="cls-11" d="M143.66,248.57a15.59,15.59,0,0,1,3.33-5.08,18.39,18.39,0,0,1,5.06-3.64c.95-.46,1.91-.93,2.9-1.31a8.78,8.78,0,0,1,3.11-.57,10.55,10.55,0,0,1,6.08,1.76l0,.4a33.55,33.55,0,0,1-5.58,1.81,18.3,18.3,0,0,1-2.63.45,13.2,13.2,0,0,0-2.66.44,16.94,16.94,0,0,0-2.55.93,18.2,18.2,0,0,0-2.43,1.28,16.64,16.64,0,0,0-4.24,3.73Z"/><path class="cls-11" d="M188.32,248.75a16.61,16.61,0,0,0-3.71-3.64,17.22,17.22,0,0,0-4.42-2.29,11.55,11.55,0,0,0-2.39-.5,15.77,15.77,0,0,1-2.37-.47c-.79-.22-1.59-.45-2.43-.73a21.6,21.6,0,0,1-2.65-1l0-.38a7.78,7.78,0,0,1,2.7-1.28,10,10,0,0,1,2.92-.36,7.71,7.71,0,0,1,2.88.62,26.12,26.12,0,0,1,2.64,1.34,16.18,16.18,0,0,1,4.45,3.67,15,15,0,0,1,2.75,4.85Z"/><path class="cls-15" d="M111.59,322.59s22.36,22.06,43,17.42,16.07-24.62,16.07-24.62"/><path class="cls-11" d="M222.13,404c-.53-5.17-1.07-10.34-1.72-15.49s-1.32-10.3-2.16-15.42-1.69-10.24-2.65-15.34c-.48-2.55-1-5.1-1.51-7.65l-1.59-7.63c.75,2.49,1.4,5,2.07,7.53s1.21,5,1.78,7.59c1.12,5.09,2,10.21,2.88,15.35s1.46,10.31,1.94,15.49S222,398.77,222.13,404Z"/><path class="cls-15" d="M261.28,364.19s-7.81,13.2-16.74,19.52-23,11.9-23,11.9"/><path class="cls-11" d="M91.81,403.41a85.66,85.66,0,0,0,3.31-12.85A57.55,57.55,0,0,0,96,377.4a47,47,0,0,0-2.4-12.93A41.14,41.14,0,0,0,91,358.38a39.2,39.2,0,0,0-3.5-5.64,33.81,33.81,0,0,1,3.93,5.41,41.47,41.47,0,0,1,2.87,6.06A45,45,0,0,1,97,377.35a54.31,54.31,0,0,1-1.08,13.35A63.83,63.83,0,0,1,91.81,403.41Z"/><path class="cls-15" d="M28.1,406.11s6.86,9.4,21.74,16.65,30.36,6,30.36,6"/><g class="cls-16"><path class="cls-9" d="M118.49,211.32a34.43,34.43,0,0,0,9.88,3.81,51,51,0,0,0,10.52,1.2c7.08.16,14.13-.8,21.21-1.54,3.54-.33,7.11-.6,10.69-.61,1.78,0,3.58,0,5.36.18a33.08,33.08,0,0,1,5.33.77,17.8,17.8,0,0,1,9.44,5,12.26,12.26,0,0,1,2.65,4.68,9.08,9.08,0,0,1,.08,5.29,10.62,10.62,0,0,0-3.09-9.63,17.24,17.24,0,0,0-9.24-4.59c-6.93-1.28-14.09-.81-21.13-.09s-14.16,1.63-21.33,1.31a50.73,50.73,0,0,1-10.61-1.5A33,33,0,0,1,118.49,211.32Z"/><path class="cls-9" d="M125.72,202.62a29,29,0,0,0,3.53.91,29.35,29.35,0,0,0,3.61.42,38.94,38.94,0,0,0,7.24-.29,141.76,141.76,0,0,0,14.28-2.92c4.77-1,9.68-1.9,14.62-1.55a28.37,28.37,0,0,1,7.24,1.45,19.36,19.36,0,0,1,6.32,3.68,22.45,22.45,0,0,0-3.1-1.91,22.72,22.72,0,0,0-3.38-1.31A28.15,28.15,0,0,0,169,200a55.06,55.06,0,0,0-14.36,1.76c-4.76,1-9.51,2.26-14.42,2.7a39.34,39.34,0,0,1-7.36,0A25.07,25.07,0,0,1,125.72,202.62Z"/><path class="cls-9" d="M124.25,225a8.94,8.94,0,0,1,.07,3.68,16.22,16.22,0,0,1-1.16,3.53A24.27,24.27,0,0,1,113.27,243a22.41,22.41,0,0,1-6.86,2.63,33,33,0,0,0,3.33-1.47,26.12,26.12,0,0,0,3.12-1.81,29.93,29.93,0,0,0,5.45-4.65,29.16,29.16,0,0,0,4.16-5.81,16.17,16.17,0,0,0,1.37-3.31A9.73,9.73,0,0,0,124.25,225Z"/><path class="cls-9" d="M115.21,219.68a15.27,15.27,0,0,1-3.51,7.41,15.51,15.51,0,0,1-6.75,4.69l-.32.11.15-.28c.17-.31.35-.61.54-.91-.1.34-.19.68-.3,1l-.17-.17a26.11,26.11,0,0,0,6.1-5.1A26.87,26.87,0,0,0,115.21,219.68Z"/></g><path class="cls-13" d="M105.3,493.32s5.28-1.12,7.51-2.79,4.29-4.25,4.6-7c2.87.36,5,2.78,7.61,4a1.15,1.15,0,0,0,1,.12c.49-.24.44-.94.29-1.46a15.63,15.63,0,0,0-12.33-10.85,26.53,26.53,0,0,1,8.13,2c1.77.86,3.37,2.13,5.3,2.52a.83.83,0,0,0,.58,0,.7.7,0,0,0,.26-.54,3.49,3.49,0,0,0-1.53-2.7,29.29,29.29,0,0,0-15.33-7.13,25.14,25.14,0,0,1,16.8,2.8,3.93,3.93,0,0,0,1.63.63,1.2,1.2,0,0,0,1.28-1,1.48,1.48,0,0,0-.19-.71,12.15,12.15,0,0,0-5.17-5.09,26.7,26.7,0,0,0-18-3.38,26.34,26.34,0,0,1,17.35-.51,29.85,29.85,0,0,0,4.66,1.36.66.66,0,0,0,.54-.07c.26-.22.1-.63-.08-.91a16.53,16.53,0,0,0-11-6.9c-4.38-.75-9.39-.8-12.85,2a34.8,34.8,0,0,0-2.51,8.37c-.74,4.62-2.18,13.81-2.18,13.81l-4.39.22,7.13,13.14Z"/><path class="cls-13" d="M256,381.19a68.39,68.39,0,0,1-10.65,9.41,114.84,114.84,0,0,1-11.46,7.07l24.77,33.16-19.06,32.6s-3.21-8.57-4.85-12.88a34.45,34.45,0,0,0-4.08-7.57c-3.89-2-8.7-1-12.78.64a16.23,16.23,0,0,0-9.2,8.83c-.13.31-.2.74.1.89a.33.33,0,0,0,.15.05,3.54,3.54,0,0,0,2.27-.84,25.89,25.89,0,0,1,19.16-4.44,26.58,26.58,0,0,0-19.1,9.36,5.89,5.89,0,0,0-1.57,3.91.76.76,0,0,0,0,.21,1.17,1.17,0,0,0,1.42.67,3.76,3.76,0,0,0,1.45-.93,24.76,24.76,0,0,1,15.62-6,28.85,28.85,0,0,0-13.35,9.92,3.47,3.47,0,0,0-.94,2.91.72.72,0,0,0,.37.46.79.79,0,0,0,.56-.07c1.78-.76,3.08-2.3,4.6-3.49a26.48,26.48,0,0,1,7.44-3.57,15.36,15.36,0,0,0-9.72,12.91c-.05.53,0,1.22.56,1.35a1.15,1.15,0,0,0,.9-.3c2.28-1.7,3.84-4.45,6.53-5.36.85,2.61,3.34,4.69,5.83,5.85a12.92,12.92,0,0,0,5,1.16h0a19.94,19.94,0,0,0,12.79-5.33l42.4-46.84Z"/><path class="cls-11" d="M254.44,438a65.39,65.39,0,0,1,4.22-7.7,50,50,0,0,1,5.29-7,21.38,21.38,0,0,1,3.34-3,29.86,29.86,0,0,1,3.8-2.28,29.56,29.56,0,0,1,8.29-2.87,34.55,34.55,0,0,0-4.07,1.57,36.86,36.86,0,0,0-3.86,2,27.22,27.22,0,0,0-6.78,5.24,58.21,58.21,0,0,0-5.39,6.79c-.85,1.18-1.66,2.39-2.45,3.61S255.24,436.75,254.44,438Z"/><path class="cls-11" d="M67.29,458.08l-3-1.68c-1-.56-2-1.12-2.94-1.66a30.87,30.87,0,0,0-3-1.52,21,21,0,0,0-3.13-1.07A38,38,0,0,0,48.74,451,35.92,35.92,0,0,0,42,451a21,21,0,0,1,3.34-.65,32.58,32.58,0,0,1,3.42-.13,28.9,28.9,0,0,1,6.79,1,22.14,22.14,0,0,1,3.25,1.18,20.22,20.22,0,0,1,3,1.73A55,55,0,0,1,67.29,458.08Z"/><path class="cls-13" d="M318.36,360.08s-6.07-12.5-10.19-15.51-14.12-6.47-16-6.4-.88,3.94-.06,4.7,6.67,4.74,6.67,4.74-9.75-3.46-12-5.21-15-14.32-16.44-13.86-.15,5.64,1.81,7.86,13.62,12.68,13.62,12.68S266.46,333.46,265.12,334s-2.53,10.38,2.88,16.37,14.2,11,17.6,12.06,14.62,2.88,14.62,2.88l4.13,4.34Z"/><path class="cls-11" d="M298.72,347.55a22.73,22.73,0,0,0,4.59,11,11.25,11.25,0,0,1-3.79-4.89A11.44,11.44,0,0,1,298.72,347.55Z"/><path class="cls-11" d="M265.41,345.58a1,1,0,0,1,1.1-.84,2.44,2.44,0,0,1,1.36.67c.73.64,1.45,1.27,2.2,1.88,1.49,1.23,3,2.43,4.52,3.58s3.12,2.26,4.71,3.35,3.23,2.1,4.87,3.14a43,43,0,0,1-5.21-2.61,49.57,49.57,0,0,1-9.31-7c-.7-.67-1.39-1.37-2.06-2.06a2.23,2.23,0,0,0-1.11-.75A.92.92,0,0,0,265.41,345.58Z"/><path class="cls-11" d="M264.11,340.14a3.31,3.31,0,0,1,.65-1.46,1.26,1.26,0,0,1,.75-.43,1.31,1.31,0,0,1,.87.17,10.93,10.93,0,0,1,1.24,1l1.19,1c1.59,1.36,3.2,2.7,4.86,4s3.31,2.57,5,3.84,3.35,2.54,5,3.88c-1.82-1.06-3.59-2.19-5.34-3.37s-3.44-2.43-5.11-3.7-3.27-2.68-4.78-4.15l-1.12-1.12a13.64,13.64,0,0,0-1.1-1.07.94.94,0,0,0-1.25.07A3.66,3.66,0,0,0,264.11,340.14Z"/><polygon class="cls-13" points="300.22 365.33 330.88 465.88 348.18 430.51 318.36 360.08 300.22 365.33"/><path class="cls-13" d="M389.7,276.12s18.81-21.35,17.35-35.47a54.3,54.3,0,0,0-4.9-17.56,27.51,27.51,0,0,0-7.4-10.11c-4.21-3.33-9.62-4.63-14.81-6-7.64-2-15.48-4.37-23.31-3.27-5.81.81-11.3,3.24-16.5,5.95-6.55,3.41-9.11,10-11.52,17a67.74,67.74,0,0,0-3.92,21.72,30.85,30.85,0,0,1-.75,8.59c-1.26,4.41-9.64,11.26-9.64,11.26s5.71,3,8.55,3.61c1.09,3.74,2,6.95,2.91,10.11l.34,0c1.8,0,4.34.95,4.34,2.11,0,.93-2.05,1.69-3.38,1.95.72,2.12,1.53,4.28,2.54,6.66.76,1.79,3.39,6.49,5,7.59a9.5,9.5,0,0,0,5.69,1.22,41.19,41.19,0,0,0,16.65-4c.41,2.47.38,4.42.6,6.91a23.7,23.7,0,0,1,0,5.77c-.66,4.25-3.26,7.9-5.78,11.38,5.85,2.53,12.33,1.95,18.62,1,6.95-1.06,14.39-2.73,19-8,1.76,0,1.21-.31,1.74-2a21.07,21.07,0,0,0,.39-5.25Z"/><path class="cls-11" d="M391.5,307.29a58.6,58.6,0,0,1-20.1,10.6C360.1,321,353.57,319,353.57,319s-16.75,25.26-19.43,60.89S327.45,500,327.45,500H443.51L419.22,378l22.5-10.27s-9.42-23-18.61-37.73A52.18,52.18,0,0,0,391.5,307.29Z"/><polygon class="cls-13" points="429.79 373.21 398.75 387.09 414.27 434.6 388.76 500 409.27 500 441.45 432.51 429.79 373.21"/><path class="cls-9" d="M398.75,387.09l-6.56,3.32q-3.29,1.66-6.58,3.28l-.29.14-.12-.3c-2.19-5.47-4.27-11-6.17-16.56s-3.76-11.18-5.2-16.91a75.32,75.32,0,0,1-1.77-8.7,64.05,64.05,0,0,1-.53-8.86,85.43,85.43,0,0,1,1.88-17.56,101.34,101.34,0,0,0-1.21,17.56,75,75,0,0,0,.72,8.74,70.4,70.4,0,0,0,1.82,8.58c1.51,5.67,3.29,11.28,5.15,16.85.93,2.79,1.91,5.57,2.88,8.34s2,5.55,3,8.3l-.4-.16q3.33-1.54,6.69-3Z"/><path class="cls-11" d="M356.44,297.67a38.72,38.72,0,0,0,10.78-10.45,44.86,44.86,0,0,1-9.8,15.77Z"/><path class="cls-11" d="M335.23,255.39c0,1.8-1,3.27-2.17,3.27s-2.18-1.47-2.18-3.27,1-3.26,2.18-3.26S335.23,253.59,335.23,255.39Z"/><path class="cls-11" d="M342.15,252.6a15.08,15.08,0,0,0-6.77-6.29,37.94,37.94,0,0,0-4.27-1.21c-1.43-.45-2.88-.81-4.61-1.36l-.05-.29a7.78,7.78,0,0,1,5.17-1.31,10.17,10.17,0,0,1,4.94,2.08,14.21,14.21,0,0,1,3.76,3.65,14,14,0,0,1,2.11,4.62Z"/><path class="cls-11" d="M397,286.15a9.7,9.7,0,0,0,1.11,3c.4,1,.46,2.34-.41,3a2.82,2.82,0,0,1-2,.27,18.15,18.15,0,0,1-15-15.08c.07,1.22.14,2.44.22,3.66a2.15,2.15,0,0,1-.27,1.46,1.71,1.71,0,0,1-1.59.45c-2.1-.31-3.53-2.24-4.64-4a71.61,71.61,0,0,0-15.77-17.63s-6.05-13.25,4.8-28.66A33.26,33.26,0,0,1,348,239a4.44,4.44,0,0,1-2,0,1.63,1.63,0,0,1-1.21-1.5,2.3,2.3,0,0,1,.57-1.22,27.27,27.27,0,0,1,5.19-5.27c-7.08,3.5-15.62,4.56-23.51,4.86-1.07,0-2.47-.21-2.61-1.27a2.06,2.06,0,0,1,.48-1.36,13.72,13.72,0,0,1,3.29-3.38c-4.94,2.27-9.95,4.27-15.09,2.48a5.3,5.3,0,0,1-2.87-2,2.63,2.63,0,0,1,.31-3.28,4.63,4.63,0,0,1,1.48-.72c6.86-2.55,10.69-9.63,15.63-15a39.59,39.59,0,0,1,25.19-12.56,14.52,14.52,0,0,1-4.35-2.69,2.63,2.63,0,0,1-1.15-1.91c0-1.15,1.34-1.78,2.45-2.11A43,43,0,0,1,399,211.31c-.12-2.31-.26-4.22-.38-6.53-.07-1.24.09-2.82,1.27-3.19a2.42,2.42,0,0,1,2.23.79c2.71,2.54,3,6.67,3.1,10.38a17.59,17.59,0,0,1,6.13,2.67,9,9,0,0,1,3.85,5.55c.06.33.06.74-.22.93a.9.9,0,0,1-.67.06,55.76,55.76,0,0,1-7.12-1.67c5.86,5.24,8.13,14,7.5,21.88s-3.84,15.23-7.5,22.2S396.65,278.29,397,286.15Z"/><g class="cls-17"><path class="cls-9" d="M327.2,229.57a10.29,10.29,0,0,0,5.47-2.87,54.58,54.58,0,0,0,4.45-4.42c2.85-3.08,5.54-6.36,8.86-9.05a25.3,25.3,0,0,1,24.26-4.11l-.54.75a10.74,10.74,0,0,1-1.33-2.2,10.23,10.23,0,0,1-.46-1.2,4.89,4.89,0,0,1-.27-1.35,1.73,1.73,0,0,1,.71-1.42,2.77,2.77,0,0,1,1.37-.48,10,10,0,0,1,2.58.18c3.36.6,6.29,2.25,9.19,3.79A158.07,158.07,0,0,1,398,218c-5.53-3.55-11-7.17-16.83-10.18-2.92-1.46-5.86-3-9-3.55a9.81,9.81,0,0,0-2.33-.15,1.87,1.87,0,0,0-.93.32.79.79,0,0,0-.33.69,3.89,3.89,0,0,0,.23,1.07,11.2,11.2,0,0,0,.43,1.09,9.7,9.7,0,0,0,1.23,2l1,1.3-1.57-.55A25.11,25.11,0,0,0,357.72,209a24.35,24.35,0,0,0-11.23,4.92c-3.29,2.54-6.06,5.73-9,8.76a49.75,49.75,0,0,1-4.65,4.29A10.16,10.16,0,0,1,327.2,229.57Z"/><path class="cls-9" d="M395.2,222.24a22.54,22.54,0,0,0-11.86-3.45,24.87,24.87,0,0,0-6.13.83,38.83,38.83,0,0,0-5.87,2.12c-3.84,1.64-7.55,3.68-11.42,5.37q-2.9,1.29-5.82,2.49c-2,.77-3.93,1.55-5.92,2.23,1.91-.89,3.83-1.76,5.72-2.68s3.81-1.79,5.69-2.73l5.64-2.83c1.88-1,3.77-1.91,5.71-2.77,3.89-1.65,8.09-3,12.42-2.8a21.9,21.9,0,0,1,6.27,1.2A20.57,20.57,0,0,1,395.2,222.24Z"/><path class="cls-9" d="M399.36,225.59a23.15,23.15,0,0,1,4.33,16,23.58,23.58,0,0,1-7.64,14.94l-.37-.84a2.07,2.07,0,0,1,1.52.45,3.51,3.51,0,0,1,.88,1.17,5.39,5.39,0,0,1,.45,2.66,14.12,14.12,0,0,1-1.22,5c-1.32,3.15-3.33,5.86-4.4,8.93a15.68,15.68,0,0,0-.18,9.63,16.19,16.19,0,0,0,5.32,8.17,15.91,15.91,0,0,1-5.82-8,16.47,16.47,0,0,1-.1-10c1.08-3.26,3.1-6,4.32-9a13.49,13.49,0,0,0,1.1-4.67,4.61,4.61,0,0,0-.37-2.21c-.3-.67-.82-1.15-1.4-1.08l-1.55.19,1.17-1A23.46,23.46,0,0,0,403,241.55,24,24,0,0,0,399.36,225.59Z"/><path class="cls-9" d="M381.54,279.63a54.3,54.3,0,0,1-2.7-13.62,50.34,50.34,0,0,1,1-13.9,44.09,44.09,0,0,1,5.18-13,42.2,42.2,0,0,1,4.12-5.64,36.17,36.17,0,0,1,5.08-4.74,40.92,40.92,0,0,0-4.71,5.06,42.15,42.15,0,0,0-3.83,5.71,46.11,46.11,0,0,0-4.87,12.77A52.57,52.57,0,0,0,379.61,266,68.14,68.14,0,0,0,381.54,279.63Z"/></g><path class="cls-13" d="M375.75,258.11a15,15,0,0,1-6.54,10.29,7.88,7.88,0,0,1-3.63,1.4c-2.95.21-5.62-2.21-6.52-5s-.38-5.89.52-8.71c1.15-3.65,3.37-7.47,7.09-8.34C372.67,246.31,376.49,253,375.75,258.11Z"/><path class="cls-14" d="M362.11,266.2a7.42,7.42,0,0,0,3.35-2.17,1.44,1.44,0,0,0,.39-.7c.09-.51-.31-1-.68-1.33-.74-.74-1.48-1.48-2.23-2.21a1.26,1.26,0,0,1-.35-.51,1.22,1.22,0,0,1,.06-.68c.85-2.8,1.84-5.83,4.26-7.48a4.13,4.13,0,0,1,2.2-.8,4,4,0,0,1,3,1.56,11.16,11.16,0,0,1,1.64,3.11s.62,6-3.55,9.63S362.11,266.2,362.11,266.2Z"/><path class="cls-11" d="M373.78,255a11.19,11.19,0,0,0-1.93-3,3.55,3.55,0,0,0-2.92-1.2,4.83,4.83,0,0,0-2.74,1.67,10.05,10.05,0,0,0-1.79,2.91,32.57,32.57,0,0,0-1.21,3.36c-.1.31-.11.4-.07.45a4.92,4.92,0,0,0,.51.57l1.25,1.32.62.67a2.75,2.75,0,0,1,.6.85,1.32,1.32,0,0,1-.05,1.19,3.83,3.83,0,0,1-.67.75,7,7,0,0,1-3.27,1.67,7.56,7.56,0,0,0,2.86-2.07,3.21,3.21,0,0,0,.48-.66.56.56,0,0,0,0-.56,7.2,7.2,0,0,0-1.17-1.19l-1.33-1.24a4.94,4.94,0,0,1-.71-.76A1.3,1.3,0,0,1,362,259a2.87,2.87,0,0,1,.12-.55,27.24,27.24,0,0,1,1.19-3.5,10.66,10.66,0,0,1,2.06-3.21,5.61,5.61,0,0,1,3.46-1.82,4.19,4.19,0,0,1,3.43,1.73A10,10,0,0,1,373.78,255Z"/></g></g></svg>