<svg id="Layer_1" data-name="Layer 1" xmlns="http://www.w3.org/2000/svg" viewBox="0 0 400 120"><defs><style>.cls-1{font-size:46.02px;}.cls-1,.cls-11,.cls-6{fill:#fff;}.cls-1,.cls-6{font-family:MyriadPro-Regular, Myriad Pro;}.cls-2{letter-spacing:-0.01em;}.cls-3{letter-spacing:0em;}.cls-4{letter-spacing:-0.01em;}.cls-5{letter-spacing:-0.02em;}.cls-6{font-size:17.47px;}.cls-7{letter-spacing:0em;}.cls-8{letter-spacing:0.01em;}.cls-9{letter-spacing:0em;}.cls-10{letter-spacing:0em;}.cls-11{fill-rule:evenodd;}</style></defs><text class="cls-1" transform="translate(177.58 64.5)"><tspan class="cls-2">C</tspan><tspan class="cls-3" x="26.37" y="0">a</tspan><tspan class="cls-4" x="48.55" y="0">r</tspan><tspan x="63.14" y="0">eli</tspan><tspan class="cls-5" x="107.82" y="0">x</tspan><tspan x="128.44" y="0">er </tspan></text><text class="cls-6" transform="translate(211.91 92.76)"><tspan class="cls-7">B</tspan><tspan x="9.54" y="0">eau</tspan><tspan class="cls-8" x="36.34" y="0">t</tspan><tspan class="cls-9" x="42.28" y="0">y </tspan><tspan class="cls-10" x="54.21" y="0">A</tspan><tspan x="64.86" y="0">nd Spa</tspan></text><path class="cls-11" d="M77.82,29.42q1.71-1.52,3.58-3,8-8.32,2.31-21.33a23.11,23.11,0,0,1-4.63,9.76c-2.76,2.22-3.69,5.81-2.76,10.75q3.78-2.64,6.83-10.48c-2.84,11.22-7.69,11.61-14.28,19,.34-5.15-2.21-9.82-9.5-12.25,1.86,1.89,2.77,3.79,2.75,5.71-.27,3.6,1.42,5.95,3.83,6.73a15.61,15.61,0,0,0-.39-5.86c1.49,3.69,1.79,5.72,1.65,7.63-.14.34-6.82,7.44-10.08,21.12C52.58,46.74,43.5,40.42,29.66,47.42q6,0,9,3.15c3.55,4.16,7.87,4.85,11.28,3.08a23.63,23.63,0,0,0-6.66-5.86c9.05,3.86,9.93,6.36,13.42,11.28a44.3,44.3,0,0,0,2.06,24.1C53.33,77.68,46.71,79.23,39.55,88c3.33-1.26,6.18-1.34,8.52-.24,4.28,2.33,7.56,2.23,9.86-.34a18.83,18.83,0,0,0-7-2.54,14.67,14.67,0,0,1,10.52,3.9A43.63,43.63,0,1,0,104.25,24c19.83,3,34.51,18.77,34.51,39.27a39.27,39.27,0,0,1-75.95,14.3c-.65-6.7,1.91-13.28,8-19.49,2.07-2.13,5-3.28,8.17-4.4q-3.34,2.56-7.54,5.72c9,2.71,8.9-5,18.14-5.41-10.13-6.65-17-5.32-20.39,2.48A30.16,30.16,0,0,0,60.9,71c-3.31-16.89,4.62-37.7,23.29-40.32A19.46,19.46,0,0,0,77.51,34c2.4,2.17,6,2.55,9.82,0,2.1-1.25,4.76-1.45,8-.59C91.3,29.69,82.87,25.66,77.82,29.42Z"/><path class="cls-11" d="M98.5,49.79a10.08,10.08,0,0,1,3-7.2,10.11,10.11,0,0,1,1.09,13.15c-1-1.36-1-4.09-1.09-6a16.2,16.2,0,0,0-.4,5.35,12.86,12.86,0,0,0-2.62-4.82C98.5,50.14,98.5,50,98.5,49.79Zm-1,.63a9.94,9.94,0,0,0-7.2-2.93,10,10,0,0,0,8.46,10.07c-.25-1.67-2.14-3.63-3.4-5a17.45,17.45,0,0,1,3.22,2.57c1.49,1.63,2.22,3.36,1.61,4.87-.37.9-2.2.69-3.34,1.82a7.12,7.12,0,0,0-2,4.85,6.7,6.7,0,0,0,6.5-4.77l0,0c.53-1.34,0-2,1.59-3.83a11.78,11.78,0,0,1,1.81-1.39c-.84.91-2.11,2.22-2.28,3.33a6.7,6.7,0,0,0,5.67-6.74,6.76,6.76,0,0,0-4.82,2C101,57.66,102,60,100.55,61.47a11.46,11.46,0,0,1-2.24,1.81,14.85,14.85,0,0,0,1.81-2.2C102,58,99.79,52.69,97.52,50.42Zm-4.57,5a9.9,9.9,0,0,0-7.16,3,9.95,9.95,0,0,0,13.06,1.1c-1.35-1-4.07-1.05-5.9-1.1a15.42,15.42,0,0,1,5.4-.38,9.9,9.9,0,0,1-5.16-2.66Zm29.72,3.87q9.55,5.93,5.1,8-5.44,3.45-1.63,7a1.92,1.92,0,0,1-.17,2.86c-.56.65-.51,1.21.15,1.67.82,1.22.57,2.28-.78,3.18-.66.84-.82,2.28-.46,4.32q.51,7.44-6.91,6.51c-15.38-2.07-23-2.15-23,10-13.43-12.28-6.16-23.46,1.25-34.11a13.29,13.29,0,0,0,8.88-6.4c-11,19.08-16.35,22.89-11.9,36C90,81.38,122.73,64.38,101.08,28,121.93,38.5,116.61,54.27,122.67,59.25Z"/></svg>